<svg width="206" height="206" viewBox="0 0 206 206" fill="none" xmlns="http://www.w3.org/2000/svg">
<path d="M122.312 38.625H45.0625C41.509 38.625 38.625 41.509 38.625 45.0625C38.625 48.616 41.509 51.5 45.0625 51.5H122.312C125.866 51.5 128.75 48.616 128.75 45.0625C128.75 41.509 125.866 38.625 122.312 38.625Z" fill="#ECF4FA"/>
<path d="M96.5625 64.375H45.0625C41.509 64.375 38.625 67.259 38.625 70.8125C38.625 74.366 41.509 77.25 45.0625 77.25H96.5625C100.116 77.25 103 74.366 103 70.8125C103 67.259 100.116 64.375 96.5625 64.375Z" fill="#ECF4FA"/>
<path d="M141.625 0H25.75C11.5489 0 0 11.5489 0 25.75V154.5C0 156.998 1.442 159.277 3.708 160.332C4.57062 160.732 5.5105 160.938 6.4375 160.938C7.91813 160.938 9.38587 160.423 10.5575 159.444L47.3929 128.75H141.625C155.826 128.75 167.375 117.201 167.375 103V25.75C167.375 11.5489 155.826 0 141.625 0ZM154.5 103C154.5 110.094 148.732 115.875 141.625 115.875H45.0625C43.5561 115.875 42.1012 116.403 40.9425 117.368L12.875 140.762V25.75C12.875 18.6559 18.643 12.875 25.75 12.875H141.625C148.732 12.875 154.5 18.6559 154.5 25.75V103Z" fill="#ECF4FA"/>
<path d="M180.25 51.5C176.697 51.5 173.812 54.384 173.812 57.9375C173.812 61.491 176.697 64.375 180.25 64.375C187.357 64.375 193.125 70.1559 193.125 77.25V186.16L171.392 168.778C170.259 167.877 168.83 167.375 167.375 167.375H77.25C70.143 167.375 64.375 161.594 64.375 154.5V148.062C64.375 144.509 61.491 141.625 57.9375 141.625C54.384 141.625 51.5 144.509 51.5 148.062V154.5C51.5 168.701 63.0489 180.25 77.25 180.25H165.109L195.533 204.597C196.704 205.524 198.133 206 199.562 206C200.502 206 201.455 205.794 202.356 205.369C204.584 204.288 206 202.035 206 199.562V77.25C206 63.0489 194.451 51.5 180.25 51.5Z" fill="#ECF4FA"/>
</svg>
