<svg width="24" height="24" viewBox="0 0 24 24" fill="none" xmlns="http://www.w3.org/2000/svg">
<path fill-rule="evenodd" clip-rule="evenodd" d="M23 12.2C23 11.9 23.3 11.7 23.5 11.7C23.8 11.7 24 11.9 23.9 12.2V21.5C23.9 22.9 22.8 24 21.4 24H2.5C1.1 24 0 22.9 0 21.4V2.5C0 1.1 1.1 0 2.6 0H11.6C11.8 0 12 0.1 12 0.4C12 0.7 11.7 0.9 11.5 0.9H2.5C1.6 0.9 0.9 1.6 0.9 2.5V21.5C0.9 22.4 1.6 23.1 2.5 23.1H21.4C22.3 23.1 23 22.4 23 21.5V12.2ZM20.4 0.3L23.7 3.6C23.9 3.9 24 4.1 24 4.5C24 4.8 23.9 5.1 23.7 5.3L12.7 16.3C12.5 16.5 12.2 16.6 11.9 16.6H8.6C7.9 16.6 7.4 16 7.4 15.4V12.1C7.4 11.8 7.5 11.5 7.7 11.3L18.7 0.3C18.9 0.1 19.2 0 19.5 0C19.9 0 20.1 0.1 20.4 0.3ZM21.2 6.5L23 4.7C23.0575 4.6425 23.0819 4.61806 23.0923 4.58866C23.1 4.56693 23.1 4.5425 23.1 4.5C23.1 4.4575 23.1 4.43307 23.0923 4.41134C23.0819 4.38194 23.0575 4.3575 23 4.3L19.7 1C19.6425 0.942495 19.6181 0.918058 19.5887 0.907674C19.5669 0.9 19.5425 0.9 19.5 0.9C19.4575 0.9 19.4331 0.9 19.4113 0.907674C19.3819 0.918058 19.3575 0.942495 19.3 1L17.5 2.8C17.5 2.8618 17.5382 2.88541 17.591 2.91803C17.6236 2.9382 17.6618 2.9618 17.7 3L21 6.3C21.1 6.3 21.2 6.4 21.2 6.5ZM11.9 15.7C12 15.7 12 15.7 12.1 15.6L20.4 7.2C20.5 7.2 20.5 7.1 20.5 7V6.8L17.2 3.5C17.1 3.4 16.9 3.4 16.8 3.5L12.2 8.1L8.4 11.9C8.3 11.9 8.3 12 8.3 12.1V15.4C8.3 15.6 8.4 15.7 8.6 15.7H11.9Z" fill="#6E7C8D"/>
</svg>
