<svg width="10" height="11" viewBox="0 0 10 11" fill="none" xmlns="http://www.w3.org/2000/svg">
<g clip-path="url(#clip0)">
<path d="M5 0.980469C2.23627 0.980469 0 3.21693 0 5.98047C0 8.7442 2.23646 10.9805 5 10.9805C7.76373 10.9805 10 8.744 10 5.98047C10 3.21674 7.76352 0.980469 5 0.980469ZM5 10.1992C2.66811 10.1992 0.78125 8.31221 0.78125 5.98047C0.78125 3.64857 2.66826 1.76172 5 1.76172C7.33189 1.76172 9.21875 3.64873 9.21875 5.98047C9.21875 8.31236 7.33172 10.1992 5 10.1992Z" fill="#254854"/>
<path d="M5 5.16699C4.78426 5.16699 4.60938 5.34188 4.60938 5.55762V8.07312C4.60938 8.28886 4.78426 8.46375 5 8.46375C5.21574 8.46375 5.39062 8.28884 5.39062 8.0731V5.55762C5.39062 5.34188 5.21574 5.16699 5 5.16699Z" fill="#254854"/>
<path d="M5 4.68848C5.29124 4.68848 5.52734 4.45238 5.52734 4.16113C5.52734 3.86989 5.29124 3.63379 5 3.63379C4.70876 3.63379 4.47266 3.86989 4.47266 4.16113C4.47266 4.45238 4.70876 4.68848 5 4.68848Z" fill="#254854"/>
</g>
<defs>
<clipPath id="clip0">
<rect width="10" height="10" fill="white" transform="translate(0 0.980469)"/>
</clipPath>
</defs>
</svg>
