<svg width="304" height="196" viewBox="0 0 304 196" fill="none" xmlns="http://www.w3.org/2000/svg">
<path opacity="0.501837" d="M167.481 44.6621C172.646 44.6621 176.833 48.8491 176.833 54.014C176.833 59.1788 172.646 63.3658 167.481 63.3658V63.8658V64.3658H257.556C262.72 64.3658 266.907 68.5528 266.907 73.7177C266.907 78.8825 262.72 83.0695 257.556 83.0695V83.5695V84.0695H288.519C293.683 84.0695 297.87 88.2565 297.87 93.4214C297.87 98.5863 293.683 102.773 288.519 102.773H261.778C256.061 102.773 251.426 107.408 251.426 113.125C251.426 118.842 256.061 123.477 261.778 123.477H270.222C275.387 123.477 279.574 127.664 279.574 132.829C279.574 137.994 275.387 142.181 270.222 142.181H64.7407C59.5759 142.181 55.3889 137.994 55.3889 132.829C55.3889 127.664 59.5759 123.477 64.7407 123.477V122.977V122.477H9.85185C4.68697 122.477 0.5 118.29 0.5 113.125C0.5 107.96 4.68697 103.773 9.85185 103.773H66.1481C71.8653 103.773 76.5 99.1385 76.5 93.4214C76.5 87.7042 71.8653 83.0695 66.1481 83.0695H30.963C25.7981 83.0695 21.6111 78.8825 21.6111 73.7177C21.6111 68.5528 25.7981 64.3658 30.963 64.3658H87.2593V63.8658V63.3658C82.0944 63.3658 77.9074 59.1788 77.9074 54.014C77.9074 48.8491 82.0944 44.6621 87.2593 44.6621H167.481ZM294.148 123.477C299.313 123.477 303.5 127.664 303.5 132.829C303.5 137.994 299.313 142.181 294.148 142.181C288.983 142.181 284.796 137.994 284.796 132.829C284.796 127.664 288.983 123.477 294.148 123.477Z" fill="#AFC5CB" stroke="#EBF0F2"/>
<path fill-rule="evenodd" clip-rule="evenodd" d="M196.859 154.107C201.135 151.356 204.937 147.923 207.41 145.151L196.859 154.107ZM211.401 140.545C213.447 138.04 215.286 135.419 216.917 132.707C220.506 126.742 223.093 120.333 224.674 113.726C226.273 107.044 226.843 100.158 226.381 93.3227C225.977 87.3581 224.787 81.4318 222.808 75.712C220.844 70.0373 218.104 64.5659 214.584 59.4622C212.487 56.421 210.113 53.5103 207.462 50.7649C203.569 46.7343 199.3 43.2884 194.764 40.4294C189.89 37.3576 184.707 34.9633 179.353 33.2492C172.648 31.1026 165.674 30.0227 158.699 30.0149C153.271 30.0088 147.843 30.6516 142.541 31.9459C136.572 33.4029 130.762 35.6855 125.291 38.7972C120.482 41.5325 115.936 44.9085 111.774 48.9274C106.544 53.978 102.308 59.6713 99.0687 65.7644C95.8976 71.7298 93.6826 78.0784 92.4272 84.5821C91.1339 91.2826 90.8591 98.1478 91.6069 104.928C92.5762 113.717 95.2632 122.363 99.6765 130.323C102.5 135.417 106.031 140.231 110.271 144.621C117.002 151.591 124.86 156.812 133.276 160.274C143.511 164.483 154.572 166.091 165.434 165.077C174.551 164.225 183.528 161.527 191.761 156.97" fill="white"/>
<path d="M211.401 140.545C213.447 138.04 215.286 135.419 216.917 132.707C220.506 126.742 223.093 120.333 224.674 113.726C226.273 107.044 226.843 100.158 226.381 93.3227C225.977 87.3581 224.787 81.4318 222.808 75.712C220.844 70.0373 218.104 64.5659 214.584 59.4622C212.487 56.421 210.113 53.5103 207.462 50.7649C203.569 46.7343 199.3 43.2884 194.764 40.4294C189.89 37.3576 184.707 34.9633 179.353 33.2492C172.648 31.1026 165.674 30.0227 158.699 30.0149C153.271 30.0088 147.843 30.6516 142.541 31.9459C136.572 33.4029 130.762 35.6855 125.291 38.7972C120.482 41.5325 115.936 44.9085 111.774 48.9274C106.544 53.978 102.308 59.6713 99.0687 65.7644C95.8976 71.7298 93.6826 78.0784 92.4272 84.5821C91.1339 91.2826 90.8591 98.1478 91.6069 104.928C92.5762 113.717 95.2632 122.363 99.6765 130.323C102.5 135.417 106.031 140.231 110.271 144.621C117.002 151.591 124.86 156.812 133.276 160.274C143.511 164.483 154.572 166.091 165.434 165.077C174.551 164.225 183.528 161.527 191.761 156.97M196.859 154.107C201.135 151.356 204.937 147.923 207.41 145.151L196.859 154.107Z" stroke="#386D7D" stroke-width="2.5" stroke-linecap="round"/>
<path fill-rule="evenodd" clip-rule="evenodd" d="M224.481 17.4199V25.8644V17.4199ZM224.481 37.1236V45.5681V37.1236ZM210.407 31.494H218.852H210.407ZM230.111 31.494H238.555H230.111Z" fill="#ECEEF2"/>
<path d="M230.111 31.494H238.555M224.481 17.4199V25.8644V17.4199ZM224.481 37.1236V45.5681V37.1236ZM210.407 31.494H218.852H210.407Z" stroke="#7096A1" stroke-width="2.5" stroke-linecap="round" stroke-linejoin="round"/>
<path fill-rule="evenodd" clip-rule="evenodd" d="M107.666 162.383V168.012V162.383ZM107.666 179.272V184.901V179.272ZM96.4072 173.642H102.037H96.4072ZM113.296 173.642H118.926H113.296Z" fill="#ECEEF2"/>
<path d="M113.296 173.642H118.926M107.666 162.383V168.012V162.383ZM107.666 179.272V184.901V179.272ZM96.4072 173.642H102.037H96.4072Z" stroke="#7096A1" stroke-width="2.5" stroke-linecap="round" stroke-linejoin="round"/>
<path d="M132.268 96.7536C130.219 94.9073 127.039 95.0491 125.167 97.0702C123.295 99.0914 123.438 102.226 125.488 104.073L149.144 125.382C152.014 127.967 156.465 127.768 159.086 124.939C159.195 124.819 159.195 124.819 159.301 124.695L193.06 84.6569C194.835 82.552 194.543 79.4268 192.409 77.6767C190.274 75.9266 187.105 76.2141 185.33 78.3191L153.591 115.961L132.268 96.7536Z" fill="#AFC5CB" stroke="#386D7D" stroke-width="2.5"/>
<path fill-rule="evenodd" clip-rule="evenodd" d="M112.117 68.5273C110.84 70.6834 109.732 72.9209 108.81 75.228L112.117 68.5273Z" fill="#ECEEF2"/>
<path d="M112.117 68.5273C110.84 70.6834 109.732 72.9209 108.81 75.228" stroke="#7096A1" stroke-width="2.5" stroke-linecap="round"/>
<path fill-rule="evenodd" clip-rule="evenodd" d="M137.957 45.6738C128.735 50.0752 120.949 56.3014 115.322 63.7549L137.957 45.6738Z" fill="#ECEEF2"/>
<path d="M137.957 45.6738C128.735 50.0752 120.949 56.3014 115.322 63.7549" stroke="#7096A1" stroke-width="2.5" stroke-linecap="round"/>
</svg>
