<svg width="41" height="40" viewBox="0 0 41 40" fill="none" xmlns="http://www.w3.org/2000/svg">
<path fill-rule="evenodd" clip-rule="evenodd" d="M30.5001 20.2C30.5001 19.6 31.0001 19.2 31.5001 19.2C31.8001 19.2 32.1001 19.3 32.3001 19.6C32.4001 19.8 32.5001 20.1 32.4001 20.3V29.1C32.4001 30.7 31.1001 32 29.5001 32H11.5001C9.8001 32 8.6001 30.7 8.6001 29V10.9C8.6001 9.2 9.9001 8 11.6001 8H20.2001C20.7001 8 21.1001 8.4 21.1001 8.9C21.1001 9.5 20.6001 9.9 20.1001 9.9H11.5001C11.0001 9.9 10.5001 10.3 10.5001 10.9V29C10.5001 29.5 10.9001 30 11.5001 30H29.5001C30.0001 30 30.5001 29.6 30.5001 29V20.2ZM15.7001 23.2V20C15.7001 19.6 15.8001 19.2 16.1001 18.9L26.6001 8.4C26.9001 8.2 27.3001 8 27.7001 8C28.2001 8 28.5001 8.1 28.8001 8.4H28.9001L32.1001 11.6C32.4001 12 32.5001 12.3 32.5001 12.8C32.5001 13.2 32.3001 13.6 32.1001 13.9L21.6001 24.4C21.3001 24.6 20.9001 24.8 20.5001 24.8H17.3001C16.4001 24.8 15.7001 24 15.7001 23.2ZM27.7001 10L26.5001 11.2L29.3001 14L30.6001 12.9L27.7001 10ZM17.5001 20.1V23H20.3001L28.2001 15.1L25.4001 12.3L17.5001 20.1Z" fill="#7096A1"/>
</svg>
