<svg width="24" height="24" viewBox="0 0 24 24" fill="none" xmlns="http://www.w3.org/2000/svg">
<g opacity="0.9">
<rect width="24" height="24" rx="8" fill="#254854"/>
<path fill-rule="evenodd" clip-rule="evenodd" d="M14.1602 7.40144L14.2002 7.36144C14.4802 7.12144 14.8402 7.16144 15.0802 7.40144L16.6002 8.92144L16.6402 8.96144C16.8802 9.20144 16.8402 9.60144 16.6002 9.84144L15.5602 10.8814L13.1202 8.44144L14.1602 7.40144ZM7.3202 14.2414L12.8002 8.76144L15.2402 11.2014L9.8002 16.6814L9.7602 16.7214C9.6802 16.7614 9.5602 16.8014 9.4802 16.8014H7.5202C7.3202 16.8014 7.2002 16.6814 7.2002 16.4814V14.5614V14.5214C7.2002 14.4014 7.2402 14.3214 7.3202 14.2414Z" fill="white"/>
</g>
</svg>
