<svg width="56" height="56" viewBox="0 0 56 56" fill="none" xmlns="http://www.w3.org/2000/svg">
<path fill-rule="evenodd" clip-rule="evenodd" d="M15.4002 16.8008C13.0806 16.8008 11.2002 18.6812 11.2002 21.0008V22.4008V25.2008V26.6008V35.0008C11.2002 37.3204 13.0806 39.2008 15.4002 39.2008H40.6002C42.9198 39.2008 44.8002 37.3204 44.8002 35.0008V26.6008V25.2008V22.4008V21.0008C44.8002 18.6812 42.9198 16.8008 40.6002 16.8008H15.4002ZM43.4002 25.2008V22.4008H12.6002V25.2008H43.4002ZM12.6002 26.6008V35.0008C12.6002 36.5472 13.8538 37.8008 15.4002 37.8008H40.6002C42.1466 37.8008 43.4002 36.5472 43.4002 35.0008V26.6008H12.6002ZM40.6002 18.2008C42.1466 18.2008 43.4002 19.4544 43.4002 21.0008H12.6002C12.6002 19.4544 13.8538 18.2008 15.4002 18.2008H40.6002ZM15.4002 29.4008H23.8002V30.8008H15.4002V29.4008ZM23.8002 32.2008H15.4002V33.6008H23.8002V32.2008Z" fill="#386D7D"/>
</svg>
