<svg width="24" height="24" viewBox="0 0 24 24" fill="none" xmlns="http://www.w3.org/2000/svg">
<path fill-rule="evenodd" clip-rule="evenodd" d="M11.9998 4.80078C8.02003 4.80078 4.7998 8.02129 4.7998 12.0008C4.7998 15.9806 8.02031 19.2008 11.9998 19.2008C15.9796 19.2008 19.1998 15.9803 19.1998 12.0008C19.1998 8.02101 15.9793 4.80078 11.9998 4.80078ZM11.9998 18.0758C8.64188 18.0758 5.9248 15.3585 5.9248 12.0008C5.9248 8.64285 8.6421 5.92578 11.9998 5.92578C15.3577 5.92578 18.0748 8.64308 18.0748 12.0008C18.0748 15.3587 15.3575 18.0758 11.9998 18.0758ZM11.9998 8.42546C11.6891 8.42546 11.4373 8.67729 11.4373 8.98796V12.6103C11.4373 12.9209 11.6891 13.1728 11.9998 13.1728C12.3105 13.1728 12.5623 12.9209 12.5623 12.6103V8.98796C12.5623 8.67729 12.3105 8.42546 11.9998 8.42546ZM12.7592 14.6209C12.7592 15.0403 12.4192 15.3803 11.9998 15.3803C11.5804 15.3803 11.2404 15.0403 11.2404 14.6209C11.2404 14.2016 11.5804 13.8616 11.9998 13.8616C12.4192 13.8616 12.7592 14.2016 12.7592 14.6209Z" fill="#E42526"/>
</svg>
