<svg width="56" height="56" viewBox="0 0 56 56" fill="none" xmlns="http://www.w3.org/2000/svg">
<path d="M39.195 27.7194C38.7749 29.3774 38.0566 30.649 36.9995 31.6068C35.9873 32.5237 34.6861 33.1108 33.0216 33.4015C32.0632 33.5689 31.078 33.5846 30.2409 33.5778C30.2305 33.5777 30.2203 33.5777 30.21 33.5777C29.0832 33.5777 28.4463 34.0841 28.2638 35.1248C28.0563 36.3078 27.8562 37.511 27.6627 38.6747C27.5672 39.2489 27.4717 39.823 27.3751 40.3968C27.3453 40.574 27.3171 40.7412 27.2733 40.8946C27.2237 41.0683 27.0807 41.2546 26.8278 41.2562C25.3121 41.2666 23.7459 41.2668 22.0398 41.2567C22.0096 41.2565 21.9904 41.2527 21.9811 41.2499C21.9729 41.2316 21.9603 41.178 21.9749 41.0849C22.0357 40.6954 22.103 40.2984 22.1681 39.9144C22.2094 39.6705 22.2508 39.4267 22.2909 39.1827C22.3068 39.0863 22.3149 38.9934 22.3221 38.9114C22.3244 38.8853 22.3267 38.8591 22.3293 38.8331C22.3711 38.6039 22.4133 38.3749 22.4556 38.1458C22.5512 37.6285 22.65 37.0935 22.7413 36.5648C22.9048 35.6177 23.0654 34.6549 23.2207 33.7237L23.3246 33.101C23.3563 32.9109 23.3885 32.7209 23.4208 32.5309C23.4927 32.1065 23.5665 31.6712 23.6348 31.2353C23.6576 31.09 23.6798 30.9446 23.701 30.7996C23.7709 30.3232 24.0255 30.1094 24.5266 30.1064C24.8211 30.1047 25.1206 30.1056 25.4156 30.1072C25.514 30.1077 25.6118 30.1083 25.7089 30.1089C25.8168 30.1095 25.9253 30.1102 26.0341 30.1107C26.6991 30.1142 27.3799 30.114 28.0552 30.0874C30.1381 30.0052 31.9018 29.5578 33.4472 28.7194C35.3727 27.6748 36.7284 26.085 37.5915 23.8592C37.6216 23.7817 37.65 23.7041 37.6773 23.6263C37.6862 23.6008 37.6945 23.5753 37.7032 23.5498C37.7211 23.4973 37.7388 23.4447 37.7557 23.3921C37.7653 23.3621 37.7745 23.332 37.7838 23.302C37.7988 23.2536 37.8136 23.2052 37.8278 23.1567C37.837 23.1254 37.846 23.094 37.8548 23.0628C37.8684 23.015 37.8817 22.9673 37.8946 22.9196C37.903 22.8887 37.9114 22.8577 37.9195 22.8268C37.9325 22.7776 37.9452 22.7285 37.9576 22.6793C37.9649 22.6505 37.9723 22.6217 37.9795 22.5928C37.9931 22.5378 38.0063 22.483 38.0195 22.4281C38.0248 22.4058 38.0303 22.3835 38.0356 22.3613C38.0535 22.2854 38.0712 22.2096 38.0885 22.1342C38.7401 22.6192 39.1634 23.2948 39.3747 24.1816C39.615 25.1899 39.5596 26.281 39.195 27.7194ZM20.055 38.1891C18.7688 38.1894 17.3109 38.1897 16.0962 38.1934H16.0958C16.0592 38.1934 16.0358 38.1762 16.0226 38.1617C16.0095 38.1473 15.995 38.1229 16.0005 38.0886C16.3585 35.8626 17.237 30.4095 17.6612 27.856C17.8602 26.6577 18.0602 25.4594 18.2602 24.2612C18.7319 21.4356 19.2195 18.5138 19.6864 15.6377C19.781 15.0558 19.9755 14.8515 20.2761 14.739H30.7285C32.4976 14.739 34.0906 15.3136 34.9173 15.8056C36.6017 16.8081 37.3417 18.2726 37.1795 20.2826C37.1635 20.4808 37.1414 20.6771 37.118 20.8848C37.1086 20.9687 37.0991 21.0526 37.0901 21.1365C37.0497 21.3064 37.011 21.4766 36.9723 21.6469C36.8277 22.284 36.691 22.8858 36.4657 23.4666C35.704 25.4307 34.5218 26.826 32.8515 27.7322C31.4769 28.4779 29.8917 28.8766 28.0054 28.951C27.2483 28.9808 26.4696 28.9761 25.7166 28.9715C25.3247 28.9691 24.9194 28.9666 24.5191 28.969C23.4157 28.9755 22.6657 29.6012 22.513 30.6429C22.4296 31.2111 22.3314 31.7903 22.2364 32.3503C22.2041 32.5412 22.1717 32.7321 22.1398 32.9231L22.0359 33.546C21.8809 34.4757 21.7206 35.4371 21.5576 36.381C21.4673 36.9035 21.3691 37.4353 21.2741 37.9496C21.2594 38.0294 21.2447 38.109 21.23 38.1887C20.8605 38.1889 20.4649 38.189 20.055 38.1891ZM40.5447 23.9309C40.2218 22.576 39.4737 21.563 38.3211 20.9116C38.341 20.7338 38.3607 20.5525 38.3755 20.3694C38.5721 17.9328 37.6231 16.0732 35.555 14.8422C34.5934 14.2699 32.7524 13.6016 30.7285 13.6016H20.0777L19.9872 13.6295C19.6778 13.725 18.7362 14.0155 18.5009 15.4645C18.0344 18.3384 17.5469 21.259 17.0755 24.0834C16.8754 25.2819 16.6754 26.4804 16.4762 27.679C16.0517 30.235 15.1729 35.6903 14.8147 37.9171C14.7575 38.2723 14.8666 38.6321 15.114 38.9043C15.3606 39.1755 15.7182 39.3309 16.0958 39.3309H16.1001C17.313 39.3271 18.7699 39.3268 20.0552 39.3265C20.4002 39.3264 20.7345 39.3264 21.0522 39.3262C21.0294 39.4621 21.0068 39.598 20.9838 39.7339C20.9182 40.1213 20.8503 40.5217 20.7883 40.9182C20.7228 41.337 20.8236 41.7191 21.0721 41.9939C21.3033 42.2497 21.6442 42.3918 22.0323 42.3941C22.8758 42.3991 23.6851 42.4016 24.4712 42.4016C25.2804 42.4016 26.065 42.3989 26.8364 42.3937C27.5867 42.3885 28.2276 41.9055 28.4312 41.1916C28.4916 40.9801 28.5261 40.7748 28.5596 40.5762C28.6564 40.0015 28.752 39.4267 28.8476 38.852C29.0406 37.6906 29.2404 36.4897 29.447 35.3115C29.5395 34.7846 29.6976 34.7116 30.2306 34.7152C31.1246 34.7223 32.1812 34.7049 33.2389 34.5201C35.1405 34.188 36.6416 33.504 37.8281 32.4292C39.057 31.3158 39.8857 29.8622 40.3613 27.9852C40.6372 26.8968 40.9073 25.4524 40.5447 23.9309Z" fill="#386D7D"/>
</svg>
