<svg width="20" height="20" viewBox="0 0 20 20" fill="none" xmlns="http://www.w3.org/2000/svg">
<path d="M18.8006 3.89777C18.534 3.63443 18.1014 3.63397 17.8349 3.89665L9.64153 11.9551L6.6854 8.78893C6.42997 8.5155 5.9981 8.49777 5.72037 8.74963C5.44285 9.00152 5.42508 9.42761 5.68051 9.70128L9.11813 13.3829C9.24403 13.5178 9.42022 13.5961 9.606 13.6C9.80112 13.6002 9.97479 13.5294 10.1027 13.4037L18.7992 4.8503C19.0665 4.58765 19.0669 4.16111 18.8006 3.89777Z" fill="#26C17D" stroke="#26C17D" stroke-width="0.5"/>
<path opacity="0.2" d="M18.3216 9.32159C17.9469 9.32159 17.6432 9.62527 17.6432 10C17.6432 14.2146 14.2146 17.6432 10 17.6432C5.78561 17.6432 2.35679 14.2146 2.35679 10C2.35679 5.78561 5.78561 2.35679 10 2.35679C10.3747 2.35679 10.6784 2.05311 10.6784 1.67841C10.6784 1.30368 10.3747 1 10 1C5.03734 1 1 5.03734 1 10C1 14.9624 5.03734 19 10 19C14.9624 19 19 14.9624 19 10C19 9.62531 18.6963 9.32159 18.3216 9.32159Z" fill="#26C17D" stroke="#26C17D" stroke-width="0.3"/>
</svg>
