<svg width="40" height="40" viewBox="0 0 40 40" fill="none" xmlns="http://www.w3.org/2000/svg">
<path d="M25.2779 12.2563V8.43459C25.2779 8.04819 25.7343 7.85468 26.0012 8.1279L30.275 12.5028C30.542 12.776 30.3529 13.2432 29.9754 13.2432H26.2419C25.7132 13.2432 25.2779 12.7976 25.2779 12.2563ZM26.1253 12.2563C26.1253 12.3185 26.1812 12.3758 26.2419 12.3758H28.9525L26.1253 9.48168V12.2563ZM25.7016 8.00087C25.8148 8.00087 25.9233 8.04725 26.0029 8.12966L30.2768 12.5549C30.3552 12.636 30.3991 12.7456 30.3991 12.8598V27.5434C30.3991 28.0846 29.9638 28.5302 29.4351 28.5302H14.3537C13.8249 28.5302 13.3896 28.0846 13.3896 27.5434V8.98774C13.3896 8.44648 13.8249 8.00087 14.3537 8.00087H25.7016ZM25.5246 8.86831H14.3537C14.293 8.86831 14.237 8.92556 14.237 8.98774V27.5434C14.237 27.6056 14.293 27.6628 14.3537 27.6628H29.4351C29.4958 27.6628 29.5517 27.6056 29.5517 27.5434V13.038L25.5246 8.86831ZM14.3537 27.6628H26.5858C26.8198 27.6628 27.0095 27.857 27.0095 28.0965V31.0131C27.0095 31.5544 26.5742 32 26.0454 32H10.9641C10.4353 32 10 31.5544 10 31.0131V12.5078C10 11.9665 10.4353 11.5209 10.9641 11.5209H13.8133C14.0473 11.5209 14.237 11.7151 14.237 11.9546V27.5434C14.237 27.6056 14.293 27.6628 14.3537 27.6628ZM14.3537 28.5302C13.8249 28.5302 13.3896 28.0846 13.3896 27.5434V12.3883H10.9641C10.9033 12.3883 10.8474 12.4456 10.8474 12.5078V31.0131C10.8474 31.0753 10.9033 31.1326 10.9641 31.1326H26.0454C26.1062 31.1326 26.1621 31.0753 26.1621 31.0131V28.5302H14.3537ZM27.5192 24.9473C27.7532 24.9473 27.9429 25.1415 27.9429 25.3811C27.9429 25.6206 27.7532 25.8148 27.5192 25.8148H16.2696C16.0356 25.8148 15.8459 25.6206 15.8459 25.3811C15.8459 25.1415 16.0356 24.9473 16.2696 24.9473H27.5192ZM27.5192 21.729C27.7532 21.729 27.9429 21.9232 27.9429 22.1627C27.9429 22.4023 27.7532 22.5965 27.5192 22.5965H16.2696C16.0356 22.5965 15.8459 22.4023 15.8459 22.1627C15.8459 21.9232 16.0356 21.729 16.2696 21.729H27.5192ZM27.5192 18.5107C27.7532 18.5107 27.9429 18.7049 27.9429 18.9444C27.9429 19.184 27.7532 19.3781 27.5192 19.3781H16.2696C16.0356 19.3781 15.8459 19.184 15.8459 18.9444C15.8459 18.7049 16.0356 18.5107 16.2696 18.5107H27.5192ZM27.5192 15.2924C27.7532 15.2924 27.9429 15.4866 27.9429 15.7261C27.9429 15.9656 27.7532 16.1598 27.5192 16.1598H16.2696C16.0356 16.1598 15.8459 15.9656 15.8459 15.7261C15.8459 15.4866 16.0356 15.2924 16.2696 15.2924H27.5192Z" fill="#7096A1"/>
</svg>
