<svg width="24" height="24" viewBox="0 0 24 24" fill="none" xmlns="http://www.w3.org/2000/svg">
<path d="M21.9231 1.84615H20.3077V0.923077C20.3077 0.413538 19.8942 0 19.3846 0C18.8751 0 18.4615 0.413538 18.4615 0.923077V1.84615H5.53846V0.923077C5.53846 0.413538 5.12492 0 4.61538 0C4.10585 0 3.69231 0.413538 3.69231 0.923077V1.84615H2.07692C0.931846 1.84615 0 2.778 0 3.92308V21.9231C0 23.0682 0.931846 24 2.07692 24H21.9231C23.0682 24 24 23.0682 24 21.9231V3.92308C24 2.778 23.0682 1.84615 21.9231 1.84615ZM21.9231 22.1538H2.07692C1.94954 22.1538 1.84615 22.05 1.84615 21.9231V8.30769H22.1538V21.9231C22.1538 22.05 22.05 22.1538 21.9231 22.1538ZM4.61538 17.5385C5.12519 17.5385 5.53846 17.9517 5.53846 18.4615C5.53846 18.9713 5.12519 19.3846 4.61538 19.3846C4.10558 19.3846 3.69231 18.9713 3.69231 18.4615C3.69231 17.9517 4.10558 17.5385 4.61538 17.5385ZM8.30769 17.5385C8.81749 17.5385 9.23077 17.9517 9.23077 18.4615C9.23077 18.9713 8.81749 19.3846 8.30769 19.3846C7.79789 19.3846 7.38462 18.9713 7.38462 18.4615C7.38462 17.9517 7.79789 17.5385 8.30769 17.5385ZM12 17.5385C12.5098 17.5385 12.9231 17.9517 12.9231 18.4615C12.9231 18.9713 12.5098 19.3846 12 19.3846C11.4902 19.3846 11.0769 18.9713 11.0769 18.4615C11.0769 17.9517 11.4902 17.5385 12 17.5385ZM15.6981 17.5385C16.2079 17.5385 16.6212 17.9517 16.6212 18.4615C16.6212 18.9713 16.2079 19.3846 15.6981 19.3846C15.1883 19.3846 14.775 18.9713 14.775 18.4615C14.775 17.9517 15.1883 17.5385 15.6981 17.5385ZM4.61538 13.8462C5.12519 13.8462 5.53846 14.2594 5.53846 14.7692C5.53846 15.279 5.12519 15.6923 4.61538 15.6923C4.10558 15.6923 3.69231 15.279 3.69231 14.7692C3.69231 14.2594 4.10558 13.8462 4.61538 13.8462ZM8.30769 13.8462C8.81749 13.8462 9.23077 14.2594 9.23077 14.7692C9.23077 15.279 8.81749 15.6923 8.30769 15.6923C7.79789 15.6923 7.38462 15.279 7.38462 14.7692C7.38462 14.2594 7.79789 13.8462 8.30769 13.8462ZM12 13.8462C12.5098 13.8462 12.9231 14.2594 12.9231 14.7692C12.9231 15.279 12.5098 15.6923 12 15.6923C11.4902 15.6923 11.0769 15.279 11.0769 14.7692C11.0769 14.2594 11.4902 13.8462 12 13.8462ZM15.6981 13.8462C16.2079 13.8462 16.6212 14.2594 16.6212 14.7692C16.6212 15.279 16.2079 15.6923 15.6981 15.6923C15.1883 15.6923 14.775 15.279 14.775 14.7692C14.775 14.2594 15.1883 13.8462 15.6981 13.8462ZM19.3846 13.8462C19.8944 13.8462 20.3077 14.2594 20.3077 14.7692C20.3077 15.279 19.8944 15.6923 19.3846 15.6923C18.8748 15.6923 18.4615 15.279 18.4615 14.7692C18.4615 14.2594 18.8748 13.8462 19.3846 13.8462ZM8.30769 10.1538C8.81749 10.1538 9.23077 10.5671 9.23077 11.0769C9.23077 11.5867 8.81749 12 8.30769 12C7.79789 12 7.38462 11.5867 7.38462 11.0769C7.38462 10.5671 7.79789 10.1538 8.30769 10.1538ZM12 10.1538C12.5098 10.1538 12.9231 10.5671 12.9231 11.0769C12.9231 11.5867 12.5098 12 12 12C11.4902 12 11.0769 11.5867 11.0769 11.0769C11.0769 10.5671 11.4902 10.1538 12 10.1538ZM15.6923 10.1538C16.2021 10.1538 16.6154 10.5671 16.6154 11.0769C16.6154 11.5867 16.2021 12 15.6923 12C15.1825 12 14.7692 11.5867 14.7692 11.0769C14.7692 10.5671 15.1825 10.1538 15.6923 10.1538ZM19.3846 10.1538C19.8944 10.1538 20.3077 10.5671 20.3077 11.0769C20.3077 11.5867 19.8944 12 19.3846 12C18.8748 12 18.4615 11.5867 18.4615 11.0769C18.4615 10.5671 18.8748 10.1538 19.3846 10.1538ZM3.69231 3.69231V4.61538C3.69231 5.12492 4.10585 5.53846 4.61538 5.53846C5.12492 5.53846 5.53846 5.12492 5.53846 4.61538V3.69231H18.4615V4.61538C18.4615 5.12492 18.8751 5.53846 19.3846 5.53846C19.8942 5.53846 20.3077 5.12492 20.3077 4.61538V3.69231H21.9231C22.05 3.69231 22.1538 3.79569 22.1538 3.92308V6.46154H1.84615V3.92308C1.84615 3.79569 1.94954 3.69231 2.07692 3.69231H3.69231Z" fill="#254854"/>
</svg>
