<svg width="30" height="30" viewBox="0 0 30 30" fill="none" xmlns="http://www.w3.org/2000/svg">
<g id="Group 15">
<g id="Linkedin">
<path id="Shape" fill-rule="evenodd" clip-rule="evenodd" d="M10.6023 11.4C9.77141 11.4 9.10156 10.728 9.10156 9.89989C9.10156 9.07196 9.77154 8.40002 10.6023 8.40002C11.4298 8.40002 12.1016 9.0721 12.1016 9.89989C12.1016 10.728 11.4298 11.4 10.6023 11.4ZM11.6016 19.4H9.60156V12.4H11.6016V19.4ZM18.3568 19.4H20.6016V15.1189C20.6016 13.0164 20.1815 11.4 17.9084 11.4C16.8162 11.4 16.0837 12.0472 15.7844 12.6609H15.7535V11.5936H13.6016V19.4H15.8438V15.5389C15.8438 14.5205 16.0222 13.5341 17.1904 13.5341C18.3424 13.5341 18.3568 14.6985 18.3568 15.6038V19.4Z" fill="#254854"/>
</g>
<rect id="Rectangle 19" x="0.5" y="0.5" width="29" height="29" rx="14.5" stroke="#6E7C8D"/>
</g>
</svg>
