<svg width="18" height="25" viewBox="0 0 18 25" fill="none" xmlns="http://www.w3.org/2000/svg">
<path d="M9 0C13.971 0 18 4.029 18 9C18 12.0062 15.53 16.746 10.5899 23.2196C10.4817 23.3614 10.3551 23.4881 10.2133 23.5963C9.3791 24.2328 8.20471 24.1125 7.51485 23.346L7.41007 23.2196L7.09139 22.7999C2.3638 16.5408 0 11.9408 0 9C0 4.029 4.029 0 9 0ZM9 2C5.13357 2 2 5.13357 2 9C2 11.313 4.11357 15.4774 8.3894 21.198L8.68428 21.5905L8.80114 21.7439C8.8848 21.8537 9.04166 21.875 9.1515 21.7913C9.16935 21.7777 9.18529 21.7618 9.19889 21.7439L9.30214 21.6084L9.88627 20.827C13.8813 15.4255 15.9048 11.4543 15.9967 9.16095L16 9C16 5.13357 12.8664 2 9 2ZM9 5C11.208 5 13 6.79067 13 9C13 11.208 11.208 13 9 13C6.79067 13 5 11.208 5 9C5 6.79067 6.79067 5 9 5ZM9 7C7.89524 7 7 7.89524 7 9C7 10.104 7.8958 11 9 11C10.1034 11 11 10.1034 11 9C11 7.8958 10.104 7 9 7Z" fill="#6E7C8D"/>
</svg>
