<svg width="30" height="30" viewBox="0 0 30 30" fill="none" xmlns="http://www.w3.org/2000/svg">
<g id="Group 14">
<g id="Twitter">
<path id="Shape" d="M20.5505 11.1396C21.1437 10.7959 21.5987 10.2519 21.8133 9.60322C21.2584 9.92148 20.6434 10.1527 19.9894 10.2771C19.4655 9.73735 18.7191 9.40002 17.8931 9.40002C16.3066 9.40002 15.0207 10.6434 15.0207 12.1769C15.0207 12.3948 15.0461 12.6064 15.0951 12.8099C12.7077 12.6941 10.5916 11.5884 9.17507 9.9084C8.92785 10.3183 8.78611 10.7956 8.78611 11.3045C8.78611 12.2679 9.29327 13.118 10.0639 13.6159C9.59315 13.6015 9.14994 13.4764 8.76288 13.2683C8.76256 13.28 8.76256 13.2917 8.76256 13.3034C8.76256 14.6493 9.75255 15.771 11.0664 16.0265C10.8253 16.0898 10.5717 16.1238 10.3098 16.1238C10.1247 16.1238 9.94473 16.1063 9.76941 16.0738C10.135 17.1772 11.1958 17.9806 12.4524 18.0026C11.4696 18.7471 10.2311 19.191 8.88538 19.191C8.65343 19.191 8.42482 19.1784 8.2002 19.1522C9.47113 19.9403 10.9812 20.4 12.603 20.4C17.8858 20.4 20.7748 16.1683 20.7748 12.4986C20.7748 12.3783 20.7714 12.2583 20.766 12.1394C21.3284 11.7484 21.815 11.2593 22.2002 10.7024C21.6854 10.9235 21.1318 11.0727 20.5505 11.1396Z" fill="#254854"/>
</g>
<rect id="Rectangle 19" x="0.5" y="0.5" width="29" height="29" rx="14.5" stroke="#6E7C8D"/>
</g>
</svg>
