<svg width="24" height="24" viewBox="0 0 24 24" fill="none" xmlns="http://www.w3.org/2000/svg">
<path d="M11.7004 4.80078C13.9754 4.80078 16.1629 6.60078 16.1629 9.00078C16.5129 9.40078 16.6879 10.0008 16.6879 10.8008C16.6879 11.6008 16.4254 12.2008 15.9004 12.6008L15.3758 13.8008V15.6007C17.1255 16.3183 18.0004 17.1215 18.0004 18.0104V19.2008H5.40039V18.0104C5.40039 17.1214 6.27539 16.3182 8.02539 15.6007V13.8008L7.50039 12.6008C6.97539 12.2008 6.71289 11.6008 6.71289 10.8008C6.71289 10.0008 6.88789 9.40078 7.23789 9.00078C7.23789 6.60078 9.42539 4.80078 11.7004 4.80078Z" fill="#70B9C3"/>
</svg>
