<svg width="24" height="24" viewBox="0 0 24 24" fill="none" xmlns="http://www.w3.org/2000/svg">
<path fill-rule="evenodd" clip-rule="evenodd" d="M15.3407 6.16324C15.1403 5.36194 14.4204 4.7998 13.5944 4.7998H10.4052C9.57924 4.7998 8.85927 5.36194 8.65895 6.16324L8.5492 6.5998H5.9998C5.33706 6.5998 4.7998 7.13706 4.7998 7.7998C4.7998 8.46255 5.33706 8.9998 5.9998 8.9998H6.2284L7.09635 18.1136C7.15501 18.7295 7.67228 19.1998 8.29095 19.1998H15.7087C16.3273 19.1998 16.8446 18.7295 16.9033 18.1136L17.7712 8.9998H17.9998C18.6625 8.9998 19.1998 8.46255 19.1998 7.7998C19.1998 7.13706 18.6625 6.5998 17.9998 6.5998H15.4498L15.3407 6.16324ZM11.9998 10.7998C11.3371 10.7998 10.7998 11.3371 10.7998 11.9998V14.3998C10.7998 15.0625 11.3371 15.5998 11.9998 15.5998C12.6625 15.5998 13.1998 15.0625 13.1998 14.3998V11.9998C13.1998 11.3371 12.6625 10.7998 11.9998 10.7998Z" fill="#AFC5CB"/>
</svg>
