<svg width="41" height="40" viewBox="0 0 41 40" fill="none" xmlns="http://www.w3.org/2000/svg">
<path d="M20.5 8C25.471 8 29.5 12.029 29.5 17C29.5 20.0062 27.03 24.746 22.0899 31.2196C21.9817 31.3614 21.8551 31.4881 21.7133 31.5963C20.8791 32.2328 19.7047 32.1125 19.0148 31.346L18.9101 31.2196L18.5914 30.7999C13.8638 24.5408 11.5 19.9408 11.5 17C11.5 12.029 15.529 8 20.5 8ZM20.5 10C16.6336 10 13.5 13.1336 13.5 17C13.5 19.313 15.6136 23.4774 19.8894 29.198L20.1843 29.5905L20.3011 29.7439C20.3848 29.8537 20.5417 29.875 20.6515 29.7913C20.6694 29.7777 20.6853 29.7618 20.6989 29.7439L20.8021 29.6084L21.3863 28.827C25.3813 23.4255 27.4048 19.4543 27.4967 17.161L27.5 17C27.5 13.1336 24.3664 10 20.5 10ZM20.5 13C22.708 13 24.5 14.7907 24.5 17C24.5 19.208 22.708 21 20.5 21C18.2907 21 16.5 19.208 16.5 17C16.5 14.7907 18.2907 13 20.5 13ZM20.5 15C19.3952 15 18.5 15.8952 18.5 17C18.5 18.104 19.3958 19 20.5 19C21.6034 19 22.5 18.1034 22.5 17C22.5 15.8958 21.604 15 20.5 15Z" fill="#7096A1"/>
</svg>
