<svg width="553" height="590" viewBox="0 0 553 590" fill="none" xmlns="http://www.w3.org/2000/svg">
<g clip-path="url(#clip0)">
<path fill-rule="evenodd" clip-rule="evenodd" d="M120.833 417.946C75.5073 372.62 50.5527 312.346 50.5708 248.228L53.6498 248.227C53.6151 378.891 159.89 485.166 290.554 485.131C353.85 485.114 413.363 460.451 458.133 415.681C502.902 370.913 527.566 311.398 527.583 248.102L530.662 248.101C530.646 312.219 505.66 372.508 460.31 417.858C414.959 463.209 354.671 488.194 290.553 488.21C226.434 488.227 166.16 463.273 120.833 417.946Z" fill="#254854"/>
<path fill-rule="evenodd" clip-rule="evenodd" d="M132.589 406.191C92.1252 365.727 67.0725 309.85 67.0878 248.223L70.1657 248.224C70.1355 369.779 169.001 468.645 290.558 468.616C412.113 468.581 511.033 369.661 511.067 248.106L514.146 248.106C514.112 371.358 413.811 471.66 290.558 471.694C228.931 471.709 173.054 446.656 132.589 406.191Z" fill="#254854"/>
<path fill-rule="evenodd" clip-rule="evenodd" d="M144.199 394.582C105.111 355.494 83.5921 303.515 83.6058 248.22L86.6859 248.218C86.6714 302.691 107.87 353.897 146.377 392.404C184.885 430.912 236.091 452.11 290.564 452.096C345.034 452.081 396.254 430.855 434.781 392.328C473.309 353.8 494.534 302.581 494.549 248.111L497.628 248.11C497.613 303.404 476.068 355.395 436.958 394.505C397.849 433.614 345.856 455.16 290.562 455.176C235.267 455.19 183.288 433.671 144.199 394.582Z" fill="#254854"/>
<path fill-rule="evenodd" clip-rule="evenodd" d="M155.945 382.835C121.461 348.352 100.109 300.734 100.122 248.216L103.201 248.215C103.175 351.555 187.226 435.606 290.566 435.58C393.907 435.551 478.003 351.454 478.032 248.115L481.111 248.114C481.082 353.152 395.605 438.629 290.566 438.659C238.047 438.672 190.429 417.32 155.945 382.835Z" fill="#254854"/>
<path fill-rule="evenodd" clip-rule="evenodd" d="M167.621 371.159C136.127 339.665 116.627 296.176 116.64 248.211L119.719 248.211C119.694 342.443 196.337 419.086 290.57 419.062C384.803 419.036 461.488 342.352 461.513 248.12L464.592 248.119C464.567 344.048 386.5 422.115 290.569 422.141C242.605 422.154 199.116 402.654 167.621 371.159Z" fill="#254854"/>
<path fill-rule="evenodd" clip-rule="evenodd" d="M179.298 359.482C150.794 330.978 133.145 291.618 133.157 248.207L136.236 248.206C136.214 333.333 205.448 402.567 290.575 402.545C331.812 402.533 370.585 386.464 399.75 357.298C428.916 328.132 444.986 289.359 444.997 248.124L448.076 248.123C448.064 290.182 431.675 329.728 401.927 359.475C372.179 389.223 332.634 405.612 290.574 405.624C247.162 405.635 207.803 387.987 179.298 359.482Z" fill="#254854"/>
<path fill-rule="evenodd" clip-rule="evenodd" d="M190.976 347.804C165.462 322.29 149.666 287.059 149.675 248.202L152.754 248.202C152.734 324.219 214.562 386.047 290.579 386.027C366.597 386.005 428.457 324.145 428.478 248.128L431.557 248.127C431.536 325.841 368.293 389.084 290.578 389.106C251.722 389.115 216.49 373.319 190.976 347.804Z" fill="#254854"/>
<path fill-rule="evenodd" clip-rule="evenodd" d="M497.793 199.65L461.979 199.66L468.253 193.386L491.522 193.379L497.793 199.65Z" fill="#254854"/>
<path fill-rule="evenodd" clip-rule="evenodd" d="M532.603 234.453L427.15 234.481L433.332 228.299L526.425 228.274L532.603 234.453Z" fill="#254854"/>
<path fill-rule="evenodd" clip-rule="evenodd" d="M521.065 222.915L438.694 222.937L444.968 216.663L514.793 216.643L521.065 222.915Z" fill="#254854"/>
<path fill-rule="evenodd" clip-rule="evenodd" d="M509.434 211.283L450.332 211.299L456.615 205.024L503.153 205.012L509.434 211.283Z" fill="#254854"/>
<path fill-rule="evenodd" clip-rule="evenodd" d="M473.617 188.022L479.891 181.748L486.162 188.02L473.617 188.022Z" fill="#254854"/>
<path fill-rule="evenodd" clip-rule="evenodd" d="M461.979 199.66L468.253 193.386L491.522 193.379L492.9 194.757C492.338 196.395 491.765 198.022 491.175 199.652L461.979 199.66Z" fill="#254854"/>
</g>
<defs>
<clipPath id="clip0">
<rect x="298.934" width="411" height="422" transform="rotate(45 298.934 0)" fill="white"/>
</clipPath>
</defs>
</svg>
