<svg width="344" height="200" viewBox="0 0 344 200" fill="none" xmlns="http://www.w3.org/2000/svg">
<path d="M187.481 46.6611C192.646 46.6611 196.833 50.8481 196.833 56.013C196.833 61.1779 192.646 65.3648 187.481 65.3648V65.8648V66.3648H277.556C282.72 66.3648 286.907 70.5518 286.907 75.7167C286.907 80.8816 282.72 85.0685 277.556 85.0685V85.5685V86.0685H308.519C313.683 86.0685 317.87 90.2555 317.87 95.4204C317.87 100.585 313.683 104.772 308.519 104.772H281.778C276.061 104.772 271.426 109.407 271.426 115.124C271.426 120.841 276.061 125.476 281.778 125.476H290.222C295.387 125.476 299.574 129.663 299.574 134.828C299.574 139.993 295.387 144.18 290.222 144.18H84.7407C79.5759 144.18 75.3889 139.993 75.3889 134.828C75.3889 129.663 79.5759 125.476 84.7407 125.476V124.976V124.476H29.8519C24.687 124.476 20.5 120.289 20.5 115.124C20.5 109.959 24.687 105.772 29.8519 105.772H86.1481C91.8653 105.772 96.5 101.138 96.5 95.4204C96.5 89.7032 91.8653 85.0685 86.1481 85.0685H50.963C45.7981 85.0685 41.6111 80.8816 41.6111 75.7167C41.6111 70.5518 45.7981 66.3648 50.963 66.3648H107.259V65.8648V65.3648C102.094 65.3648 97.9074 61.1779 97.9074 56.013C97.9074 50.8481 102.094 46.6611 107.259 46.6611H187.481ZM314.148 125.476C319.313 125.476 323.5 129.663 323.5 134.828C323.5 139.993 319.313 144.18 314.148 144.18C308.983 144.18 304.796 139.993 304.796 134.828C304.796 129.663 308.983 125.476 314.148 125.476Z" fill="#EBF0F2" stroke="#ECEEF2"/>
<path fill-rule="evenodd" clip-rule="evenodd" d="M216.86 156.108C221.136 153.357 224.938 149.924 227.411 147.152L216.86 156.108ZM231.402 142.546C233.448 140.041 235.287 137.42 236.918 134.708C240.507 128.743 243.094 122.334 244.675 115.727C246.274 109.045 246.844 102.159 246.382 95.3237C245.978 89.3591 244.788 83.4328 242.809 77.713C240.845 72.0383 238.105 66.5669 234.585 61.4632C232.488 58.4219 230.114 55.5113 227.463 52.7659C223.57 48.7352 219.301 45.2894 214.765 42.4304C209.891 39.3586 204.708 36.9643 199.354 35.2502C192.649 33.1035 185.675 32.0237 178.7 32.0159C173.272 32.0098 167.844 32.6526 162.542 33.9468C156.573 35.4039 150.763 37.6865 145.292 40.7981C140.483 43.5335 135.937 46.9095 131.775 50.9284C126.545 55.979 122.309 61.6723 119.07 67.7654C115.899 73.7308 113.684 80.0793 112.428 86.583C111.135 93.2836 110.86 100.149 111.608 106.929C112.577 115.718 115.264 124.364 119.677 132.324C122.501 137.418 126.032 142.232 130.272 146.622C137.003 153.592 144.861 158.813 153.277 162.275C163.512 166.484 174.573 168.092 185.435 167.078C194.552 166.226 203.529 163.528 211.762 158.971" fill="white"/>
<path d="M231.402 142.546C233.448 140.041 235.287 137.42 236.918 134.708C240.507 128.743 243.094 122.334 244.675 115.727C246.274 109.045 246.844 102.159 246.382 95.3237C245.978 89.3591 244.788 83.4328 242.809 77.713C240.845 72.0383 238.105 66.5669 234.585 61.4632C232.488 58.4219 230.114 55.5113 227.463 52.7659C223.57 48.7352 219.301 45.2894 214.765 42.4304C209.891 39.3586 204.708 36.9643 199.354 35.2502C192.649 33.1035 185.675 32.0237 178.699 32.0159C173.272 32.0098 167.844 32.6526 162.542 33.9468C156.573 35.4039 150.763 37.6865 145.292 40.7981C140.483 43.5335 135.937 46.9095 131.775 50.9284C126.545 55.979 122.309 61.6723 119.07 67.7654C115.899 73.7308 113.684 80.0793 112.428 86.583C111.135 93.2836 110.86 100.149 111.608 106.929C112.577 115.718 115.264 124.364 119.677 132.324C122.501 137.418 126.032 142.232 130.272 146.622C137.003 153.592 144.861 158.813 153.277 162.275C163.512 166.484 174.573 168.092 185.435 167.078C194.552 166.226 203.529 163.528 211.762 158.971M216.86 156.108C221.136 153.357 224.938 149.924 227.411 147.152L216.86 156.108Z" stroke="#386D7D" stroke-width="2.5" stroke-linecap="round"/>
<path fill-rule="evenodd" clip-rule="evenodd" d="M244.48 19.4209V27.8653V19.4209ZM244.48 39.1246V47.569V39.1246ZM230.406 33.495H238.851H230.406ZM250.11 33.495H258.554H250.11Z" fill="#7096A1"/>
<path d="M250.11 33.495H258.554M244.48 19.4209V27.8653V19.4209ZM244.48 39.1246V47.569V39.1246ZM230.406 33.495H238.851H230.406Z" stroke="#7096A1" stroke-width="2.5" stroke-linecap="round" stroke-linejoin="round"/>
<path fill-rule="evenodd" clip-rule="evenodd" d="M127.666 164.384V170.013V164.384ZM127.666 181.273V186.902V181.273ZM116.406 175.643H122.036H116.406ZM133.295 175.643H138.925H133.295Z" fill="#7096A1"/>
<path d="M133.295 175.643H138.925M127.666 164.384V170.013V164.384ZM127.666 181.273V186.902V181.273ZM116.406 175.643H122.036H116.406Z" stroke="#7096A1" stroke-width="2.5" stroke-linecap="round" stroke-linejoin="round"/>
<path d="M152.268 98.7536C150.219 96.9073 147.039 97.0491 145.167 99.0702C143.295 101.091 143.438 104.226 145.488 106.073L169.144 127.382C172.014 129.967 176.465 129.768 179.086 126.939C179.195 126.819 179.195 126.819 179.301 126.695L213.06 86.6569C214.835 84.552 214.543 81.4268 212.409 79.6767C210.274 77.9266 207.105 78.2141 205.33 80.3191L173.591 117.961L152.268 98.7536Z" fill="#AFC5CB" stroke="#386D7D" stroke-width="2.5"/>
<path fill-rule="evenodd" clip-rule="evenodd" d="M132.116 70.5273C130.839 72.6834 129.731 74.9209 128.809 77.228L132.116 70.5273Z" fill="#ECEEF2"/>
<path d="M132.116 70.5273C130.839 72.6834 129.731 74.9209 128.809 77.228" stroke="#AFC5CB" stroke-width="2.5" stroke-linecap="round"/>
<path fill-rule="evenodd" clip-rule="evenodd" d="M157.955 47.6729C148.733 52.0743 140.947 58.3004 135.32 65.7539L157.955 47.6729Z" fill="#EBF0F2"/>
<path d="M157.955 47.6729C148.733 52.0743 140.947 58.3004 135.32 65.7539" stroke="#AFC5CB" stroke-width="2.5" stroke-linecap="round"/>
</svg>
