<svg width="98" height="96" viewBox="0 0 98 96" fill="none" xmlns="http://www.w3.org/2000/svg">
<path opacity="0.5" fill-rule="evenodd" clip-rule="evenodd" d="M97.4162 56.2323C97.4162 78.1314 79.5522 95.8844 57.5162 95.8844C35.4802 95.8844 17.6162 78.1314 17.6162 56.2323C17.6162 34.3331 35.4802 16.5801 57.5162 16.5801C79.5522 16.5801 97.4162 34.3331 97.4162 56.2323Z" fill="#70B9C3"/>
<path fill-rule="evenodd" clip-rule="evenodd" d="M83.0661 41.9715C83.0661 63.8706 65.2021 81.6237 43.1661 81.6237C21.1301 81.6237 3.26611 63.8706 3.26611 41.9715C3.26611 20.0724 21.1301 2.31934 43.1661 2.31934C65.2021 2.31934 83.0661 20.0724 83.0661 41.9715ZM62.4161 41.9715C62.4161 52.5371 53.7977 61.1019 43.1661 61.1019C32.5345 61.1019 23.9161 52.5371 23.9161 41.9715C23.9161 31.4059 32.5345 22.8411 43.1661 22.8411C53.7977 22.8411 62.4161 31.4059 62.4161 41.9715Z" stroke="#13242A" stroke-width="3" stroke-linecap="round" stroke-linejoin="round"/>
</svg>
