<svg width="24" height="24" viewBox="0 0 24 24" fill="none" xmlns="http://www.w3.org/2000/svg">
<path d="M4.98091 19.1988H8.068V9.48339H4.98091V19.1988ZM6.52491 8.15725C7.60151 8.15725 8.27198 7.41094 8.27198 6.47805C8.25185 5.52507 7.60151 4.7998 6.54595 4.7998C5.4904 4.7998 4.7998 5.52507 4.7998 6.47805C4.7998 7.41094 5.47027 8.15725 6.50662 8.15725H6.52491ZM19.1998 19.1988V13.6283C19.1998 10.644 17.6768 9.25472 15.6462 9.25472C14.0071 9.25472 13.2735 10.1981 12.8637 10.8593V9.48339H9.77665C9.81781 10.3952 9.77665 19.1988 9.77665 19.1988H12.8637V13.7728C12.8637 13.4829 12.8839 13.1929 12.9653 12.9853C13.1884 12.4055 13.6961 11.8046 14.5486 11.8046C15.6663 11.8046 16.1127 12.6954 16.1127 14.0015V19.1998L19.1998 19.1988Z" fill="white"/>
</svg>
