<svg width="24" height="24" viewBox="0 0 24 24" fill="none" xmlns="http://www.w3.org/2000/svg">
<path d="M10.5271 14.3673V10.1127L14.2907 12.2401L10.5271 14.3673ZM18.8989 8.77404C18.7333 8.15444 18.2453 7.66654 17.6258 7.50095C16.5028 7.20001 11.9998 7.20001 11.9998 7.20001C11.9998 7.20001 7.49678 7.20001 6.37382 7.50095C5.7543 7.66654 5.26633 8.15444 5.10073 8.77404C4.7998 9.89698 4.7998 12.24 4.7998 12.24C4.7998 12.24 4.7998 14.583 5.10073 15.706C5.26633 16.3256 5.7543 16.8135 6.37382 16.9792C7.49678 17.28 11.9998 17.28 11.9998 17.28C11.9998 17.28 16.5028 17.28 17.6258 16.9792C18.2453 16.8135 18.7333 16.3256 18.8989 15.706C19.1998 14.583 19.1998 12.24 19.1998 12.24C19.1998 12.24 19.1998 9.89698 18.8989 8.77404Z" fill="#254854"/>
</svg>
