<svg width="24" height="24" viewBox="0 0 24 24" fill="none" xmlns="http://www.w3.org/2000/svg">
<path d="M11.9998 7.19922C13.7398 7.19922 15.2398 8.15922 15.9598 9.59922C17.8198 9.83922 19.1998 11.3392 19.1998 13.1992C19.1998 15.1792 17.5798 16.7992 15.5998 16.7992H7.7998C6.1198 16.7992 4.7998 15.4792 4.7998 13.7992C4.7998 12.2392 6.0598 10.9192 7.5598 10.7992C7.9798 8.75922 9.7798 7.19922 11.9998 7.19922ZM11.9998 9.59922C11.6684 9.59922 11.3998 9.86785 11.3998 10.1992L11.3993 13.5808L10.6883 12.8694C10.454 12.6351 10.0741 12.6351 9.8398 12.8694C9.60549 13.1037 9.60549 13.4836 9.8398 13.7179L11.5369 15.415C11.6274 15.5055 11.7398 15.5611 11.857 15.5816C11.9026 15.5933 11.9505 15.5992 11.9998 15.5992C12.1678 15.5992 12.3197 15.5302 12.4286 15.4189L14.1297 13.7179C14.364 13.4836 14.364 13.1037 14.1297 12.8694C13.8953 12.6351 13.5154 12.6351 13.2811 12.8694L12.5993 13.5514L12.5998 10.1992C12.5998 9.86785 12.3312 9.59922 11.9998 9.59922Z" fill="#E5853C"/>
</svg>
