<?xml version="1.0" encoding="UTF-8"?>
<svg width="30px" height="30px" viewBox="0 0 30 30" version="1.1" xmlns="http://www.w3.org/2000/svg" xmlns:xlink="http://www.w3.org/1999/xlink">
    <!-- Generator: Sketch 50.2 (55047) - http://www.bohemiancoding.com/sketch -->
    <title>Group 16</title>
    <desc>Created with Sketch.</desc>
    <defs></defs>
    <g id="Page-1" stroke="none" stroke-width="1" fill="none" fill-rule="evenodd">
        <g id="Event_Article-Page" transform="translate(-865.000000, -4342.000000)">
            <g id="Group-16" transform="translate(865.000000, 4342.000000)">
                <g id="Instagram" transform="translate(9.000000, 9.000000)">
                    <rect id="Rectangle-path" x="0" y="0" width="10.4166667" height="10.4166667"></rect>
                    <path d="M10.3362305,2.91376953 C10.3362305,3.32802734 10.0003906,3.66376953 9.58623052,3.66376953 C9.17207031,3.66376953 8.83623052,3.32802734 8.83623052,2.91376953 C8.83623052,2.49951172 9.17207031,2.16376953 9.58623052,2.16376953 C10.0004883,2.16376953 10.3362305,2.49951172 10.3362305,2.91376953 Z M6.25,8.33330073 C5.09941406,8.33330073 4.16669922,7.40058594 4.16669922,6.25 C4.16669922,5.09941406 5.09941406,4.16669922 6.25,4.16669922 C7.40058594,4.16669922 8.33330073,5.09941406 8.33330073,6.25 C8.33330073,7.40058594 7.40058594,8.33330073 6.25,8.33330073 Z M6.25,3.04052734 C4.47744141,3.04052734 3.04052734,4.47744141 3.04052734,6.25 C3.04052734,8.02255854 4.47744141,9.45947271 6.25,9.45947271 C8.02255854,9.45947271 9.45947271,8.02255854 9.45947271,6.25 C9.4594726,4.47744141 8.02255854,3.04052734 6.25,3.04052734 Z M6.25,1.12617187 C7.91884771,1.12617187 8.11650396,1.13251953 8.77548833,1.16259766 C9.38486333,1.19042969 9.71582031,1.2921875 9.93603521,1.37783203 C10.2277344,1.49121094 10.4359375,1.62666016 10.6546875,1.84541016 C10.8734375,2.0640625 11.0088868,2.27226563 11.1222656,2.5640625 C11.2078125,2.78427734 11.309668,3.11523438 11.3375,3.72460938 C11.3675781,4.38369141 11.3739258,4.58134766 11.3739258,6.25019531 C11.3739258,7.91904292 11.3675781,8.11669917 11.3375,8.77568354 C11.309668,9.38505854 11.2079102,9.71601563 11.1222656,9.93623042 C11.0088868,10.2279297 10.8734375,10.4361328 10.6546875,10.6548828 C10.4360352,10.8736328 10.2278321,11.009082 9.93603521,11.1224609 C9.71582031,11.2080078 9.38486333,11.3098632 8.77548833,11.3376953 C8.11650396,11.3677734 7.91884771,11.374121 6.25,11.374121 C4.58105469,11.374121 4.38339844,11.3677734 3.72441406,11.3376953 C3.11503906,11.3098632 2.78408203,11.2081054 2.56386719,11.1224609 C2.27216797,11.009082 2.06396484,10.8736328 1.84521484,10.6548828 C1.6265625,10.4362304 1.49101562,10.2280273 1.37763672,9.93623042 C1.29208984,9.71601563 1.19023437,9.38505854 1.16240234,8.77568354 C1.13232422,8.11660156 1.12597656,7.91894531 1.12597656,6.25019531 C1.12597656,4.58134766 1.13232422,4.38369141 1.16240234,3.72460938 C1.19023437,3.11523438 1.29199219,2.78427734 1.37763672,2.5640625 C1.49101562,2.27236328 1.62646484,2.06416016 1.84521484,1.84541016 C2.06386719,1.62666016 2.27207031,1.49121094 2.56386719,1.37783203 C2.78408203,1.29228516 3.11503906,1.19042969 3.72441406,1.16259766 C4.38349609,1.13251953 4.58115234,1.12617187 6.25,1.12617187 Z M6.25,0 C4.55263672,0 4.33974609,0.0072265625 3.67314453,0.0375976562 C3.00791016,0.06796875 2.55351563,0.173632812 2.15605469,0.328125 C1.74501953,0.487792969 1.39648438,0.7015625 1.04902344,1.04902344 C0.7015625,1.39648438 0.487792969,1.74501953 0.328125,2.15605469 C0.173632812,2.55361328 0.06796875,3.00791016 0.0375976562,3.67314453 C0.0072265625,4.33974609 0,4.55263672 0,6.25 C0,7.94736323 0.0072265625,8.16025396 0.0375976562,8.82685552 C0.06796875,9.4920899 0.173632812,9.94638667 0.328125,10.3439453 C0.487792969,10.7549804 0.7015625,11.1035156 1.04902344,11.4509766 C1.39648438,11.7984375 1.74501953,12.0121094 2.15605469,12.171875 C2.55361328,12.3263672 3.00791016,12.4320312 3.67314453,12.4624023 C4.33974609,12.4927734 4.55263672,12.5 6.25,12.5 C7.94736323,12.5 8.16025396,12.4927734 8.82685552,12.4624023 C9.4920899,12.4320312 9.94638667,12.3263672 10.3439453,12.171875 C10.7549804,12.0121094 11.1035156,11.7984375 11.4509766,11.4509766 C11.7984375,11.1035156 12.0121094,10.7549804 12.171875,10.3439453 C12.3263672,9.94638667 12.4320312,9.4920899 12.4624023,8.82685552 C12.4927734,8.16025396 12.5,7.94736323 12.5,6.25 C12.5,4.55263672 12.4927734,4.33974609 12.4624023,3.67314453 C12.4320312,3.00791016 12.3263672,2.55361328 12.171875,2.15605469 C12.0121094,1.74501953 11.7984375,1.39648438 11.4509766,1.04902344 C11.1035156,0.7015625 10.7549804,0.487890625 10.3439453,0.328125 C9.94638667,0.173632812 9.4920899,0.06796875 8.82685552,0.0375976562 C8.16025396,0.0072265625 7.94736323,0 6.25,0 Z" fill="#254854" fill-rule="nonzero"></path>
                </g>
                <rect id="Rectangle-19" stroke="#6E7C8D" x="0.5" y="0.5" width="29" height="29" rx="14.5"></rect>
            </g>
        </g>
    </g>
</svg>
