<svg width="21" height="21" viewBox="0 0 21 21" fill="none" xmlns="http://www.w3.org/2000/svg">
<g id="Group 15">
<g id="Linkedin">
<path id="Shape" fill-rule="evenodd" clip-rule="evenodd" d="M7.48866 7.71285C6.93475 7.7177 6.48428 7.27357 6.47945 6.72155C6.47462 6.16962 6.91734 5.71777 7.47116 5.71293C8.02281 5.7081 8.47455 6.15221 8.47938 6.70405C8.4842 7.25607 8.04031 7.70802 7.48866 7.71285ZM8.20106 13.0398L6.86778 13.0514L6.82695 8.38496L8.16024 8.3733L8.20106 13.0398ZM12.7062 13.0013L14.2026 12.9882L14.1776 10.1342C14.1654 8.73262 13.8759 7.65752 12.3606 7.67078C11.6325 7.67715 11.1479 8.11285 10.952 8.5237L10.9314 8.52388L10.9252 7.81242L9.49058 7.82497L9.53612 13.029L11.0309 13.0159L11.0084 10.4419C11.0025 9.76303 11.1156 9.10445 11.8943 9.09764C12.6623 9.09092 12.6787 9.86705 12.684 10.4706L12.7062 13.0013Z" fill="#254854"/>
</g>
<rect id="Rectangle 19" x="0.852988" y="0.670411" width="19" height="19" rx="9.5" transform="rotate(-0.501299 0.852988 0.670411)" stroke="#6E7C8D"/>
</g>
</svg>
