<?xml version="1.0" encoding="iso-8859-1"?>
<!-- Generator: Adobe Illustrator 19.0.0, SVG Export Plug-In . SVG Version: 6.00 Build 0)  -->
<svg version="1.1" id="Layer_1" xmlns="http://www.w3.org/2000/svg" xmlns:xlink="http://www.w3.org/1999/xlink" x="0px" y="0px"
	 viewBox="0 0 512 512" style="enable-background:new 0 0 512 512;" xml:space="preserve">
<rect x="8.017" y="76.426" style="fill:#FFC20D;" width="495.967" height="324.944"/>
<rect x="8.017" y="76.426" style="fill:#EBAB17;" width="17.102" height="324.944"/>
<path style="fill:#D3D3D5;" d="M315.858,367.165H76.426c-18.891,0-34.205-15.314-34.205-34.205V144.835
	c0-18.891,15.314-34.205,34.205-34.205h239.432c18.891,0,34.205,15.314,34.205,34.205V332.96
	C350.063,351.851,334.749,367.165,315.858,367.165z"/>
<g>
	<path style="fill:#909296;" d="M76.426,110.63c-18.891,0-34.205,15.314-34.205,34.205v44.894l79.098-79.098H76.426z"/>
	<path style="fill:#909296;" d="M315.858,110.63H148.042l-105.82,105.82V332.96c0,16.879,12.229,30.892,28.309,33.687
		l254.706-254.706C322.254,111.094,319.111,110.63,315.858,110.63z"/>
	<polygon style="fill:#909296;" points="233.909,367.165 350.063,251.011 350.063,196.855 179.753,367.165 	"/>
	<path style="fill:#909296;" d="M315.858,367.165c18.891,0,34.205-15.314,34.205-34.205v-50.594l-84.799,84.799H315.858z"/>
</g>
<rect x="384.267" y="110.63" style="fill:#4E5058;" width="94.063" height="256.534"/>
<rect x="384.267" y="110.63" style="fill:#D3D3D5;" width="94.063" height="76.96"/>
<rect x="409.921" y="213.244" style="fill:#7DBB34;" width="42.756" height="25.653"/>
<rect x="33.67" y="401.37" style="fill:#4E5058;" width="444.66" height="34.205"/>
<rect x="33.67" y="401.37" style="fill:#383A43;" width="17.102" height="34.205"/>
<path d="M503.983,68.409H392.818c-4.427,0-8.017,3.588-8.017,8.017s3.589,8.017,8.017,8.017h103.148v308.91H16.033V84.443h342.58
	c4.427,0,8.017-3.588,8.017-8.017s-3.589-8.017-8.017-8.017H8.017C3.589,68.409,0,71.997,0,76.426V401.37
	c0,4.428,3.589,8.017,8.017,8.017h17.637v26.188c0,4.428,3.589,8.017,8.017,8.017h444.66c4.427,0,8.017-3.588,8.017-8.017v-26.188
	h17.637c4.427,0,8.017-3.588,8.017-8.017V76.426C512,71.997,508.411,68.409,503.983,68.409z M470.313,427.557H41.687v-18.171
	h428.626V427.557z"/>
<path d="M42.221,273.637c-4.427,0-8.017,3.588-8.017,8.017v51.307c0,23.281,18.941,42.221,42.221,42.221h239.432
	c23.281,0,42.221-18.941,42.221-42.221V144.835c0-23.281-18.941-42.221-42.221-42.221H76.426c-23.28,0-42.221,18.941-42.221,42.221
	v94.063c0,4.428,3.589,8.017,8.017,8.017s8.017-3.588,8.017-8.017v-94.063c0-14.441,11.748-26.188,26.188-26.188h239.432
	c14.44,0,26.188,11.747,26.188,26.188V332.96c0,14.441-11.748,26.188-26.188,26.188H76.426c-14.44,0-26.188-11.747-26.188-26.188
	v-51.307C50.238,277.225,46.649,273.637,42.221,273.637z"/>
<path d="M384.267,375.182h94.063c4.427,0,8.017-3.588,8.017-8.017V110.63c0-4.428-3.589-8.017-8.017-8.017h-94.063
	c-4.427,0-8.017,3.588-8.017,8.017v256.534C376.251,371.593,379.84,375.182,384.267,375.182z M470.313,298.221v9.62h-78.029v-9.62
	H470.313z M392.284,282.188v-9.62h78.029v9.62H392.284z M470.313,323.875v9.62h-78.029v-9.62H470.313z M470.313,256.534h-78.029
	v-60.927h78.029V256.534z M392.284,359.148v-9.62h78.029v9.62H392.284z M392.284,118.647h78.029v60.927h-78.029V118.647z"/>
<path d="M418.472,128.267h-8.551c-4.427,0-8.017,3.588-8.017,8.017c0,4.428,3.589,8.017,8.017,8.017h8.551
	c4.427,0,8.017-3.588,8.017-8.017C426.489,131.855,422.899,128.267,418.472,128.267z"/>
<path d="M452.676,128.267h-8.551c-4.427,0-8.017,3.588-8.017,8.017c0,4.428,3.589,8.017,8.017,8.017h8.551
	c4.427,0,8.017-3.588,8.017-8.017C460.693,131.855,457.104,128.267,452.676,128.267z"/>
<path d="M418.472,153.921h-8.551c-4.427,0-8.017,3.588-8.017,8.017c0,4.428,3.589,8.017,8.017,8.017h8.551
	c4.427,0,8.017-3.588,8.017-8.017C426.489,157.509,422.899,153.921,418.472,153.921z"/>
<path d="M452.676,153.921h-8.551c-4.427,0-8.017,3.588-8.017,8.017c0,4.428,3.589,8.017,8.017,8.017h8.551
	c4.427,0,8.017-3.588,8.017-8.017C460.693,157.509,457.104,153.921,452.676,153.921z"/>
<path d="M409.921,246.914h42.756c4.427,0,8.017-3.588,8.017-8.017v-25.653c0-4.428-3.589-8.017-8.017-8.017h-42.756
	c-4.427,0-8.017,3.588-8.017,8.017v25.653C401.904,243.326,405.493,246.914,409.921,246.914z M417.937,221.261h26.722v9.62h-26.722
	V221.261z"/>
<g>
</g>
<g>
</g>
<g>
</g>
<g>
</g>
<g>
</g>
<g>
</g>
<g>
</g>
<g>
</g>
<g>
</g>
<g>
</g>
<g>
</g>
<g>
</g>
<g>
</g>
<g>
</g>
<g>
</g>
</svg>
