<svg width="21" height="21" viewBox="0 0 21 21" fill="none" xmlns="http://www.w3.org/2000/svg">
<g id="Group 14">
<g id="Twitter">
<path id="Shape" d="M13.9411 7.48118C14.3346 7.24864 14.6347 6.88329 14.774 6.44961C14.4059 6.66501 13.9973 6.82272 13.562 6.90949C13.2096 6.55272 12.7101 6.3322 12.1595 6.33702C11.1018 6.34627 10.2518 7.18263 10.2608 8.20498C10.262 8.35018 10.2802 8.49113 10.3141 8.62651C8.72187 8.56322 7.30471 7.83849 6.35061 6.72677C6.1882 7.00149 6.09649 7.32051 6.09946 7.65972C6.10507 8.30195 6.44813 8.86575 6.96475 9.19318C6.65086 9.18629 6.35467 9.10551 6.09543 8.96902C6.09528 8.97682 6.09535 8.98461 6.09542 8.99241C6.10327 9.88966 6.76978 10.6316 7.64716 10.7943C7.48675 10.8379 7.3179 10.8621 7.14334 10.8636C7.01989 10.8647 6.89985 10.854 6.78279 10.8334C7.03293 11.5668 7.74478 12.0962 8.58262 12.1036C7.93177 12.6056 7.10873 12.9088 6.21163 12.9166C6.05701 12.918 5.90454 12.9109 5.75464 12.8948C6.60649 13.4127 7.61583 13.7104 8.69704 13.7009C12.2187 13.6701 14.12 10.8322 14.0986 8.38584C14.0979 8.30565 14.0949 8.22568 14.0906 8.14645C14.4633 7.8825 14.7848 7.55358 15.0383 7.18013C14.6964 7.33048 14.3282 7.43318 13.9411 7.48118Z" fill="#254854"/>
</g>
<rect id="Rectangle 19" x="0.678672" y="0.670411" width="19" height="19" rx="9.5" transform="rotate(-0.501299 0.678672 0.670411)" stroke="#6E7C8D"/>
</g>
</svg>
