<svg width="24" height="24" viewBox="0 0 24 24" fill="none" xmlns="http://www.w3.org/2000/svg">
<g opacity="0.9">
<rect width="24" height="24" rx="8" fill="#254854"/>
<path fill-rule="evenodd" clip-rule="evenodd" d="M14.2274 8.10915C14.0939 7.57495 13.6139 7.2002 13.0633 7.2002H10.9371C10.3865 7.2002 9.90651 7.57495 9.77296 8.10915L9.6998 8.4002H8.0002C7.55837 8.4002 7.2002 8.75837 7.2002 9.2002C7.2002 9.64202 7.55837 10.0002 8.0002 10.0002H8.1526L8.73123 16.076C8.77033 16.4866 9.11518 16.8002 9.52762 16.8002H14.4728C14.8852 16.8002 15.2301 16.4866 15.2692 16.076L15.8478 10.0002H16.0002C16.442 10.0002 16.8002 9.64202 16.8002 9.2002C16.8002 8.75837 16.442 8.4002 16.0002 8.4002H14.3002L14.2274 8.10915ZM12.0002 11.2002C11.5584 11.2002 11.2002 11.5584 11.2002 12.0002V13.6002C11.2002 14.042 11.5584 14.4002 12.0002 14.4002C12.442 14.4002 12.8002 14.042 12.8002 13.6002V12.0002C12.8002 11.5584 12.442 11.2002 12.0002 11.2002Z" fill="white"/>
</g>
</svg>
