<svg width="24" height="24" viewBox="0 0 24 24" fill="none" xmlns="http://www.w3.org/2000/svg">
<path fill-rule="evenodd" clip-rule="evenodd" d="M15.3416 6.16324C15.1413 5.36194 14.4213 4.7998 13.5954 4.7998H10.4062C9.58022 4.7998 8.86025 5.36194 8.65992 6.16324L8.55018 6.5998H6.00078C5.33804 6.5998 4.80078 7.13706 4.80078 7.7998C4.80078 8.46255 5.33804 8.9998 6.00078 8.9998H6.22938L7.09733 18.1136C7.15599 18.7295 7.67326 19.1998 8.29193 19.1998H15.7096C16.3283 19.1998 16.8456 18.7295 16.9042 18.1136L17.7722 8.9998H18.0008C18.6635 8.9998 19.2008 8.46255 19.2008 7.7998C19.2008 7.13706 18.6635 6.5998 18.0008 6.5998H15.4508L15.3416 6.16324ZM12.0008 10.7998C11.338 10.7998 10.8008 11.3371 10.8008 11.9998V14.3998C10.8008 15.0625 11.338 15.5998 12.0008 15.5998C12.6635 15.5998 13.2008 15.0625 13.2008 14.3998V11.9998C13.2008 11.3371 12.6635 10.7998 12.0008 10.7998Z" fill="#70B9C3"/>
</svg>
