<svg width="32" height="32" viewBox="0 0 32 32" fill="none" xmlns="http://www.w3.org/2000/svg">
<rect x="14" y="16" width="14" height="12" rx="1" fill="#A7D0D6"/>
<path fill-rule="evenodd" clip-rule="evenodd" d="M25.6004 12.96C25.6004 11.8944 24.746 11.04 23.6804 11.04H19.8404V9.11995C19.8404 8.05435 18.986 7.19995 17.9204 7.19995H14.0804C13.0148 7.19995 12.1604 8.05435 12.1604 9.11995V11.04H8.32039C7.25479 11.04 6.40999 11.8944 6.40999 12.96L6.40039 23.5199C6.40039 24.5855 7.25479 25.4399 8.32039 25.4399H23.6804C24.746 25.4399 25.6004 24.5855 25.6004 23.5199V12.96ZM17.9204 11.04V9.11995H14.0804V11.04H17.9204ZM8.32039 12.96V23.5199H23.6804V12.96H8.32039Z" fill="#254854"/>
</svg>
