<svg width="122" height="120" viewBox="0 0 122 120" fill="none" xmlns="http://www.w3.org/2000/svg">
<g clip-path="url(#clip0)">
<path fill-rule="evenodd" clip-rule="evenodd" d="M10.8712 4.81326C9.60101 4.81326 8.56641 3.77526 8.56641 2.49966C8.56641 1.22406 9.60101 0.187256 10.8712 0.187256C12.1439 0.187256 13.1773 1.22406 13.1773 2.49966C13.1773 3.77526 12.1439 4.81326 10.8712 4.81326Z" fill="#254854"/>
<path fill-rule="evenodd" clip-rule="evenodd" d="M32.5634 4.81326C31.2919 4.81326 30.2573 3.77526 30.2573 2.49966C30.2573 1.22406 31.2919 0.187256 32.5634 0.187256C33.836 0.187256 34.8694 1.22406 34.8694 2.49966C34.8694 3.77526 33.836 4.81326 32.5634 4.81326Z" fill="#254854"/>
<path fill-rule="evenodd" clip-rule="evenodd" d="M54.2553 4.81326C52.9826 4.81326 51.9492 3.77526 51.9492 2.49966C51.9492 1.22406 52.9826 0.187256 54.2553 0.187256C55.5255 0.187256 56.5613 1.22406 56.5613 2.49966C56.5613 3.77526 55.5255 4.81326 54.2553 4.81326Z" fill="#254854"/>
<path fill-rule="evenodd" clip-rule="evenodd" d="M75.9471 4.81326C74.6745 4.81326 73.6411 3.77526 73.6411 2.49966C73.6411 1.22406 74.6745 0.187256 75.9471 0.187256C77.2174 0.187256 78.252 1.22406 78.252 2.49966C78.252 3.77526 77.2174 4.81326 75.9471 4.81326Z" fill="#254854"/>
<path fill-rule="evenodd" clip-rule="evenodd" d="M97.6371 4.81326C96.3669 4.81326 95.3335 3.77526 95.3335 2.49966C95.3335 1.22406 96.3669 0.187256 97.6371 0.187256C98.9098 0.187256 99.9444 1.22406 99.9444 2.49966C99.9444 3.77526 98.9098 4.81326 97.6371 4.81326Z" fill="#254854"/>
<path fill-rule="evenodd" clip-rule="evenodd" d="M119.329 4.81326C118.059 4.81326 117.023 3.77526 117.023 2.49966C117.023 1.22406 118.059 0.187256 119.329 0.187256C120.602 0.187256 121.635 1.22406 121.635 2.49966C121.635 3.77526 120.602 4.81326 119.329 4.81326Z" fill="#254854"/>
<path fill-rule="evenodd" clip-rule="evenodd" d="M10.8712 24.6577C9.60101 24.6577 8.56641 23.6197 8.56641 22.3441C8.56641 21.0685 9.60101 20.0317 10.8712 20.0317C12.1439 20.0317 13.1773 21.0685 13.1773 22.3441C13.1773 23.6197 12.1439 24.6577 10.8712 24.6577Z" fill="#254854"/>
<path fill-rule="evenodd" clip-rule="evenodd" d="M32.5634 24.6577C31.2919 24.6577 30.2573 23.6197 30.2573 22.3441C30.2573 21.0685 31.2919 20.0317 32.5634 20.0317C33.836 20.0317 34.8694 21.0685 34.8694 22.3441C34.8694 23.6197 33.836 24.6577 32.5634 24.6577Z" fill="#254854"/>
<path fill-rule="evenodd" clip-rule="evenodd" d="M54.2553 24.6577C52.9826 24.6577 51.9492 23.6197 51.9492 22.3441C51.9492 21.0685 52.9826 20.0317 54.2553 20.0317C55.5255 20.0317 56.5613 21.0685 56.5613 22.3441C56.5613 23.6197 55.5255 24.6577 54.2553 24.6577Z" fill="#254854"/>
<path fill-rule="evenodd" clip-rule="evenodd" d="M75.9471 24.6577C74.6745 24.6577 73.6411 23.6197 73.6411 22.3441C73.6411 21.0685 74.6745 20.0317 75.9471 20.0317C77.2174 20.0317 78.252 21.0685 78.252 22.3441C78.252 23.6197 77.2174 24.6577 75.9471 24.6577Z" fill="#254854"/>
<path fill-rule="evenodd" clip-rule="evenodd" d="M97.6371 24.6577C96.3669 24.6577 95.3335 23.6197 95.3335 22.3441C95.3335 21.0685 96.3669 20.0317 97.6371 20.0317C98.9098 20.0317 99.9444 21.0685 99.9444 22.3441C99.9444 23.6197 98.9098 24.6577 97.6371 24.6577Z" fill="#254854"/>
<path fill-rule="evenodd" clip-rule="evenodd" d="M119.329 24.6577C118.059 24.6577 117.023 23.6197 117.023 22.3441C117.023 21.0685 118.059 20.0317 119.329 20.0317C120.602 20.0317 121.635 21.0685 121.635 22.3441C121.635 23.6197 120.602 24.6577 119.329 24.6577Z" fill="#254854"/>
<path fill-rule="evenodd" clip-rule="evenodd" d="M10.8712 44.5032C9.60101 44.5032 8.56641 43.4652 8.56641 42.1896C8.56641 40.914 9.60101 39.876 10.8712 39.876C12.1439 39.876 13.1773 40.914 13.1773 42.1896C13.1773 43.4652 12.1439 44.5032 10.8712 44.5032Z" fill="#254854"/>
<path fill-rule="evenodd" clip-rule="evenodd" d="M32.5634 44.5032C31.2919 44.5032 30.2573 43.4652 30.2573 42.1896C30.2573 40.914 31.2919 39.876 32.5634 39.876C33.836 39.876 34.8694 40.914 34.8694 42.1896C34.8694 43.4652 33.836 44.5032 32.5634 44.5032Z" fill="#254854"/>
<path fill-rule="evenodd" clip-rule="evenodd" d="M54.2553 44.5032C52.9826 44.5032 51.9492 43.4652 51.9492 42.1896C51.9492 40.914 52.9826 39.876 54.2553 39.876C55.5255 39.876 56.5613 40.914 56.5613 42.1896C56.5613 43.4652 55.5255 44.5032 54.2553 44.5032Z" fill="#254854"/>
<path fill-rule="evenodd" clip-rule="evenodd" d="M75.9471 44.5032C74.6745 44.5032 73.6411 43.4652 73.6411 42.1896C73.6411 40.914 74.6745 39.876 75.9471 39.876C77.2174 39.876 78.252 40.914 78.252 42.1896C78.252 43.4652 77.2174 44.5032 75.9471 44.5032Z" fill="#254854"/>
<path fill-rule="evenodd" clip-rule="evenodd" d="M97.6371 44.5032C96.3669 44.5032 95.3335 43.4652 95.3335 42.1896C95.3335 40.914 96.3669 39.876 97.6371 39.876C98.9098 39.876 99.9444 40.914 99.9444 42.1896C99.9444 43.4652 98.9098 44.5032 97.6371 44.5032Z" fill="#254854"/>
<path fill-rule="evenodd" clip-rule="evenodd" d="M119.329 44.5032C118.059 44.5032 117.023 43.4652 117.023 42.1896C117.023 40.914 118.059 39.876 119.329 39.876C120.602 39.876 121.635 40.914 121.635 42.1896C121.635 43.4652 120.602 44.5032 119.329 44.5032Z" fill="#254854"/>
<path fill-rule="evenodd" clip-rule="evenodd" d="M10.8712 64.3477C9.60101 64.3477 8.56641 63.3097 8.56641 62.0341C8.56641 60.7585 9.60101 59.7205 10.8712 59.7205C12.1439 59.7205 13.1773 60.7585 13.1773 62.0341C13.1773 63.3097 12.1439 64.3477 10.8712 64.3477Z" fill="#254854"/>
<path fill-rule="evenodd" clip-rule="evenodd" d="M32.5634 64.3477C31.2919 64.3477 30.2573 63.3097 30.2573 62.0341C30.2573 60.7585 31.2919 59.7205 32.5634 59.7205C33.836 59.7205 34.8694 60.7585 34.8694 62.0341C34.8694 63.3097 33.836 64.3477 32.5634 64.3477Z" fill="#254854"/>
<path fill-rule="evenodd" clip-rule="evenodd" d="M54.2553 64.3477C52.9826 64.3477 51.9492 63.3097 51.9492 62.0341C51.9492 60.7585 52.9826 59.7205 54.2553 59.7205C55.5255 59.7205 56.5613 60.7585 56.5613 62.0341C56.5613 63.3097 55.5255 64.3477 54.2553 64.3477Z" fill="#254854"/>
<path fill-rule="evenodd" clip-rule="evenodd" d="M75.9471 64.3477C74.6745 64.3477 73.6411 63.3097 73.6411 62.0341C73.6411 60.7585 74.6745 59.7205 75.9471 59.7205C77.2174 59.7205 78.252 60.7585 78.252 62.0341C78.252 63.3097 77.2174 64.3477 75.9471 64.3477Z" fill="#254854"/>
<path fill-rule="evenodd" clip-rule="evenodd" d="M97.6371 64.3477C96.3669 64.3477 95.3335 63.3097 95.3335 62.0341C95.3335 60.7585 96.3669 59.7205 97.6371 59.7205C98.9098 59.7205 99.9444 60.7585 99.9444 62.0341C99.9444 63.3097 98.9098 64.3477 97.6371 64.3477Z" fill="#254854"/>
<path fill-rule="evenodd" clip-rule="evenodd" d="M119.329 64.3477C118.059 64.3477 117.023 63.3097 117.023 62.0341C117.023 60.7585 118.059 59.7205 119.329 59.7205C120.602 59.7205 121.635 60.7585 121.635 62.0341C121.635 63.3097 120.602 64.3477 119.329 64.3477Z" fill="#254854"/>
<path fill-rule="evenodd" clip-rule="evenodd" d="M10.8712 84.1919C9.60101 84.1919 8.56641 83.1539 8.56641 81.8783C8.56641 80.6027 9.60101 79.5647 10.8712 79.5647C12.1439 79.5647 13.1773 80.6027 13.1773 81.8783C13.1773 83.1539 12.1439 84.1919 10.8712 84.1919Z" fill="#254854"/>
<path fill-rule="evenodd" clip-rule="evenodd" d="M32.5634 84.1919C31.2919 84.1919 30.2573 83.1539 30.2573 81.8783C30.2573 80.6027 31.2919 79.5647 32.5634 79.5647C33.836 79.5647 34.8694 80.6027 34.8694 81.8783C34.8694 83.1539 33.836 84.1919 32.5634 84.1919Z" fill="#254854"/>
<path fill-rule="evenodd" clip-rule="evenodd" d="M54.2553 84.1919C52.9826 84.1919 51.9492 83.1539 51.9492 81.8783C51.9492 80.6027 52.9826 79.5647 54.2553 79.5647C55.5255 79.5647 56.5613 80.6027 56.5613 81.8783C56.5613 83.1539 55.5255 84.1919 54.2553 84.1919Z" fill="#254854"/>
<path fill-rule="evenodd" clip-rule="evenodd" d="M75.9471 84.1919C74.6745 84.1919 73.6411 83.1539 73.6411 81.8783C73.6411 80.6027 74.6745 79.5647 75.9471 79.5647C77.2174 79.5647 78.252 80.6027 78.252 81.8783C78.252 83.1539 77.2174 84.1919 75.9471 84.1919Z" fill="#254854"/>
<path fill-rule="evenodd" clip-rule="evenodd" d="M97.6371 84.1919C96.3669 84.1919 95.3335 83.1539 95.3335 81.8783C95.3335 80.6027 96.3669 79.5647 97.6371 79.5647C98.9098 79.5647 99.9444 80.6027 99.9444 81.8783C99.9444 83.1539 98.9098 84.1919 97.6371 84.1919Z" fill="#254854"/>
<path fill-rule="evenodd" clip-rule="evenodd" d="M119.329 84.1919C118.059 84.1919 117.023 83.1539 117.023 81.8783C117.023 80.6027 118.059 79.5647 119.329 79.5647C120.602 79.5647 121.635 80.6027 121.635 81.8783C121.635 83.1539 120.602 84.1919 119.329 84.1919Z" fill="#254854"/>
<path fill-rule="evenodd" clip-rule="evenodd" d="M10.8712 104.036C9.60101 104.036 8.56641 102.998 8.56641 101.723C8.56641 100.447 9.60101 99.4104 10.8712 99.4104C12.1439 99.4104 13.1773 100.447 13.1773 101.723C13.1773 102.998 12.1439 104.036 10.8712 104.036Z" fill="#254854"/>
<path fill-rule="evenodd" clip-rule="evenodd" d="M32.5634 104.036C31.2919 104.036 30.2573 102.998 30.2573 101.723C30.2573 100.447 31.2919 99.4104 32.5634 99.4104C33.836 99.4104 34.8694 100.447 34.8694 101.723C34.8694 102.998 33.836 104.036 32.5634 104.036Z" fill="#254854"/>
<path fill-rule="evenodd" clip-rule="evenodd" d="M54.2553 104.036C52.9826 104.036 51.9492 102.998 51.9492 101.723C51.9492 100.447 52.9826 99.4104 54.2553 99.4104C55.5255 99.4104 56.5613 100.447 56.5613 101.723C56.5613 102.998 55.5255 104.036 54.2553 104.036Z" fill="#254854"/>
<path fill-rule="evenodd" clip-rule="evenodd" d="M75.9471 104.036C74.6745 104.036 73.6411 102.998 73.6411 101.723C73.6411 100.447 74.6745 99.4104 75.9471 99.4104C77.2174 99.4104 78.252 100.447 78.252 101.723C78.252 102.998 77.2174 104.036 75.9471 104.036Z" fill="#254854"/>
<path fill-rule="evenodd" clip-rule="evenodd" d="M97.6371 104.036C96.3669 104.036 95.3335 102.998 95.3335 101.723C95.3335 100.447 96.3669 99.4104 97.6371 99.4104C98.9098 99.4104 99.9444 100.447 99.9444 101.723C99.9444 102.998 98.9098 104.036 97.6371 104.036Z" fill="#254854"/>
<path fill-rule="evenodd" clip-rule="evenodd" d="M119.329 104.036C118.059 104.036 117.023 102.998 117.023 101.723C117.023 100.447 118.059 99.4104 119.329 99.4104C120.602 99.4104 121.635 100.447 121.635 101.723C121.635 102.998 120.602 104.036 119.329 104.036Z" fill="#254854"/>
<path opacity="0.7" fill-rule="evenodd" clip-rule="evenodd" d="M102.236 100.235C102.236 107.368 93.6058 110.935 88.5699 105.882L14.1113 31.1796C9.08428 26.1361 12.6565 17.532 19.7774 17.532H94.236C98.6542 17.532 102.236 21.1137 102.236 25.532V100.235Z" fill="#70B9C3"/>
<path d="M93.236 108.235C93.236 114.477 85.6845 117.597 81.2781 113.176L6.81955 38.4736C2.42092 34.0606 5.54658 26.532 11.7774 26.532H86.236C90.1019 26.532 93.236 29.666 93.236 33.532V108.235Z" stroke="#254854" stroke-width="2"/>
</g>
<defs>
<clipPath id="clip0">
<rect width="122" height="120" fill="white"/>
</clipPath>
</defs>
</svg>
