<svg width="467" height="539" viewBox="0 0 467 539" fill="none" xmlns="http://www.w3.org/2000/svg">
<path fill-rule="evenodd" clip-rule="evenodd" d="M197.905 9.29384C195.493 9.29384 193.539 7.33977 193.539 4.92817C193.539 2.51832 195.493 0.5625 197.905 0.5625C200.316 0.5625 202.27 2.51832 202.27 4.92817C202.27 7.33977 200.316 9.29384 197.905 9.29384ZM243.531 13.0937C241.178 13.0937 239.267 11.185 239.267 8.82929C239.267 6.47532 241.178 4.56665 243.531 4.56665C245.887 4.56665 247.794 6.47532 247.794 8.82929C247.794 11.185 245.887 13.0937 243.531 13.0937ZM283.65 20.5224C283.65 22.8188 285.514 24.6821 287.81 24.6821C290.108 24.6821 291.971 22.8188 291.971 20.5224C291.971 18.2244 290.108 16.3611 287.81 16.3611C285.514 16.3611 283.65 18.2244 283.65 20.5224ZM329.397 43.7443C327.157 43.7443 325.341 41.9281 325.341 39.6877C325.341 37.4472 327.157 35.6311 329.397 35.6311C331.638 35.6311 333.454 37.4472 333.454 39.6877C333.454 41.9281 331.638 43.7443 329.397 43.7443ZM363.116 65.7173C363.116 67.9001 364.886 69.6708 367.071 69.6708C369.254 69.6708 371.025 67.9001 371.025 65.7173C371.025 63.5327 369.254 61.762 367.071 61.762C364.886 61.762 363.116 63.5327 363.116 65.7173ZM399.742 101.654C397.615 101.654 395.892 99.9286 395.892 97.8017C395.892 95.6747 397.615 93.9512 399.742 93.9512C401.869 93.9512 403.593 95.6747 403.593 97.8017C403.593 99.9286 401.869 101.654 399.742 101.654ZM422.702 134.997C422.702 137.068 424.38 138.745 426.451 138.745C428.521 138.745 430.201 137.068 430.201 134.997C430.201 132.926 428.521 131.248 426.451 131.248C424.38 131.248 422.702 132.926 422.702 134.997ZM446.377 179.871C444.363 179.871 442.73 178.24 442.73 176.225C442.73 174.213 444.363 172.581 446.377 172.581C448.388 172.581 450.021 174.213 450.021 176.225C450.021 178.24 448.388 179.871 446.377 179.871ZM455.333 220.278C455.333 222.234 456.92 223.821 458.876 223.821C460.832 223.821 462.419 222.234 462.419 220.278C462.419 218.32 460.832 216.735 458.876 216.735C456.92 216.735 455.333 218.32 455.333 220.278ZM463.605 269.266C461.705 269.266 460.167 267.726 460.167 265.826C460.167 263.926 461.705 262.386 463.605 262.386C465.505 262.386 467.045 263.926 467.045 265.826C467.045 267.726 465.505 269.266 463.605 269.266ZM457.191 311.515C457.191 313.358 458.686 314.852 460.53 314.852C462.372 314.852 463.867 313.358 463.867 311.515C463.867 309.671 462.372 308.178 460.53 308.178C458.686 308.178 457.191 309.671 457.191 311.515ZM449.652 359.237C447.866 359.237 446.418 357.788 446.418 356.003C446.418 354.216 447.866 352.767 449.652 352.767C451.439 352.767 452.888 354.216 452.888 356.003C452.888 357.788 451.439 359.237 449.652 359.237ZM428.121 397.933C428.121 399.663 429.523 401.064 431.252 401.064C432.98 401.064 434.383 399.663 434.383 397.933C434.383 396.204 432.98 394.8 431.252 394.8C429.523 394.8 428.121 396.204 428.121 397.933ZM405.912 439.103C404.239 439.103 402.884 437.748 402.884 436.075C402.884 434.402 404.239 433.047 405.912 433.047C407.585 433.047 408.942 434.402 408.942 436.075C408.942 437.748 407.585 439.103 405.912 439.103ZM371.498 469.322C371.498 470.937 372.808 472.249 374.425 472.249C376.04 472.249 377.35 470.937 377.35 469.322C377.35 467.705 376.04 466.395 374.425 466.395C372.808 466.395 371.498 467.705 371.498 469.322ZM337.72 499.527C336.163 499.527 334.898 498.263 334.898 496.704C334.898 495.144 336.163 493.882 337.72 493.882C339.282 493.882 340.546 495.144 340.546 496.704C340.546 498.263 339.282 499.527 337.72 499.527ZM294.144 517.379C294.144 518.881 295.363 520.098 296.865 520.098C298.367 520.098 299.584 518.881 299.584 517.379C299.584 515.876 298.367 514.659 296.865 514.659C295.363 514.659 294.144 515.876 294.144 517.379ZM253.049 533.303C251.605 533.303 250.431 532.132 250.431 530.686C250.431 529.242 251.605 528.07 253.049 528.07C254.495 528.07 255.666 529.242 255.666 530.686C255.666 532.132 254.495 533.303 253.049 533.303ZM205.078 536.241C205.078 537.629 206.204 538.756 207.593 538.756C208.983 538.756 210.107 537.629 210.107 536.241C210.107 534.855 208.983 533.728 207.593 533.728C206.204 533.728 205.078 534.855 205.078 536.241ZM161.852 536.401C160.521 536.401 159.44 535.322 159.44 533.99C159.44 532.659 160.521 531.58 161.852 531.58C163.184 531.58 164.263 532.659 164.263 533.99C164.263 535.322 163.184 536.401 161.852 536.401ZM114.87 523.933C114.87 525.206 115.904 526.242 117.179 526.242C118.453 526.242 119.487 525.206 119.487 523.933C119.487 522.657 118.453 521.623 117.179 521.623C115.904 521.623 114.87 522.657 114.87 523.933ZM74.9138 508.508C73.6966 508.508 72.71 507.52 72.71 506.303C72.71 505.084 73.6966 504.095 74.9138 504.095C76.1327 504.095 77.1193 505.084 77.1193 506.303C77.1193 507.52 76.1327 508.508 74.9138 508.508ZM34.2153 481.661C34.2153 482.823 35.1566 483.764 36.3178 483.764C37.4791 483.764 38.4203 482.823 38.4203 481.661C38.4203 480.5 37.4791 479.557 36.3178 479.557C35.1566 479.557 34.2153 480.5 34.2153 481.661ZM2.49732 452.771C1.39193 452.771 0.496094 451.875 0.496094 450.77C0.496094 449.666 1.39193 448.772 2.49732 448.772C3.60096 448.772 4.4968 449.666 4.4968 450.77C4.4968 451.875 3.60096 452.771 2.49732 452.771ZM193.539 25.384C193.539 27.7956 195.493 29.7497 197.905 29.7497C200.316 29.7497 202.27 27.7956 202.27 25.384C202.27 22.9741 200.316 21.0183 197.905 21.0183C195.493 21.0183 193.539 22.9741 193.539 25.384ZM242.987 33.7189C240.668 33.7189 238.787 31.8382 238.787 29.5191C238.787 27.2001 240.668 25.3176 242.987 25.3176C245.306 25.3176 247.188 27.2001 247.188 29.5191C247.188 31.8382 245.306 33.7189 242.987 33.7189ZM282.503 41.8879C282.503 44.1162 284.311 45.9235 286.539 45.9235C288.767 45.9235 290.575 44.1162 290.575 41.8879C290.575 39.6597 288.767 37.8523 286.539 37.8523C284.311 37.8523 282.503 39.6597 282.503 41.8879ZM327.046 65.9618C324.908 65.9618 323.176 64.2313 323.176 62.0921C323.176 59.9564 324.908 58.2241 327.046 58.2241C329.183 58.2241 330.915 59.9564 330.915 62.0921C330.915 64.2313 329.183 65.9618 327.046 65.9618ZM359.449 89.4004C359.449 91.4453 361.108 93.1042 363.155 93.1042C365.2 93.1042 366.859 91.4453 366.859 89.4004C366.859 87.3538 365.2 85.6948 363.155 85.6948C361.108 85.6948 359.449 87.3538 359.449 89.4004ZM393.662 126.386C391.706 126.386 390.122 124.801 390.122 122.847C390.122 120.892 391.706 119.307 393.662 119.307C395.616 119.307 397.2 120.892 397.2 122.847C397.2 124.801 395.616 126.386 393.662 126.386ZM414.152 161.315C414.152 163.178 415.663 164.689 417.526 164.689C419.389 164.689 420.9 163.178 420.9 161.315C420.9 159.452 419.389 157.941 417.526 157.941C415.663 157.941 414.152 159.452 414.152 161.315ZM433.889 206.732C432.117 206.732 430.68 205.295 430.68 203.524C430.68 201.75 432.117 200.314 433.889 200.314C435.66 200.314 437.097 201.75 437.097 203.524C437.097 205.295 435.66 206.732 433.889 206.732ZM439.119 248.035C439.119 249.715 440.481 251.078 442.163 251.078C443.843 251.078 445.205 249.715 445.205 248.035C445.205 246.355 443.843 244.991 442.163 244.991C440.481 244.991 439.119 246.355 439.119 248.035ZM442.163 296.185C440.574 296.185 439.283 294.896 439.283 293.307C439.283 291.718 440.574 290.429 442.163 290.429C443.752 290.429 445.039 291.718 445.039 293.307C445.039 294.896 443.752 296.185 442.163 296.185ZM431.177 337.816C431.177 339.312 432.39 340.526 433.89 340.526C435.387 340.526 436.601 339.312 436.601 337.816C436.601 336.316 435.387 335.102 433.89 335.102C432.39 335.102 431.177 336.316 431.177 337.816ZM417.53 382.571C416.122 382.571 414.98 381.431 414.98 380.023C414.98 378.617 416.122 377.477 417.53 377.477C418.935 377.477 420.076 378.617 420.076 380.023C420.076 381.431 418.935 382.571 417.53 382.571ZM391.282 418.493C391.282 419.81 392.347 420.875 393.664 420.875C394.979 420.875 396.046 419.81 396.046 418.493C396.046 417.178 394.979 416.11 393.664 416.11C392.347 416.11 391.282 417.178 391.282 418.493ZM363.156 454.159C361.934 454.159 360.94 453.166 360.94 451.942C360.94 450.717 361.934 449.726 363.156 449.726C364.381 449.726 365.372 450.717 365.372 451.942C365.372 453.166 364.381 454.159 363.156 454.159ZM324.999 479.248C324.999 480.381 325.917 481.3 327.05 481.3C328.182 481.3 329.102 480.381 329.102 479.248C329.102 478.115 328.182 477.196 327.05 477.196C325.917 477.196 324.999 478.115 324.999 479.248ZM286.541 501.342C285.5 501.342 284.655 500.498 284.655 499.456C284.655 498.413 285.5 497.57 286.541 497.57C287.582 497.57 288.428 498.413 288.428 499.456C288.428 500.498 287.582 501.342 286.541 501.342ZM241.273 511.825C241.273 512.775 242.044 513.545 242.994 513.545C243.943 513.545 244.715 512.775 244.715 511.825C244.715 510.873 243.943 510.103 242.994 510.103C242.044 510.103 241.273 510.873 241.273 511.825ZM197.905 517.516C197.045 517.516 196.349 516.817 196.349 515.958C196.349 515.101 197.045 514.402 197.905 514.402C198.764 514.402 199.46 515.101 199.46 515.958C199.46 516.817 198.764 517.516 197.905 517.516ZM193.539 48.9462C193.539 51.3561 195.493 53.3119 197.905 53.3119C200.316 53.3119 202.27 51.3561 202.27 48.9462C202.27 46.5346 200.316 44.5806 197.905 44.5806C195.493 44.5806 193.539 46.5346 193.539 48.9462ZM241.172 57.1362C238.979 57.1362 237.201 55.3585 237.201 53.1651C237.201 50.9718 238.979 49.1924 241.172 49.1924C243.366 49.1924 245.145 50.9718 245.145 53.1651C245.145 55.3585 243.366 57.1362 241.172 57.1362ZM279.203 65.7697C279.203 67.7465 280.806 69.3478 282.779 69.3478C284.756 69.3478 286.357 67.7465 286.357 65.7697C286.357 63.7947 284.756 62.1934 282.779 62.1934C280.806 62.1934 279.203 63.7947 279.203 65.7697ZM321.099 89.4738C319.341 89.4738 317.916 88.0489 317.916 86.2904C317.916 84.5336 319.341 83.1069 321.099 83.1069C322.857 83.1069 324.281 84.5336 324.281 86.2904C324.281 88.0489 322.857 89.4738 321.099 89.4738ZM351.899 113.887C351.899 115.427 353.146 116.675 354.688 116.675C356.228 116.675 357.477 115.427 357.477 113.887C357.477 112.346 356.228 111.098 354.688 111.098C353.146 111.098 351.899 112.346 351.899 113.887ZM382.285 149.872C380.961 149.872 379.889 148.8 379.889 147.476C379.889 146.154 380.961 145.08 382.285 145.08C383.608 145.08 384.68 146.154 384.68 147.476C384.68 148.8 383.608 149.872 382.285 149.872ZM400.805 185.798C400.805 186.903 401.701 187.799 402.806 187.799C403.912 187.799 404.808 186.903 404.808 185.798C404.808 184.692 403.912 183.797 402.806 183.797C401.701 183.797 400.805 184.692 400.805 185.798ZM415.412 229.009C414.525 229.009 413.805 228.29 413.805 227.401C413.805 226.514 414.525 225.794 415.412 225.794C416.299 225.794 417.018 226.514 417.018 227.401C417.018 228.29 416.299 229.009 415.412 229.009ZM418.418 270.672C418.418 271.342 418.961 271.885 419.632 271.885C420.3 271.885 420.844 271.342 420.844 270.672C420.844 270.001 420.3 269.458 419.632 269.458C418.961 269.458 418.418 270.001 418.418 270.672Z" fill="url(#paint0_linear)"/>
<defs>
<linearGradient id="paint0_linear" x1="233.771" y1="0.5625" x2="72.5" y2="519.5" gradientUnits="userSpaceOnUse">
<stop stop-color="#70B9C3" stop-opacity="0.59"/>
<stop offset="1" stop-color="#E46040" stop-opacity="0.45"/>
</linearGradient>
</defs>
</svg>
