<svg width="32" height="32" viewBox="0 0 32 32" fill="none" xmlns="http://www.w3.org/2000/svg">
<path d="M15.9998 6.40039C19.9766 6.40039 23.1998 9.62359 23.1998 13.6004C23.1998 16.0053 21.2238 19.7972 17.2718 24.9761C17.1852 25.0895 17.0839 25.1908 16.9704 25.2774C16.3031 25.7867 15.3636 25.6904 14.8117 25.0772L14.7279 24.9761L14.4729 24.6403C10.6908 19.633 8.7998 15.953 8.7998 13.6004C8.7998 9.62359 12.023 6.40039 15.9998 6.40039ZM15.9998 8.00039C12.9067 8.00039 10.3998 10.5072 10.3998 13.6004C10.3998 15.4508 12.0907 18.7823 15.5113 23.3588L15.7472 23.6728L15.8407 23.7955C15.9076 23.8834 16.0331 23.9004 16.121 23.8334C16.1353 23.8226 16.148 23.8098 16.1589 23.7955L16.2415 23.6871L16.7088 23.062C19.9049 18.7408 21.5236 15.5638 21.5972 13.7292L21.5998 13.6004C21.5998 10.5072 19.0929 8.00039 15.9998 8.00039ZM15.9998 10.4004C17.7662 10.4004 19.1998 11.8329 19.1998 13.6004C19.1998 15.3668 17.7662 16.8004 15.9998 16.8004C14.2323 16.8004 12.7998 15.3668 12.7998 13.6004C12.7998 11.8329 14.2323 10.4004 15.9998 10.4004ZM15.9998 12.0004C15.116 12.0004 14.3998 12.7166 14.3998 13.6004C14.3998 14.4836 15.1164 15.2004 15.9998 15.2004C16.8825 15.2004 17.5998 14.4831 17.5998 13.6004C17.5998 12.717 16.883 12.0004 15.9998 12.0004Z" fill="white"/>
</svg>
