<svg width="24" height="24" viewBox="0 0 24 24" fill="none" xmlns="http://www.w3.org/2000/svg">
<path fill-rule="evenodd" clip-rule="evenodd" d="M8.60762 7.98564C8.60762 8.23467 8.80947 8.43652 9.05851 8.43652C9.30754 8.43652 9.50939 8.23467 9.50939 7.98564V5.25069C9.50939 5.00166 9.30754 4.7998 9.05851 4.7998C8.80947 4.7998 8.60762 5.00166 8.60762 5.25069V7.98564ZM14.4904 7.98564C14.4904 8.23467 14.6923 8.43652 14.9413 8.43652C15.1904 8.43652 15.3922 8.23467 15.3922 7.98564V5.25069C15.3922 5.00166 15.1904 4.7998 14.9413 4.7998C14.6923 4.7998 14.4904 5.00166 14.4904 5.25069V7.98564ZM5.4834 11.0551V17.2764C5.4834 18.337 6.3462 19.1998 7.40674 19.1998H16.5926C17.6531 19.1998 18.5159 18.337 18.5159 17.2764V11.0551H5.4834ZM18.5159 8.09076V10.1535H5.4834V8.09073C5.4834 7.03018 6.3462 6.16738 7.40674 6.16738H7.70565V7.98573C7.70565 8.73161 8.31244 9.33839 9.05832 9.33839C9.8042 9.33839 10.411 8.73161 10.411 7.98573V6.16738H13.5884V7.98576C13.5884 8.73164 14.1951 9.33842 14.941 9.33842C15.6869 9.33842 16.2937 8.73164 16.2937 7.98576V6.16741H16.5926C17.6531 6.16741 18.5159 7.03021 18.5159 8.09076Z" fill="#70B9C3"/>
</svg>
