<svg width="40" height="41" viewBox="0 0 40 41" fill="none" xmlns="http://www.w3.org/2000/svg">
<path d="M34.9989 15.1015C34.9989 11.9384 32.434 9.37425 29.27 9.37425C26.106 9.37425 23.5411 11.9384 23.5411 15.1015C23.5411 16.9915 25.0751 20.0201 28.1431 24.1874L28.4352 24.5814L28.5198 24.6812C28.8785 25.0543 29.4674 25.1107 29.893 24.7932C29.9734 24.7331 30.0448 24.6618 30.1048 24.5814C33.3676 20.2105 34.9989 17.0505 34.9989 15.1015Z" fill="#A7D0D6"/>
<path d="M16.3246 11.1876L16.4485 11.2446L18.3548 12.2845C18.1372 12.9452 18.0143 13.645 18.0012 14.3697L17 13.8235L17.0008 27.4871C17.0757 27.5145 17.1497 27.545 17.2226 27.5785L17.4062 27.6707L22 30.1765L22 24.4657C22.5994 25.5202 23.2662 26.6439 24.0004 27.8368L24 30.1755L27.9903 27.9992L27.9965 27.9996C28.0867 27.8613 28.1423 27.7752 28.1631 27.7412C28.835 26.6468 29.4473 25.6102 30.0008 24.6316L30 28.5882C30 28.9135 29.8421 29.2157 29.5813 29.4019L29.4789 29.4661L23.4789 32.7388C23.2177 32.8813 22.9088 32.8991 22.6358 32.7922L22.5211 32.7388L16.4485 29.4265C16.2071 29.2948 15.924 29.2692 15.6657 29.3517L15.5389 29.4019L9.43073 32.3172C9.29622 32.3814 9.14905 32.4147 9 32.4147C8.48716 32.4147 8.06449 32.0286 8.00673 31.5313L8 31.4147V15.449C8 15.1064 8.17498 14.7909 8.45814 14.6085L8.56927 14.5465L15.5389 11.2201C15.7871 11.1016 16.0712 11.0914 16.3246 11.1876ZM15 13.6925L10 16.079V29.829L14.6775 27.5969C14.7832 27.5465 14.891 27.5026 15.0004 27.4652L15 13.6925ZM26 9C29.3137 9 32 11.5184 32 14.625C32 16.4686 30.4153 19.9396 27.2458 25.0382C27.2113 25.0935 27.0853 25.2547 26.8677 25.5217L26.7689 25.6426C26.4187 26.0696 25.7886 26.1319 25.3615 25.7817C25.3116 25.7407 25.2657 25.695 25.2246 25.6452C24.9741 25.3419 24.8274 25.1558 24.7845 25.0868C21.5948 19.9617 20 16.4744 20 14.625C20 11.5184 22.6863 9 26 9ZM26 11C23.763 11 22 12.6529 22 14.625C22 15.7689 23.0655 18.2549 25.1816 21.8745C25.2916 22.0626 25.4044 22.2538 25.52 22.448C25.5331 22.4699 25.6002 22.5811 25.7213 22.7815L25.7866 22.8891C25.8579 23.0072 26.0115 23.045 26.1296 22.9736C26.1642 22.9527 26.1931 22.9238 26.2141 22.8892C26.3439 22.6747 26.4327 22.5275 26.4803 22.4475C26.5923 22.2594 26.7016 22.0742 26.8083 21.8918C28.8681 18.3705 29.9357 15.9196 29.9972 14.7305L30 14.625C30 12.6529 28.237 11 26 11Z" fill="black"/>
</svg>
