<svg width="40" height="40" viewBox="0 0 40 40" fill="none" xmlns="http://www.w3.org/2000/svg">
<rect x="13.5381" y="9.91113" width="19.3249" height="15.4604" rx="3" transform="rotate(-9.99029 13.5381 9.91113)" fill="#A7D0D6"/>
<path fill-rule="evenodd" clip-rule="evenodd" d="M31.7138 16.7138C31.4138 16.0138 30.8138 15.4138 30.1138 15.1138L29.7138 12.4138C29.4138 10.7138 27.8138 9.51384 26.1138 9.81384L19.4138 10.9138L15.0138 9.21384C14.2138 8.91384 13.3138 8.91384 12.6138 9.31384C11.8138 9.61384 11.2138 10.3138 10.9138 11.0138L10.3138 12.5138H10.2138C8.51384 12.8138 7.31384 14.4138 7.61384 16.1138L8.01384 18.5138L7.21384 20.5138C6.91384 21.3138 6.91384 22.1138 7.31384 22.9138C7.61384 23.7138 8.31384 24.3138 9.01384 24.6138L9.31384 26.2138C9.61384 27.7138 10.9138 28.8138 12.4138 28.8138H12.9138L17.7138 28.0138L24.0138 30.4138C24.4138 30.5138 24.8138 30.6138 25.1138 30.6138C26.4138 30.6138 27.6138 29.8138 28.0138 28.6138L29.0138 26.0138C29.7138 25.8138 30.3138 25.4138 30.7138 24.8138C31.2138 24.1138 31.4138 23.3138 31.2138 22.4138L30.9138 20.8138L31.6138 19.1138C32.1138 18.4138 32.1138 17.5138 31.7138 16.7138ZM12.7138 11.7138C12.8138 11.4138 13.0138 11.2138 13.3138 11.0138C13.5138 10.9138 13.6138 10.9138 13.8138 10.9138C14.0138 10.9138 14.1138 10.9138 14.2138 11.0138L15.6138 11.6138L12.5138 12.1138L12.7138 11.7138ZM12.6138 26.8138C11.9138 26.9138 11.3138 26.5138 11.2138 25.8138L9.51384 15.8138C9.41384 15.2138 9.81384 14.5138 10.5138 14.4138L26.4138 11.7138C27.1138 11.6138 27.7138 12.0138 27.8138 12.7138L29.5138 22.7138C29.6138 23.0138 29.5138 23.4138 29.3138 23.6138C29.1138 23.9138 28.8138 24.0138 28.5138 24.1138L12.6138 26.8138ZM24.7138 28.6138L21.4138 27.3138L26.9138 26.4138L26.3138 27.9138C26.1138 28.5138 25.4138 28.8138 24.7138 28.6138ZM26.7138 21.2138L21.7138 17.8138C21.3138 17.5138 20.7138 17.6138 20.4138 18.0138L18.9138 20.0138L17.3138 19.4138C16.9138 19.3138 16.5138 19.4138 16.2138 19.7138L13.5138 23.4138C13.3138 23.7138 13.2138 24.1138 13.5138 24.5138C13.7138 24.8138 14.0138 25.0138 14.3138 25.0138H14.5138L26.4138 23.0138C26.8138 22.9138 27.1138 22.6138 27.2138 22.3138C27.2138 21.8138 27.0138 21.4138 26.7138 21.2138ZM16.5138 22.6138L17.3138 21.5138L18.9138 22.1138C19.0283 22.1425 19.1428 22.1547 19.255 22.1506L16.5138 22.6138ZM20.0138 21.8138C19.875 21.9527 19.7146 22.0487 19.5428 22.1019L23.6138 21.4138L21.4138 19.9138L20.0138 21.8138ZM14.1138 14.7138C15.5138 14.7138 16.6138 15.8138 16.6138 17.2138C16.6138 18.6138 15.5138 19.7138 14.1138 19.7138C12.7138 19.7138 11.6138 18.5138 11.6138 17.2138C11.6138 15.9138 12.7138 14.7138 14.1138 14.7138ZM14.1138 16.6138C13.8138 16.6138 13.5138 16.9138 13.5138 17.2138C13.5138 17.6138 13.8138 17.8138 14.1138 17.8138C14.4138 17.8138 14.7138 17.5138 14.7138 17.2138C14.7138 16.9138 14.4138 16.6138 14.1138 16.6138Z" fill="black"/>
</svg>
