<svg width="40" height="40" viewBox="0 0 40 40" fill="none" xmlns="http://www.w3.org/2000/svg">
<rect x="17.5" y="20" width="17.5" height="15" rx="1.25" fill="#A7D0D6"/>
<path fill-rule="evenodd" clip-rule="evenodd" d="M32 16.2C32 14.868 30.932 13.8 29.6 13.8H24.8V11.4C24.8 10.068 23.732 9 22.4 9H17.6C16.268 9 15.2 10.068 15.2 11.4V13.8H10.4C9.068 13.8 8.012 14.868 8.012 16.2L8 29.4C8 30.732 9.068 31.8 10.4 31.8H29.6C30.932 31.8 32 30.732 32 29.4V16.2ZM22.4001 13.8001V11.4001H17.6001V13.8001H22.4001ZM10.3998 16.2V29.3999H29.5998V16.2H10.3998Z" fill="black"/>
</svg>
