<svg width="24" height="24" viewBox="0 0 24 24" fill="none" xmlns="http://www.w3.org/2000/svg">
<path d="M16.2967 17.1356C16.7828 17.586 16.8118 18.3453 16.3614 18.8314C15.9347 19.292 15.2309 19.3423 14.7446 18.9633L14.6656 18.8962L8.1847 12.8921C7.6967 12.44 7.67322 11.6835 8.11445 11.2022L8.18412 11.1321L14.665 5.12005C15.1509 4.66933 15.9102 4.69783 16.3609 5.1837C16.7879 5.64401 16.7848 6.34968 16.3702 6.80592L16.2973 6.87957L11.2402 11.5711C10.9973 11.7965 10.983 12.1761 11.2084 12.419C11.2187 12.4301 11.2294 12.4408 11.2405 12.4511L16.2967 17.1356Z" fill="#386D7D"/>
</svg>
