<svg width="16" height="16" viewBox="0 0 16 16" fill="none" xmlns="http://www.w3.org/2000/svg">
<path d="M13.9537 1.9075H12.9844V1.35365C12.9844 1.04793 12.7363 0.799805 12.4306 0.799805C12.1249 0.799805 11.8767 1.04793 11.8767 1.35365V1.9075H4.12288V1.35365C4.12288 1.04793 3.87476 0.799805 3.56904 0.799805C3.26331 0.799805 3.01519 1.04793 3.01519 1.35365V1.9075H2.04596C1.35891 1.9075 0.799805 2.4666 0.799805 3.15365V13.9537C0.799805 14.6407 1.35891 15.1998 2.04596 15.1998H13.9537C14.6407 15.1998 15.1998 14.6407 15.1998 13.9537V3.15365C15.1998 2.4666 14.6407 1.9075 13.9537 1.9075ZM13.9537 14.0921H2.04596C1.96953 14.0921 1.9075 14.0298 1.9075 13.9537V5.78442H14.0921V13.9537C14.0921 14.0298 14.0298 14.0921 13.9537 14.0921ZM3.56904 11.3229C3.87492 11.3229 4.12288 11.5708 4.12288 11.8767C4.12288 12.1826 3.87492 12.4306 3.56904 12.4306C3.26315 12.4306 3.01519 12.1826 3.01519 11.8767C3.01519 11.5708 3.26315 11.3229 3.56904 11.3229ZM5.78442 11.3229C6.0903 11.3229 6.33827 11.5708 6.33827 11.8767C6.33827 12.1826 6.0903 12.4306 5.78442 12.4306C5.47854 12.4306 5.23057 12.1826 5.23057 11.8767C5.23057 11.5708 5.47854 11.3229 5.78442 11.3229ZM7.9998 11.3229C8.30569 11.3229 8.55365 11.5708 8.55365 11.8767C8.55365 12.1826 8.30569 12.4306 7.9998 12.4306C7.69392 12.4306 7.44596 12.1826 7.44596 11.8767C7.44596 11.5708 7.69392 11.3229 7.9998 11.3229ZM10.2187 11.3229C10.5245 11.3229 10.7725 11.5708 10.7725 11.8767C10.7725 12.1826 10.5245 12.4306 10.2187 12.4306C9.91278 12.4306 9.66481 12.1826 9.66481 11.8767C9.66481 11.5708 9.91278 11.3229 10.2187 11.3229ZM3.56904 9.1075C3.87492 9.1075 4.12288 9.35546 4.12288 9.66134C4.12288 9.96722 3.87492 10.2152 3.56904 10.2152C3.26315 10.2152 3.01519 9.96722 3.01519 9.66134C3.01519 9.35546 3.26315 9.1075 3.56904 9.1075ZM5.78442 9.1075C6.0903 9.1075 6.33827 9.35546 6.33827 9.66134C6.33827 9.96722 6.0903 10.2152 5.78442 10.2152C5.47854 10.2152 5.23057 9.96722 5.23057 9.66134C5.23057 9.35546 5.47854 9.1075 5.78442 9.1075ZM7.9998 9.1075C8.30569 9.1075 8.55365 9.35546 8.55365 9.66134C8.55365 9.96722 8.30569 10.2152 7.9998 10.2152C7.69392 10.2152 7.44596 9.96722 7.44596 9.66134C7.44596 9.35546 7.69392 9.1075 7.9998 9.1075ZM10.2187 9.1075C10.5245 9.1075 10.7725 9.35546 10.7725 9.66134C10.7725 9.96722 10.5245 10.2152 10.2187 10.2152C9.91278 10.2152 9.66481 9.96722 9.66481 9.66134C9.66481 9.35546 9.91278 9.1075 10.2187 9.1075ZM12.4306 9.1075C12.7365 9.1075 12.9844 9.35546 12.9844 9.66134C12.9844 9.96722 12.7365 10.2152 12.4306 10.2152C12.1247 10.2152 11.8767 9.96722 11.8767 9.66134C11.8767 9.35546 12.1247 9.1075 12.4306 9.1075ZM5.78442 6.89211C6.0903 6.89211 6.33827 7.14008 6.33827 7.44596C6.33827 7.75184 6.0903 7.9998 5.78442 7.9998C5.47854 7.9998 5.23057 7.75184 5.23057 7.44596C5.23057 7.14008 5.47854 6.89211 5.78442 6.89211ZM7.9998 6.89211C8.30569 6.89211 8.55365 7.14008 8.55365 7.44596C8.55365 7.75184 8.30569 7.9998 7.9998 7.9998C7.69392 7.9998 7.44596 7.75184 7.44596 7.44596C7.44596 7.14008 7.69392 6.89211 7.9998 6.89211ZM10.2152 6.89211C10.5211 6.89211 10.769 7.14008 10.769 7.44596C10.769 7.75184 10.5211 7.9998 10.2152 7.9998C9.90931 7.9998 9.66134 7.75184 9.66134 7.44596C9.66134 7.14008 9.90931 6.89211 10.2152 6.89211ZM12.4306 6.89211C12.7365 6.89211 12.9844 7.14008 12.9844 7.44596C12.9844 7.75184 12.7365 7.9998 12.4306 7.9998C12.1247 7.9998 11.8767 7.75184 11.8767 7.44596C11.8767 7.14008 12.1247 6.89211 12.4306 6.89211ZM3.01519 3.01519V3.56904C3.01519 3.87476 3.26331 4.12288 3.56904 4.12288C3.87476 4.12288 4.12288 3.87476 4.12288 3.56904V3.01519H11.8767V3.56904C11.8767 3.87476 12.1249 4.12288 12.4306 4.12288C12.7363 4.12288 12.9844 3.87476 12.9844 3.56904V3.01519H13.9537C14.0298 3.01519 14.0921 3.07722 14.0921 3.15365V4.67673H1.9075V3.15365C1.9075 3.07722 1.96953 3.01519 2.04596 3.01519H3.01519Z" fill="#7096A1"/>
</svg>
