<?xml version="1.0" encoding="UTF-8"?>
<svg width="18px" height="18px" viewBox="0 0 18 18" version="1.1" xmlns="http://www.w3.org/2000/svg" xmlns:xlink="http://www.w3.org/1999/xlink">
    <!-- Generator: Sketch 50.2 (55047) - http://www.bohemiancoding.com/sketch -->
    <title>clock</title>
    <desc>Created with Sketch.</desc>
    <defs></defs>
    <g id="Page-1" stroke="none" stroke-width="1" fill="none" fill-rule="evenodd">
        <g id="Event_Article-Page" transform="translate(-286.000000, -318.000000)" fill="#8091A5" fill-rule="nonzero" stroke="#8091A5" stroke-width="0.5">
            <g id="Group" transform="translate(287.000000, 319.000000)">
                <g id="clock">
                    <path d="M13.6568438,2.34315625 C12.1458437,0.83215625 10.136875,0 8,0 C5.863125,0 3.85415625,0.8321875 2.34315625,2.34315625 C0.83215625,3.854125 0,5.863125 0,8 C0,10.136875 0.83215625,12.1458438 2.34315625,13.6568438 C3.854125,15.1678437 5.863125,16 8,16 C10.136875,16 12.1458438,15.1678437 13.6568438,13.6568438 C15.1678437,12.1458437 16,10.136875 16,8 C16,5.863125 15.1678437,3.854125 13.6568438,2.34315625 Z M8,14.707375 C4.3015625,14.707375 1.292625,11.6984375 1.292625,8 C1.292625,4.3015625 4.3015625,1.292625 8,1.292625 C11.6984375,1.292625 14.707375,4.3015625 14.707375,8 C14.707375,11.6984375 11.6984375,14.707375 8,14.707375 Z" id="Shape"></path>
                    <path d="M10.6631563,9.7490625 L8.64634375,7.73228125 L8.64634375,3.58778125 C8.64634375,3.23084375 8.357,2.94146875 8.00003125,2.94146875 C7.64309375,2.94146875 7.35371875,3.23084375 7.35371875,3.58778125 L7.35371875,8 C7.35371875,8.1714375 7.4218125,8.3358125 7.54303125,8.45703125 L9.74909375,10.663125 C9.87528125,10.7893437 10.0407188,10.8524375 10.206125,10.8524375 C10.3715313,10.8524375 10.5369375,10.7893437 10.6631875,10.663125 C10.9155313,10.4106875 10.9155313,10.0014687 10.6631563,9.7490625 Z" id="Shape"></path>
                </g>
            </g>
        </g>
    </g>
</svg>