<?xml version="1.0" encoding="UTF-8"?>
<svg width="35px" height="35px" viewBox="0 0 35 35" version="1.1" xmlns="http://www.w3.org/2000/svg" xmlns:xlink="http://www.w3.org/1999/xlink">
    <!-- Generator: Sketch 50.2 (55047) - http://www.bohemiancoding.com/sketch -->
    <title>Group 11</title>
    <desc>Created with Sketch.</desc>
    <defs></defs>
    <g id="Page-1" stroke="none" stroke-width="1" fill="none" fill-rule="evenodd">
        <g id="Event_Article-Page" transform="translate(-318.000000, -516.000000)">
            <g id="Group-11" transform="translate(318.000000, 516.000000)">
                <rect id="Rectangle-19" fill="#0377B5" x="0" y="0" width="35" height="35" rx="17.5"></rect>
                <g id="Linkedin" transform="translate(9.000000, 9.000000)" fill="#FFFFFF" fill-rule="nonzero">
                    <path d="M3.46666667,15.2 L0.8,15.2 L0.8,5.86666667 L3.46666667,5.86666667 L3.46666667,15.2 Z M2.13433259,4.53333333 C1.02646133,4.53333333 0.133333333,3.63723883 0.133333333,2.53315168 C0.133333333,1.42924619 1.02664309,0.533333333 2.13433259,0.533333333 C3.23766176,0.533333333 4.13333333,1.42942784 4.13333333,2.53315168 C4.13333333,3.63723883 3.23766176,4.53333333 2.13433259,4.53333333 Z M15.4666667,15.2 L12.4736492,15.2 L12.4736492,10.1383643 C12.4736492,8.93127371 12.4544135,7.3787888 10.9184089,7.3787888 C9.36080363,7.3787888 9.12303989,8.69391093 9.12303989,10.0518028 L9.12303989,15.2 L6.13333333,15.2 L6.13333333,4.79148437 L9.00258123,4.79148437 L9.00258123,6.21446773 L9.04373269,6.21446773 C9.44279115,5.39622251 10.4195463,4.53333333 11.8757709,4.53333333 C14.9066288,4.53333333 15.4666667,6.68851157 15.4666667,9.49187904 L15.4666667,15.2 Z" id="Shape"></path>
                </g>
            </g>
        </g>
    </g>
</svg>