<?xml version="1.0" encoding="UTF-8"?>
<svg width="15px" height="13px" viewBox="0 0 15 13" version="1.1" xmlns="http://www.w3.org/2000/svg" xmlns:xlink="http://www.w3.org/1999/xlink">
    <!-- Generator: sketchtool 50.2 (55047) - http://www.bohemiancoding.com/sketch -->
    <title>95E12CC4-2896-453E-8737-3EE006840D3D</title>
    <desc>Created with sketchtool.</desc>
    <defs></defs>
    <g id="Page-1" stroke="none" stroke-width="1" fill="none" fill-rule="evenodd">
        <g id="Event_Articles_" transform="translate(-804.000000, -906.000000)" fill="#386E7D" fill-rule="nonzero" stroke="#386E7D" stroke-width="0.5">
            <path d="M817.775051,911.97443 L812.860158,907.217667 C812.560288,906.927444 812.073959,906.927444 811.774089,907.217667 C811.474158,907.507948 811.474158,907.978511 811.774089,908.268792 L815.377996,911.756748 L805.767952,911.756748 C805.343858,911.756748 805,912.089543 805,912.499993 C805,912.910382 805.343858,913.243237 805.767952,913.243237 L815.377996,913.243237 L811.774212,916.731193 C811.474281,917.021474 811.474281,917.492037 811.774212,917.782319 C811.924116,917.92734 812.120712,918 812.317246,918 C812.513781,918 812.710315,917.92734 812.860281,917.782319 L817.775051,913.025555 C818.074983,912.735274 818.074983,912.264711 817.775051,911.97443 Z" id="Shape"></path>
        </g>
    </g>
</svg>