<?xml version="1.0" encoding="UTF-8"?>
<svg width="35px" height="35px" viewBox="0 0 35 35" version="1.1" xmlns="http://www.w3.org/2000/svg" xmlns:xlink="http://www.w3.org/1999/xlink">
    <!-- Generator: Sketch 50.2 (55047) - http://www.bohemiancoding.com/sketch -->
    <title>Group 10</title>
    <desc>Created with Sketch.</desc>
    <defs></defs>
    <g id="Page-1" stroke="none" stroke-width="1" fill="none" fill-rule="evenodd">
        <g id="Event_Article-Page" transform="translate(-318.000000, -474.000000)">
            <g id="Group-10" transform="translate(318.000000, 474.000000)">
                <rect id="Rectangle-19" fill="#55ACEE" x="0" y="0" width="35" height="35" rx="17.5"></rect>
                <g id="Twitter" transform="translate(8.000000, 11.000000)" fill="#FFFFFF" fill-rule="nonzero">
                    <path d="M15.6878544,2.6744428 C16.4293916,2.2448995 16.9981222,1.5648213 17.2663801,0.7539958 C16.5727674,1.1518137 15.8039868,1.4408036 14.9864863,1.5963545 C14.3316506,0.92166 13.3986143,0.5 12.3661494,0.5 C10.38295,0.5 8.77559,2.0541622 8.77559,3.9711482 C8.77559,4.2434102 8.8074071,4.5079812 8.868655,4.7623616 C5.8844102,4.6175782 3.2392163,3.2355024 1.4685948,1.1354703 C1.1595713,1.6478843 0.9823898,2.2445149 0.9823898,2.880562 C0.9823898,4.084783 1.6163455,5.1474892 2.5796081,5.7698848 C1.9911906,5.7518109 1.4371754,5.595491 0.9533567,5.3353423 C0.952959,5.3499553 0.952959,5.3645682 0.952959,5.3791811 C0.952959,7.0615911 2.1904452,8.4636634 3.832804,8.7830329 C3.531337,8.8622504 3.2143592,8.9047433 2.8870408,8.9047433 C2.6555714,8.9047433 2.4306643,8.8828239 2.211524,8.8422537 C2.6684971,10.2214454 3.9944746,11.2256999 5.5652449,11.2531953 C4.3367073,12.1838083 2.7886066,12.7387152 1.1064765,12.7387152 C0.8165432,12.7387152 0.5307859,12.7229486 0.25,12.6902618 C1.8386674,13.6752888 3.7262167,14.25 5.7535624,14.25 C12.357002,14.25 15.9682426,8.9603109 15.9682426,4.3731961 C15.9682426,4.2228367 15.9640666,4.0728619 15.9573054,3.924233 C16.6602644,3.4354689 17.2685675,2.824033 17.75,2.127996 C17.1064992,2.4042958 16.4144773,2.5908029 15.6878544,2.6744428 Z" id="Shape"></path>
                </g>
            </g>
        </g>
    </g>
</svg>