<svg width="46" height="52" viewBox="0 0 46 52" fill="none" xmlns="http://www.w3.org/2000/svg">
<path d="M22.5516 44.1035V7.89661" stroke="#254854" stroke-width="2"/>
<path d="M38.2296 16.9482L6.87354 35.0517" stroke="#254854" stroke-width="2"/>
<path d="M6.87354 16.9482L38.2296 35.0517" stroke="#254854" stroke-width="2"/>
<path fill-rule="evenodd" clip-rule="evenodd" d="M36.3449 26.0009C36.3449 33.6181 30.169 39.7931 22.5518 39.7931C14.9345 39.7931 8.75867 33.6181 8.75867 26C8.75867 18.3819 14.9345 12.2069 22.5518 12.2069C30.169 12.2069 36.3449 18.3828 36.3449 26.0009Z" fill="white"/>
<path fill-rule="evenodd" clip-rule="evenodd" d="M36.3449 26.0009C36.3449 33.6181 30.169 39.7931 22.5518 39.7931C14.9345 39.7931 8.75867 33.6181 8.75867 26C8.75867 18.3819 14.9345 12.2069 22.5518 12.2069C30.169 12.2069 36.3449 18.3828 36.3449 26.0009Z" stroke="#E38444" stroke-width="2"/>
<path d="M10.4829 11.3449L16.5174 7.89661" stroke="#254854" stroke-width="2"/>
<path d="M4.44836 31.1725V20.8276" stroke="#254854" stroke-width="2"/>
<path d="M16.5174 44.1034L10.4829 40.6552" stroke="#254854" stroke-width="2"/>
<path d="M34.6207 40.6552L28.5862 44.1034" stroke="#254854" stroke-width="2"/>
<path d="M40.655 20.8276V31.1725" stroke="#254854" stroke-width="2"/>
<path d="M28.5862 7.89661L34.6207 11.3449" stroke="#254854" stroke-width="2"/>
<path fill-rule="evenodd" clip-rule="evenodd" d="M22.5516 28.5862C20.0007 28.5862 14.793 29.3388 14.793 32.0345V33.7586C16.8912 35.5224 19.5956 36.5888 22.5516 36.5888C25.5076 36.5888 28.2119 35.5224 30.3102 33.7586V32.0345C30.3102 29.3388 25.1025 28.5862 22.5516 28.5862Z" fill="#FFEFE5"/>
<path fill-rule="evenodd" clip-rule="evenodd" d="M22.5517 25.1379C24.4534 25.1379 25.9999 23.6482 25.9999 21.8129V19.8413C25.9999 18.006 24.4534 16.5172 22.5517 16.5172C20.6491 16.5172 19.1034 18.006 19.1034 19.8413V21.8129C19.1034 23.6491 20.6491 25.1379 22.5517 25.1379Z" fill="white"/>
<path fill-rule="evenodd" clip-rule="evenodd" d="M22.5517 25.1379C24.4534 25.1379 25.9999 23.6482 25.9999 21.8129V19.8413C25.9999 18.006 24.4534 16.5172 22.5517 16.5172C20.6491 16.5172 19.1034 18.006 19.1034 19.8413V21.8129C19.1034 23.6491 20.6491 25.1379 22.5517 25.1379Z" stroke="#E38444" stroke-width="2"/>
<path d="M30.3102 33.7586V32.0345C30.3102 29.3388 25.1025 28.5862 22.5516 28.5862C20.0007 28.5862 14.793 29.3388 14.793 32.0345V33.7586" stroke="#E38444" stroke-width="2"/>
<path fill-rule="evenodd" clip-rule="evenodd" d="M25.9999 4.44828C25.9999 6.35259 24.456 7.89655 22.5517 7.89655C20.6474 7.89655 19.1034 6.35259 19.1034 4.44828C19.1034 2.54397 20.6474 1 22.5517 1C24.456 1 25.9999 2.54397 25.9999 4.44828Z" fill="white"/>
<path fill-rule="evenodd" clip-rule="evenodd" d="M25.9999 4.44828C25.9999 6.35259 24.456 7.89655 22.5517 7.89655C20.6474 7.89655 19.1034 6.35259 19.1034 4.44828C19.1034 2.54397 20.6474 1 22.5517 1C24.456 1 25.9999 2.54397 25.9999 4.44828Z" stroke="#254854" stroke-width="2"/>
<path fill-rule="evenodd" clip-rule="evenodd" d="M44.1036 14.7931C44.1036 16.6974 42.5596 18.2414 40.6553 18.2414C38.751 18.2414 37.207 16.6974 37.207 14.7931C37.207 12.8888 38.751 11.3448 40.6553 11.3448C42.5596 11.3448 44.1036 12.8888 44.1036 14.7931Z" fill="white"/>
<path fill-rule="evenodd" clip-rule="evenodd" d="M44.1036 14.7931C44.1036 16.6974 42.5596 18.2414 40.6553 18.2414C38.751 18.2414 37.207 16.6974 37.207 14.7931C37.207 12.8888 38.751 11.3448 40.6553 11.3448C42.5596 11.3448 44.1036 12.8888 44.1036 14.7931Z" stroke="#254854" stroke-width="2"/>
<path fill-rule="evenodd" clip-rule="evenodd" d="M44.1036 37.2069C44.1036 39.1113 42.5596 40.6552 40.6553 40.6552C38.751 40.6552 37.207 39.1113 37.207 37.2069C37.207 35.3026 38.751 33.7587 40.6553 33.7587C42.5596 33.7587 44.1036 35.3026 44.1036 37.2069Z" fill="white"/>
<path fill-rule="evenodd" clip-rule="evenodd" d="M44.1036 37.2069C44.1036 39.1113 42.5596 40.6552 40.6553 40.6552C38.751 40.6552 37.207 39.1113 37.207 37.2069C37.207 35.3026 38.751 33.7587 40.6553 33.7587C42.5596 33.7587 44.1036 35.3026 44.1036 37.2069Z" stroke="#254854" stroke-width="2"/>
<path fill-rule="evenodd" clip-rule="evenodd" d="M7.89655 37.2069C7.89655 39.1113 6.35259 40.6552 4.44828 40.6552C2.54397 40.6552 1 39.1113 1 37.2069C1 35.3026 2.54397 33.7587 4.44828 33.7587C6.35259 33.7587 7.89655 35.3026 7.89655 37.2069Z" fill="white"/>
<path fill-rule="evenodd" clip-rule="evenodd" d="M7.89655 37.2069C7.89655 39.1113 6.35259 40.6552 4.44828 40.6552C2.54397 40.6552 1 39.1113 1 37.2069C1 35.3026 2.54397 33.7587 4.44828 33.7587C6.35259 33.7587 7.89655 35.3026 7.89655 37.2069Z" stroke="#254854" stroke-width="2"/>
<path fill-rule="evenodd" clip-rule="evenodd" d="M7.89655 14.7931C7.89655 16.6974 6.35259 18.2414 4.44828 18.2414C2.54397 18.2414 1 16.6974 1 14.7931C1 12.8888 2.54397 11.3448 4.44828 11.3448C6.35259 11.3448 7.89655 12.8888 7.89655 14.7931Z" fill="white"/>
<path fill-rule="evenodd" clip-rule="evenodd" d="M7.89655 14.7931C7.89655 16.6974 6.35259 18.2414 4.44828 18.2414C2.54397 18.2414 1 16.6974 1 14.7931C1 12.8888 2.54397 11.3448 4.44828 11.3448C6.35259 11.3448 7.89655 12.8888 7.89655 14.7931Z" stroke="#254854" stroke-width="2"/>
<path fill-rule="evenodd" clip-rule="evenodd" d="M22.5517 50.9999C20.6474 50.9999 19.1034 49.456 19.1034 47.5517C19.1034 45.6474 20.6474 44.1034 22.5517 44.1034C24.456 44.1034 25.9999 45.6474 25.9999 47.5517C25.9999 49.456 24.456 50.9999 22.5517 50.9999Z" fill="white"/>
<path d="M22.5517 50.9999C20.6474 50.9999 19.1034 49.456 19.1034 47.5517C19.1034 45.6474 20.6474 44.1034 22.5517 44.1034C24.456 44.1034 25.9999 45.6474 25.9999 47.5517C25.9999 49.456 24.456 50.9999 22.5517 50.9999" stroke="#254854" stroke-width="2"/>
</svg>
