<svg width="69" height="62" viewBox="0 0 69 62" fill="none" xmlns="http://www.w3.org/2000/svg">
<path fill-rule="evenodd" clip-rule="evenodd" d="M57.9484 14.9286C60.8905 14.9286 63.1426 17.1689 63.1426 19.9321V52.4286H6.35693V19.9321C6.35693 17.0736 8.13336 14.9286 11.0755 14.9286H57.9484Z" fill="white"/>
<path fill-rule="evenodd" clip-rule="evenodd" d="M57.9484 14.9286C60.8905 14.9286 63.1426 17.1689 63.1426 19.9321V52.4286H6.35693V19.9321C6.35693 17.0736 8.13336 14.9286 11.0755 14.9286H57.9484Z" stroke="#254854" stroke-width="2" stroke-linecap="round"/>
<path fill-rule="evenodd" clip-rule="evenodd" d="M67.4286 52.4286H1V53.4903C1 57.2403 4.03964 61 7.78964 61H60.6389C64.3889 61 67.4286 57.2403 67.4286 53.4903V52.4286Z" fill="white"/>
<path fill-rule="evenodd" clip-rule="evenodd" d="M67.4286 52.4286H1V53.4903C1 57.2403 4.03964 61 7.78964 61H60.6389C64.3889 61 67.4286 57.2403 67.4286 53.4903V52.4286Z" stroke="#254854" stroke-width="2" stroke-linecap="round"/>
<path d="M29.9286 56.7143H41.7143" stroke="#254854" stroke-width="2" stroke-linecap="round"/>
<path d="M10.6428 49.2143V19.2143H21.3571H49.2143H58.8571V49.2143" stroke="#254854" stroke-width="2" stroke-linecap="round"/>
<path fill-rule="evenodd" clip-rule="evenodd" d="M67.4285 4.21429V21.4118C67.4285 23.1571 66.0143 24.5714 64.2689 24.5714H46.9364L40.4135 32.8557C39.7846 33.655 38.5 33.2093 38.5 32.1925V24.5714H36.3753C34.5968 24.5714 33.1428 23.1175 33.1428 21.3389V4.21429C33.1428 2.43893 34.5818 1 36.3571 1H64.2142C65.9896 1 67.4285 2.43893 67.4285 4.21429Z" fill="white"/>
<path fill-rule="evenodd" clip-rule="evenodd" d="M67.4285 4.21429V21.4118C67.4285 23.1571 66.0143 24.5714 64.2689 24.5714H46.9364L40.4135 32.8557C39.7846 33.655 38.5 33.2093 38.5 32.1925V24.5714H36.3753C34.5968 24.5714 33.1428 23.1175 33.1428 21.3389V4.21429C33.1428 2.43893 34.5818 1 36.3571 1H64.2142C65.9896 1 67.4285 2.43893 67.4285 4.21429Z" stroke="#E38444" stroke-width="2" stroke-linecap="round"/>
<path d="M42.7858 12.7857H43.8572" stroke="#E38444" stroke-width="2" stroke-linecap="round"/>
<path d="M49.2142 12.7857H50.2857" stroke="#E38444" stroke-width="2" stroke-linecap="round"/>
<path d="M55.6428 12.7857H56.7143" stroke="#E38444" stroke-width="2" stroke-linecap="round"/>
<path fill-rule="evenodd" clip-rule="evenodd" d="M26.7143 35.3307C29.3093 35.3307 31 33.2082 31 30.5896V29.0082C31 26.3886 29.3093 24.2661 26.7143 24.2661C24.1193 24.2661 22.4286 26.3886 22.4286 29.0082V30.5896C22.4286 33.2082 24.1193 35.3307 26.7143 35.3307Z" fill="white"/>
<path fill-rule="evenodd" clip-rule="evenodd" d="M26.7143 35.3307C29.3093 35.3307 31 33.2082 31 30.5896V29.0082C31 26.3886 29.3093 24.2661 26.7143 24.2661C24.1193 24.2661 22.4286 26.3886 22.4286 29.0082V30.5896C22.4286 33.2082 24.1193 35.3307 26.7143 35.3307Z" stroke="#E38444" stroke-width="2"/>
<path fill-rule="evenodd" clip-rule="evenodd" d="M24.5714 38.5C19.4832 38.5 17.0714 40.12 17.0714 44.9286V49.2143H33.1428V43.8571H39.5714C42.805 43.8571 44.9286 40.8775 44.9286 38.5H24.5714Z" fill="#FFEFE5"/>
<path d="M33.1428 49.2143V43.8571H39.5714C42.805 43.8571 44.9286 40.8775 44.9286 38.5H24.5714C19.4832 38.5 17.0714 40.12 17.0714 44.9286V49.2143" stroke="#E38444" stroke-width="2"/>
<path d="M22.4286 43.8571V49.2143" stroke="#E38444" stroke-width="2"/>
</svg>
