<svg width="65" height="62" viewBox="0 0 65 62" fill="none" xmlns="http://www.w3.org/2000/svg">
<path fill-rule="evenodd" clip-rule="evenodd" d="M42.9194 12.2467L30.6503 21.4485V38.8298L42.9194 48.0316H45.9866V12.2467H42.9194Z" fill="white"/>
<path fill-rule="evenodd" clip-rule="evenodd" d="M30.6504 21.4485H10.2018C7.37791 21.4485 5.08972 23.7377 5.08972 26.5606V33.7176C5.08972 36.5405 7.37791 38.8297 10.2018 38.8297H30.6504V21.4485Z" fill="#FFEFE5"/>
<path d="M27.583 25.5382H9.17932" stroke="#E38444" stroke-width="2"/>
<path d="M22.4709 43.9419H26.5606V39.8522" stroke="#E38444" stroke-width="2"/>
<path fill-rule="evenodd" clip-rule="evenodd" d="M20.4261 40.8746V38.8297H13.2692V41.0954L16.3364 48.0315V50.0764H23.4934V48.0315L20.4261 40.8746Z" fill="white"/>
<path d="M20.4261 38.8297V40.8746L23.4934 48.0315V50.0764H16.3364V48.0315L13.2692 41.0954V38.8297" stroke="#E38444" stroke-width="2"/>
<path fill-rule="evenodd" clip-rule="evenodd" d="M44.9642 24.5157V35.057C48.0315 35.057 50.0038 32.6972 50.0038 29.7863C50.0038 26.8755 48.0315 24.5157 44.9642 24.5157Z" fill="#FFEFE5"/>
<path d="M45.9867 24.5157C48.7708 24.5157 51.0262 26.8755 51.0262 29.7863C51.0262 32.6972 48.7708 35.057 45.9867 35.057" stroke="#E38444" stroke-width="2"/>
<path fill-rule="evenodd" clip-rule="evenodd" d="M10.2018 38.8298H30.6504L40.7376 46.3957C42.1537 47.457 43.8764 48.0316 45.6463 48.0316H45.9867V12.2467H45.6463C43.8764 12.2467 42.1537 12.8213 40.7376 13.8826L30.6504 21.4485H10.2018C7.37791 21.4485 5.08972 23.7377 5.08972 26.5607V33.7176C5.08972 36.5405 7.37791 38.8298 10.2018 38.8298Z" stroke="#E5853C" stroke-width="2"/>
<path d="M30.6503 21.4485V38.8297" stroke="#E38444" stroke-width="2"/>
<path d="M56.5076 48.1747C60.5727 43.3724 63.0276 37.1652 63.0276 30.3815C63.0276 23.4351 60.4521 17.094 56.2111 12.2467" stroke="#254854" stroke-width="2"/>
<path d="M51.0988 15.314C54.6026 19.5161 56.7129 24.9207 56.7129 30.8201C56.7129 35.8473 55.1813 40.5157 52.5608 44.3866" stroke="#254854" stroke-width="2"/>
<path d="M7.13452 15.6401C12.3704 6.87179 21.9536 1 32.9088 1C38.2858 1 43.3304 2.41401 47.6952 4.89033" stroke="#254854" stroke-width="2"/>
<path d="M46.4345 57.6628C42.312 59.7955 37.6324 61 32.6696 61C21.1438 61 11.1352 54.4994 6.11206 44.9642" stroke="#254854" stroke-width="2"/>
<path fill-rule="evenodd" clip-rule="evenodd" d="M1 34.74H5.0897V25.5382H1V34.74Z" stroke="#E38444" stroke-width="2"/>
</svg>
