<svg width="38" height="51" viewBox="0 0 38 51" fill="none" xmlns="http://www.w3.org/2000/svg">
<path d="M19.5484 43.1931H4.22581C2.44435 43.1931 1 41.7487 1 39.9672V4.48337C1 2.70192 2.44435 1.25757 4.22581 1.25757H30.8387C32.6202 1.25757 34.0645 2.70192 34.0645 4.48337V25.4511" stroke="#254854" stroke-width="2"/>
<path d="M16.3224 36.7415H4.22559V7.70923H30.8385V25.4512" stroke="#254854" stroke-width="2"/>
<path fill-rule="evenodd" clip-rule="evenodd" d="M33.2579 29.4836C33.2579 28.5763 32.4007 27.8707 31.645 27.8707H30.0321C29.7233 27.386 28.9273 27.0642 28.4192 27.0642H26.8063V21.4191C26.8063 20.5287 26.0837 19.8062 25.1934 19.8062C24.3031 19.8062 23.5805 20.5287 23.5805 21.4191V33.5158L22.5031 34.5497L20.395 31.2828C19.1047 29.5053 17.1289 30.5037 17.1289 31.2828C17.1289 31.2828 19.5757 39.09 19.9257 39.6384C20.4894 40.5207 22.7741 42.5037 22.7741 43.1933V46.4191H34.8708V43.9997C34.8708 42.9126 36.4837 41.5989 36.4837 39.9674V31.0965C36.4837 30.1892 35.6265 29.4836 34.8708 29.4836H33.2579Z" fill="white"/>
<path d="M22.7741 46.4191V43.1932C22.7741 42.5037 20.4894 40.5207 19.9257 39.6384C19.5757 39.09 17.1289 31.2828 17.1289 31.2828C17.1289 30.5037 19.1047 29.5053 20.395 31.2828L22.5031 34.5497L23.5805 33.5158V21.4191C23.5805 20.5287 24.3031 19.8062 25.1934 19.8062C26.0837 19.8062 26.8063 20.5287 26.8063 21.4191V31.9029V31.0965V27.0642H28.4192C28.9273 27.0642 29.7233 27.386 30.0321 27.8707H31.645C32.4015 27.8707 33.2579 28.5763 33.2579 29.4836H34.8708C35.6273 29.4836 36.4837 30.1892 36.4837 31.0965V39.9674C36.4837 41.5989 34.8708 42.9126 34.8708 43.9997V46.4191" stroke="#E38444" stroke-width="2"/>
<path d="M30.0322 27.8706V31.9029" stroke="#E38444" stroke-width="2"/>
<path d="M33.2583 29.4834V32.7092" stroke="#E38444" stroke-width="2"/>
<mask id="mask0" mask-type="alpha" maskUnits="userSpaceOnUse" x="1" y="0" width="37" height="51">
<path fill-rule="evenodd" clip-rule="evenodd" d="M1 50.4512H37.2903V0.451172H1V50.4512Z" fill="white"/>
</mask>
<g mask="url(#mask0)">
<path fill-rule="evenodd" clip-rule="evenodd" d="M21.1611 49.6448H36.4837V45.6125H21.1611V49.6448Z" fill="#FFEFE5"/>
<path d="M36.4837 49.6448V45.6125H21.1611V49.6448" stroke="#E38444" stroke-width="2"/>
<path d="M14.71 4.4834H21.1616" stroke="#254854" stroke-width="2"/>
<path fill-rule="evenodd" clip-rule="evenodd" d="M17.1455 18.9996H7.46811L7.45117 10.9351H17.1286L17.1455 18.9996Z" fill="white"/>
<path fill-rule="evenodd" clip-rule="evenodd" d="M17.1455 18.9996H7.46811L7.45117 10.9351H17.1286L17.1455 18.9996Z" stroke="#254854" stroke-width="2"/>
<path d="M19.5488 12.5479H28.4198" stroke="#254854" stroke-width="2"/>
<path d="M19.5488 15.7737H26.0004" stroke="#254854" stroke-width="2"/>
<path d="M6.64502 22.2253H17.9353" stroke="#254854" stroke-width="2"/>
<path d="M6.64502 25.4512H17.9353" stroke="#254854" stroke-width="2"/>
<path d="M6.64502 28.677H13.0966" stroke="#254854" stroke-width="2"/>
</g>
</svg>
