<svg width="12" height="16" viewBox="0 0 12 16" fill="none" xmlns="http://www.w3.org/2000/svg">
<path d="M6.0001 0.800049C8.9827 0.800049 11.4001 3.21745 11.4001 6.20005C11.4001 8.00374 9.91809 10.8477 6.95406 14.7318C6.88915 14.8169 6.81314 14.8929 6.72808 14.9578C6.22756 15.3398 5.52293 15.2675 5.10901 14.8076L5.04614 14.7318L4.85493 14.48C2.01838 10.7245 0.600098 7.96453 0.600098 6.20005C0.600098 3.21745 3.0175 0.800049 6.0001 0.800049ZM6.0001 2.00005C3.68024 2.00005 1.8001 3.88019 1.8001 6.20005C1.8001 7.58786 3.06824 10.0865 5.63374 13.5189L5.81067 13.7543L5.88078 13.8464C5.93098 13.9123 6.02509 13.925 6.091 13.8748C6.10171 13.8667 6.11127 13.8571 6.11943 13.8464L6.18138 13.7651L6.53186 13.2963C8.92889 10.0554 10.143 7.67262 10.1981 6.29662L10.2001 6.20005C10.2001 3.88019 8.31996 2.00005 6.0001 2.00005ZM6.0001 3.80005C7.3249 3.80005 8.4001 4.87445 8.4001 6.20005C8.4001 7.52485 7.3249 8.60005 6.0001 8.60005C4.6745 8.60005 3.6001 7.52485 3.6001 6.20005C3.6001 4.87445 4.6745 3.80005 6.0001 3.80005ZM6.0001 5.00005C5.33724 5.00005 4.8001 5.53719 4.8001 6.20005C4.8001 6.86245 5.33758 7.40005 6.0001 7.40005C6.66216 7.40005 7.2001 6.86211 7.2001 6.20005C7.2001 5.53753 6.6625 5.00005 6.0001 5.00005Z" fill="#70B9C3"/>
</svg>
