<svg width="64" height="64" viewBox="0 0 64 64" fill="none" xmlns="http://www.w3.org/2000/svg">
<path d="M40.4446 19.61V13.4951C40.4446 12.8769 41.1748 12.5673 41.6019 13.0044L48.4401 20.0043C48.8671 20.4415 48.5647 21.1889 47.9607 21.1889H41.9871C41.1411 21.1889 40.4446 20.476 40.4446 19.61ZM41.8004 19.61C41.8004 19.7094 41.8899 19.801 41.9871 19.801H46.3241L41.8004 15.1705V19.61ZM41.1225 12.8012C41.3037 12.8012 41.4773 12.8754 41.6046 13.0073L48.4428 20.0876C48.5683 20.2175 48.6386 20.3928 48.6386 20.5755V44.0692C48.6386 44.9352 47.9421 45.6482 47.0961 45.6482H22.9659C22.1199 45.6482 21.4234 44.9352 21.4234 44.0692V14.3802C21.4234 13.5142 22.1199 12.8012 22.9659 12.8012H41.1225ZM40.8394 14.1891H22.9659C22.8687 14.1891 22.7792 14.2807 22.7792 14.3802V44.0692C22.7792 44.1687 22.8687 44.2603 22.9659 44.2603H47.0961C47.1933 44.2603 47.2828 44.1687 47.2828 44.0692V20.8606L40.8394 14.1891ZM22.9659 44.2603H42.5373C42.9117 44.2603 43.2152 44.571 43.2152 44.9543V49.6208C43.2152 50.4868 42.5187 51.1998 41.6727 51.1998H17.5425C16.6965 51.1998 16 50.4868 16 49.6208V20.0122C16 19.1462 16.6965 18.4333 17.5425 18.4333H22.1013C22.4757 18.4333 22.7792 18.744 22.7792 19.1272V44.0692C22.7792 44.1687 22.8687 44.2603 22.9659 44.2603ZM22.9659 45.6482C22.1199 45.6482 21.4234 44.9352 21.4234 44.0692V19.8212H17.5425C17.4453 19.8212 17.3558 19.9128 17.3558 20.0122V49.6208C17.3558 49.7203 17.4453 49.8119 17.5425 49.8119H41.6727C41.7699 49.8119 41.8594 49.7203 41.8594 49.6208V45.6482H22.9659ZM44.0307 39.9156C44.4051 39.9156 44.7086 40.2263 44.7086 40.6095C44.7086 40.9928 44.4051 41.3035 44.0307 41.3035H26.0313C25.6569 41.3035 25.3534 40.9928 25.3534 40.6095C25.3534 40.2263 25.6569 39.9156 26.0313 39.9156H44.0307ZM44.0307 34.7662C44.4051 34.7662 44.7086 35.0769 44.7086 35.4602C44.7086 35.8435 44.4051 36.1541 44.0307 36.1541H26.0313C25.6569 36.1541 25.3534 35.8435 25.3534 35.4602C25.3534 35.0769 25.6569 34.7662 26.0313 34.7662H44.0307ZM44.0307 29.6169C44.4051 29.6169 44.7086 29.9276 44.7086 30.3109C44.7086 30.6941 44.4051 31.0048 44.0307 31.0048H26.0313C25.6569 31.0048 25.3534 30.6941 25.3534 30.3109C25.3534 29.9276 25.6569 29.6169 26.0313 29.6169H44.0307ZM44.0307 24.4676C44.4051 24.4676 44.7086 24.7783 44.7086 25.1616C44.7086 25.5448 44.4051 25.8555 44.0307 25.8555H26.0313C25.6569 25.8555 25.3534 25.5448 25.3534 25.1616C25.3534 24.7783 25.6569 24.4676 26.0313 24.4676H44.0307Z" fill="#AFC5CB"/>
</svg>
