<svg width="16" height="16" viewBox="0 0 16 16" fill="none" xmlns="http://www.w3.org/2000/svg">
<path d="M10.8648 11.4241C11.1889 11.7243 11.2082 12.2305 10.908 12.5546C10.6235 12.8617 10.1542 12.8952 9.83004 12.6426L9.77741 12.5978L5.45679 8.59508C5.13146 8.29369 5.1158 7.78935 5.40996 7.46843L5.45641 7.42171L9.77702 3.41369C10.1009 3.11321 10.6071 3.13221 10.9076 3.45613C11.1923 3.763 11.1902 4.23344 10.9138 4.53761L10.8652 4.5867L7.4938 7.71438C7.33184 7.86463 7.32235 8.11772 7.4726 8.27967C7.47946 8.28706 7.48659 8.29419 7.49399 8.30105L10.8648 11.4241Z" fill="#386D7D"/>
</svg>
