<svg width="16" height="16" viewBox="0 0 16 16" fill="none" xmlns="http://www.w3.org/2000/svg">
<path d="M11.9694 3.93866H11.3233V3.56943C11.3233 3.36561 11.1579 3.2002 10.954 3.2002C10.7502 3.2002 10.5848 3.36561 10.5848 3.56943V3.93866H5.41558V3.56943C5.41558 3.36561 5.25016 3.2002 5.04635 3.2002C4.84253 3.2002 4.67712 3.36561 4.67712 3.56943V3.93866H4.03096C3.57293 3.93866 3.2002 4.3114 3.2002 4.76943V11.9694C3.2002 12.4275 3.57293 12.8002 4.03096 12.8002H11.9694C12.4275 12.8002 12.8002 12.4275 12.8002 11.9694V4.76943C12.8002 4.3114 12.4275 3.93866 11.9694 3.93866ZM11.9694 12.0617H4.03096C3.98001 12.0617 3.93866 12.0202 3.93866 11.9694V6.52327H12.0617V11.9694C12.0617 12.0202 12.0202 12.0617 11.9694 12.0617ZM5.04635 10.2156C5.25027 10.2156 5.41558 10.3809 5.41558 10.5848C5.41558 10.7887 5.25027 10.954 5.04635 10.954C4.84243 10.954 4.67712 10.7887 4.67712 10.5848C4.67712 10.3809 4.84243 10.2156 5.04635 10.2156ZM6.52327 10.2156C6.72719 10.2156 6.8925 10.3809 6.8925 10.5848C6.8925 10.7887 6.72719 10.954 6.52327 10.954C6.31935 10.954 6.15404 10.7887 6.15404 10.5848C6.15404 10.3809 6.31935 10.2156 6.52327 10.2156ZM8.0002 10.2156C8.20412 10.2156 8.36943 10.3809 8.36943 10.5848C8.36943 10.7887 8.20412 10.954 8.0002 10.954C7.79628 10.954 7.63096 10.7887 7.63096 10.5848C7.63096 10.3809 7.79628 10.2156 8.0002 10.2156ZM9.47943 10.2156C9.68335 10.2156 9.84866 10.3809 9.84866 10.5848C9.84866 10.7887 9.68335 10.954 9.47943 10.954C9.27551 10.954 9.1102 10.7887 9.1102 10.5848C9.1102 10.3809 9.27551 10.2156 9.47943 10.2156ZM5.04635 8.73866C5.25027 8.73866 5.41558 8.90397 5.41558 9.10789C5.41558 9.31181 5.25027 9.47712 5.04635 9.47712C4.84243 9.47712 4.67712 9.31181 4.67712 9.10789C4.67712 8.90397 4.84243 8.73866 5.04635 8.73866ZM6.52327 8.73866C6.72719 8.73866 6.8925 8.90397 6.8925 9.10789C6.8925 9.31181 6.72719 9.47712 6.52327 9.47712C6.31935 9.47712 6.15404 9.31181 6.15404 9.10789C6.15404 8.90397 6.31935 8.73866 6.52327 8.73866ZM8.0002 8.73866C8.20412 8.73866 8.36943 8.90397 8.36943 9.10789C8.36943 9.31181 8.20412 9.47712 8.0002 9.47712C7.79628 9.47712 7.63096 9.31181 7.63096 9.10789C7.63096 8.90397 7.79628 8.73866 8.0002 8.73866ZM9.47943 8.73866C9.68335 8.73866 9.84866 8.90397 9.84866 9.10789C9.84866 9.31181 9.68335 9.47712 9.47943 9.47712C9.27551 9.47712 9.1102 9.31181 9.1102 9.10789C9.1102 8.90397 9.27551 8.73866 9.47943 8.73866ZM10.954 8.73866C11.158 8.73866 11.3233 8.90397 11.3233 9.10789C11.3233 9.31181 11.158 9.47712 10.954 9.47712C10.7501 9.47712 10.5848 9.31181 10.5848 9.10789C10.5848 8.90397 10.7501 8.73866 10.954 8.73866ZM6.52327 7.26173C6.72719 7.26173 6.8925 7.42704 6.8925 7.63096C6.8925 7.83489 6.72719 8.0002 6.52327 8.0002C6.31935 8.0002 6.15404 7.83489 6.15404 7.63096C6.15404 7.42704 6.31935 7.26173 6.52327 7.26173ZM8.0002 7.26173C8.20412 7.26173 8.36943 7.42704 8.36943 7.63096C8.36943 7.83489 8.20412 8.0002 8.0002 8.0002C7.79628 8.0002 7.63096 7.83489 7.63096 7.63096C7.63096 7.42704 7.79628 7.26173 8.0002 7.26173ZM9.47712 7.26173C9.68104 7.26173 9.84635 7.42704 9.84635 7.63096C9.84635 7.83489 9.68104 8.0002 9.47712 8.0002C9.2732 8.0002 9.10789 7.83489 9.10789 7.63096C9.10789 7.42704 9.2732 7.26173 9.47712 7.26173ZM10.954 7.26173C11.158 7.26173 11.3233 7.42704 11.3233 7.63096C11.3233 7.83489 11.158 8.0002 10.954 8.0002C10.7501 8.0002 10.5848 7.83489 10.5848 7.63096C10.5848 7.42704 10.7501 7.26173 10.954 7.26173ZM4.67712 4.67712V5.04635C4.67712 5.25016 4.84253 5.41558 5.04635 5.41558C5.25016 5.41558 5.41558 5.25016 5.41558 5.04635V4.67712H10.5848V5.04635C10.5848 5.25016 10.7502 5.41558 10.954 5.41558C11.1579 5.41558 11.3233 5.25016 11.3233 5.04635V4.67712H11.9694C12.0202 4.67712 12.0617 4.71847 12.0617 4.76943V5.78481H3.93866V4.76943C3.93866 4.71847 3.98001 4.67712 4.03096 4.67712H4.67712Z" fill="white"/>
</svg>
