<svg width="24" height="24" viewBox="0 0 24 24" fill="none" xmlns="http://www.w3.org/2000/svg">
<path d="M17.9537 5.9075H16.9844V5.35365C16.9844 5.04793 16.7363 4.7998 16.4306 4.7998C16.1249 4.7998 15.8767 5.04793 15.8767 5.35365V5.9075H8.12288V5.35365C8.12288 5.04793 7.87476 4.7998 7.56904 4.7998C7.26331 4.7998 7.01519 5.04793 7.01519 5.35365V5.9075H6.04596C5.35891 5.9075 4.7998 6.46661 4.7998 7.15365V17.9537C4.7998 18.6407 5.35891 19.1998 6.04596 19.1998H17.9537C18.6407 19.1998 19.1998 18.6407 19.1998 17.9537V7.15365C19.1998 6.46661 18.6407 5.9075 17.9537 5.9075ZM17.9537 18.0921H6.04596C5.96953 18.0921 5.9075 18.0298 5.9075 17.9537V9.78442H18.0921V17.9537C18.0921 18.0298 18.0298 18.0921 17.9537 18.0921ZM7.56904 15.3229C7.87492 15.3229 8.12288 15.5708 8.12288 15.8767C8.12288 16.1826 7.87492 16.4306 7.56904 16.4306C7.26315 16.4306 7.01519 16.1826 7.01519 15.8767C7.01519 15.5708 7.26315 15.3229 7.56904 15.3229ZM9.78442 15.3229C10.0903 15.3229 10.3383 15.5708 10.3383 15.8767C10.3383 16.1826 10.0903 16.4306 9.78442 16.4306C9.47854 16.4306 9.23058 16.1826 9.23058 15.8767C9.23058 15.5708 9.47854 15.3229 9.78442 15.3229ZM11.9998 15.3229C12.3057 15.3229 12.5537 15.5708 12.5537 15.8767C12.5537 16.1826 12.3057 16.4306 11.9998 16.4306C11.6939 16.4306 11.446 16.1826 11.446 15.8767C11.446 15.5708 11.6939 15.3229 11.9998 15.3229ZM14.2187 15.3229C14.5245 15.3229 14.7725 15.5708 14.7725 15.8767C14.7725 16.1826 14.5245 16.4306 14.2187 16.4306C13.9128 16.4306 13.6648 16.1826 13.6648 15.8767C13.6648 15.5708 13.9128 15.3229 14.2187 15.3229ZM7.56904 13.1075C7.87492 13.1075 8.12288 13.3555 8.12288 13.6613C8.12288 13.9672 7.87492 14.2152 7.56904 14.2152C7.26315 14.2152 7.01519 13.9672 7.01519 13.6613C7.01519 13.3555 7.26315 13.1075 7.56904 13.1075ZM9.78442 13.1075C10.0903 13.1075 10.3383 13.3555 10.3383 13.6613C10.3383 13.9672 10.0903 14.2152 9.78442 14.2152C9.47854 14.2152 9.23058 13.9672 9.23058 13.6613C9.23058 13.3555 9.47854 13.1075 9.78442 13.1075ZM11.9998 13.1075C12.3057 13.1075 12.5537 13.3555 12.5537 13.6613C12.5537 13.9672 12.3057 14.2152 11.9998 14.2152C11.6939 14.2152 11.446 13.9672 11.446 13.6613C11.446 13.3555 11.6939 13.1075 11.9998 13.1075ZM14.2187 13.1075C14.5245 13.1075 14.7725 13.3555 14.7725 13.6613C14.7725 13.9672 14.5245 14.2152 14.2187 14.2152C13.9128 14.2152 13.6648 13.9672 13.6648 13.6613C13.6648 13.3555 13.9128 13.1075 14.2187 13.1075ZM16.4306 13.1075C16.7365 13.1075 16.9844 13.3555 16.9844 13.6613C16.9844 13.9672 16.7365 14.2152 16.4306 14.2152C16.1247 14.2152 15.8767 13.9672 15.8767 13.6613C15.8767 13.3555 16.1247 13.1075 16.4306 13.1075ZM9.78442 10.8921C10.0903 10.8921 10.3383 11.1401 10.3383 11.446C10.3383 11.7518 10.0903 11.9998 9.78442 11.9998C9.47854 11.9998 9.23058 11.7518 9.23058 11.446C9.23058 11.1401 9.47854 10.8921 9.78442 10.8921ZM11.9998 10.8921C12.3057 10.8921 12.5537 11.1401 12.5537 11.446C12.5537 11.7518 12.3057 11.9998 11.9998 11.9998C11.6939 11.9998 11.446 11.7518 11.446 11.446C11.446 11.1401 11.6939 10.8921 11.9998 10.8921ZM14.2152 10.8921C14.5211 10.8921 14.769 11.1401 14.769 11.446C14.769 11.7518 14.5211 11.9998 14.2152 11.9998C13.9093 11.9998 13.6613 11.7518 13.6613 11.446C13.6613 11.1401 13.9093 10.8921 14.2152 10.8921ZM16.4306 10.8921C16.7365 10.8921 16.9844 11.1401 16.9844 11.446C16.9844 11.7518 16.7365 11.9998 16.4306 11.9998C16.1247 11.9998 15.8767 11.7518 15.8767 11.446C15.8767 11.1401 16.1247 10.8921 16.4306 10.8921ZM7.01519 7.01519V7.56904C7.01519 7.87476 7.26331 8.12288 7.56904 8.12288C7.87476 8.12288 8.12288 7.87476 8.12288 7.56904V7.01519H15.8767V7.56904C15.8767 7.87476 16.1249 8.12288 16.4306 8.12288C16.7363 8.12288 16.9844 7.87476 16.9844 7.56904V7.01519H17.9537C18.0298 7.01519 18.0921 7.07722 18.0921 7.15365V8.67673H5.9075V7.15365C5.9075 7.07722 5.96953 7.01519 6.04596 7.01519H7.01519Z" fill="white"/>
</svg>
