<svg width="16" height="16" viewBox="0 0 16 16" fill="none" xmlns="http://www.w3.org/2000/svg">
<path d="M8.0002 3.2002C10.6512 3.2002 12.8002 5.34923 12.8002 8.0002C12.8002 10.6512 10.6512 12.8002 8.0002 12.8002C5.34923 12.8002 3.2002 10.6512 3.2002 8.0002C3.2002 5.34923 5.34923 3.2002 8.0002 3.2002ZM8.0002 4.0002C5.79106 4.0002 4.0002 5.79106 4.0002 8.0002C4.0002 10.2093 5.79106 12.0002 8.0002 12.0002C10.2093 12.0002 12.0002 10.2093 12.0002 8.0002C12.0002 5.79106 10.2093 4.0002 8.0002 4.0002ZM8.0002 5.6002C8.22111 5.6002 8.4002 5.77928 8.4002 6.0002V8.149L9.21225 7.6802C9.40356 7.56974 9.6482 7.63529 9.75866 7.82661C9.86911 8.01792 9.80356 8.26256 9.61225 8.37302L8.22661 9.17302C8.06029 9.26904 7.85368 9.23205 7.72996 9.09505C7.65026 9.02212 7.6002 8.917 7.6002 8.8002V6.0002C7.6002 5.77928 7.77928 5.6002 8.0002 5.6002Z" fill="white"/>
</svg>
