<svg width="32" height="32" viewBox="0 0 32 32" fill="none" xmlns="http://www.w3.org/2000/svg">
<path d="M25.3216 6.65841C25.3231 6.65983 25.3245 6.66125 25.3259 6.66267C25.6778 7.01506 25.6793 7.58539 25.3293 7.93962L17.3604 16.0054L25.3293 24.0713C25.6543 24.4002 25.6762 24.9155 25.3959 25.2695L25.3259 25.3482C25.3245 25.3496 25.3231 25.3511 25.3216 25.3525C24.9705 25.6994 24.4045 25.696 24.0575 25.3449L15.9953 17.1864L7.93364 25.3449C7.58005 25.698 7.01409 25.6976 6.66528 25.3482C6.31341 24.9958 6.31191 24.4255 6.66192 24.0713L14.6308 16.0054L6.66192 7.93962C6.31191 7.58539 6.31341 7.01506 6.66528 6.66267C7.01409 6.31333 7.58005 6.31291 7.92938 6.66172L7.93364 6.666L15.9953 14.8245L24.0575 6.666C24.4045 6.31484 24.9705 6.31144 25.3216 6.65841Z" fill="#386D7D"/>
</svg>
