<svg width="40" height="40" viewBox="0 0 40 40" fill="none" xmlns="http://www.w3.org/2000/svg">
<circle cx="20" cy="20" r="20" fill="#AFC5CB"/>
<mask id="mask0" mask-type="alpha" maskUnits="userSpaceOnUse" x="0" y="6" width="40" height="35">
<ellipse cx="20" cy="23.3337" rx="20" ry="16.6667" fill="#C4C4C4"/>
</mask>
<g mask="url(#mask0)">
<path d="M20.0003 25.8333C23.6822 25.8333 26.667 22.8486 26.667 19.1667C26.667 15.4848 23.6822 12.5 20.0003 12.5C16.3184 12.5 13.3337 15.4848 13.3337 19.1667C13.3337 22.8486 16.3184 25.8333 20.0003 25.8333Z" fill="white"/>
<path d="M20.0003 54.1667C27.3641 54.1667 33.3337 48.1971 33.3337 40.8333C33.3337 33.4695 27.3641 27.5 20.0003 27.5C12.6365 27.5 6.66699 33.4695 6.66699 40.8333C6.66699 48.1971 12.6365 54.1667 20.0003 54.1667Z" fill="white"/>
</g>
</svg>
