<svg width="16" height="16" viewBox="0 0 16 16" fill="none" xmlns="http://www.w3.org/2000/svg">
<path fill-rule="evenodd" clip-rule="evenodd" d="M12.8002 8.0002C12.8002 10.6512 10.6512 12.8002 8.0002 12.8002C5.34923 12.8002 3.2002 10.6512 3.2002 8.0002C3.2002 5.34923 5.34923 3.2002 8.0002 3.2002C10.6512 3.2002 12.8002 5.34923 12.8002 8.0002ZM12.0002 8.0002C12.0002 10.2093 10.2093 12.0002 8.0002 12.0002C5.79106 12.0002 4.0002 10.2093 4.0002 8.0002C4.0002 5.79106 5.79106 4.0002 8.0002 4.0002C10.2093 4.0002 12.0002 5.79106 12.0002 8.0002ZM8.0002 6.4002C8.22111 6.4002 8.4002 6.22111 8.4002 6.0002C8.4002 5.77928 8.22111 5.6002 8.0002 5.6002C7.77928 5.6002 7.60019 5.77928 7.60019 6.0002C7.60019 6.22111 7.77928 6.4002 8.0002 6.4002ZM7.60019 9.6002V7.60019H7.2002V6.8002H7.60019H8.0002H8.4002V9.6002H9.2002V10.4002H6.8002V9.6002H7.60019Z" fill="#70B9C3"/>
</svg>
