<svg width="16" height="16" viewBox="0 0 16 16" fill="none" xmlns="http://www.w3.org/2000/svg">
<path fill-rule="evenodd" clip-rule="evenodd" d="M3.2002 6.99961C3.2002 5.12184 4.72243 3.59961 6.6002 3.59961H9.4002C11.278 3.59961 12.8002 5.12184 12.8002 6.99961C12.8002 8.87738 11.278 10.3996 9.40019 10.3996H8.86686L7.6583 11.0588C6.71805 11.5717 5.60281 11.0715 5.28722 10.1368C4.06134 9.62317 3.2002 8.41195 3.2002 6.99961ZM4.0002 6.99961C4.0002 5.56367 5.16425 4.39961 6.60019 4.39961H9.4002C10.8361 4.39961 12.0002 5.56367 12.0002 6.99961C12.0002 8.43555 10.8361 9.59961 9.4002 9.59961H8.54565L6.74116 10.5921C6.40793 10.7754 6.0002 10.5343 6.0002 10.154V9.53004C4.85352 9.25917 4.0002 8.22904 4.0002 6.99961Z" fill="#70B9C3"/>
</svg>
