<svg width="16" height="16" viewBox="0 0 16 16" fill="none" xmlns="http://www.w3.org/2000/svg">
<path d="M9.26752 4.7998H4.06221C3.58689 4.7998 3.2002 5.1865 3.2002 5.66177V10.2357C3.2002 10.711 3.58689 11.0977 4.06221 11.0977H9.26752C9.74285 11.0977 10.1295 10.711 10.1295 10.2357V9.26611L11.3931 10.1344C11.6921 10.3398 12.0942 10.3432 12.397 10.1436C12.6471 9.97882 12.8002 9.69341 12.8002 9.394V6.50338C12.8002 6.18835 12.6306 5.89049 12.3593 5.7302C12.0602 5.55348 11.6795 5.56719 11.3931 5.76306L10.1296 6.63132V5.66172C10.1295 5.1865 9.7428 4.7998 9.26752 4.7998ZM9.37218 10.2357C9.37218 10.2934 9.32527 10.3404 9.26752 10.3404H4.06221C4.00447 10.3404 3.95755 10.2934 3.95755 10.2357V5.66177C3.95755 5.60408 4.00452 5.55711 4.06221 5.55711H9.26752C9.32527 5.55711 9.37218 5.60408 9.37218 5.66177V7.35104V8.54639V10.2357ZM11.8219 6.38723C11.9147 6.32354 12.0428 6.39132 12.0428 6.50343V9.39405C12.0428 9.50591 11.9149 9.57409 11.822 9.51025L10.1295 8.34715V7.55028L11.8219 6.38723Z" fill="#70B9C3"/>
</svg>
