<svg width="32" height="32" viewBox="0 0 32 32" fill="none" xmlns="http://www.w3.org/2000/svg">
<path fill-rule="evenodd" clip-rule="evenodd" d="M25.5999 12.96C25.5999 11.8944 24.7455 11.04 23.6799 11.04H19.8399V9.11995C19.8399 8.05435 18.9855 7.19995 17.9199 7.19995H14.0799C13.0143 7.19995 12.1599 8.05435 12.1599 9.11995V11.04H8.3199C7.2543 11.04 6.4095 11.8944 6.4095 12.96L6.3999 23.5199C6.3999 24.5855 7.2543 25.4399 8.3199 25.4399H23.6799C24.7455 25.4399 25.5999 24.5855 25.5999 23.5199V12.96ZM17.9199 11.04V9.11995H14.0799V11.04H17.9199ZM8.3199 12.96V23.5199H23.6799V12.96H8.3199Z" fill="#254854"/>
</svg>
