<svg width="251" height="251" viewBox="0 0 251 251" fill="none" xmlns="http://www.w3.org/2000/svg">
<g clip-path="url(#clip0)">
<path fill-rule="evenodd" clip-rule="evenodd" d="M157.672 210.658C158.05 209.642 159.18 209.124 160.195 209.502C161.211 209.88 161.729 211.009 161.352 212.025C160.975 213.041 159.845 213.559 158.829 213.181C157.812 212.804 157.295 211.675 157.672 210.658Z" fill="#386D7D"/>
<path fill-rule="evenodd" clip-rule="evenodd" d="M128.851 199.953C129.227 198.937 130.357 198.419 131.373 198.797C132.39 199.174 132.907 200.304 132.529 201.32C132.152 202.335 131.022 202.853 130.007 202.476C128.99 202.099 128.472 200.969 128.851 199.953Z" fill="#386D7D"/>
<path fill-rule="evenodd" clip-rule="evenodd" d="M100.028 189.247C100.405 188.231 101.535 187.713 102.551 188.091C103.567 188.468 104.085 189.598 103.707 190.614C103.33 191.63 102.2 192.148 101.184 191.77C100.169 191.393 99.6509 190.263 100.028 189.247Z" fill="#386D7D"/>
<path fill-rule="evenodd" clip-rule="evenodd" d="M71.2055 178.542C71.5836 177.526 72.7126 177.009 73.729 177.385C74.7445 177.762 75.2624 178.892 74.8852 179.908C74.5076 180.925 73.3785 181.442 72.3617 181.065C71.3462 180.687 70.8283 179.557 71.2055 178.542Z" fill="#386D7D"/>
<path fill-rule="evenodd" clip-rule="evenodd" d="M42.3832 167.836C42.7613 166.82 43.8904 166.303 44.9068 166.68C45.9227 167.058 46.4402 168.187 46.0634 169.203C45.6853 170.219 44.5562 170.737 43.5398 170.36C42.5239 169.982 42.0064 168.853 42.3832 167.836Z" fill="#386D7D"/>
<path fill-rule="evenodd" clip-rule="evenodd" d="M167.238 184.902C167.616 183.886 168.745 183.369 169.762 183.746C170.778 184.124 171.295 185.253 170.918 186.269C170.54 187.285 169.411 187.802 168.395 187.426C167.379 187.048 166.861 185.919 167.238 184.902Z" fill="#386D7D"/>
<path fill-rule="evenodd" clip-rule="evenodd" d="M138.417 174.197C138.794 173.181 139.924 172.663 140.94 173.041C141.956 173.418 142.474 174.548 142.096 175.564C141.719 176.579 140.589 177.097 139.573 176.72C138.557 176.343 138.039 175.213 138.417 174.197Z" fill="#386D7D"/>
<path fill-rule="evenodd" clip-rule="evenodd" d="M109.595 163.492C109.971 162.475 111.101 161.957 112.117 162.335C113.134 162.712 113.652 163.842 113.274 164.858C112.897 165.874 111.767 166.392 110.751 166.014C109.734 165.637 109.217 164.507 109.595 163.492Z" fill="#386D7D"/>
<path fill-rule="evenodd" clip-rule="evenodd" d="M80.7724 152.786C81.1496 151.77 82.2795 151.252 83.295 151.63C84.3119 152.007 84.8293 153.136 84.4517 154.153C84.0745 155.169 82.9445 155.687 81.929 155.309C80.9131 154.931 80.3956 153.802 80.7724 152.786Z" fill="#386D7D"/>
<path fill-rule="evenodd" clip-rule="evenodd" d="M51.9496 142.08C52.3277 141.064 53.4568 140.547 54.4732 140.924C55.4891 141.302 56.0066 142.431 55.6298 143.447C55.2517 144.463 54.1226 144.981 53.1062 144.604C52.0903 144.226 51.5728 143.097 51.9496 142.08Z" fill="#386D7D"/>
<path fill-rule="evenodd" clip-rule="evenodd" d="M176.805 159.146C177.183 158.13 178.312 157.613 179.328 157.99C180.344 158.368 180.862 159.497 180.485 160.513C180.107 161.529 178.978 162.047 177.961 161.67C176.945 161.292 176.428 160.163 176.805 159.146Z" fill="#386D7D"/>
<path fill-rule="evenodd" clip-rule="evenodd" d="M147.984 148.441C148.361 147.425 149.491 146.907 150.506 147.285C151.522 147.662 152.04 148.792 151.663 149.808C151.286 150.824 150.156 151.342 149.14 150.964C148.124 150.587 147.606 149.457 147.984 148.441Z" fill="#386D7D"/>
<path fill-rule="evenodd" clip-rule="evenodd" d="M119.161 137.735C119.538 136.72 120.668 136.202 121.684 136.579C122.7 136.956 123.218 138.086 122.84 139.102C122.463 140.118 121.333 140.636 120.317 140.258C119.301 139.881 118.783 138.751 119.161 137.735Z" fill="#386D7D"/>
<path fill-rule="evenodd" clip-rule="evenodd" d="M90.3388 127.03C90.716 126.014 91.8459 125.496 92.8623 125.873C93.8778 126.25 94.3957 127.38 94.0185 128.396C93.6409 129.413 92.5109 129.931 91.495 129.553C90.4795 129.175 89.9616 128.045 90.3388 127.03Z" fill="#386D7D"/>
<path fill-rule="evenodd" clip-rule="evenodd" d="M61.5165 116.324C61.8946 115.308 63.0237 114.791 64.0401 115.168C65.056 115.546 65.5735 116.675 65.1967 117.691C64.8186 118.707 63.6895 119.224 62.6731 118.848C61.6572 118.47 61.1397 117.341 61.5165 116.324Z" fill="#386D7D"/>
<path fill-rule="evenodd" clip-rule="evenodd" d="M186.372 133.391C186.749 132.374 187.879 131.857 188.895 132.234C189.911 132.612 190.429 133.742 190.052 134.757C189.673 135.773 188.544 136.29 187.528 135.914C186.513 135.536 185.995 134.406 186.372 133.391Z" fill="#386D7D"/>
<path fill-rule="evenodd" clip-rule="evenodd" d="M157.55 122.685C157.927 121.669 159.057 121.151 160.073 121.529C161.088 121.906 161.606 123.036 161.229 124.051C160.852 125.068 159.722 125.586 158.706 125.208C157.69 124.831 157.172 123.701 157.55 122.685Z" fill="#386D7D"/>
<path fill-rule="evenodd" clip-rule="evenodd" d="M128.728 111.979C129.105 110.964 130.235 110.446 131.251 110.823C132.267 111.2 132.785 112.33 132.407 113.346C132.03 114.362 130.9 114.88 129.884 114.502C128.868 114.125 128.35 112.995 128.728 111.979Z" fill="#386D7D"/>
<path fill-rule="evenodd" clip-rule="evenodd" d="M99.9057 101.274C100.283 100.258 101.413 99.7403 102.428 100.118C103.445 100.495 103.963 101.624 103.585 102.641C103.208 103.657 102.078 104.174 101.062 103.797C100.046 103.419 99.5289 102.29 99.9057 101.274Z" fill="#386D7D"/>
<path fill-rule="evenodd" clip-rule="evenodd" d="M71.0829 90.5682C71.461 89.5523 72.5901 89.0348 73.6065 89.4115C74.6224 89.7896 75.1399 90.9187 74.7631 91.9351C74.385 92.951 73.2559 93.4685 72.2395 93.0917C71.2236 92.7136 70.7061 91.5846 71.0829 90.5682Z" fill="#386D7D"/>
<path fill-rule="evenodd" clip-rule="evenodd" d="M195.939 107.635C196.316 106.618 197.445 106.101 198.462 106.478C199.478 106.856 199.996 107.986 199.618 109.001C199.24 110.017 198.111 110.534 197.095 110.158C196.079 109.78 195.562 108.651 195.939 107.635Z" fill="#386D7D"/>
<path fill-rule="evenodd" clip-rule="evenodd" d="M167.116 96.9293C167.494 95.9125 168.623 95.395 169.64 95.7727C170.655 96.1499 171.173 97.2799 170.796 98.2954C170.418 99.3122 169.289 99.8297 168.272 99.452C167.257 99.0748 166.739 97.9448 167.116 96.9293Z" fill="#386D7D"/>
<path fill-rule="evenodd" clip-rule="evenodd" d="M138.295 86.2234C138.672 85.2079 139.802 84.69 140.817 85.0672C141.834 85.4439 142.351 86.5739 141.973 87.5898C141.597 88.6062 140.467 89.1241 139.451 88.746C138.434 88.3693 137.916 87.2393 138.295 86.2234Z" fill="#386D7D"/>
<path fill-rule="evenodd" clip-rule="evenodd" d="M109.472 75.5177C109.849 74.5022 110.979 73.9843 111.995 74.3615C113.012 74.7392 113.529 75.8682 113.152 76.885C112.774 77.9005 111.644 78.4184 110.629 78.0413C109.612 77.6636 109.095 76.5345 109.472 75.5177Z" fill="#386D7D"/>
<path fill-rule="evenodd" clip-rule="evenodd" d="M80.6501 64.813C81.0278 63.7962 82.1569 63.2787 83.1737 63.6564C84.1892 64.0336 84.7071 65.1635 84.3299 66.179C83.9518 67.1949 82.8227 67.7124 81.8063 67.3357C80.7908 66.9585 80.2729 65.8285 80.6501 64.813Z" fill="#386D7D"/>
<path fill-rule="evenodd" clip-rule="evenodd" d="M205.505 81.8789C205.883 80.8621 207.012 80.3446 208.029 80.7223C209.044 81.0995 209.562 82.2294 209.185 83.2449C208.807 84.2618 207.678 84.7792 206.661 84.4016C205.646 84.0244 205.128 82.8944 205.505 81.8789Z" fill="#386D7D"/>
<path fill-rule="evenodd" clip-rule="evenodd" d="M176.683 71.1734C177.061 70.1575 178.19 69.64 179.206 70.0168C180.222 70.394 180.739 71.5239 180.362 72.5394C179.985 73.5563 178.856 74.0737 177.839 73.6961C176.823 73.3189 176.305 72.1889 176.683 71.1734Z" fill="#386D7D"/>
<path fill-rule="evenodd" clip-rule="evenodd" d="M147.861 60.4673C148.239 59.4518 149.369 58.9339 150.384 59.3111C151.4 59.6883 151.917 60.8182 151.54 61.8337C151.164 62.8501 150.034 63.368 149.018 62.9899C148.001 62.6132 147.483 61.4832 147.861 60.4673Z" fill="#386D7D"/>
<path fill-rule="evenodd" clip-rule="evenodd" d="M119.039 49.7617C119.416 48.7462 120.546 48.2283 121.562 48.6054C122.578 48.9831 123.096 50.1122 122.718 51.129C122.341 52.1445 121.211 52.6624 120.196 52.2852C119.18 51.9071 118.662 50.7781 119.039 49.7617Z" fill="#386D7D"/>
<path fill-rule="evenodd" clip-rule="evenodd" d="M90.217 39.057C90.5938 38.0406 91.7238 37.5227 92.7406 37.9004C93.7561 38.2776 94.2736 39.4066 93.8968 40.423C93.5187 41.439 92.3887 41.9569 91.3732 41.5797C90.3573 41.2016 89.8398 40.0725 90.217 39.057Z" fill="#386D7D"/>
</g>
<defs>
<clipPath id="clip0">
<rect y="78.7471" width="189" height="189" transform="rotate(-24.6233 0 78.7471)" fill="white"/>
</clipPath>
</defs>
</svg>
