<svg width="32" height="32" viewBox="0 0 32 32" fill="none" xmlns="http://www.w3.org/2000/svg">
<path d="M13.0596 8.15002L13.1587 8.19562L14.6837 9.02748C14.5096 9.55607 14.4114 10.1159 14.4008 10.6957L13.5999 10.2587L13.6006 21.1896C13.6605 21.2115 13.7197 21.2359 13.778 21.2627L13.9249 21.3364L17.5999 23.3411L17.5999 18.7725C18.0794 19.6161 18.6129 20.515 19.2002 21.4694L19.1999 23.3403L22.3922 21.5993L22.3971 21.5996C22.4693 21.489 22.5137 21.4201 22.5304 21.3929C23.0679 20.5174 23.5577 19.688 24.0005 18.9052L23.9999 22.0704C23.9999 22.3307 23.8736 22.5724 23.665 22.7214L23.583 22.7728L18.783 25.3909C18.574 25.5049 18.327 25.5192 18.1085 25.4337L18.0168 25.3909L13.1587 22.7411C12.9656 22.6357 12.7391 22.6153 12.5325 22.6812L12.431 22.7214L7.54449 25.0536C7.43687 25.105 7.31914 25.1316 7.1999 25.1316C6.78963 25.1316 6.4515 24.8228 6.40528 24.4249L6.3999 24.3316V11.5591C6.3999 11.285 6.53989 11.0326 6.76642 10.8867L6.85532 10.8371L12.431 8.17595C12.6296 8.08118 12.8568 8.07301 13.0596 8.15002ZM11.9999 10.1539L7.9999 12.0631V23.0631L11.7419 21.2774C11.8264 21.2371 11.9127 21.202 12.0003 21.1721L11.9999 10.1539ZM20.7999 6.3999C23.4509 6.3999 25.5999 8.41462 25.5999 10.8999C25.5999 12.3748 24.3321 15.1516 21.7965 19.2304C21.769 19.2747 21.6682 19.4037 21.4941 19.6173L21.415 19.714C21.1348 20.0556 20.6308 20.1054 20.2891 19.8252C20.2492 19.7925 20.2125 19.7559 20.1796 19.7161C19.9792 19.4734 19.8618 19.3245 19.8275 19.2694C17.2758 15.1693 15.9999 12.3794 15.9999 10.8999C15.9999 8.41462 18.1489 6.3999 20.7999 6.3999ZM20.7999 7.9999C19.0103 7.9999 17.5999 9.32218 17.5999 10.8999C17.5999 11.815 18.4523 13.8038 20.1452 16.6995C20.2332 16.85 20.3234 17.003 20.4159 17.1583C20.4264 17.1758 20.48 17.2648 20.577 17.4251L20.6292 17.5112C20.6863 17.6056 20.8091 17.6359 20.9036 17.5788C20.9312 17.5621 20.9544 17.5389 20.9712 17.5113C21.075 17.3397 21.146 17.2219 21.1841 17.1579C21.2737 17.0074 21.3612 16.8592 21.4465 16.7134C23.0944 13.8963 23.9484 11.9356 23.9976 10.9843L23.9999 10.8999C23.9999 9.32218 22.5895 7.9999 20.7999 7.9999Z" fill="#254854"/>
</svg>
