<svg width="32" height="32" viewBox="0 0 32 32" fill="none" xmlns="http://www.w3.org/2000/svg">
<path fill-rule="evenodd" clip-rule="evenodd" d="M25.3712 13.3713C25.1312 12.8113 24.6512 12.3313 24.0912 12.0913L23.7712 9.93127C23.5312 8.57127 22.2512 7.61127 20.8912 7.85127L15.5312 8.73127L12.0112 7.37127C11.3712 7.13127 10.6512 7.13127 10.0912 7.45127C9.45117 7.69127 8.97117 8.25127 8.73117 8.81127L8.25117 10.0113H8.17117C6.81117 10.2513 5.85117 11.5313 6.09117 12.8913L6.41117 14.8113L5.77117 16.4113C5.53117 17.0513 5.53117 17.6913 5.85117 18.3313C6.09117 18.9713 6.65117 19.4513 7.21117 19.6913L7.45117 20.9713C7.69117 22.1713 8.73117 23.0513 9.93117 23.0513H10.3312L14.1712 22.4113L19.2112 24.3313L19.2112 24.3313C19.5312 24.4113 19.8512 24.4913 20.0912 24.4913C21.1312 24.4913 22.0912 23.8513 22.4112 22.8913L23.2112 20.8113C23.7712 20.6513 24.2512 20.3313 24.5712 19.8513C24.9712 19.2913 25.1312 18.6513 24.9712 17.9313L24.7312 16.6513L25.2912 15.2913C25.6912 14.7313 25.6912 14.0113 25.3712 13.3713ZM10.1712 9.37127C10.2512 9.13127 10.4112 8.97127 10.6512 8.81127C10.8112 8.73127 10.8912 8.73127 11.0512 8.73127C11.2112 8.73127 11.2912 8.73127 11.3712 8.81127L12.4912 9.29127L10.0112 9.69127L10.1712 9.37127ZM10.0912 21.4513C9.53117 21.5313 9.05117 21.2113 8.97117 20.6513L7.61117 12.6513C7.53117 12.1713 7.85117 11.6113 8.41117 11.5313L21.1312 9.37127C21.6912 9.29127 22.1712 9.61127 22.2512 10.1713L23.6112 18.1713C23.6912 18.4113 23.6112 18.7313 23.4512 18.8913C23.2912 19.1313 23.0512 19.2113 22.8112 19.2913L10.0912 21.4513ZM19.7712 22.8913L17.1312 21.8513L21.5312 21.1313L21.0512 22.3313C20.8912 22.8113 20.3312 23.0513 19.7712 22.8913ZM21.3712 16.9713L17.3712 14.2513C17.0512 14.0113 16.5712 14.0913 16.3312 14.4113L15.1312 16.0113L13.8512 15.5313C13.5312 15.4513 13.2112 15.5313 12.9712 15.7713L10.8112 18.7313C10.6512 18.9713 10.5712 19.2913 10.8112 19.6113C10.9712 19.8513 11.2112 20.0113 11.4512 20.0113H11.6112L21.1312 18.4113C21.4512 18.3313 21.6912 18.0913 21.7712 17.8513C21.7712 17.4513 21.6112 17.1313 21.3712 16.9713ZM13.2112 18.0913L13.8512 17.2113L15.1312 17.6913C15.2228 17.7142 15.3143 17.724 15.4041 17.7206L13.2112 18.0913ZM16.0112 17.4513C15.9001 17.5624 15.7718 17.6392 15.6344 17.6817L18.8912 17.1313L17.1312 15.9313L16.0112 17.4513ZM11.2912 11.7713C12.4112 11.7713 13.2912 12.6513 13.2912 13.7713C13.2912 14.8913 12.4112 15.7713 11.2912 15.7713C10.1712 15.7713 9.29117 14.8113 9.29117 13.7713C9.29117 12.7313 10.1712 11.7713 11.2912 11.7713ZM11.2912 13.2913C11.0512 13.2913 10.8112 13.5313 10.8112 13.7713C10.8112 14.0913 11.0512 14.2513 11.2912 14.2513C11.5312 14.2513 11.7712 14.0113 11.7712 13.7713C11.7712 13.5313 11.5312 13.2913 11.2912 13.2913Z" fill="#254854"/>
</svg>
