<svg width="40" height="40" viewBox="0 0 40 40" fill="none" xmlns="http://www.w3.org/2000/svg">
<path d="M18.5 8C24.299 8 29 12.701 29 18.5C29 21.0394 28.0985 23.3683 26.5982 25.184L31.6066 30.1924C31.9971 30.5829 31.9971 31.2161 31.6066 31.6066C31.2161 31.9971 30.5829 31.9971 30.1924 31.6066L25.184 26.5982C23.3683 28.0985 21.0394 29 18.5 29C12.701 29 8 24.299 8 18.5C8 12.701 12.701 8 18.5 8ZM18.5 10C13.8056 10 10 13.8056 10 18.5C10 23.1944 13.8056 27 18.5 27C23.1944 27 27 23.1944 27 18.5C27 13.8056 23.1944 10 18.5 10Z" fill="#1A323B"/>
</svg>
