<svg width="48" height="36" viewBox="0 0 48 36" fill="none" xmlns="http://www.w3.org/2000/svg">
<path fill-rule="evenodd" clip-rule="evenodd" d="M22.5472 21.3759C19.1497 18.3155 7.59009 8.50003 1.00228 2.92087C0.592124 2.57419 0.529593 1.96481 0.861655 1.54106C1.62919 0.561563 2.77378 0 4.00031 0H44.0003C45.2269 0 46.3714 0.561563 47.139 1.54097C47.4711 1.96481 47.4085 2.57419 46.9984 2.92087C40.4105 8.50003 28.8509 18.3164 25.4505 21.3799C24.9954 21.791 24.5071 21.999 24.0003 21.999C23.4924 21.999 23.0033 21.789 22.5472 21.3759ZM46.3536 6.08887C46.6485 5.83687 47.0655 5.7793 47.42 5.9443C47.7734 6.10743 48 6.4619 48.0001 6.85152V29.6903C48.0001 30.0653 47.7902 30.4091 47.4562 30.58C47.3126 30.6543 47.1564 30.6904 47.0001 30.6904C46.794 30.6904 46.589 30.6269 46.4161 30.5019C42.0812 27.3828 36.0783 22.994 32.0949 19.8036C31.8625 19.6181 31.7247 19.3379 31.7199 19.041C31.715 18.7431 31.8419 18.459 32.0675 18.2656C36.3546 14.5781 42.0391 9.74605 46.3536 6.08887ZM1.584 30.5018C5.91994 27.3826 11.9239 22.994 15.9063 19.8035C16.1387 19.618 16.2764 19.3377 16.2813 19.0409C16.2862 18.743 16.1592 18.4589 15.9337 18.2655C11.6465 14.578 5.96091 9.74592 1.64653 6.08874C1.34962 5.83673 0.931687 5.78114 0.580125 5.94417C0.226594 6.1073 0 6.46177 0 6.85139V29.6903C0 30.0653 0.21 30.4091 0.543938 30.58C0.687469 30.6542 0.84375 30.6903 1.00003 30.6903C1.20609 30.6903 1.41113 30.6269 1.584 30.5018ZM30.2726 20.9071C34.8761 24.6435 42.588 30.2275 46.7745 33.2226C47.008 33.3906 47.1584 33.6504 47.1877 33.9364C47.216 34.2225 47.1203 34.5067 46.925 34.7167C46.1662 35.5321 45.1008 35.9999 44.0002 35.9999H4.00017C2.89955 35.9999 1.83314 35.5321 1.0762 34.7166C0.879889 34.5057 0.785202 34.2215 0.813515 33.9354C0.842765 33.6492 0.993139 33.3905 1.22658 33.2225C5.41992 30.2215 13.1406 24.6307 17.7285 20.907C18.1046 20.5994 18.6485 20.6092 19.0147 20.9295C19.9181 21.7147 20.6739 22.3808 21.2081 22.8622C22.8585 24.3504 25.1436 24.3504 26.7901 22.8641C27.3263 22.3818 28.0822 21.7177 28.9855 20.9296C29.3546 20.6112 29.8976 20.6015 30.2726 20.9071Z" fill="white"/>
</svg>
