<svg width="32" height="32" viewBox="0 0 32 32" fill="none" xmlns="http://www.w3.org/2000/svg">
<path d="M20.0001 6.3999C21.3256 6.3999 22.4001 7.47442 22.4001 8.7999V23.1999C22.4001 24.5254 21.3256 25.5999 20.0001 25.5999H12.0001C10.6746 25.5999 9.6001 24.5254 9.6001 23.1999V8.7999C9.6001 7.47442 10.6746 6.3999 12.0001 6.3999H20.0001ZM11.2001 20.7999V23.1999C11.2001 23.6102 11.5089 23.9483 11.9068 23.9945L12.0001 23.9999H20.0001C20.4104 23.9999 20.7485 23.6911 20.7947 23.2932L20.8001 23.1999V20.7999H11.2001ZM16.0001 21.5999C16.4419 21.5999 16.8001 21.9581 16.8001 22.3999C16.8001 22.8417 16.4419 23.1999 16.0001 23.1999C15.5583 23.1999 15.2001 22.8417 15.2001 22.3999C15.2001 21.9581 15.5583 21.5999 16.0001 21.5999ZM11.2001 19.1999H20.8001V8.7999C20.8001 8.38963 20.4913 8.0515 20.0934 8.00528L20.0001 7.9999H12.0001C11.5898 7.9999 11.2517 8.30873 11.2055 8.70661L11.2001 8.7999V19.1999Z" fill="#254854"/>
</svg>
