<svg width="17" height="17" viewBox="0 0 17 17" fill="none" xmlns="http://www.w3.org/2000/svg">
<path d="M8.50002 3.40002C8.73475 3.40002 8.92502 3.5903 8.92502 3.82502V8.07503H13.175C13.4097 8.07503 13.6 8.2653 13.6 8.50002C13.6 8.73475 13.4097 8.92502 13.175 8.92502H8.9246L8.92502 13.175C8.92502 13.4097 8.73475 13.6 8.50002 13.6C8.2653 13.6 8.07503 13.4097 8.07503 13.175L8.0746 8.92502H3.82502C3.5903 8.92502 3.40002 8.73475 3.40002 8.50002C3.40002 8.2653 3.5903 8.07503 3.82502 8.07503H8.07503V3.82502C8.07503 3.5903 8.2653 3.40002 8.50002 3.40002Z" fill="#E5853C"/>
<rect x="0.5" y="0.5" width="16" height="16" rx="8" stroke="#E5853C"/>
</svg>
