<svg width="32" height="32" viewBox="0 0 32 32" fill="none" xmlns="http://www.w3.org/2000/svg">
<path d="M16.1413 7.66641C17.3132 6.7218 18.527 6.29392 20.1805 6.42284L20.4372 6.44642L20.6102 6.46856C23.1292 6.82803 25.2261 9.08402 25.5782 12.3788L25.6004 12.6159L25.598 13.682C25.3072 17.4293 22.6137 21.0488 17.4061 24.845L17.0703 25.0876L16.8088 25.2895C16.3781 25.6749 15.7608 25.7006 15.2788 25.3943L15.1777 25.3236L14.8993 25.1052C9.59922 21.271 6.8162 17.6515 6.42229 13.8622L6.40039 13.6201L6.403 12.5513C6.68145 9.11295 8.91221 6.72759 11.5799 6.44527C13.3653 6.27538 14.6516 6.70038 15.8694 7.67703L15.9988 7.78322L16.1413 7.66641ZM20.2589 8.03698C18.7494 7.87282 17.8013 8.26738 16.7168 9.28674L16.5608 9.43662L16.0004 9.98682L15.4399 9.43662C14.3122 8.3295 13.3305 7.88591 11.7399 8.03723C9.91397 8.2305 8.30943 9.89596 8.02228 12.3934L8.00039 12.6159L7.99799 13.5582C8.24481 16.7385 10.6612 19.9994 15.5392 23.592L15.8608 23.8268L15.9732 23.9144L16.1122 23.8066C21.1117 20.2274 23.6411 16.9583 23.9813 13.8243L24.0004 13.6201L24.003 12.6804C23.7918 10.0719 22.2335 8.33744 20.4217 8.05809L20.2589 8.03698Z" fill="#AFC5CB"/>
</svg>
