<svg width="12" height="12" viewBox="0 0 12 12" fill="none" xmlns="http://www.w3.org/2000/svg">
<g clip-path="url(#clip0)">
<path d="M0.620477 12C0.462407 12 0.304338 11.9399 0.184241 11.8189C-0.0568564 11.5778 -0.0568564 11.1869 0.184241 10.9458L10.9492 0.180823C11.1903 -0.0602744 11.5812 -0.0602744 11.8223 0.180823C12.0634 0.421921 12.0634 0.8128 11.8223 1.05405L1.05747 11.8189C0.936466 11.9392 0.778396 12 0.620477 12Z" fill="#254854"/>
<path d="M11.3862 12C11.2282 12 11.0702 11.9399 10.95 11.8189L0.184241 1.05405C-0.0568564 0.8128 -0.0568564 0.421921 0.184241 0.180823C0.425339 -0.0602744 0.816218 -0.0602744 1.05747 0.180823L11.8223 10.9458C12.0634 11.1869 12.0634 11.5778 11.8223 11.8189C11.7013 11.9392 11.5434 12 11.3862 12Z" fill="#254854"/>
</g>
<defs>
<clipPath id="clip0">
<rect width="12" height="12" rx="5" fill="white"/>
</clipPath>
</defs>
</svg>
