<svg width="26" height="17" viewBox="0 0 26 17" fill="none" xmlns="http://www.w3.org/2000/svg">
<path d="M25.7302 1.46125C25.5628 1.36206 25.3558 1.35818 25.1849 1.45135L19.2194 4.70867V2.75424C19.2177 1.23381 17.9856 0.0017214 16.4652 0H2.75424C1.23381 0.0017214 0.0017214 1.23381 0 2.75424V13.6292C0.0017214 15.1496 1.23381 16.3817 2.75424 16.3834H16.4652C17.9856 16.3817 19.2177 15.1496 19.2194 13.6292V11.7102L25.1851 14.9676C25.3558 15.0607 25.563 15.0571 25.7302 14.9579C25.8976 14.8585 26 14.6784 26 14.4841V1.93485C26 1.74033 25.8974 1.56045 25.7302 1.46125ZM18.1173 13.6294C18.1164 14.5417 17.3771 15.2809 16.4647 15.2819H2.75424C1.8419 15.2809 1.10277 14.5417 1.10169 13.6294V2.75424C1.10277 1.84211 1.8419 1.10277 2.75424 1.1017H16.4652C17.3773 1.10277 18.1166 1.84211 18.1177 2.75424L18.1173 13.6294ZM24.8983 13.5558L19.2194 10.4551V5.96378L24.8983 2.86333V13.5558Z" fill="#EB5757"/>
</svg>
