<svg width="18" height="23" viewBox="0 0 18 23" fill="none" xmlns="http://www.w3.org/2000/svg">
<path d="M16.3332 1.96299L13.3203 4.928V4.67343C13.3203 2.36848 11.4217 0.5 9.07964 0.5C6.73758 0.5 4.83902 2.36848 4.83902 4.67343V12.1672C4.83923 12.5002 4.87992 12.832 4.96027 13.1555L3.61008 14.4843C3.27443 13.7336 3.10177 12.9222 3.10345 12.1019C3.10345 11.81 2.86303 11.5734 2.5664 11.5734C2.26997 11.5734 2.02934 11.81 2.02934 12.1019C2.02682 13.2059 2.29262 14.2946 2.80471 15.2769L0.90887 17.1427C0.772298 17.2761 0.718593 17.471 0.768103 17.6541C0.817612 17.8371 0.962785 17.9799 1.14866 18.0289C1.33474 18.0776 1.53299 18.0247 1.66851 17.8901L3.3854 16.2004C3.59959 16.4878 3.83581 16.7587 4.09196 17.0106C5.24999 18.1556 6.78038 18.8634 8.41525 19.0098V21.4429H6.42374C6.12711 21.4429 5.88669 21.6795 5.88669 21.9715C5.88669 22.2634 6.12711 22.5 6.42374 22.5H11.7353C12.032 22.5 12.2724 22.2634 12.2724 21.9715C12.2724 21.6795 12.032 21.4429 11.7353 21.4429H9.48873V19.029C13.2194 18.8204 16.1346 15.7797 16.1297 12.1021C16.1297 11.8102 15.8893 11.5736 15.5927 11.5736C15.296 11.5736 15.0556 11.8102 15.0556 12.1021C15.054 14.481 13.5976 16.6249 11.3649 17.5354C9.13188 18.4459 6.56157 17.944 4.85097 16.2636C4.5944 16.0111 4.36154 15.7363 4.15532 15.4427L5.39243 14.2252C6.14536 15.5317 7.55324 16.3394 9.07944 16.3406C11.4177 16.3406 13.3201 14.4571 13.3201 12.1418V6.4232L17.0927 2.71039C17.3024 2.50392 17.3024 2.16925 17.0927 1.96299C16.8829 1.75653 16.5428 1.75653 16.3332 1.96299ZM5.91291 12.1674V4.67364C5.91291 2.95257 7.33065 1.55729 9.07944 1.55729C10.8282 1.55729 12.246 2.95257 12.246 4.67364V5.98529L5.91396 12.2169C5.91396 12.2002 5.91291 12.1839 5.91291 12.1674ZM12.246 12.142C12.246 13.8742 10.8255 15.2837 9.07944 15.2837C7.83162 15.2823 6.70066 14.5607 6.19004 13.4402L12.246 7.48028V12.142Z" fill="#EB5757"/>
</svg>
