<svg width="22" height="22" viewBox="0 0 22 22" fill="none" xmlns="http://www.w3.org/2000/svg">
<path d="M10.5281 11.0139C4.72295 11.0139 0 15.7369 0 21.542C0 21.7946 0.205083 21.9997 0.457756 21.9997C0.71043 21.9997 0.915513 21.7946 0.915513 21.542C0.915513 16.2413 5.22744 11.9294 10.5281 11.9294C15.8287 11.9294 20.1407 16.2413 20.1407 21.542C20.1407 21.7946 20.3458 21.9997 20.5984 21.9997C20.8511 21.9997 21.0562 21.7946 21.0562 21.542C21.0561 15.736 16.3331 11.0139 10.5281 11.0139Z" fill="#254854"/>
<path d="M10.5288 0C7.75304 0 5.49365 2.25848 5.49365 5.03515C5.49365 7.81181 7.75308 10.0703 10.5288 10.0703C13.3045 10.0703 15.5639 7.81181 15.5639 5.03515C15.5639 2.25848 13.3046 0 10.5288 0ZM10.5288 9.15482C8.25748 9.15482 6.40912 7.30646 6.40912 5.03515C6.40912 2.76383 8.25748 0.91547 10.5288 0.91547C12.8001 0.91547 14.6485 2.76383 14.6485 5.03515C14.6485 7.30646 12.8001 9.15482 10.5288 9.15482Z" fill="#254854"/>
</svg>
