<svg width="22" height="22" viewBox="0 0 22 22" fill="none" xmlns="http://www.w3.org/2000/svg">
<circle cx="10.082" cy="11.9167" r="2.75" stroke="#254854" stroke-width="0.5"/>
<path d="M8.49034 11.6989L8.49035 11.6988C8.61083 11.5784 8.80589 11.5784 8.92631 11.6988L8.92633 11.6989L9.519 12.2914L9.62507 12.3974L9.73112 12.2914L11.2404 10.7821C11.3609 10.6616 11.5559 10.6616 11.6764 10.7821L11.6764 10.7821C11.7968 10.9026 11.7968 11.0976 11.6764 11.2181L9.84302 13.0515C9.78275 13.1117 9.70409 13.1418 9.62501 13.1418C9.54595 13.1418 9.46731 13.1117 9.40698 13.0514L8.49035 12.1348C8.36987 12.0143 8.36989 11.8193 8.49034 11.6989Z" stroke="#254854" stroke-width="0.3"/>
<path d="M15.1728 1.96285L15.2703 2.24732L15.5662 2.19373C15.5856 2.19022 15.602 2.18609 15.6124 2.18335H17.4167C18.2345 2.18335 18.9 2.84886 18.9 3.66665V20.1667C18.9 20.9845 18.2345 21.65 17.4167 21.65H4.58335C3.76551 21.65 3.1 20.9845 3.1 20.1667V3.66665C3.1 2.84885 3.76551 2.18335 4.5833 2.18335H6.38759C6.39795 2.18609 6.41433 2.19022 6.43373 2.19373L6.72967 2.24732L6.82719 1.96282C6.96648 1.55644 7.34616 1.26665 7.79165 1.26665H9.17606H9.35051L9.45553 1.12736C9.82158 0.641864 10.3959 0.35 11 0.35C11.6041 0.35 12.1784 0.641865 12.5444 1.12735L12.6494 1.26665H12.8239H14.2083C14.6538 1.26665 15.0334 1.55646 15.1728 1.96285ZM14.5534 17.5299L14.5535 17.5299C14.7112 17.6876 14.9186 17.7667 15.125 17.7667C15.3314 17.7667 15.5388 17.6876 15.6966 17.5299C16.0123 17.2141 16.0122 16.7025 15.6966 16.3868L15.6966 16.3867L13.4257 14.1159C13.8449 13.4865 14.1 12.735 14.1 11.9167C14.1 9.70158 12.2984 7.9 10.0833 7.9C7.86824 7.9 6.06665 9.70159 6.06665 11.9167C6.06665 14.1317 7.86824 15.9333 10.0833 15.9333C10.9017 15.9333 11.6532 15.6781 12.2826 15.259L14.5534 17.5299ZM7.7917 1.4833C7.34546 1.4833 6.98335 1.8455 6.98335 2.29165V2.75C6.98335 3.44861 7.55139 4.01665 8.25 4.01665H13.7501C14.4487 4.01665 15.0167 3.44861 15.0167 2.75V2.29165C15.0167 1.84542 14.6545 1.4833 14.2084 1.4833H12.5791C12.5412 1.4833 12.5051 1.46298 12.4852 1.42892L12.183 1.60548L12.4855 1.42945C12.1732 0.892793 11.6172 0.566652 11 0.566652C10.3829 0.566652 9.8269 0.892749 9.51457 1.42944L9.81707 1.60548L9.51487 1.42892C9.49497 1.46298 9.45892 1.4833 9.42094 1.4833H7.7917Z" stroke="#254854" stroke-width="0.7"/>
</svg>
