<svg width="22" height="22" viewBox="0 0 22 22" fill="none" xmlns="http://www.w3.org/2000/svg">
<g clip-path="url(#clip0)">
<ellipse rx="2.12803" ry="2.74423" transform="matrix(0.996844 -0.0793902 0.074585 0.997215 8.44073 18.958)" fill="#ECF4FA"/>
<path d="M17.6133 7.48746C17.7751 7.48746 17.9062 7.6493 17.9062 7.48746V4.19922C17.9062 3.71461 17.512 3.32031 17.0273 3.32031H16.7344V2.53906C16.7344 2.05445 16.3401 1.66016 15.8555 1.66016H15.5625V0.878906C15.5625 0.394297 15.1682 0 14.6836 0H3.43359C2.94895 0 2.55469 0.394297 2.55469 0.878906V3.7831C2.55469 3.94493 2.64851 3.45412 2.81031 3.45412C2.9721 3.45412 3.14062 3.90656 3.14062 3.74473V0.878906C3.14062 0.717344 3.27203 0.585938 3.43359 0.585938H14.6836C14.8452 0.585938 14.9766 0.717344 14.9766 0.878906V15.8008C14.9766 15.9623 14.8452 16.0938 14.6836 16.0938H3.43359C3.27203 16.0938 3.14062 15.9623 3.14062 15.8008V3.74473C3.14062 3.58289 3.00945 3.45176 2.84766 3.45176C2.68586 3.45176 2.55469 3.58289 2.55469 3.74473V15.8008C2.55469 16.2854 2.94895 16.6797 3.43359 16.6797H3.72656V17.4609C3.72656 17.9455 4.12082 18.3398 4.60547 18.3398H4.89844V19.1211C4.89844 19.6057 5.2927 20 5.77734 20H17.0273C17.512 20 17.9062 19.6057 17.9062 19.1211V7.48746C17.9062 7.32563 17.7751 7.19449 17.6133 7.19449C17.4514 7.19449 17.3203 7.32563 17.3203 7.48746V19.1211C17.3203 19.2827 17.1889 19.4141 17.0273 19.4141H5.77734C5.61578 19.4141 5.48438 19.2827 5.48438 19.1211V18.3398H12.7253C12.8871 18.3398 16.1396 18.3437 16.1396 18.1818C16.1396 18.02 14.1298 17.7539 13.968 17.7539H4.60547C4.44395 17.7539 4.3125 17.6225 4.3125 17.4609V16.6797H14.6836C15.1682 16.6797 15.5625 16.2854 15.5625 15.8008V2.24609H15.8555C16.017 2.24609 16.1484 2.3775 16.1484 2.53906V17.4609C16.1484 17.6225 16.017 17.7539 15.8555 17.7539H13.968C13.8062 17.7539 13.675 17.885 13.675 18.0469C13.675 18.2087 13.8062 18.3398 13.968 18.3398H15.8555C16.3401 18.3398 16.7344 17.9455 16.7344 17.4609V3.90625H17.0273C17.1889 3.90625 17.3203 4.03766 17.3203 4.19922V7.48746C17.3203 7.6493 17.4514 7.48746 17.6133 7.48746Z" fill="#254854"/>
<path d="M4.72656 5.32812V7.5625C4.72656 7.83496 4.94824 8.05664 5.2207 8.05664H7.45508C7.72754 8.05664 7.94922 7.83496 7.94922 7.5625V5.90064L8.60965 5.33689C8.745 5.22134 8.76107 5.01793 8.64548 4.88258C8.52998 4.74718 8.32653 4.73116 8.19113 4.8467L7.89362 5.10064C7.81116 4.94235 7.64556 4.83398 7.45503 4.83398H5.22066C4.94824 4.83398 4.72656 5.05566 4.72656 5.32812ZM5.37109 5.47851H7.30469V5.60342L6.66523 6.1493L6.35989 5.81852C6.23919 5.68781 6.0353 5.67965 5.90451 5.8003C5.77371 5.92105 5.76559 6.12489 5.88629 6.25569L6.40191 6.81428C6.51935 6.94147 6.71632 6.9532 6.84797 6.84079L7.30473 6.45085V7.41211H5.37114V5.47851H5.37109Z" fill="#254854"/>
<path d="M14.373 5.34961H9.2168C9.03882 5.34961 8.89453 5.49386 8.89453 5.67188C8.89453 5.84989 9.03882 5.99414 9.2168 5.99414H14.373C14.5511 5.99414 14.6953 5.84989 14.6953 5.67188C14.6953 5.49386 14.5511 5.34961 14.373 5.34961Z" fill="#254854"/>
<path d="M14.373 6.72461H9.2168C9.03882 6.72461 8.89453 6.86886 8.89453 7.04688C8.89453 7.22489 9.03882 7.36914 9.2168 7.36914H14.373C14.5511 7.36914 14.6953 7.22489 14.6953 7.04688C14.6953 6.86886 14.5511 6.72461 14.373 6.72461Z" fill="#254854"/>
<path d="M4.72656 11.7305C4.72656 12.0029 4.94824 12.2246 5.2207 12.2246H7.45508C7.72754 12.2246 7.94922 12.0029 7.94922 11.7305V9.49609C7.94922 9.22363 7.72754 9.00195 7.45508 9.00195H5.2207C4.94824 9.00195 4.72656 9.22363 4.72656 9.49609V11.7305ZM5.37109 9.64648H7.30469V11.5801H5.37109V9.64648Z" fill="#254854"/>
<path d="M14.373 9.51758H9.2168C9.03882 9.51758 8.89453 9.66182 8.89453 9.83984C8.89453 10.0179 9.03882 10.1621 9.2168 10.1621H14.373C14.5511 10.1621 14.6953 10.0179 14.6953 9.83984C14.6953 9.66182 14.5511 9.51758 14.373 9.51758Z" fill="#254854"/>
<path d="M14.373 10.8926H9.2168C9.03882 10.8926 8.89453 11.0368 8.89453 11.2148C8.89453 11.3929 9.03882 11.5371 9.2168 11.5371H14.373C14.5511 11.5371 14.6953 11.3929 14.6953 11.2148C14.6953 11.0368 14.5511 10.8926 14.373 10.8926Z" fill="#254854"/>
<path d="M4.72656 15.8984C4.72656 16.1709 4.94824 16.3926 5.2207 16.3926H7.45508C7.72754 16.3926 7.94922 16.1709 7.94922 15.8984V13.6641C7.94922 13.3916 7.72754 13.1699 7.45508 13.1699H5.2207C4.94824 13.1699 4.72656 13.3916 4.72656 13.6641V15.8984ZM5.37109 13.8145H7.30469V15.748H5.37109V13.8145Z" fill="#254854"/>
<path d="M14.373 13.6855H9.2168C9.03882 13.6855 8.89453 13.8298 8.89453 14.0078C8.89453 14.1858 9.03882 14.3301 9.2168 14.3301H14.373C14.5511 14.3301 14.6953 14.1858 14.6953 14.0078C14.6953 13.8298 14.5511 13.6855 14.373 13.6855Z" fill="#254854"/>
<path d="M14.373 15.0605H9.2168C9.03882 15.0605 8.89453 15.2048 8.89453 15.3828C8.89453 15.5608 9.03882 15.7051 9.2168 15.7051H14.373C14.5511 15.7051 14.6953 15.5608 14.6953 15.3828C14.6953 15.2048 14.5511 15.0605 14.373 15.0605Z" fill="#254854"/>
<path d="M12.7402 1.52539H6.81055C6.21822 1.52539 5.73633 2.00729 5.73633 2.59961C5.73633 3.19193 6.21822 3.67383 6.81055 3.67383H12.7402C13.3326 3.67383 13.8145 3.19193 13.8145 2.59961C13.8145 2.00729 13.3326 1.52539 12.7402 1.52539ZM12.7402 3.0293H6.81055C6.57362 3.0293 6.38086 2.83654 6.38086 2.59961C6.38086 2.36268 6.57362 2.16992 6.81055 2.16992H12.7402C12.9772 2.16992 13.1699 2.36268 13.1699 2.59961C13.1699 2.83654 12.9772 3.0293 12.7402 3.0293Z" fill="#254854"/>
<ellipse rx="7.53085" ry="7.32104" transform="matrix(0.996844 -0.0793902 0.074585 0.997215 16.0531 14.8986)" fill="#ECF4FA"/>
<path d="M16.1067 22H14.8933C14.4833 22 14.1372 21.6929 14.0884 21.285L13.959 20.2688C13.7006 20.1849 13.4514 20.0814 13.2147 19.9606L12.4055 20.5895C12.0772 20.8435 11.6152 20.8143 11.3303 20.5213L10.4771 19.6681C10.1863 19.3859 10.157 18.9239 10.411 18.5962L11.0399 17.7864C10.9186 17.5497 10.8151 17.3005 10.7317 17.0421L9.71338 16.9127C9.30713 16.8628 9 16.5167 9 16.1067V14.8933C9 14.4833 9.30713 14.1372 9.715 14.0884L10.7312 13.959C10.8151 13.7006 10.9186 13.4514 11.0394 13.2147L10.411 12.4055C10.1565 12.0772 10.1863 11.6146 10.4798 11.3297L11.333 10.4766C11.6152 10.1857 12.0777 10.157 12.4049 10.4105L13.2142 11.0399C13.4509 10.9191 13.7 10.8157 13.959 10.7317L14.0884 9.71338C14.1372 9.30713 14.4833 9 14.8933 9H16.1067C16.5167 9 16.8628 9.30713 16.9116 9.715L17.041 10.7312C17.3 10.8151 17.5491 10.9186 17.7858 11.0394L18.5951 10.4105C18.9239 10.1565 19.3854 10.1857 19.6703 10.4793L20.5234 11.3324C20.8143 11.6146 20.8435 12.0767 20.5895 12.4044L19.9606 13.2142C20.082 13.4509 20.1854 13.7 20.2688 13.9584L21.2872 14.0879C21.6929 14.1372 22 14.4833 22 14.8933V16.1067C22 16.5167 21.6929 16.8628 21.285 16.9116L20.2688 17.041C20.1849 17.2994 20.0814 17.5486 19.9606 17.7853L20.5895 18.5945C20.8441 18.9228 20.8143 19.3848 20.5207 19.6698L19.6676 20.5229C19.3854 20.8138 18.9228 20.8435 18.5956 20.589L17.7858 19.9601C17.5491 20.0814 17.3 20.1849 17.0416 20.2683L16.9121 21.2866C16.8628 21.6929 16.5167 22 16.1067 22ZM13.1871 19.3675C13.232 19.3675 13.2781 19.3789 13.3193 19.4016C13.6177 19.5685 13.9411 19.7028 14.2802 19.8003C14.3842 19.8301 14.4605 19.9189 14.4741 20.0262L14.6258 21.2178C14.642 21.3538 14.7595 21.4583 14.8933 21.4583H16.1067C16.2405 21.4583 16.358 21.3538 16.3737 21.2205L16.5259 20.0267C16.5395 19.9195 16.6158 19.8306 16.7198 19.8008C17.0589 19.7033 17.3823 19.569 17.6807 19.4022C17.7755 19.3491 17.8936 19.3583 17.9787 19.4249L18.9266 20.1616C19.0355 20.2461 19.1882 20.239 19.2814 20.1432L20.1399 19.2846C20.238 19.1893 20.2455 19.0365 20.161 18.9271L19.4244 17.9792C19.3578 17.8936 19.3485 17.7761 19.4016 17.6813C19.5685 17.3828 19.7028 17.0595 19.8003 16.7204C19.8301 16.6164 19.9189 16.54 20.0262 16.5265L21.2178 16.3748C21.3538 16.358 21.4583 16.2405 21.4583 16.1067V14.8933C21.4583 14.7595 21.3538 14.642 21.2205 14.6263L20.0267 14.4741C19.9195 14.4605 19.8306 14.3842 19.8008 14.2802C19.7033 13.9411 19.569 13.6177 19.4022 13.3193C19.3491 13.2245 19.3578 13.1069 19.4249 13.0213L20.1616 12.0734C20.2466 11.964 20.239 11.8113 20.1437 11.7192L19.2852 10.8606C19.1904 10.762 19.0371 10.7545 18.9277 10.8395L17.9797 11.5762C17.8936 11.6428 17.7761 11.652 17.6813 11.5989C17.3839 11.4321 17.0605 11.2983 16.7204 11.2002C16.6164 11.1705 16.54 11.0816 16.5265 10.9744L16.3748 9.78271C16.358 9.64621 16.2405 9.54167 16.1067 9.54167H14.8933C14.7595 9.54167 14.642 9.64621 14.6263 9.77946L14.4741 10.9733C14.4605 11.0805 14.3842 11.1694 14.2802 11.1997C13.94 11.2972 13.6166 11.4315 13.3193 11.5978C13.2245 11.6515 13.1069 11.6417 13.0208 11.5756L12.0729 10.839C11.9635 10.7539 11.8113 10.7615 11.7186 10.8568L10.8601 11.7159C10.762 11.8112 10.7545 11.964 10.839 12.0734L11.5756 13.0213C11.6423 13.1069 11.6515 13.2245 11.5984 13.3193C11.431 13.6177 11.2972 13.9411 11.1997 14.2802C11.1699 14.3842 11.0811 14.4605 10.9738 14.4741L9.78217 14.6258C9.64621 14.642 9.54167 14.7595 9.54167 14.8933V16.1067C9.54167 16.2405 9.64621 16.358 9.77946 16.3737L10.9733 16.5259C11.0805 16.5395 11.1694 16.6158 11.1992 16.7198C11.2967 17.0589 11.431 17.3823 11.5978 17.6807C11.6509 17.7755 11.6423 17.8931 11.5751 17.9787L10.8384 18.9266C10.7534 19.036 10.761 19.1888 10.8563 19.2808L11.7148 20.1394C11.8096 20.2374 11.9618 20.245 12.0723 20.1605L13.0203 19.4238C13.0695 19.387 13.128 19.3675 13.1871 19.3675Z" fill="#254854"/>
<path d="M15.5042 18.2094C14.0109 18.2094 12.7959 16.9944 12.7959 15.5011C12.7959 14.0077 14.0109 12.7927 15.5042 12.7927C16.9976 12.7927 18.2126 14.0077 18.2126 15.5011C18.2126 16.9944 16.9976 18.2094 15.5042 18.2094ZM15.5042 13.3344C14.3093 13.3344 13.3376 14.3061 13.3376 15.5011C13.3376 16.696 14.3093 17.6677 15.5042 17.6677C16.6991 17.6677 17.6709 16.696 17.6709 15.5011C17.6709 14.3061 16.6991 13.3344 15.5042 13.3344Z" fill="#254854"/>
</g>
<defs>
<clipPath id="clip0">
<rect width="22" height="22" fill="white"/>
</clipPath>
</defs>
</svg>
