<svg width="24" height="14" viewBox="0 0 24 14" fill="none" xmlns="http://www.w3.org/2000/svg">
<rect x="0.25" y="0.25" width="23.5" height="13.5" rx="6.75" fill="white" stroke="#254854" stroke-width="0.5"/>
<circle cx="16.9526" cy="7" r="6" fill="#E5853C"/>
<path d="M15.1476 9.05C14.711 9.05 14.3726 8.93667 14.1326 8.71C13.896 8.48 13.771 8.135 13.7576 7.675C13.7543 7.575 13.7526 7.43333 13.7526 7.25C13.7526 7.06667 13.7543 6.92667 13.7576 6.83C13.771 6.38 13.901 6.03833 14.1476 5.805C14.3943 5.56833 14.7276 5.45 15.1476 5.45C15.5643 5.45 15.896 5.56833 16.1426 5.805C16.3893 6.03833 16.5193 6.38 16.5326 6.83C16.5393 7.02333 16.5426 7.16333 16.5426 7.25C16.5426 7.33333 16.5393 7.475 16.5326 7.675C16.5193 8.135 16.3926 8.48 16.1526 8.71C15.916 8.93667 15.581 9.05 15.1476 9.05ZM15.1476 8.625C15.411 8.625 15.621 8.545 15.7776 8.385C15.9343 8.225 16.0193 7.98 16.0326 7.65C16.0393 7.45 16.0426 7.31667 16.0426 7.25C16.0426 7.17667 16.0393 7.04333 16.0326 6.85C16.0193 6.52 15.9326 6.275 15.7726 6.115C15.616 5.955 15.4076 5.875 15.1476 5.875C14.8843 5.875 14.6726 5.955 14.5126 6.115C14.356 6.275 14.271 6.52 14.2576 6.85C14.2543 6.94667 14.2526 7.08 14.2526 7.25C14.2526 7.41667 14.2543 7.55 14.2576 7.65C14.271 7.98 14.356 8.225 14.5126 8.385C14.6726 8.545 14.8843 8.625 15.1476 8.625ZM17.3864 9C17.3531 9 17.3248 8.99 17.3014 8.97C17.2814 8.94667 17.2714 8.91833 17.2714 8.885V5.62C17.2714 5.58333 17.2814 5.555 17.3014 5.535C17.3248 5.51167 17.3531 5.5 17.3864 5.5H17.6164C17.6764 5.5 17.7181 5.52333 17.7414 5.57L19.4014 8.12V5.62C19.4014 5.58333 19.4114 5.555 19.4314 5.535C19.4548 5.51167 19.4831 5.5 19.5164 5.5H19.7564C19.7931 5.5 19.8214 5.51167 19.8414 5.535C19.8648 5.555 19.8764 5.58333 19.8764 5.62V8.88C19.8764 8.91333 19.8648 8.94167 19.8414 8.965C19.8214 8.98833 19.7948 9 19.7614 9H19.5214C19.4714 9 19.4314 8.97667 19.4014 8.93L17.7464 6.405V8.885C17.7464 8.91833 17.7348 8.94667 17.7114 8.97C17.6881 8.99 17.6598 9 17.6264 9H17.3864Z" fill="white"/>
</svg>
