<svg width="27" height="22" viewBox="0 0 27 22" fill="none" xmlns="http://www.w3.org/2000/svg">
<path d="M24.75 0H1.48077C1.08818 0.000433934 0.711791 0.156582 0.434187 0.434186C0.156582 0.711791 0.000433934 1.08818 0 1.48077V17.1346C0.000433934 17.5272 0.156582 17.9036 0.434187 18.1812C0.711791 18.4588 1.08818 18.615 1.48077 18.6154H10.0608L9.80692 19.8846H8.03846C7.92625 19.8846 7.81864 19.9292 7.7393 20.0085C7.65996 20.0879 7.61538 20.1955 7.61538 20.3077V21.5769C7.61538 21.6891 7.65996 21.7967 7.7393 21.8761C7.81864 21.9554 7.92625 22 8.03846 22H18.1923C18.3045 22 18.4121 21.9554 18.4915 21.8761C18.5708 21.7967 18.6154 21.6891 18.6154 21.5769V20.3077C18.6154 20.1955 18.5708 20.0879 18.4915 20.0085C18.4121 19.9292 18.3045 19.8846 18.1923 19.8846H16.4238L16.17 18.6154H24.75C25.1426 18.615 25.519 18.4588 25.7966 18.1812C26.0742 17.9036 26.2303 17.5272 26.2308 17.1346V1.48077C26.2303 1.08818 26.0742 0.711791 25.7966 0.434186C25.519 0.156582 25.1426 0.000433934 24.75 0ZM17.7692 20.7308V21.1538H8.46154V20.7308H17.7692ZM10.67 19.8846L10.9238 18.6154H15.3069L15.5608 19.8846H10.67ZM25.3846 17.1346C25.3845 17.3029 25.3176 17.4642 25.1986 17.5832C25.0796 17.7022 24.9183 17.7691 24.75 17.7692H1.48077C1.3125 17.7691 1.15117 17.7022 1.03218 17.5832C0.9132 17.4642 0.846294 17.3029 0.846154 17.1346V16.0769H25.3846V17.1346ZM25.3846 15.2308H0.846154V1.48077C0.846294 1.3125 0.9132 1.15117 1.03218 1.03218C1.15117 0.9132 1.3125 0.846294 1.48077 0.846154H24.75C24.9183 0.846294 25.0796 0.9132 25.1986 1.03218C25.3176 1.15117 25.3845 1.3125 25.3846 1.48077V15.2308Z" fill="#254854"/>
<path d="M13.5383 16.5H12.6921C12.5799 16.5 12.4723 16.5446 12.393 16.6239C12.3136 16.7033 12.269 16.8109 12.269 16.9231C12.269 17.0353 12.3136 17.1429 12.393 17.2222C12.4723 17.3016 12.5799 17.3462 12.6921 17.3462H13.5383C13.6505 17.3462 13.7581 17.3016 13.8374 17.2222C13.9168 17.1429 13.9614 17.0353 13.9614 16.9231C13.9614 16.8109 13.9168 16.7033 13.8374 16.6239C13.7581 16.5446 13.6505 16.5 13.5383 16.5Z" fill="#254854"/>
<path d="M18.2119 6.50475L14.1718 2.46474C13.9962 2.28904 13.8167 2.19995 13.6385 2.19995C13.3911 2.19995 13.1023 2.38533 13.1023 2.90762V5.39859C11.8691 5.48257 10.7218 6.00656 9.8452 6.89232C8.89839 7.84897 8.37695 9.11712 8.37695 10.4631C8.37695 11.0429 8.47425 11.6123 8.66629 12.1555C8.70828 12.2743 8.82069 12.3538 8.94673 12.3538C9.07285 12.3538 9.18517 12.2743 9.22724 12.1555C9.81785 10.4845 11.3519 9.31977 13.1023 9.18149V11.6461C13.1023 12.1683 13.391 12.3537 13.6385 12.3537C13.8167 12.3537 13.9962 12.2647 14.1718 12.0891L18.2119 8.04892C18.4175 7.84324 18.5308 7.56908 18.5308 7.2768C18.5307 6.98459 18.4175 6.71035 18.2119 6.50475ZM17.7912 7.62827L13.7511 11.6684C13.7321 11.6874 13.7151 11.7026 13.7004 11.7146C13.6984 11.6957 13.6971 11.673 13.6971 11.6461V8.87046C13.6971 8.79106 13.6654 8.71483 13.6088 8.65898C13.5531 8.6039 13.478 8.57299 13.3996 8.57299C13.3986 8.57299 13.3975 8.57306 13.3964 8.57306C12.3369 8.58484 11.3252 8.91973 10.4706 9.54141C9.87192 9.97693 9.38225 10.5283 9.02621 11.1627C8.99011 10.9323 8.97191 10.6988 8.97191 10.4631C8.97191 8.01932 10.9596 6.00904 13.403 5.98185C13.566 5.98006 13.6972 5.84744 13.6972 5.68437V2.90762C13.6972 2.88074 13.6984 2.85812 13.7004 2.83914C13.7151 2.85114 13.7321 2.86633 13.7511 2.88539L17.7912 6.92548C17.8845 7.01875 17.9358 7.14347 17.9358 7.27687C17.9358 7.4102 17.8844 7.535 17.7912 7.62827Z" fill="#254854"/>
</svg>
