<svg width="22" height="22" viewBox="0 0 22 22" fill="none" xmlns="http://www.w3.org/2000/svg">
<g clip-path="url(#clip0)">
<path d="M8.94162 8.65342L9.71165 9.11497C9.88478 9.21488 10.1061 9.15758 10.209 8.98625C10.312 8.81491 10.2588 8.59255 10.0892 8.48656L9.40872 8.07782C9.73708 7.51904 9.9068 6.88131 9.9 6.23338C9.9 4.61597 8.91333 3.30005 7.7 3.30005C6.48667 3.30005 5.5 4.61597 5.5 6.23338C5.5 7.8508 6.48667 9.16671 7.7 9.16671C8.16388 9.15884 8.60754 8.9755 8.94162 8.65342ZM6.23333 6.23338C6.23333 5.041 6.90508 4.03338 7.7 4.03338C8.49492 4.03338 9.16667 5.041 9.16667 6.23338C9.17222 6.74811 9.03866 7.25496 8.78031 7.70005L8.25555 7.38548C8.08242 7.28558 7.86113 7.34287 7.75819 7.51421C7.65506 7.68555 7.70841 7.90791 7.87796 8.0139L8.27274 8.25076C8.10409 8.36696 7.90482 8.43052 7.7 8.43338C6.90508 8.43338 6.23333 7.42576 6.23333 6.23338Z" fill="#254854"/>
<path d="M14.647 12.3435C14.5951 12.1974 14.4567 12.0999 14.3017 12.0999C14.1466 12.0999 14.0084 12.1974 13.9563 12.3435L12.123 17.4769C12.0549 17.6675 12.1545 17.8774 12.3452 17.9454C12.536 18.0134 12.7457 17.9141 12.8137 17.7232L13.3818 16.1334H15.2217L15.7896 17.7232C15.8417 17.8693 15.9799 17.9667 16.135 17.9667C16.2542 17.9667 16.3661 17.9089 16.4347 17.8113C16.5035 17.7139 16.5205 17.5891 16.4804 17.4769L14.647 12.3435ZM13.6435 15.4L14.3017 13.5569L14.9618 15.4H13.6435Z" fill="#254854"/>
<path d="M20.5425 18.1632C21.4763 17.0924 21.9934 15.721 21.9988 14.3C21.9988 10.9726 19.0787 8.17676 15.2767 7.763C15.3574 7.38058 15.3984 6.99082 15.3988 6.59999C15.3988 2.9609 11.9448 0 7.6988 0C3.45279 0 -0.00116772 2.9609 -0.00116772 6.59999C0.00456143 7.90659 0.44499 9.17399 1.25065 10.2025L0.022644 13.4365C-0.0201455 13.5491 -0.00474843 13.6757 0.0636432 13.7749C0.132214 13.874 0.245007 13.9333 0.365498 13.9333C0.415986 13.9331 0.465937 13.9227 0.512128 13.9025L3.97576 12.3794C4.84086 12.7857 5.76898 13.0417 6.7202 13.1362C6.63963 13.5188 6.59899 13.909 6.59881 14.3C6.59881 17.9392 10.0528 20.9 14.2988 20.9C15.4745 20.9026 16.6388 20.6692 17.7223 20.2132L21.477 21.9656C21.6149 22.0299 21.778 22.0025 21.8872 21.8966C21.9964 21.7908 22.029 21.6286 21.969 21.4888L20.5425 18.1632ZM3.83718 11.6399L1.01898 12.8788L2.00887 10.2684C2.05542 10.1458 2.03304 10.0078 1.94996 9.90624C1.1708 8.97991 0.74022 7.81045 0.732163 6.59999C0.732163 3.36534 3.85723 0.733332 7.6988 0.733332C11.5404 0.733332 14.6654 3.36534 14.6654 6.59999C14.6654 7.06834 14.5985 7.53437 14.4667 7.98376C13.7121 10.6235 10.9274 12.4666 7.6988 12.4666C7.53356 12.4666 7.37099 12.4634 7.19912 12.4491C6.13833 12.3941 5.1001 12.1215 4.14924 11.6479C4.05149 11.5989 3.93708 11.596 3.83718 11.6399ZM17.8822 19.4788C17.7853 19.4335 17.6736 19.4329 17.576 19.477C16.5444 19.9351 15.4276 20.1702 14.2988 20.1666C10.4572 20.1666 7.33214 17.5348 7.33214 14.3C7.33232 13.9288 7.37421 13.5588 7.45729 13.1971C7.53749 13.2 7.61788 13.2 7.6988 13.2C7.91741 13.2 8.13404 13.1921 8.34853 13.1765C8.42193 13.1713 8.49193 13.1608 8.56426 13.1538C8.70499 13.1402 8.84607 13.1278 8.98482 13.1079C9.07022 13.0954 9.15347 13.0779 9.2378 13.0632C9.36062 13.0419 9.48415 13.0222 9.60446 12.9957C9.69416 12.9764 9.78153 12.9515 9.86979 12.9294C9.98241 12.9012 10.0957 12.8745 10.2066 12.8421C10.2966 12.8158 10.3843 12.7842 10.4733 12.7549C10.5786 12.72 10.6846 12.6867 10.7877 12.6482C10.8767 12.6149 10.9633 12.5771 11.0509 12.5408C11.1495 12.5001 11.2489 12.46 11.3442 12.4162C11.4315 12.3757 11.5158 12.3313 11.6009 12.2885C11.6933 12.2423 11.786 12.1965 11.8759 12.1469C11.9658 12.0975 12.042 12.0498 12.1242 12.0003C12.2062 11.9508 12.2968 11.8973 12.3808 11.8425C12.4647 11.7879 12.5396 11.7326 12.618 11.6776C12.6966 11.6227 12.7775 11.5643 12.8549 11.5049C12.9322 11.4454 13.0045 11.3838 13.0781 11.3215C13.1519 11.2592 13.2249 11.1983 13.296 11.1343C13.3671 11.07 13.4353 11.0025 13.5035 10.9355C13.5717 10.8684 13.6381 10.8027 13.7022 10.7341C13.7665 10.6655 13.8299 10.5927 13.8918 10.5203C13.9538 10.4482 14.0132 10.3778 14.071 10.3048C14.1291 10.2319 14.1855 10.154 14.241 10.0774C14.2963 10.0008 14.3509 9.92558 14.4001 9.84788C14.4492 9.77018 14.5006 9.68997 14.5467 9.60922C14.5929 9.52866 14.6409 9.44755 14.685 9.36466C14.729 9.28177 14.77 9.20048 14.8099 9.11687C14.8499 9.03327 14.89 8.94446 14.9268 8.85691C14.9639 8.76919 14.9959 8.68773 15.0278 8.60018C15.0439 8.55613 15.0643 8.51442 15.079 8.47002C18.572 8.79998 21.2654 11.3135 21.2654 14.3C21.2567 15.62 20.7484 16.8878 19.8428 17.8483C19.7461 17.9545 19.7205 18.1075 19.7771 18.2395L20.9161 20.8944L17.8822 19.4788Z" fill="#254854"/>
</g>
<defs>
<clipPath id="clip0">
<rect width="22" height="22" fill="white"/>
</clipPath>
</defs>
</svg>
