<svg width="22" height="22" viewBox="0 0 22 22" fill="none" xmlns="http://www.w3.org/2000/svg">
<ellipse rx="2.12803" ry="2.74423" transform="matrix(0.996844 -0.0793902 0.074585 0.997215 8.44147 18.958)" fill="#ECF4FA"/>
<path d="M19.1216 8.23621C19.2996 8.23621 19.4438 8.41423 19.4438 8.23621V4.61914C19.4438 4.08607 19.0101 3.65234 18.4771 3.65234H18.1548V2.79297C18.1548 2.2599 17.7211 1.82617 17.188 1.82617H16.8657V0.966797C16.8657 0.433727 16.432 0 15.8989 0H3.52393C2.99081 0 2.55713 0.433727 2.55713 0.966797V4.16141C2.55713 4.33943 2.66033 3.79953 2.83831 3.79953C3.01629 3.79953 3.20166 4.29722 3.20166 4.1192V0.966797C3.20166 0.789078 3.34621 0.644531 3.52393 0.644531H15.8989C16.0766 0.644531 16.2212 0.789078 16.2212 0.966797V17.3809C16.2212 17.5586 16.0766 17.7031 15.8989 17.7031H3.52393C3.34621 17.7031 3.20166 17.5586 3.20166 17.3809V4.1192C3.20166 3.94118 3.05737 3.79693 2.87939 3.79693C2.70142 3.79693 2.55713 3.94118 2.55713 4.1192V17.3809C2.55713 17.9139 2.99081 18.3477 3.52393 18.3477H3.84619V19.207C3.84619 19.7401 4.27988 20.1738 4.81299 20.1738H5.13525V21.0332C5.13525 21.5663 5.56894 22 6.10205 22H18.4771C19.0101 22 19.4438 21.5663 19.4438 21.0332V8.23621C19.4438 8.05819 19.2996 7.91394 19.1216 7.91394C18.9436 7.91394 18.7993 8.05819 18.7993 8.23621V21.0332C18.7993 21.2109 18.6548 21.3555 18.4771 21.3555H6.10205C5.92433 21.3555 5.77979 21.2109 5.77979 21.0332V20.1738H13.7448C13.9228 20.1738 17.5005 20.178 17.5005 20C17.5005 19.822 15.2898 19.5293 15.1118 19.5293H4.81299C4.63531 19.5293 4.49072 19.3848 4.49072 19.207V18.3477H15.8989C16.432 18.3477 16.8657 17.9139 16.8657 17.3809V2.4707H17.188C17.3657 2.4707 17.5103 2.61525 17.5103 2.79297V19.207C17.5103 19.3848 17.3657 19.5293 17.188 19.5293H15.1118C14.9338 19.5293 14.7895 19.6735 14.7895 19.8516C14.7895 20.0296 14.9338 20.1738 15.1118 20.1738H17.188C17.7211 20.1738 18.1548 19.7401 18.1548 19.207V4.29688H18.4771C18.6548 4.29688 18.7993 4.44142 18.7993 4.61914V8.23621C18.7993 8.41423 18.9436 8.23621 19.1216 8.23621Z" fill="#254854"/>
<path d="M4.72705 5.32812V7.5625C4.72705 7.83496 4.94873 8.05664 5.22119 8.05664H7.45557C7.72803 8.05664 7.94971 7.83496 7.94971 7.5625V5.90064L8.61014 5.33689C8.74549 5.22134 8.76156 5.01793 8.64597 4.88258C8.53047 4.74718 8.32701 4.73116 8.19162 4.8467L7.8941 5.10064C7.81165 4.94235 7.64605 4.83398 7.45552 4.83398H5.22115C4.94873 4.83398 4.72705 5.05566 4.72705 5.32812ZM5.37158 5.47851H7.30518V5.60342L6.66571 6.1493L6.36038 5.81852C6.23968 5.68781 6.03579 5.67965 5.905 5.8003C5.7742 5.92105 5.76608 6.12489 5.88678 6.25569L6.4024 6.81428C6.51984 6.94147 6.7168 6.9532 6.84846 6.84079L7.30522 6.45085V7.41211H5.37162V5.47851H5.37158Z" fill="#254854"/>
<path d="M14.3735 5.34961H9.21729C9.03931 5.34961 8.89502 5.49386 8.89502 5.67188C8.89502 5.84989 9.03931 5.99414 9.21729 5.99414H14.3735C14.5516 5.99414 14.6958 5.84989 14.6958 5.67188C14.6958 5.49386 14.5516 5.34961 14.3735 5.34961Z" fill="#254854"/>
<path d="M14.3735 6.72461H9.21729C9.03931 6.72461 8.89502 6.86886 8.89502 7.04688C8.89502 7.22489 9.03931 7.36914 9.21729 7.36914H14.3735C14.5516 7.36914 14.6958 7.22489 14.6958 7.04688C14.6958 6.86886 14.5516 6.72461 14.3735 6.72461Z" fill="#254854"/>
<path d="M4.72705 11.7305C4.72705 12.0029 4.94873 12.2246 5.22119 12.2246H7.45557C7.72803 12.2246 7.94971 12.0029 7.94971 11.7305V9.49609C7.94971 9.22363 7.72803 9.00195 7.45557 9.00195H5.22119C4.94873 9.00195 4.72705 9.22363 4.72705 9.49609V11.7305ZM5.37158 9.64648H7.30518V11.5801H5.37158V9.64648Z" fill="#254854"/>
<path d="M14.3735 9.51758H9.21729C9.03931 9.51758 8.89502 9.66182 8.89502 9.83984C8.89502 10.0179 9.03931 10.1621 9.21729 10.1621H14.3735C14.5516 10.1621 14.6958 10.0179 14.6958 9.83984C14.6958 9.66182 14.5516 9.51758 14.3735 9.51758Z" fill="#254854"/>
<path d="M14.3735 10.8926H9.21729C9.03931 10.8926 8.89502 11.0368 8.89502 11.2148C8.89502 11.3929 9.03931 11.5371 9.21729 11.5371H14.3735C14.5516 11.5371 14.6958 11.3929 14.6958 11.2148C14.6958 11.0368 14.5516 10.8926 14.3735 10.8926Z" fill="#254854"/>
<path d="M4.72705 15.8984C4.72705 16.1709 4.94873 16.3926 5.22119 16.3926H7.45557C7.72803 16.3926 7.94971 16.1709 7.94971 15.8984V13.6641C7.94971 13.3916 7.72803 13.1699 7.45557 13.1699H5.22119C4.94873 13.1699 4.72705 13.3916 4.72705 13.6641V15.8984ZM5.37158 13.8145H7.30518V15.748H5.37158V13.8145Z" fill="#254854"/>
<path d="M14.3735 13.6855H9.21729C9.03931 13.6855 8.89502 13.8298 8.89502 14.0078C8.89502 14.1858 9.03931 14.3301 9.21729 14.3301H14.3735C14.5516 14.3301 14.6958 14.1858 14.6958 14.0078C14.6958 13.8298 14.5516 13.6855 14.3735 13.6855Z" fill="#254854"/>
<path d="M14.3735 15.0605H9.21729C9.03931 15.0605 8.89502 15.2048 8.89502 15.3828C8.89502 15.5608 9.03931 15.7051 9.21729 15.7051H14.3735C14.5516 15.7051 14.6958 15.5608 14.6958 15.3828C14.6958 15.2048 14.5516 15.0605 14.3735 15.0605Z" fill="#254854"/>
<path d="M12.7407 1.52539H6.81104C6.21871 1.52539 5.73682 2.00729 5.73682 2.59961C5.73682 3.19193 6.21871 3.67383 6.81104 3.67383H12.7407C13.333 3.67383 13.8149 3.19193 13.8149 2.59961C13.8149 2.00729 13.333 1.52539 12.7407 1.52539ZM12.7407 3.0293H6.81104C6.57411 3.0293 6.38135 2.83654 6.38135 2.59961C6.38135 2.36268 6.57411 2.16992 6.81104 2.16992H12.7407C12.9777 2.16992 13.1704 2.36268 13.1704 2.59961C13.1704 2.83654 12.9777 3.0293 12.7407 3.0293Z" fill="#254854"/>
</svg>
