<svg width="19" height="14" viewBox="0 0 19 14" fill="none" xmlns="http://www.w3.org/2000/svg">
<path d="M1.24925 5.91633L1.24932 5.91626C1.84845 5.31713 2.8184 5.31723 3.41722 5.91619L3.41735 5.91632L6.43451 8.93283L7.0002 9.49839L7.56582 8.93277L15.2493 1.24932C15.8484 0.650189 16.8183 0.650286 17.4172 1.24925L17.4172 1.24932C18.0163 1.84841 18.0163 2.81842 17.4172 3.41751L8.08401 12.7507C7.78431 13.0504 7.39322 13.2 6.99992 13.2C6.60678 13.2 6.21585 13.0505 5.91582 12.7507C5.91578 12.7507 5.91573 12.7506 5.91569 12.7506L1.24932 8.08423C0.650189 7.4851 0.650287 6.51515 1.24925 5.91633Z" fill="#E5853C" stroke="white" stroke-width="1.6"/>
</svg>
