<svg width="17" height="17" viewBox="0 0 17 17" fill="none" xmlns="http://www.w3.org/2000/svg">
<g clip-path="url(#clip0)">
<path d="M7.003 6.79326L7.56302 7.12894C7.68893 7.20159 7.84987 7.15993 7.92474 7.03532C7.99961 6.91071 7.96094 6.74899 7.83763 6.67191L7.34271 6.37464C7.58151 5.96826 7.70495 5.50446 7.7 5.03324C7.7 3.85693 6.98242 2.8999 6.1 2.8999C5.21758 2.8999 4.5 3.85693 4.5 5.03324C4.5 6.20954 5.21758 7.16657 6.1 7.16657C6.43737 7.16084 6.76003 7.02751 7.003 6.79326ZM5.03333 5.03324C5.03333 4.16605 5.52188 3.43324 6.1 3.43324C6.67813 3.43324 7.16667 4.16605 7.16667 5.03324C7.1707 5.40758 7.07357 5.7762 6.88568 6.0999L6.50404 5.87113C6.37813 5.79847 6.21719 5.84014 6.14232 5.96475C6.06732 6.08935 6.10612 6.25107 6.22943 6.32816L6.51654 6.50042C6.39388 6.58493 6.24896 6.63115 6.1 6.63323C5.52188 6.63323 5.03333 5.90042 5.03333 5.03324Z" fill="#E5853C"/>
<path d="M11.1525 9.47702C11.1148 9.37077 11.0141 9.2998 10.9013 9.2998C10.7886 9.2998 10.6881 9.37077 10.6502 9.47702L9.31684 13.2104C9.26736 13.349 9.33975 13.5016 9.47842 13.5511C9.61723 13.6006 9.7697 13.5283 9.81918 13.3895L10.2323 12.2333H11.5705L11.9835 13.3895C12.0214 13.4958 12.1219 13.5666 12.2347 13.5666C12.3214 13.5666 12.4028 13.5245 12.4526 13.4536C12.5026 13.3827 12.515 13.292 12.4858 13.2104L11.1525 9.47702ZM10.4227 11.6999L10.9013 10.3594L11.3814 11.6999H10.4227Z" fill="#E5853C"/>
<path d="M15.4399 13.7096C16.1191 12.9308 16.4951 11.9334 16.499 10.9C16.499 8.48006 14.3753 6.44673 11.6102 6.14582C11.6689 5.8677 11.6988 5.58423 11.699 5.29999C11.699 2.65338 9.18705 0.5 6.09904 0.5C3.01103 0.5 0.499062 2.65338 0.499062 5.29999C0.503229 6.25025 0.82354 7.17199 1.40948 7.92004L0.51638 10.272C0.48526 10.3539 0.496458 10.4459 0.546197 10.5181C0.596067 10.5902 0.678098 10.6333 0.765728 10.6333C0.802446 10.6332 0.838774 10.6256 0.872368 10.6109L3.39137 9.50324C4.02053 9.79868 4.69553 9.98487 5.38733 10.0536C5.32873 10.3319 5.29918 10.6156 5.29905 10.9C5.29905 13.5467 7.81102 15.7 10.899 15.7C11.7541 15.7019 12.6008 15.5321 13.3889 15.2005L16.1196 16.475C16.2198 16.5217 16.3385 16.5018 16.4179 16.4248C16.4973 16.3479 16.521 16.2299 16.4774 16.1282L15.4399 13.7096ZM3.29059 8.96535L1.24099 9.86639L1.96091 7.96795C1.99476 7.87876 1.97848 7.77837 1.91807 7.70454C1.3514 7.03085 1.03825 6.18033 1.03239 5.29999C1.03239 2.94752 3.30517 1.03333 6.09904 1.03333C8.89291 1.03333 11.1657 2.94752 11.1657 5.29999C11.1657 5.64061 11.117 5.97955 11.0212 6.30637C10.4723 8.22615 8.44708 9.56665 6.09904 9.56665C5.97886 9.56665 5.86063 9.5643 5.73563 9.55389C4.96415 9.51391 4.20907 9.31561 3.51754 8.97121C3.44645 8.93553 3.36324 8.93344 3.29059 8.96535ZM13.5051 14.6664C13.4347 14.6334 13.3534 14.633 13.2825 14.6651C12.5322 14.9983 11.72 15.1692 10.899 15.1666C8.10515 15.1666 5.83238 13.2526 5.83238 10.9C5.83251 10.6301 5.86298 10.3609 5.92339 10.0979C5.98173 10.1 6.04019 10.1 6.09904 10.1C6.25803 10.1 6.41558 10.0942 6.57157 10.0829C6.62495 10.0791 6.67586 10.0715 6.72847 10.0664C6.83081 10.0565 6.93341 10.0475 7.03433 10.0331C7.09643 10.0239 7.15698 10.0112 7.21831 10.0005C7.30763 9.98501 7.39748 9.97068 7.48497 9.95141C7.55021 9.93735 7.61375 9.91925 7.67794 9.90323C7.75984 9.88266 7.84227 9.86326 7.92286 9.83969C7.98836 9.82055 8.05216 9.79764 8.11687 9.77628C8.19344 9.75089 8.27052 9.72667 8.34552 9.69868C8.41023 9.67446 8.47325 9.64699 8.53692 9.62055C8.60867 9.591 8.68093 9.56183 8.75021 9.52993C8.81375 9.5005 8.87507 9.46821 8.93692 9.43709C9.00411 9.4035 9.07156 9.37016 9.13692 9.3341C9.20229 9.29816 9.25776 9.26352 9.31752 9.22746C9.37716 9.19152 9.44304 9.15259 9.50411 9.11274C9.56518 9.07303 9.6196 9.03279 9.67663 8.99282C9.7338 8.95285 9.79265 8.9104 9.8489 8.86717C9.90515 8.82394 9.95775 8.77915 10.0113 8.73384C10.0649 8.68852 10.118 8.64425 10.1697 8.59764C10.2214 8.55089 10.271 8.50181 10.3206 8.45311C10.3703 8.40428 10.4186 8.35649 10.4652 8.30662C10.5119 8.25675 10.558 8.20376 10.6031 8.15115C10.6481 8.09868 10.6913 8.04751 10.7334 7.99438C10.7756 7.94139 10.8166 7.88475 10.857 7.82902C10.8972 7.77329 10.9369 7.7186 10.9727 7.66209C11.0084 7.60558 11.0458 7.54725 11.0794 7.48853C11.113 7.42993 11.1479 7.37095 11.1799 7.31066C11.2119 7.25038 11.2417 7.19126 11.2708 7.13045C11.2998 7.06965 11.329 7.00506 11.3558 6.94139C11.3827 6.87759 11.4061 6.81835 11.4292 6.75467C11.441 6.72264 11.4558 6.6923 11.4665 6.66001C14.0068 6.89999 15.9657 8.72798 15.9657 10.9C15.9593 11.86 15.5896 12.782 14.931 13.4806C14.8607 13.5578 14.8421 13.6691 14.8833 13.7651L15.7116 15.6959L13.5051 14.6664Z" fill="#E5853C"/>
</g>
<defs>
<clipPath id="clip0">
<rect width="16" height="16" fill="white" transform="translate(0.5 0.5)"/>
</clipPath>
</defs>
</svg>
