<svg width="15" height="14" viewBox="0 0 15 14" fill="none" xmlns="http://www.w3.org/2000/svg">
<g clip-path="url(#clip0)">
<path d="M1.39129 14C1.20687 14 1.02246 13.9299 0.882347 13.7887C0.601067 13.5074 0.601067 13.0514 0.882347 12.7701L13.4415 0.21096C13.7228 -0.0703201 14.1788 -0.0703201 14.4601 0.21096C14.7414 0.492241 14.7414 0.948267 14.4601 1.22972L1.90111 13.7887C1.75994 13.929 1.57553 14 1.39129 14Z" fill="#6E7C8D"/>
<path d="M13.9513 14C13.7669 14 13.5827 13.9299 13.4424 13.7887L0.882347 1.22972C0.601067 0.948267 0.601067 0.492241 0.882347 0.21096C1.16363 -0.0703201 1.61965 -0.0703201 1.90111 0.21096L14.4601 12.7701C14.7414 13.0514 14.7414 13.5074 14.4601 13.7887C14.3189 13.929 14.1347 14 13.9513 14Z" fill="#6E7C8D"/>
</g>
<defs>
<clipPath id="clip0">
<rect x="0.667969" width="14" height="14" rx="5" fill="white"/>
</clipPath>
</defs>
</svg>
