<svg width="20" height="20" viewBox="0 0 20 20" fill="none" xmlns="http://www.w3.org/2000/svg">
<path d="M10.9192 1.31179C10.544 1.09959 10.1 1.10651 9.73129 1.32871C9.7136 1.33909 9.69669 1.35139 9.68131 1.36446L4.47238 5.7711H0.384423C0.171837 5.7711 0 5.94294 0 6.15552V13.4596C0 13.5618 0.0403644 13.6595 0.112636 13.7313C0.184908 13.8032 0.282167 13.844 0.384423 13.844L4.46315 13.8421L9.6694 18.6243C9.68862 18.642 9.70938 18.6573 9.73129 18.6704C9.92042 18.7846 10.1299 18.8419 10.3394 18.8419C10.5382 18.8415 10.7366 18.7904 10.9192 18.6873C11.3032 18.4705 11.5327 18.0746 11.5327 17.6282V2.37126C11.5327 1.92495 11.3032 1.52899 10.9192 1.31179ZM10.7638 17.6282C10.7638 17.7939 10.6804 17.9396 10.5413 18.0184C10.4817 18.0519 10.3306 18.1165 10.1568 18.0284L4.9975 13.2889V11.5374C4.9975 11.3249 4.82566 11.153 4.61308 11.153C4.40049 11.153 4.22866 11.3249 4.22866 11.5374V13.0736L0.768846 13.0751V6.53995H4.22866V8.07764C4.22866 8.29023 4.40049 8.46206 4.61308 8.46206C4.82566 8.46206 4.9975 8.29023 4.9975 8.07764V6.3339L10.1507 1.97454C10.3279 1.88151 10.4813 1.94763 10.5413 1.98146C10.6804 2.06026 10.7638 2.20596 10.7638 2.37126V17.6282Z" fill="white"/>
<path d="M14.9145 2.71621C14.7134 2.64817 14.4951 2.7558 14.4267 2.95686C14.3586 3.15753 14.4663 3.37626 14.6673 3.44469C17.3971 4.37153 19.2312 6.92872 19.2312 9.80805C19.2312 12.6847 17.4006 15.2423 14.6761 16.1718C14.4755 16.2402 14.3678 16.4586 14.4367 16.66C14.4912 16.8195 14.6404 16.9203 14.8003 16.9203C14.8414 16.9203 14.8834 16.9137 14.9245 16.8995C17.9599 15.8643 19.9996 13.0145 19.9996 9.80843C20 6.59888 17.9564 3.74915 14.9145 2.71621Z" fill="white"/>
<path d="M16.5401 9.80737C16.5401 7.51159 14.999 5.46262 12.7924 4.82447C12.5875 4.76643 12.3756 4.88291 12.3164 5.08742C12.2576 5.29116 12.3749 5.50452 12.5794 5.56334C14.4588 6.10653 15.7716 7.85181 15.7716 9.80737C15.7716 11.7629 14.4588 13.5082 12.5794 14.0514C12.3753 14.1102 12.2576 14.3236 12.3164 14.5273C12.3653 14.6957 12.5187 14.8053 12.6859 14.8053C12.7212 14.8053 12.757 14.8003 12.7924 14.7903C14.9993 14.1521 16.5401 12.1031 16.5401 9.80737Z" fill="white"/>
</svg>
