<svg width="12" height="18" viewBox="0 0 12 18" fill="none" xmlns="http://www.w3.org/2000/svg">
<path d="M10.9192 0.311791C10.544 0.0995896 10.1 0.106509 9.73129 0.328706C9.7136 0.339085 9.69669 0.351387 9.68131 0.364457L4.47238 4.7711H0.384423C0.171837 4.7711 0 4.94294 0 5.15552V12.4596C0 12.5618 0.0403644 12.6595 0.112636 12.7313C0.184908 12.8032 0.282167 12.844 0.384423 12.844L4.46315 12.8421L9.6694 17.6243C9.68862 17.642 9.70938 17.6573 9.73129 17.6704C9.92042 17.7846 10.1299 17.8419 10.3394 17.8419C10.5382 17.8415 10.7366 17.7904 10.9192 17.6873C11.3032 17.4705 11.5327 17.0746 11.5327 16.6282V1.37126C11.5327 0.924946 11.3032 0.52899 10.9192 0.311791ZM10.7638 16.6282C10.7638 16.7939 10.6804 16.9396 10.5413 17.0184C10.4817 17.0519 10.3306 17.1165 10.1568 17.0284L4.9975 12.2889V10.5374C4.9975 10.3249 4.82566 10.153 4.61308 10.153C4.40049 10.153 4.22866 10.3249 4.22866 10.5374V12.0736L0.768846 12.0751V5.53995H4.22866V7.07764C4.22866 7.29023 4.40049 7.46206 4.61308 7.46206C4.82566 7.46206 4.9975 7.29023 4.9975 7.07764V5.3339L10.1507 0.974537C10.3279 0.881506 10.4813 0.947627 10.5413 0.981456C10.6804 1.06026 10.7638 1.20596 10.7638 1.37126V16.6282Z" fill="white"/>
</svg>
