<svg width="12" height="14" viewBox="0 0 12 14" fill="none" xmlns="http://www.w3.org/2000/svg">
<path d="M7.62084 5.07251C7.43974 5.07251 7.29297 5.21928 7.29297 5.40038V11.5971C7.29297 11.7781 7.43974 11.925 7.62084 11.925C7.80193 11.925 7.94871 11.7781 7.94871 11.5971V5.40038C7.94871 5.21928 7.80193 5.07251 7.62084 5.07251Z" fill="#AFC5CB"/>
<path d="M3.74974 5.07251C3.56865 5.07251 3.42188 5.21928 3.42188 5.40038V11.5971C3.42188 11.7781 3.56865 11.925 3.74974 11.925C3.93084 11.925 4.07761 11.7781 4.07761 11.5971V5.40038C4.07761 5.21928 3.93084 5.07251 3.74974 5.07251Z" fill="#AFC5CB"/>
<path d="M0.931198 4.16793V12.2459C0.931198 12.7234 1.10627 13.1717 1.41211 13.4935C1.71654 13.8161 2.14021 13.9992 2.5836 14H8.78697C9.23048 13.9992 9.65415 13.8161 9.95845 13.4935C10.2643 13.1717 10.4394 12.7234 10.4394 12.2459V4.16793C11.0473 4.00656 11.4413 3.41922 11.36 2.79537C11.2785 2.17166 10.7471 1.70508 10.118 1.70496H8.43937V1.29512C8.4413 0.950476 8.30503 0.619534 8.06105 0.376067C7.81707 0.132727 7.48561 -0.00277453 7.14097 4.30791e-05H4.2296C3.88496 -0.00277453 3.5535 0.132727 3.30952 0.376067C3.06554 0.619534 2.92927 0.950476 2.93119 1.29512V1.70496H1.25253C0.623438 1.70508 0.0920614 2.17166 0.0106067 2.79537C-0.0707199 3.41922 0.323234 4.00656 0.931198 4.16793ZM8.78697 13.3443H2.5836C2.02302 13.3443 1.58693 12.8627 1.58693 12.2459V4.19675H9.78363V12.2459C9.78363 12.8627 9.34754 13.3443 8.78697 13.3443ZM3.58693 1.29512C3.58475 1.1244 3.65186 0.960081 3.77302 0.839564C3.89405 0.719047 4.05875 0.652833 4.2296 0.655779H7.14097C7.31182 0.652833 7.47652 0.719047 7.59755 0.839564C7.71871 0.959953 7.78582 1.1244 7.78364 1.29512V1.70496H3.58693V1.29512ZM1.25253 2.36069H10.118C10.444 2.36069 10.7082 2.62491 10.7082 2.95085C10.7082 3.2768 10.444 3.54102 10.118 3.54102H1.25253C0.926588 3.54102 0.662372 3.2768 0.662372 2.95085C0.662372 2.62491 0.926588 2.36069 1.25253 2.36069Z" fill="#AFC5CB"/>
<path d="M5.68334 5.07251C5.50224 5.07251 5.35547 5.21928 5.35547 5.40038V11.5971C5.35547 11.7781 5.50224 11.925 5.68334 11.925C5.86443 11.925 6.0112 11.7781 6.0112 11.5971V5.40038C6.0112 5.21928 5.86443 5.07251 5.68334 5.07251Z" fill="#AFC5CB"/>
</svg>
