<svg width="20" height="21" viewBox="0 0 20 21" fill="none" xmlns="http://www.w3.org/2000/svg">
<path d="M10 0.5C4.47714 0.5 0 4.97714 0 10.5C0.00620968 16.0203 4.47972 20.4938 10 20.5C15.5229 20.5 20 16.0229 20 10.5C20 4.97714 15.5229 0.5 10 0.5ZM10 19.8548C4.83347 19.8548 0.645161 15.6665 0.645161 10.5C0.651048 5.33589 4.83589 1.15105 10 1.14516C15.1665 1.14516 19.3548 5.33347 19.3548 10.5C19.3548 15.6665 15.1665 19.8548 10 19.8548Z" fill="white"/>
<path d="M16.1295 10.1779H10.323V4.37141C10.323 4.19326 10.1786 4.04883 10.0004 4.04883C9.8223 4.04883 9.67786 4.19326 9.67786 4.37141V10.1779H3.87141C3.69326 10.1779 3.54883 10.3223 3.54883 10.5004C3.54883 10.6786 3.69326 10.823 3.87141 10.823H9.67786V16.6295C9.67786 16.8076 9.8223 16.9521 10.0004 16.9521C10.1786 16.9521 10.323 16.8076 10.323 16.6295V10.823H16.1295C16.3076 10.823 16.4521 10.6786 16.4521 10.5004C16.4521 10.3223 16.3076 10.1779 16.1295 10.1779Z" fill="white"/>
</svg>
