<svg width="32" height="32" viewBox="0 0 32 32" fill="none" xmlns="http://www.w3.org/2000/svg">
<g clip-path="url(#clip0)">
<path d="M24.646 11.1123H7.35156V21.4731H24.646V11.1123Z" fill="#D4D5DB"/>
<path d="M25.5993 22.4H6.40039L15.9998 15.6787L25.5993 22.4Z" fill="#E0E5E8"/>
<path d="M25.5999 10.0662V21.9334C25.5999 22.1918 25.3695 22.399 25.0879 22.399H23.6953V9.60059H25.0879C25.2262 9.60059 25.349 9.65179 25.4412 9.731C25.5385 9.81476 25.5999 9.93583 25.5999 10.0662Z" fill="#E56354"/>
<path d="M25.4408 9.731L23.695 11.1862L16.5427 17.1372C16.2432 17.4096 15.7568 17.4096 15.4573 17.1372L8.30249 11.1838L6.55664 9.731C6.65139 9.65183 6.77426 9.60059 6.91246 9.60059H25.0875C25.2258 9.60059 25.3486 9.65179 25.4408 9.731Z" fill="#E56354"/>
<path d="M8.4668 9.60156H23.532L16.5514 15.4659C16.2495 15.7496 15.7493 15.7496 15.4475 15.4659L8.4668 9.60156Z" fill="#EBEFF2"/>
<path d="M8.30436 9.60059V22.399H6.91433C6.63017 22.399 6.40234 22.1918 6.40234 21.9334V10.0662C6.40234 9.93583 6.46122 9.81476 6.5585 9.731C6.65325 9.65183 6.77612 9.60059 6.91433 9.60059H8.30436Z" fill="#E56354"/>
</g>
<defs>
<clipPath id="clip0">
<rect x="6.40039" y="6.40039" width="19.2" height="19.2" fill="white"/>
</clipPath>
</defs>
</svg>
