<svg width="32" height="32" viewBox="0 0 32 32" fill="none" xmlns="http://www.w3.org/2000/svg">
<path d="M17.607 6.40039V25.6004L6.40039 23.2572V8.56398L17.607 6.40039ZM25.6004 12.7628V19.6657C25.6004 20.4172 25.1183 20.7324 24.5758 20.7324H18.4755V15.6282H18.4763L19.6771 16.4508C19.8463 16.5748 20.05 16.4508 20.05 16.4508C19.8536 16.5708 25.2354 13.0046 25.5828 12.7745L25.6004 12.7628ZM12.1293 12.6424C11.3464 12.6424 10.7171 12.9584 10.242 13.5894C9.76728 14.2201 9.52991 15.0466 9.52991 16.0682C9.52991 17.0364 9.76418 17.8212 10.2316 18.4237C10.6993 19.0262 11.3034 19.3275 12.0461 19.3275C12.8081 19.3275 13.4254 19.0158 13.8993 18.3944C14.3725 17.7729 14.6099 16.9534 14.6091 15.9372C14.6091 14.9485 14.3806 14.1525 13.9237 13.5485C13.4676 12.9441 12.8689 12.6424 12.1293 12.6424ZM12.0975 13.8966C12.4952 13.8966 12.808 14.0823 13.0373 14.4546C13.2665 14.8273 13.3807 15.3487 13.3807 16.0184C13.3807 16.6611 13.2623 17.1639 13.0264 17.5262C12.7906 17.8877 12.4712 18.0689 12.0685 18.0689C11.6781 18.0689 11.3622 17.8839 11.1213 17.5108C10.8805 17.1388 10.76 16.6325 10.76 15.9922C10.76 15.3615 10.8805 14.8544 11.1213 14.4712C11.3622 14.0881 11.6882 13.8966 12.0975 13.8966ZM24.9402 10.4712C25.1779 10.4712 25.5996 10.7944 25.5996 11.2447L19.9365 15.0532C19.9017 15.064 19.8265 15.0633 19.7921 15.0532L18.4763 14.2267V10.4712H24.9402Z" fill="#0072C6"/>
</svg>
