<svg width="64" height="65" viewBox="0 0 64 65" fill="none" xmlns="http://www.w3.org/2000/svg">
<circle cx="32" cy="32" r="32" fill="#AFC5CB"/>
<mask id="mask0" mask-type="alpha" maskUnits="userSpaceOnUse" x="0" y="10" width="64" height="55">
<ellipse cx="32" cy="37.3346" rx="32" ry="26.6667" fill="#C4C4C4"/>
</mask>
<g mask="url(#mask0)">
<path d="M31.9998 41.3333C37.8909 41.3333 42.6665 36.5577 42.6665 30.6667C42.6665 24.7756 37.8909 20 31.9998 20C26.1088 20 21.3332 24.7756 21.3332 30.6667C21.3332 36.5577 26.1088 41.3333 31.9998 41.3333Z" fill="white"/>
<path d="M31.9998 86.6667C43.7819 86.6667 53.3332 77.1154 53.3332 65.3333C53.3332 53.5513 43.7819 44 31.9998 44C20.2178 44 10.6665 53.5513 10.6665 65.3333C10.6665 77.1154 20.2178 86.6667 31.9998 86.6667Z" fill="white"/>
</g>
</svg>
