<svg width="25" height="24" viewBox="0 0 25 24" fill="none" xmlns="http://www.w3.org/2000/svg">
<path d="M18.1004 6.59961H6.1004C5.43856 6.59961 4.90039 7.13778 4.90039 7.79962V16.1996C4.90039 16.8614 5.43856 17.3996 6.1004 17.3996H18.1004C18.7622 17.3996 19.3004 16.8614 19.3004 16.1996V7.79962C19.3004 7.13778 18.7622 6.59961 18.1004 6.59961ZM6.1004 7.1996H18.1004C18.1446 7.1996 18.1836 7.21572 18.2251 7.22483C17.1862 8.17565 13.7413 11.3271 12.5358 12.4133C12.4414 12.4982 12.2894 12.5996 12.1004 12.5996C11.9114 12.5996 11.7594 12.4982 11.6648 12.413C10.4594 11.327 7.01429 8.17537 5.97555 7.22488C6.01712 7.21577 6.05616 7.1996 6.1004 7.1996ZM5.50038 16.1996V7.79962C5.50038 7.74084 5.5181 7.68751 5.53396 7.63379C6.32911 8.36156 8.73279 10.5605 10.2914 11.9778C8.73785 13.3122 6.33356 15.5917 5.53208 16.356C5.51793 16.305 5.50038 16.2551 5.50038 16.1996ZM18.1004 16.7996H6.1004C6.05248 16.7996 6.00987 16.7829 5.96512 16.7722C6.79332 15.9827 9.21291 13.6901 10.7391 12.3845C10.9381 12.565 11.1198 12.7295 11.2631 12.8586C11.5104 13.0819 11.7998 13.1996 12.1004 13.1996C12.401 13.1996 12.6904 13.0818 12.9374 12.8589C13.0807 12.7297 13.2626 12.565 13.4617 12.3845C14.988 13.69 17.4072 15.9824 18.2357 16.7722C18.1909 16.7829 18.1484 16.7996 18.1004 16.7996ZM18.7004 16.1996C18.7004 16.255 18.6828 16.305 18.6687 16.356C17.8669 15.5913 15.4629 13.3121 13.9094 11.9778C15.4681 10.5605 17.8714 8.36178 18.6668 7.63374C18.6827 7.68746 18.7004 7.74081 18.7004 7.79959V16.1996Z" fill="#AFC5CB"/>
</svg>
