<svg width="64" height="64" viewBox="0 0 64 64" fill="none" xmlns="http://www.w3.org/2000/svg">
<path fill-rule="evenodd" clip-rule="evenodd" d="M19.2402 17.8004C19.5602 17.1604 20.0402 16.5204 20.6802 16.2004C21.0002 16.0404 21.4802 15.8804 21.8002 15.8804C22.1202 15.8804 22.4402 15.8804 22.7602 16.0404L28.1042 18.1532L18.4965 19.7836L19.2402 17.8004ZM16.6888 20.0903L17.8002 17.1604C18.2802 16.0404 19.0802 15.2404 20.2002 14.7604C21.3202 14.2804 22.4402 14.2804 23.5602 14.7604L31.1101 17.6431L42.4402 15.7204C44.8402 15.2404 47.2402 17.0004 47.5602 19.4004L48.4005 24.2555L48.6802 24.3604C49.8002 24.8404 50.6002 25.6404 51.0802 26.7604C51.5602 27.8804 51.5602 29.1604 51.2402 30.1204L49.9793 33.3776L50.4402 36.0404C50.6002 37.1604 50.4402 38.4404 49.6402 39.4004C49.0017 40.3581 47.8856 40.9973 46.7683 41.1592L45.0002 45.8004C44.3602 47.5604 42.6002 48.6804 40.8402 48.6804C40.3602 48.6804 39.7202 48.5204 39.2402 48.3604L28.6487 44.2338L20.3602 45.6404H19.5602C17.4802 45.6404 15.5602 44.0404 15.2402 41.9604L14.7071 38.8805L13.9602 38.6004C12.8402 38.1204 12.0402 37.3204 11.5602 36.2004C11.0802 35.0804 11.0802 33.9604 11.5602 32.8404L13.027 29.1733L12.3602 25.3204C11.8802 22.9204 13.6402 20.5204 16.0402 20.2004L16.6888 20.0903ZM13.5791 32.3632L13.1602 33.4804C12.8402 34.2804 12.8402 35.0804 13.1602 35.7204C13.4151 36.2302 13.873 36.6384 14.3722 36.9452L13.5791 32.3632ZM31.6204 43.7296L39.7202 46.9204C41.1602 47.5604 42.7602 46.7604 43.4002 45.3204L44.8773 41.4799L31.6204 43.7296ZM47.4837 39.2812L47.5602 39.0804C47.5047 39.1637 47.448 39.2445 47.3899 39.3231C47.1468 39.427 46.8835 39.5037 46.6002 39.5604L20.2002 44.0404C18.6002 44.2004 17.1602 43.2404 16.8402 41.6404L13.9602 25.0004C13.6402 23.5604 14.7602 22.1204 16.3602 21.8004L42.6002 17.3204C44.2002 17.1604 45.6402 18.1204 45.9602 19.7204L49.0002 36.3604C49.1602 37.0004 49.0002 37.8004 48.5202 38.4404C48.2323 38.8243 47.8868 39.0931 47.4837 39.2812ZM49.4317 30.2137L49.6402 29.6404C49.9602 28.8404 49.9602 28.0404 49.6402 27.4004C49.4456 27.0112 49.1327 26.6812 48.7735 26.4104L49.4317 30.2137ZM22.7602 38.7604C22.4402 38.7604 22.2802 38.6004 22.1202 38.4404C21.9602 38.1204 21.9602 37.8004 22.1202 37.4804L26.6002 31.4004C26.7602 31.0804 27.2402 31.0804 27.5602 31.0804L30.7602 32.2004L33.6402 28.3604C33.9602 28.0404 34.4402 27.8804 34.7602 28.2004L43.0802 33.8004C43.4002 33.9604 43.5602 34.2804 43.4002 34.6004C43.4002 34.9204 43.0802 35.2404 42.7602 35.2404L22.7602 38.7604ZM27.5602 32.8404L24.6802 36.8404L40.5202 34.1204L34.6002 29.9604L31.8802 33.6404C31.4002 33.9604 30.9202 33.9604 30.6002 33.9604L27.5602 32.8404ZM18.7602 26.9204C18.7602 28.8404 20.2002 30.2804 22.1202 30.2804C24.0402 30.2804 25.4802 28.8404 25.4802 26.9204C25.4802 25.0004 24.0402 23.5604 22.1202 23.5604C20.2002 23.5604 18.7602 25.0004 18.7602 26.9204ZM20.3602 26.9204C20.3602 25.9604 21.1602 25.1604 22.1202 25.1604C23.0802 25.1604 23.8802 25.9604 23.8802 26.9204C23.8802 27.8804 23.0802 28.6804 22.1202 28.6804C21.1602 28.6804 20.3602 27.8804 20.3602 26.9204Z" fill="#AFC5CB"/>
</svg>
