<svg width="24" height="24" viewBox="0 0 24 24" fill="none" xmlns="http://www.w3.org/2000/svg">
<path d="M12.6 15.9612C12.624 16.0964 12.6 16.2311 12.504 16.3436C12.408 16.4561 12.288 16.5011 12.144 16.5011H11.376C11.232 16.5011 11.088 16.4338 11.016 16.3436C10.92 16.2311 10.896 16.0964 10.92 15.9612L11.208 14.4988C10.968 14.3416 10.8 14.0939 10.8 13.7792C10.8 13.2842 11.232 12.8793 11.76 12.8793C12.288 12.8793 12.72 13.2842 12.72 13.7792C12.72 14.0716 12.552 14.3189 12.312 14.4988L12.6 15.9612ZM15.744 11.1242L16.32 9.63942C17.04 7.77237 16.008 5.70239 14.016 5.02747C12.048 4.33005 9.84 5.29766 9.12 7.16471L8.784 8.01961C8.688 8.24459 8.712 8.49206 8.808 8.71703C8.904 8.942 9.12 9.09948 9.36 9.18947C9.864 9.36945 10.416 9.12221 10.584 8.64954L10.92 7.79464C11.28 6.84975 12.384 6.37731 13.368 6.71477C14.352 7.05223 14.88 8.0871 14.52 9.03199L13.704 11.1017H7.92C6.864 11.1017 6 11.9116 6 12.9015V15.6012C6 17.581 7.728 19.2008 9.84 19.2008H13.68C15.792 19.2008 17.52 17.581 17.52 15.6012V12.9015C17.52 11.9566 16.752 11.1917 15.744 11.1242Z" fill="#70B9C3"/>
</svg>
