<svg width="24" height="24" viewBox="0 0 24 24" fill="none" xmlns="http://www.w3.org/2000/svg">
<path fill-rule="evenodd" clip-rule="evenodd" d="M15.3018 4.79999H8.69775C6.54839 4.79999 4.7998 6.54857 4.7998 8.69793V15.3021C4.7998 17.4514 6.54839 19.2 8.69775 19.2H15.3019C17.4512 19.2 19.1998 17.4514 19.1998 15.3021V8.69793C19.1998 6.54857 17.4512 4.79999 15.3018 4.79999ZM18.3556 15.3021C18.3556 16.9859 16.9857 18.3558 15.3018 18.3558H8.69775C7.01388 18.3558 5.64399 16.9859 5.64399 15.3021V8.69793C5.64399 7.01406 7.01388 5.64418 8.69775 5.64418H15.3019C16.9857 5.64418 18.3556 7.01406 18.3556 8.69793V15.3021ZM11.9997 8.06263C9.82857 8.06263 8.0623 9.8289 8.0623 12C8.0623 14.1711 9.82857 15.9374 11.9997 15.9374C14.1708 15.9374 15.9371 14.1711 15.9371 12C15.9371 9.8289 14.1708 8.06263 11.9997 8.06263ZM11.9997 15.0932C10.2942 15.0932 8.90649 13.7056 8.90649 12C8.90649 10.2945 10.2942 8.90682 11.9997 8.90682C13.7053 8.90682 15.0929 10.2945 15.0929 12C15.0929 13.7056 13.7053 15.0932 11.9997 15.0932ZM14.868 7.82774C14.868 7.18625 15.3898 6.66429 16.0314 6.66429C16.673 6.66429 17.195 7.18614 17.195 7.82774C17.195 8.46934 16.673 8.9913 16.0314 8.9913C15.3898 8.9913 14.868 8.46934 14.868 7.82774ZM15.7122 7.82774C15.7122 8.00374 15.8554 8.14701 16.0314 8.14701C16.2075 8.14701 16.3508 8.00374 16.3508 7.82774C16.3508 7.65163 16.2075 7.50848 16.0314 7.50848C15.8554 7.50848 15.7122 7.65163 15.7122 7.82774Z" fill="#254854"/>
</svg>
