<svg width="24" height="24" viewBox="0 0 24 24" fill="none" xmlns="http://www.w3.org/2000/svg">
<path d="M4.98091 19.199H8.068V9.48358H4.98091V19.199ZM6.52491 8.15744C7.60151 8.15744 8.27198 7.41112 8.27198 6.47823C8.25185 5.52525 7.60151 4.79999 6.54595 4.79999C5.4904 4.79999 4.7998 5.52525 4.7998 6.47823C4.7998 7.41112 5.47027 8.15744 6.50662 8.15744H6.52491ZM19.1998 19.199V13.6285C19.1998 10.6442 17.6768 9.2549 15.6462 9.2549C14.0071 9.2549 13.2735 10.1983 12.8637 10.8595V9.48358H9.77665C9.81781 10.3954 9.77665 19.199 9.77665 19.199H12.8637V13.773C12.8637 13.483 12.8839 13.1931 12.9653 12.9855C13.1884 12.4057 13.6961 11.8048 14.5486 11.8048C15.6663 11.8048 16.1127 12.6956 16.1127 14.0016V19.2L19.1998 19.199Z" fill="#254854"/>
</svg>
