<svg width="24" height="24" viewBox="0 0 24 24" fill="none" xmlns="http://www.w3.org/2000/svg">
<path d="M19.1998 7.36215C18.6714 7.59471 18.0998 7.74955 17.504 7.81896C18.1144 7.45885 18.5809 6.88872 18.8032 6.21002C18.2322 6.54225 17.5993 6.78608 16.9276 6.9166C16.3876 6.35122 15.6198 6 14.7707 6C13.1393 6 11.8176 7.30104 11.8176 8.90761C11.8176 9.13424 11.8431 9.35553 11.8935 9.5697C9.43905 9.44749 7.26216 8.29002 5.80564 6.5292C5.55236 6.95813 5.40659 7.45944 5.40659 7.99161C5.40659 8.99898 5.92651 9.89066 6.72037 10.4116C6.23628 10.3979 5.78135 10.265 5.38168 10.0491V10.0847C5.38168 11.4943 6.39967 12.6707 7.75233 12.9365C7.50451 13.003 7.24333 13.0385 6.97365 13.0385C6.78233 13.0385 6.5995 13.0196 6.41668 12.9857C6.79387 14.1408 7.88474 14.9827 9.17544 15.0082C8.16292 15.7884 6.89166 16.2535 5.50559 16.2535C5.26689 16.2535 5.03304 16.2404 4.7998 16.2125C6.11055 17.0407 7.66243 17.5195 9.32972 17.5195C14.7628 17.5195 17.7348 13.086 17.7348 9.24281C17.7348 9.11585 17.7324 8.99067 17.7263 8.86609C18.3027 8.4591 18.8038 7.94711 19.1998 7.36215Z" fill="#254854"/>
</svg>
