<svg width="24" height="24" viewBox="0 0 24 24" fill="none" xmlns="http://www.w3.org/2000/svg">
<path fill-rule="evenodd" clip-rule="evenodd" d="M7.47556 8.63403H8.36531C8.63537 8.63403 8.85434 8.41538 8.85434 8.14532V5.28967C8.85434 5.01958 8.63537 4.80078 8.36531 4.80078H7.47556C7.20547 4.80078 6.98652 5.01958 6.98652 5.28967V8.14532C6.98652 8.41538 7.20547 8.63403 7.47556 8.63403ZM17.6272 8.14607V6.40415C18.3152 6.42489 18.8806 6.99419 18.8806 7.69394V17.9024C18.8806 18.6141 18.3017 19.2008 17.5898 19.2008H6.09053C5.37763 19.2008 4.7998 18.6153 4.7998 17.9024V7.69394C4.7998 6.99419 5.36515 6.42489 6.05316 6.40415V8.14607C6.05316 8.9334 6.69184 9.56786 7.47902 9.56786H8.37871C9.16586 9.56786 9.81301 8.9334 9.81301 8.14607V6.3979H13.8674V8.14607C13.8674 8.9334 14.5145 9.56786 15.3018 9.56786H16.2013C16.9885 9.56786 17.6272 8.9334 17.6272 8.14607ZM16.6514 17.8247C16.9597 17.8247 17.2094 17.5748 17.2094 17.2667L17.2094 11.9937C17.2094 11.6854 16.9596 11.4355 16.6514 11.4355H7.00435C6.69612 11.4355 6.44635 11.6854 6.44635 11.9937V17.2667C6.44635 17.5748 6.69615 17.8247 7.00435 17.8247H16.6514ZM9.88658 12.7452C9.88658 12.5648 9.74027 12.4187 9.55973 12.4187H8.41915C8.23882 12.4187 8.09248 12.5648 8.09248 12.7452V13.8857C8.09248 14.0663 8.23882 14.2125 8.41915 14.2125H9.55973C9.74027 14.2125 9.88658 14.0663 9.88658 13.8857V12.7452ZM12.7373 12.7452C12.7373 12.5648 12.5909 12.4187 12.4108 12.4187H11.27C11.0897 12.4187 10.9434 12.5648 10.9434 12.7452V13.8857C10.9434 14.0663 11.0897 14.2125 11.27 14.2125H12.4108C12.5909 14.2125 12.7373 14.0663 12.7373 13.8857V12.7452ZM15.2608 12.4187C15.4411 12.4187 15.5875 12.5648 15.5875 12.7452V13.8857C15.5875 14.0663 15.4411 14.2125 15.2608 14.2125H14.1202C13.9397 14.2125 13.7934 14.0663 13.7934 13.8857V12.7452C13.7934 12.5648 13.9397 12.4187 14.1202 12.4187H15.2608ZM9.88658 15.596C9.88658 15.4153 9.74027 15.2693 9.55973 15.2693H8.41915C8.23882 15.2693 8.09248 15.4153 8.09248 15.596V16.7362C8.09248 16.9167 8.23882 17.0629 8.41915 17.0629H9.55973C9.74027 17.0629 9.88658 16.9167 9.88658 16.7362V15.596ZM12.4108 15.2693C12.5909 15.2693 12.7373 15.4153 12.7373 15.596V16.7362C12.7373 16.9167 12.5909 17.0629 12.4108 17.0629H11.27C11.0897 17.0629 10.9434 16.9167 10.9434 16.7362V15.596C10.9434 15.4153 11.0897 15.2693 11.27 15.2693H12.4108ZM15.5875 15.596C15.5875 15.4153 15.4411 15.2693 15.2609 15.2693H14.1202C13.9397 15.2693 13.7934 15.4153 13.7934 15.596V16.7362C13.7934 16.9167 13.9397 17.0629 14.1202 17.0629H15.2609C15.4411 17.0629 15.5875 16.9167 15.5875 16.7362V15.596ZM16.1799 8.63403H15.2902C15.0201 8.63403 14.8012 8.41538 14.8012 8.14532V5.28967C14.8012 5.01958 15.0201 4.80078 15.2902 4.80078H16.1799C16.4498 4.80078 16.6688 5.01958 16.6688 5.28967V8.14532C16.6688 8.41538 16.4498 8.63403 16.1799 8.63403Z" fill="#AFC5CB"/>
</svg>
