<?xml version="1.0" encoding="UTF-8"?>
<svg width="17px" height="17px" viewBox="0 0 17 17" version="1.1" xmlns="http://www.w3.org/2000/svg" xmlns:xlink="http://www.w3.org/1999/xlink">
    <!-- Generator: Sketch 50.2 (55047) - http://www.bohemiancoding.com/sketch -->
    <title>Group 18</title>
    <desc>Created with Sketch.</desc>
    <defs></defs>
    <g id="Page-1" stroke="none" stroke-width="1" fill="none" fill-rule="evenodd">
        <g id="Event_Article-Page" transform="translate(-1341.000000, -4347.000000)" fill="#578993" stroke="#578993" stroke-width="0.2">
            <g id="Group-30" transform="translate(1342.000000, 4346.000000)">
                <g id="Group-18" transform="translate(0.000000, 2.000000)">
                    <path d="M7.5,0 C3.36444849,0 0,3.36444849 0,7.5 C0,11.6355515 3.36444849,15 7.5,15 C11.6355515,15 15,11.6355515 15,7.5 C15,3.36444849 11.6355515,0 7.5,0 Z M7.5,14.0243175 C3.90251306,14.0243175 0.975736681,11.0975411 0.975736681,7.5 C0.975736681,3.90245886 3.90251306,0.975736681 7.5,0.975736681 C11.0974869,0.975736681 14.0242633,3.90251306 14.0242633,7.5 C14.0242633,11.0974869 11.0975411,14.0243175 7.5,14.0243175 Z" id="Shape"></path>
                    <path d="M10.7602053,8.71427692 C10.5182887,8.57009971 10.1968308,8.63596775 10.0420804,8.86141631 C9.53987825,9.59350475 8.6844478,10.0305604 7.75380833,10.0305604 C6.25725272,10.0305604 5.0397561,8.89534669 5.0397561,7.5 C5.0397561,6.10465331 6.25725272,4.96943957 7.75380833,4.96943957 C8.6568365,4.96943957 9.49828801,5.38667559 10.0047648,6.08553381 C10.1654648,6.30726618 10.4885402,6.36564799 10.7265865,6.21576186 C10.9644596,6.06592958 11.0270183,5.76459545 10.8662604,5.54275536 C10.1662735,4.57670883 9.00267093,4 7.75380833,4 C5.68394276,4 4,5.57006124 4,7.5 C4,9.42993876 5.68394276,11 7.75380833,11 C9.04085309,11 10.2237489,10.3958237 10.9180172,9.38378266 C11.0727098,9.15828024 11.0020641,8.85856184 10.7602053,8.71427692 Z" id="Shape"></path>
                </g>
            </g>
        </g>
    </g>
</svg>