<svg width="40" height="40" viewBox="0 0 40 40" fill="none" xmlns="http://www.w3.org/2000/svg">
<path d="M9.71429 8H30.2857C31.2325 8 32 8.76751 32 9.71429C32 10.6611 31.2325 11.4286 30.2857 11.4286H9.71429C8.76751 11.4286 8 10.6611 8 9.71429C8 8.76751 8.76751 8 9.71429 8ZM9.71429 14.8571H21.2857C22.2325 14.8571 23 15.6247 23 16.5714C23 17.5182 22.2325 18.2857 21.2857 18.2857H9.71429C8.76751 18.2857 8 17.5182 8 16.5714C8 15.6247 8.76751 14.8571 9.71429 14.8571ZM9.71429 21.7143H30.2857C31.2325 21.7143 32 22.4818 32 23.4286C32 24.3753 31.2325 25.1429 30.2857 25.1429H9.71429C8.76751 25.1429 8 24.3753 8 23.4286C8 22.4818 8.76751 21.7143 9.71429 21.7143ZM9.71429 28.5714H21.2857C22.2325 28.5714 23 29.3389 23 30.2857C23 31.2325 22.2325 32 21.2857 32H9.71429C8.76751 32 8 31.2325 8 30.2857C8 29.3389 8.76751 28.5714 9.71429 28.5714Z" fill="black"/>
</svg>
