<svg width="40" height="40" viewBox="0 0 40 40" fill="none" xmlns="http://www.w3.org/2000/svg">
<path d="M9.71429 8H30.2857C31.2325 8 32 8.76751 32 9.71429C32 10.6611 31.2325 11.4286 30.2857 11.4286H9.71429C8.76751 11.4286 8 10.6611 8 9.71429C8 8.76751 8.76751 8 9.71429 8ZM18.7143 14.8571H30.2857C31.2325 14.8571 32 15.6247 32 16.5714C32 17.5182 31.2325 18.2857 30.2857 18.2857H18.7143C17.7675 18.2857 17 17.5182 17 16.5714C17 15.6247 17.7675 14.8571 18.7143 14.8571ZM9.71429 21.7143H30.2857C31.2325 21.7143 32 22.4818 32 23.4286C32 24.3753 31.2325 25.1429 30.2857 25.1429H9.71429C8.76751 25.1429 8 24.3753 8 23.4286C8 22.4818 8.76751 21.7143 9.71429 21.7143ZM18.7143 28.5714H30.2857C31.2325 28.5714 32 29.3389 32 30.2857C32 31.2325 31.2325 32 30.2857 32H18.7143C17.7675 32 17 31.2325 17 30.2857C17 29.3389 17.7675 28.5714 18.7143 28.5714Z" fill="black"/>
</svg>
