<svg width="40" height="40" viewBox="0 0 40 40" fill="none" xmlns="http://www.w3.org/2000/svg">
<path d="M27.161 28.5597C27.9712 29.3103 28.0196 30.5758 27.2689 31.386C26.5577 32.1537 25.3846 32.2375 24.5741 31.6059L24.4425 31.494L13.641 21.4872C12.8277 20.7337 12.7885 19.4729 13.5239 18.6706L13.64 18.5538L24.4416 8.53375C25.2514 7.78254 26.5168 7.83004 27.268 8.63983C27.9797 9.407 27.9745 10.5831 27.2834 11.3435L27.1619 11.4663L18.7335 19.2855C18.3286 19.6611 18.3049 20.2938 18.6805 20.6987C18.6977 20.7172 18.7155 20.735 18.734 20.7521L27.161 28.5597Z" fill="black"/>
</svg>
