<svg width="40" height="40" viewBox="0 0 40 40" fill="none" xmlns="http://www.w3.org/2000/svg">
<path fill-rule="evenodd" clip-rule="evenodd" d="M8 17.5C8 12.8056 11.8056 9 16.5 9H23.5C28.1944 9 32 12.8056 32 17.5C32 22.1944 28.1944 26 23.5 26H22.1667L15.9577 29.3867C14.625 30.1137 13 29.149 13 27.6309V25.2483C10.0515 23.9143 8 20.9467 8 17.5ZM10 17.5C10 13.9101 12.9101 11 16.5 11H23.5C27.0899 11 30 13.9101 30 17.5C30 21.0899 27.0899 24 23.5 24H21.3636L15.741 27.0925C15.4077 27.2757 15 27.0347 15 26.6544V23.8261C12.1333 23.1489 10 20.5736 10 17.5Z" fill="black"/>
</svg>
