<svg width="40" height="40" viewBox="0 0 40 40" fill="none" xmlns="http://www.w3.org/2000/svg">
<path d="M29.9231 9.84615H28.3077V8.92308C28.3077 8.41354 27.8942 8 27.3846 8C26.8751 8 26.4615 8.41354 26.4615 8.92308V9.84615H13.5385V8.92308C13.5385 8.41354 13.1249 8 12.6154 8C12.1058 8 11.6923 8.41354 11.6923 8.92308V9.84615H10.0769C8.93185 9.84615 8 10.778 8 11.9231V29.9231C8 31.0682 8.93185 32 10.0769 32H29.9231C31.0682 32 32 31.0682 32 29.9231V11.9231C32 10.778 31.0682 9.84615 29.9231 9.84615ZM29.9231 30.1538H10.0769C9.94954 30.1538 9.84615 30.05 9.84615 29.9231V16.3077H30.1538V29.9231C30.1538 30.05 30.05 30.1538 29.9231 30.1538ZM12.6154 25.5385C13.1252 25.5385 13.5385 25.9517 13.5385 26.4615C13.5385 26.9713 13.1252 27.3846 12.6154 27.3846C12.1056 27.3846 11.6923 26.9713 11.6923 26.4615C11.6923 25.9517 12.1056 25.5385 12.6154 25.5385ZM16.3077 25.5385C16.8175 25.5385 17.2308 25.9517 17.2308 26.4615C17.2308 26.9713 16.8175 27.3846 16.3077 27.3846C15.7979 27.3846 15.3846 26.9713 15.3846 26.4615C15.3846 25.9517 15.7979 25.5385 16.3077 25.5385ZM20 25.5385C20.5098 25.5385 20.9231 25.9517 20.9231 26.4615C20.9231 26.9713 20.5098 27.3846 20 27.3846C19.4902 27.3846 19.0769 26.9713 19.0769 26.4615C19.0769 25.9517 19.4902 25.5385 20 25.5385ZM23.6981 25.5385C24.2079 25.5385 24.6212 25.9517 24.6212 26.4615C24.6212 26.9713 24.2079 27.3846 23.6981 27.3846C23.1883 27.3846 22.775 26.9713 22.775 26.4615C22.775 25.9517 23.1883 25.5385 23.6981 25.5385ZM12.6154 21.8462C13.1252 21.8462 13.5385 22.2594 13.5385 22.7692C13.5385 23.279 13.1252 23.6923 12.6154 23.6923C12.1056 23.6923 11.6923 23.279 11.6923 22.7692C11.6923 22.2594 12.1056 21.8462 12.6154 21.8462ZM16.3077 21.8462C16.8175 21.8462 17.2308 22.2594 17.2308 22.7692C17.2308 23.279 16.8175 23.6923 16.3077 23.6923C15.7979 23.6923 15.3846 23.279 15.3846 22.7692C15.3846 22.2594 15.7979 21.8462 16.3077 21.8462ZM20 21.8462C20.5098 21.8462 20.9231 22.2594 20.9231 22.7692C20.9231 23.279 20.5098 23.6923 20 23.6923C19.4902 23.6923 19.0769 23.279 19.0769 22.7692C19.0769 22.2594 19.4902 21.8462 20 21.8462ZM23.6981 21.8462C24.2079 21.8462 24.6212 22.2594 24.6212 22.7692C24.6212 23.279 24.2079 23.6923 23.6981 23.6923C23.1883 23.6923 22.775 23.279 22.775 22.7692C22.775 22.2594 23.1883 21.8462 23.6981 21.8462ZM27.3846 21.8462C27.8944 21.8462 28.3077 22.2594 28.3077 22.7692C28.3077 23.279 27.8944 23.6923 27.3846 23.6923C26.8748 23.6923 26.4615 23.279 26.4615 22.7692C26.4615 22.2594 26.8748 21.8462 27.3846 21.8462ZM16.3077 18.1538C16.8175 18.1538 17.2308 18.5671 17.2308 19.0769C17.2308 19.5867 16.8175 20 16.3077 20C15.7979 20 15.3846 19.5867 15.3846 19.0769C15.3846 18.5671 15.7979 18.1538 16.3077 18.1538ZM20 18.1538C20.5098 18.1538 20.9231 18.5671 20.9231 19.0769C20.9231 19.5867 20.5098 20 20 20C19.4902 20 19.0769 19.5867 19.0769 19.0769C19.0769 18.5671 19.4902 18.1538 20 18.1538ZM23.6923 18.1538C24.2021 18.1538 24.6154 18.5671 24.6154 19.0769C24.6154 19.5867 24.2021 20 23.6923 20C23.1825 20 22.7692 19.5867 22.7692 19.0769C22.7692 18.5671 23.1825 18.1538 23.6923 18.1538ZM27.3846 18.1538C27.8944 18.1538 28.3077 18.5671 28.3077 19.0769C28.3077 19.5867 27.8944 20 27.3846 20C26.8748 20 26.4615 19.5867 26.4615 19.0769C26.4615 18.5671 26.8748 18.1538 27.3846 18.1538ZM11.6923 11.6923V12.6154C11.6923 13.1249 12.1058 13.5385 12.6154 13.5385C13.1249 13.5385 13.5385 13.1249 13.5385 12.6154V11.6923H26.4615V12.6154C26.4615 13.1249 26.8751 13.5385 27.3846 13.5385C27.8942 13.5385 28.3077 13.1249 28.3077 12.6154V11.6923H29.9231C30.05 11.6923 30.1538 11.7957 30.1538 11.9231V14.4615H9.84615V11.9231C9.84615 11.7957 9.94954 11.6923 10.0769 11.6923H11.6923Z" fill="black"/>
</svg>
