<svg width="40" height="40" viewBox="0 0 40 40" fill="none" xmlns="http://www.w3.org/2000/svg">
<path fill-rule="evenodd" clip-rule="evenodd" d="M14.3462 13.3097C14.3462 13.7248 14.6826 14.0612 15.0977 14.0612C15.5127 14.0612 15.8492 13.7248 15.8492 13.3097V8.75148C15.8492 8.33643 15.5127 8 15.0977 8C14.6826 8 14.3462 8.33643 14.3462 8.75148V13.3097ZM24.1509 13.3097C24.1509 13.7248 24.4873 14.0612 24.9024 14.0612C25.3174 14.0612 25.6539 13.7248 25.6539 13.3097V8.75148C25.6539 8.33643 25.3174 8 24.9024 8C24.4873 8 24.1509 8.33643 24.1509 8.75148V13.3097ZM9.13916 18.4255V28.7944C9.13916 30.562 10.5772 32 12.3447 32H27.6545C29.4221 32 30.8601 30.562 30.8601 28.7944V18.4255H9.13916ZM30.86 13.4849V16.9228H9.13916V13.4849C9.13916 11.7173 10.5772 10.2793 12.3447 10.2793H12.8429V13.3099C12.8429 14.553 13.8542 15.5643 15.0974 15.5643C16.3405 15.5643 17.3518 14.553 17.3518 13.3099V10.2793H22.6474V13.3099C22.6474 14.5531 23.6587 15.5644 24.9019 15.5644C26.145 15.5644 27.1563 14.5531 27.1563 13.3099V10.2793H27.6544C29.422 10.2793 30.86 11.7173 30.86 13.4849Z" fill="black"/>
</svg>
