<svg width="40" height="40" viewBox="0 0 40 40" fill="none" xmlns="http://www.w3.org/2000/svg">
<path d="M20 8C26.6274 8 32 13.3726 32 20C32 26.6274 26.6274 32 20 32C13.3726 32 8 26.6274 8 20C8 13.3726 13.3726 8 20 8ZM20 10C14.4772 10 10 14.4772 10 20C10 25.5228 14.4772 30 20 30C25.5228 30 30 25.5228 30 20C30 14.4772 25.5228 10 20 10ZM20 14C20.5523 14 21 14.4477 21 15V20.372L23.0301 19.2C23.5084 18.9239 24.12 19.0877 24.3962 19.566C24.6723 20.0443 24.5084 20.6559 24.0301 20.9321L20.566 22.9321C20.1502 23.1721 19.6337 23.0796 19.3244 22.7371C19.1252 22.5548 19 22.292 19 22V15C19 14.4477 19.4477 14 20 14Z" fill="black"/>
</svg>
