<svg width="40" height="40" viewBox="0 0 40 40" fill="none" xmlns="http://www.w3.org/2000/svg">
<path fill-rule="evenodd" clip-rule="evenodd" d="M20 16C22.2091 16 24 14.2091 24 12C24 9.79086 22.2091 8 20 8C17.7909 8 16 9.79086 16 12C16 14.2091 17.7909 16 20 16ZM28 31C30.2091 31 32 29.2091 32 27C32 24.7909 30.2091 23 28 23C25.7909 23 24 24.7909 24 27C24 29.2091 25.7909 31 28 31ZM24.5289 15.9357C25.2026 15.1611 25.6809 14.212 25.8869 13.1652C28.3487 15.0545 29.9494 18.0098 29.9988 21.341C29.3736 21.1202 28.7008 21 28 21C27.6553 21 27.3175 21.0291 26.9887 21.0849C26.8774 19.0447 25.9507 17.2216 24.5289 15.9357ZM12.0164 21C12.1668 18.7156 13.34 16.7105 15.0824 15.4385C14.4972 14.6031 14.1195 13.6118 14.0239 12.5393C11.0106 14.3848 9 17.7076 9 21.5C9 21.6004 9.00141 21.7005 9.00421 21.8003C9.88578 21.2913 10.9089 21 12 21L12.0164 21ZM17.7286 28.7896C17.4097 29.8113 16.825 30.7158 16.0555 31.4219C17.1345 31.7965 18.2935 32 19.5 32C20.978 32 22.3847 31.6946 23.6605 31.1435C22.9641 30.4143 22.4496 29.51 22.1899 28.5032C21.3549 28.8241 20.448 29 19.5 29C18.8898 29 18.2965 28.9271 17.7286 28.7896ZM12 31C14.2091 31 16 29.2091 16 27C16 24.7909 14.2091 23 12 23C9.79086 23 8 24.7909 8 27C8 29.2091 9.79086 31 12 31Z" fill="black"/>
</svg>
