<svg width="40" height="40" viewBox="0 0 40 40" fill="none" xmlns="http://www.w3.org/2000/svg">
<path d="M22.6908 28.5362C23.0565 29.1575 23.5534 29.6927 24.1432 30.104C22.8809 30.6794 21.4779 31 20 31C18.5221 31 17.1191 30.6794 15.8567 30.1039C16.4466 29.6927 16.9435 29.1575 17.3099 28.5362C18.1501 28.8365 19.056 29 20 29C20.944 29 21.8499 28.8365 22.6908 28.5362ZM13 23C14.6569 23 16 24.3431 16 26C16 27.6569 14.6569 29 13 29C11.3431 29 10 27.6569 10 26C10 24.3431 11.3431 23 13 23ZM27 23C28.6569 23 30 24.3431 30 26C30 27.6569 28.6569 29 27 29C25.3431 29 24 27.6569 24 26C24 24.3431 25.3431 23 27 23ZM13 25C12.4477 25 12 25.4477 12 26C12 26.5523 12.4477 27 13 27C13.5523 27 14 26.5523 14 26C14 25.4477 13.5523 25 13 25ZM27 25C26.4477 25 26 25.4477 26 26C26 26.5523 26.4477 27 27 27C27.5523 27 28 26.5523 28 26C28 25.4477 27.5523 25 27 25ZM24.9892 12.332C27.9836 14.0582 30 17.2936 30 21C30 21.3257 29.9844 21.6478 29.954 21.9656C29.3817 21.546 28.7184 21.2457 27.9992 21.0999L28 21C28 18.2172 26.5791 15.7663 24.4233 14.3331C24.7426 13.7297 24.942 13.0516 24.9892 12.332ZM15.012 12.3309C15.058 13.0516 15.2574 13.7297 15.5772 14.3343C13.4209 15.7663 12 18.2172 12 21L12.0008 21.0999C11.2815 21.2457 10.6182 21.5461 10.0471 21.9647C10.0156 21.6485 10 21.3261 10 21C10 17.2936 12.0164 14.0582 15.012 12.3309ZM20 9C21.6569 9 23 10.3431 23 12C23 13.6569 21.6569 15 20 15C18.3431 15 17 13.6569 17 12C17 10.3431 18.3431 9 20 9ZM20 11C19.4477 11 19 11.4477 19 12C19 12.5523 19.4477 13 20 13C20.5523 13 21 12.5523 21 12C21 11.4477 20.5523 11 20 11Z" fill="black"/>
</svg>
