<svg width="40" height="40" viewBox="0 0 40 40" fill="none" xmlns="http://www.w3.org/2000/svg">
<path fill-rule="evenodd" clip-rule="evenodd" d="M11 12C9.34315 12 8 13.3431 8 15V16V18V19V25C8 26.6569 9.34315 28 11 28H29C30.6569 28 32 26.6569 32 25V19V18V16V15C32 13.3431 30.6569 12 29 12H11ZM31 18V16H9V18H31ZM9 19V25C9 26.1046 9.89543 27 11 27H29C30.1046 27 31 26.1046 31 25V19H9ZM29 13C30.1046 13 31 13.8954 31 15H9C9 13.8954 9.89543 13 11 13H29ZM11 21H17V22H11V21ZM17 23H11V24H17V23Z" fill="black"/>
</svg>
