<svg width="40" height="40" viewBox="0 0 40 40" fill="none" xmlns="http://www.w3.org/2000/svg">
<path d="M31.6515 8.32253C31.6533 8.32429 31.6551 8.32607 31.6569 8.32785C32.0967 8.76834 32.0986 9.48124 31.6611 9.92404L21.7 20.0063L31.6611 30.0886C32.0674 30.4998 32.0948 31.1438 31.7444 31.5864L31.6569 31.6848C31.6551 31.6866 31.6533 31.6883 31.6515 31.6901C31.2126 32.1238 30.5052 32.1196 30.0714 31.6806L19.9936 21.4825L9.91656 31.6806C9.47457 32.122 8.76712 32.1215 8.33111 31.6848C7.89127 31.2443 7.8894 30.5314 8.32691 30.0886L18.288 20.0063L8.32691 9.92404C7.8894 9.48124 7.89127 8.76834 8.33111 8.32785C8.76712 7.89118 9.47457 7.89065 9.91124 8.32667L9.91656 8.33201L19.9936 18.5302L30.0714 8.33201C30.5052 7.89306 31.2126 7.88881 31.6515 8.32253Z" fill="black"/>
</svg>
