<svg width="40" height="40" viewBox="0 0 40 40" fill="none" xmlns="http://www.w3.org/2000/svg">
<path d="M22.2678 10.6341C22.2678 12.0889 21.0885 13.2683 19.6337 13.2683C18.1789 13.2683 16.9995 12.0889 16.9995 10.6341C16.9995 9.17935 18.1789 8 19.6337 8C21.0885 8 22.2678 9.17935 22.2678 10.6341ZM22.2678 19.7073C22.2678 21.1621 21.0885 22.3415 19.6337 22.3415C18.1789 22.3415 16.9995 21.1621 16.9995 19.7073C16.9995 18.2525 18.1789 17.0732 19.6337 17.0732C21.0885 17.0732 22.2678 18.2525 22.2678 19.7073ZM22.2678 28.7805C22.2678 30.2353 21.0885 31.4146 19.6337 31.4146C18.1789 31.4146 16.9995 30.2353 16.9995 28.7805C16.9995 27.3257 18.1789 26.1463 19.6337 26.1463C21.0885 26.1463 22.2678 27.3257 22.2678 28.7805Z" fill="black"/>
</svg>
