<svg width="40" height="40" viewBox="0 0 40 40" fill="none" xmlns="http://www.w3.org/2000/svg">
<path d="M20 12C22.9 12 25.4 13.6 26.6 16C29.7 16.4 32 18.9 32 22C32 25.3 29.3 28 26 28H13C10.2 28 8 25.8 8 23C8 20.4 10.1 18.2 12.6 18C13.3 14.6 16.3 12 20 12ZM20 16C19.4477 16 19 16.4477 19 17L18.9991 22.636L17.8142 21.4503C17.4237 21.0597 16.7905 21.0597 16.4 21.4503C16.0095 21.8408 16.0095 22.4739 16.4 22.8645L19.2284 25.6929C19.3794 25.8439 19.5666 25.9365 19.7621 25.9707C19.8379 25.9901 19.9178 26 20 26C20.28 26 20.5331 25.8849 20.7146 25.6995L23.5497 22.8645C23.9403 22.4739 23.9403 21.8408 23.5497 21.4503C23.1592 21.0597 22.5261 21.0597 22.1355 21.4503L20.9991 22.587L21 17C21 16.4477 20.5523 16 20 16Z" fill="black"/>
</svg>
