<svg width="40" height="40" viewBox="0 0 40 40" fill="none" xmlns="http://www.w3.org/2000/svg">
<path d="M20 14H12C11.4477 14 11 14.4477 11 15V29C11 29.5523 11.4477 30 12 30H20C20.5523 30 21 29.5523 21 29V15C21 14.4477 20.5523 14 20 14ZM23 26H26C26.5523 26 27 25.5523 27 25V11C27 10.4477 26.5523 10 26 10H18C17.4477 10 17 10.4477 17 11V12H21C22.1046 12 23 12.8954 23 14V26ZM23 30C23 31.1046 22.1046 32 21 32H11C9.89543 32 9 31.1046 9 30V14C9 12.8954 9.89543 12 11 12H15V10C15 8.89543 15.8954 8 17 8H27C28.1046 8 29 8.89543 29 10V26C29 27.1046 28.1046 28 27 28H23V30Z" fill="black"/>
</svg>
