<svg width="40" height="40" viewBox="0 0 40 40" fill="none" xmlns="http://www.w3.org/2000/svg">
<path fill-rule="evenodd" clip-rule="evenodd" d="M30.0001 20.2C30.0001 19.6 30.5001 19.2 31.0001 19.2C31.3001 19.2 31.6001 19.3 31.8001 19.6C31.9001 19.8 32.0001 20.1 31.9001 20.3V29.1C31.9001 30.7 30.6001 32 29.0001 32H11.0001C9.3001 32 8.1001 30.7 8.1001 29V10.9C8.1001 9.2 9.4001 8 11.1001 8H19.7001C20.2001 8 20.6001 8.4 20.6001 8.9C20.6001 9.5 20.1001 9.9 19.6001 9.9H11.0001C10.5001 9.9 10.0001 10.3 10.0001 10.9V29C10.0001 29.5 10.4001 30 11.0001 30H29.0001C29.5001 30 30.0001 29.6 30.0001 29V20.2ZM15.2001 23.2V20C15.2001 19.6 15.3001 19.2 15.6001 18.9L26.1001 8.4C26.4001 8.2 26.8001 8 27.2001 8C27.7001 8 28.0001 8.1 28.3001 8.4H28.4001L31.6001 11.6C31.9001 12 32.0001 12.3 32.0001 12.8C32.0001 13.2 31.8001 13.6 31.6001 13.9L21.1001 24.4C20.8001 24.6 20.4001 24.8 20.0001 24.8H16.8001C15.9001 24.8 15.2001 24 15.2001 23.2ZM27.2001 10L26.0001 11.2L28.8001 14L30.1001 12.9L27.2001 10ZM17.0001 20.1V23H19.8001L27.7001 15.1L24.9001 12.3L17.0001 20.1Z" fill="black"/>
</svg>
