<svg width="40" height="40" viewBox="0 0 40 40" fill="none" xmlns="http://www.w3.org/2000/svg">
<path fill-rule="evenodd" clip-rule="evenodd" d="M8 14C8 12.3431 9.34315 11 11 11H29C30.6569 11 32 12.3431 32 14V26C32 26.3509 31.9398 26.6877 31.8291 27.0006L31.9008 27.0723L31.7321 27.2409C31.2601 28.2786 30.2143 29 29 29H11C9.34315 29 8 27.6569 8 26V14ZM30 25.1715V14.3452L24.3019 19.4735L30 25.1715ZM28.505 13H11.4949L19.331 20.0525C19.7113 20.3947 20.2886 20.3947 20.6689 20.0525L28.505 13ZM10 14.3453V24.9998L15.6076 19.3922L10 14.3453ZM10.8408 26.9874L17.0963 20.732L17.993 21.539C19.1339 22.5659 20.8659 22.5659 22.0068 21.539L22.8133 20.8132L29 27C29 27 29 27 29 27H11C10.9458 27 10.8927 26.9957 10.8408 26.9874Z" fill="black"/>
</svg>
