<svg width="40" height="40" viewBox="0 0 40 40" fill="none" xmlns="http://www.w3.org/2000/svg">
<path fill-rule="evenodd" clip-rule="evenodd" d="M19.2736 21.688C17.5748 20.1577 11.795 15.25 8.50114 12.4604C8.29606 12.2871 8.2648 11.9824 8.43083 11.7705C8.81459 11.2808 9.38689 11 10.0002 11H30.0001C30.6134 11 31.1857 11.2808 31.5695 11.7705C31.7355 11.9824 31.7043 12.2871 31.4992 12.4604C28.2052 15.25 22.4255 20.1582 20.7253 21.6899C20.4977 21.8955 20.2535 21.9995 20.0001 21.9995C19.7462 21.9995 19.5016 21.8945 19.2736 21.688ZM31.1768 14.0444C31.3243 13.9184 31.5328 13.8897 31.71 13.9722C31.8867 14.0537 32 14.2309 32.0001 14.4258V25.8452C32.0001 26.0327 31.8951 26.2046 31.7281 26.29C31.6563 26.3271 31.5782 26.3452 31.5001 26.3452C31.397 26.3452 31.2945 26.3134 31.2081 26.251C29.0406 24.6914 26.0392 22.497 24.0474 20.9018C23.9312 20.8091 23.8624 20.6689 23.8599 20.5205C23.8575 20.3716 23.921 20.2295 24.0337 20.1328C26.1773 18.2891 29.0196 15.873 31.1768 14.0444ZM8.792 26.2509C10.96 24.6913 13.9619 22.497 15.9531 20.9018C16.0693 20.809 16.1382 20.6688 16.1406 20.5204C16.1431 20.3715 16.0796 20.2294 15.9668 20.1327C13.8232 18.289 10.9805 15.873 8.82327 14.0444C8.67481 13.9184 8.46584 13.8906 8.29006 13.9721C8.1133 14.0536 8 14.2309 8 14.4257V25.8451C8 26.0326 8.105 26.2045 8.27197 26.29C8.34373 26.3271 8.42188 26.3452 8.50002 26.3452C8.60305 26.3452 8.70556 26.3134 8.792 26.2509ZM23.1363 21.4535C25.438 23.3218 29.294 26.1137 31.3873 27.6113C31.504 27.6953 31.5792 27.8252 31.5939 27.9682C31.608 28.1113 31.5601 28.2533 31.4625 28.3583C31.0831 28.7661 30.5504 29 30.0001 29H10.0001C9.44977 29 8.91657 28.7661 8.5381 28.3583C8.43994 28.2528 8.3926 28.1107 8.40676 27.9677C8.42138 27.8246 8.49657 27.6952 8.61329 27.6112C10.71 26.1107 14.5703 23.3153 16.8643 21.4535C17.0523 21.2997 17.3243 21.3046 17.5074 21.4647C17.959 21.8573 18.3369 22.1904 18.604 22.4311C19.4292 23.1752 20.5718 23.1752 21.3951 22.4321C21.6631 22.1909 22.0411 21.8588 22.4927 21.4648C22.6773 21.3056 22.9488 21.3007 23.1363 21.4535Z" fill="black"/>
</svg>
