<svg width="40" height="40" viewBox="0 0 40 40" fill="none" xmlns="http://www.w3.org/2000/svg">
<path d="M24.3636 13.4545V26C24.3636 28.4109 22.4109 30.3636 20 30.3636C17.5891 30.3636 15.6364 28.4109 15.6364 26V12.3636C15.6364 10.8582 16.8582 9.63636 18.3636 9.63636C19.8691 9.63636 21.0909 10.8582 21.0909 12.3636V23.8182C21.0909 24.4182 20.6 24.9091 20 24.9091C19.4 24.9091 18.9091 24.4182 18.9091 23.8182V13.4545H17.2727V23.8182C17.2727 25.3236 18.4945 26.5455 20 26.5455C21.5055 26.5455 22.7273 25.3236 22.7273 23.8182V12.3636C22.7273 9.95273 20.7745 8 18.3636 8C15.9527 8 14 9.95273 14 12.3636V26C14 29.3164 16.6836 32 20 32C23.3164 32 26 29.3164 26 26V13.4545H24.3636Z" fill="black"/>
</svg>
