<svg width="40" height="40" viewBox="0 0 40 40" fill="none" xmlns="http://www.w3.org/2000/svg">
<path d="M31.003 8C31.5553 8 32.003 8.44772 32.003 9C32.003 9.27373 31.8908 9.5355 31.6926 9.72425L23.3107 17.7044C23.1124 17.8932 23.0002 18.1549 23.0002 18.4287V30.9945C23.0002 31.5468 22.5525 31.9945 22.0002 31.9945C21.8028 31.9945 21.6098 31.9361 21.4455 31.8266L17.4455 29.1599C17.1673 28.9744 17.0002 28.6622 17.0002 28.3279V18.4277C17.0002 18.1545 16.8884 17.8933 16.6909 17.7046L8.33422 9.72316C7.93483 9.3417 7.92029 8.70871 8.30175 8.30932C8.49043 8.11176 8.75172 8 9.0249 8H31.003ZM28.1272 9.999H11.8934C11.8106 9.999 11.7434 10.0662 11.7434 10.149C11.7434 10.19 11.7602 10.2292 11.7898 10.2575L18.0723 16.2583C18.6155 16.7771 18.9425 17.479 18.9933 18.2237L19.0002 18.4277V27.6582C19.0002 27.7418 19.042 27.8199 19.1115 27.8662L20.6115 28.8667C20.7264 28.9433 20.8816 28.9123 20.9582 28.7975C20.9856 28.7564 21.0002 28.7081 21.0002 28.6587V18.4287C21.0002 17.6759 21.2831 16.9533 21.7883 16.4019L21.9316 16.2559L28.2306 10.2576C28.2906 10.2005 28.2929 10.1056 28.2358 10.0456C28.2075 10.0158 28.1682 9.999 28.1272 9.999Z" fill="black"/>
</svg>
