<svg width="40" height="40" viewBox="0 0 40 40" fill="none" xmlns="http://www.w3.org/2000/svg">
<path d="M20.1761 9.58252C21.641 8.40176 23.1583 7.86691 25.2251 8.02806L25.546 8.05753L25.7623 8.08521C28.911 8.53455 31.5321 11.3545 31.9723 15.473L32 15.7693L31.997 17.102C31.6335 21.7861 28.2666 26.3105 21.7571 31.0558L21.3374 31.359L21.0106 31.6113C20.4721 32.0931 19.7005 32.1253 19.098 31.7424L18.9717 31.654L18.6236 31.381C11.9985 26.5883 8.51976 22.0639 8.02738 17.3273L8 17.0247L8.00326 15.6886C8.35132 11.3907 11.1398 8.40901 14.4744 8.0561C16.7061 7.84374 18.314 8.37498 19.8363 9.5958L19.998 9.72853L20.1761 9.58252ZM25.3231 10.0457C23.4362 9.84054 22.2511 10.3337 20.8955 11.6079L20.7006 11.7953L20 12.483L19.2994 11.7953C17.8898 10.4114 16.6627 9.8569 14.6744 10.046C12.392 10.2876 10.3863 12.3695 10.0274 15.4912L10 15.7693L9.997 16.9473C10.3055 20.9226 13.326 24.9988 19.4235 29.4895L19.8255 29.783L19.966 29.8925L20.1398 29.7577C26.3892 25.2838 29.5509 21.1974 29.9761 17.2799L30 17.0247L30.0033 15.85C29.7392 12.5893 27.7914 10.4213 25.5266 10.0721L25.3231 10.0457Z" fill="black"/>
</svg>
