<svg width="40" height="40" viewBox="0 0 40 40" fill="none" xmlns="http://www.w3.org/2000/svg">
<path fill-rule="evenodd" clip-rule="evenodd" d="M25.5034 8H14.4966C10.9143 8 8 10.9143 8 14.4966V25.5036C8 29.0857 10.9143 32 14.4966 32H25.5036C29.0857 32 32 29.0857 32 25.5036V14.4966C32 10.9143 29.0857 8 25.5034 8ZM30.593 25.5036C30.593 28.3098 28.3098 30.593 25.5034 30.593H14.4966C11.6901 30.593 9.40698 28.3098 9.40698 25.5036V14.4966C9.40698 11.6901 11.6901 9.40698 14.4966 9.40698H25.5036C28.3098 9.40698 30.593 11.6901 30.593 14.4966V25.5036ZM19.9998 13.4377C16.3813 13.4377 13.4375 16.3815 13.4375 20C13.4375 23.6186 16.3813 26.5624 19.9998 26.5624C23.6183 26.5624 26.5621 23.6186 26.5621 20C26.5621 16.3815 23.6183 13.4377 19.9998 13.4377ZM19.9998 25.1554C17.1573 25.1554 14.8445 22.8428 14.8445 20C14.8445 17.1575 17.1573 14.8447 19.9998 14.8447C22.8425 14.8447 25.1551 17.1575 25.1551 20C25.1551 22.8428 22.8425 25.1554 19.9998 25.1554ZM24.7803 13.0463C24.7803 11.9771 25.65 11.1072 26.7194 11.1072C27.7887 11.1072 28.6586 11.9769 28.6586 13.0463C28.6586 14.1156 27.7887 14.9855 26.7194 14.9855C25.65 14.9855 24.7803 14.1156 24.7803 13.0463ZM26.1873 13.0463C26.1873 13.3396 26.426 13.5784 26.7194 13.5784C27.0129 13.5784 27.2516 13.3396 27.2516 13.0463C27.2516 12.7527 27.0129 12.5142 26.7194 12.5142C26.426 12.5142 26.1873 12.7527 26.1873 13.0463Z" fill="black"/>
</svg>
