<svg width="40" height="40" viewBox="0 0 40 40" fill="none" xmlns="http://www.w3.org/2000/svg">
<path fill-rule="evenodd" clip-rule="evenodd" d="M22.122 12.2218C22.903 11.4407 24.1694 11.4407 24.9504 12.2218L27.7789 15.0502C28.5599 15.8312 28.5599 17.0976 27.7789 17.8786L24.2433 21.4142C23.8528 21.8047 23.8528 22.4378 24.2433 22.8284C24.6338 23.2189 25.267 23.2189 25.6575 22.8284L29.1931 19.2928C30.7552 17.7307 30.7552 15.1981 29.1931 13.636L26.3646 10.8076C24.8025 9.24546 22.2699 9.24546 20.7078 10.8076L17.1723 14.3431C16.7817 14.7336 16.7817 15.3668 17.1723 15.7573C17.5628 16.1478 18.1959 16.1478 18.5865 15.7573L22.122 12.2218ZM15.758 18.5857C16.1486 18.1952 16.1486 17.562 15.758 17.1715C15.3675 16.781 14.7343 16.781 14.3438 17.1715L10.8083 20.7071C9.24619 22.2691 9.24619 24.8018 10.8083 26.3639L13.6367 29.1923C15.1988 30.7544 17.7315 30.7544 19.2936 29.1923L22.8291 25.6568C23.2196 25.2663 23.2196 24.6331 22.8291 24.2426C22.4386 23.8521 21.8054 23.8521 21.4149 24.2426L17.8794 27.7781C17.0983 28.5592 15.832 28.5592 15.0509 27.7781L12.2225 24.9497C11.4415 24.1686 11.4415 22.9023 12.2225 22.1213L15.758 18.5857ZM22.1222 17.8788C21.7317 17.4882 21.0985 17.4882 20.708 17.8788L17.8796 20.7072C17.4891 21.0977 17.4891 21.7309 17.8796 22.1214C18.2701 22.5119 18.9033 22.5119 19.2938 22.1214L22.1222 19.293C22.5127 18.9025 22.5127 18.2693 22.1222 17.8788Z" fill="black"/>
</svg>
