<svg width="40" height="40" viewBox="0 0 40 40" fill="none" xmlns="http://www.w3.org/2000/svg">
<path d="M8.30185 31.9984H13.447V15.806H8.30185V31.9984ZM10.8752 13.5957C12.6695 13.5957 13.787 12.3519 13.787 10.7971C13.7534 9.20877 12.6695 8 10.9102 8C9.15099 8 8 9.20877 8 10.7971C8 12.3519 9.11745 13.5957 10.8447 13.5957H10.8752ZM32 31.9984V22.7142C32 17.7403 29.4617 15.4249 26.0774 15.4249C23.3455 15.4249 22.1228 16.9972 21.4399 18.0991V15.806H16.2947C16.3633 17.3257 16.2947 31.9984 16.2947 31.9984H21.4399V22.955C21.4399 22.4718 21.4734 21.9886 21.6091 21.6425C21.9811 20.6761 22.8272 19.6747 24.248 19.6747C26.1109 19.6747 26.8549 21.1593 26.8549 23.3361V32L32 31.9984Z" fill="black"/>
</svg>
