<svg width="40" height="40" viewBox="0 0 40 40" fill="none" xmlns="http://www.w3.org/2000/svg">
<path fill-rule="evenodd" clip-rule="evenodd" d="M8 11.9459C8 10.8692 8.86919 10 9.94595 10C11.0227 10 11.8919 10.8692 11.8919 11.9459C11.8919 13.0227 11.0227 13.8919 9.94595 13.8919C8.86919 13.8919 8 13.0227 8 11.9459ZM8 19.7297C8 18.653 8.86919 17.7838 9.94595 17.7838C11.0227 17.7838 11.8919 18.653 11.8919 19.7297C11.8919 20.8065 11.0227 21.6757 9.94595 21.6757C8.86919 21.6757 8 20.8065 8 19.7297ZM9.94595 25.5676C8.86919 25.5676 8 26.4497 8 27.5135C8 28.5773 8.88216 29.4595 9.94595 29.4595C11.0097 29.4595 11.8919 28.5773 11.8919 27.5135C11.8919 26.4497 11.0227 25.5676 9.94595 25.5676ZM32 28.8108H13.8378V26.2162H32V28.8108ZM13.8378 21.027H32V18.4324H13.8378V21.027ZM13.8378 13.2432V10.6486H32V13.2432H13.8378Z" fill="black"/>
</svg>
