<svg width="40" height="40" viewBox="0 0 40 40" fill="none" xmlns="http://www.w3.org/2000/svg">
<path d="M21 26.6006C21.04 26.826 21 27.0506 20.84 27.2381C20.68 27.4255 20.48 27.5005 20.24 27.5005H18.96C18.72 27.5005 18.48 27.3884 18.36 27.2381C18.2 27.0506 18.16 26.826 18.2 26.6006L18.68 24.1634C18.28 23.9013 18 23.4885 18 22.964C18 22.139 18.72 21.4641 19.6 21.4641C20.48 21.4641 21.2 22.139 21.2 22.964C21.2 23.4514 20.92 23.8635 20.52 24.1634L21 26.6006ZM26.24 18.5391L27.2 16.0644C28.4 12.9526 26.68 9.50268 23.36 8.37781C20.08 7.21545 16.4 8.82813 15.2 11.9399L14.64 13.3647C14.48 13.7397 14.52 14.1521 14.68 14.5271C14.84 14.902 15.2 15.1645 15.6 15.3145C16.44 15.6145 17.36 15.2024 17.64 14.4146L18.2 12.9898C18.8 11.415 20.64 10.6275 22.28 11.19C23.92 11.7524 24.8 13.4772 24.2 15.052L22.84 18.5016H13.2C11.44 18.5016 10 19.8514 10 21.5013V26.0007C10 29.3003 12.88 32 16.4 32H22.8C26.32 32 29.2 29.3003 29.2 26.0007V21.5013C29.2 19.9264 27.92 18.6516 26.24 18.5391Z" fill="black"/>
</svg>
