<svg width="40" height="40" viewBox="0 0 40 40" fill="none" xmlns="http://www.w3.org/2000/svg">
<path d="M19.9631 25.4065C21.2238 26.5564 22.9167 27.254 24.7582 27.254C28.7129 27.254 31.9138 24.0606 31.9138 20.133C31.9138 16.1935 28.7129 13 24.7582 13C22.9167 13 21.2238 13.6974 19.9631 14.8475C18.5172 16.1566 17.6025 18.0409 17.6025 20.133C17.6027 22.2252 18.5172 24.1096 19.9631 25.4065Z" fill="#E9B040"/>
<path d="M30.9624 24.0972C30.9624 23.9748 31.0613 23.877 31.1848 23.877C31.3207 23.877 31.4194 23.9749 31.4194 24.0972C31.4194 24.232 31.3205 24.3298 31.1848 24.3298C31.0613 24.3298 30.9624 24.232 30.9624 24.0972ZM31.1848 24.2809C31.2837 24.2809 31.37 24.1951 31.37 24.0973C31.37 23.9996 31.2836 23.9261 31.1848 23.9261C31.0981 23.9261 31.0119 23.9996 31.0119 24.0973C31.0119 24.1951 31.0983 24.2809 31.1848 24.2809ZM31.1601 24.2075H31.1106V23.9994H31.197C31.2095 23.9994 31.2343 23.9994 31.2465 24.0118C31.2712 24.0239 31.2712 24.0363 31.2712 24.0608C31.2712 24.0852 31.259 24.1097 31.2343 24.1097L31.2837 24.2076H31.2217L31.197 24.1218H31.1601V24.2075V24.0851H31.2095C31.2218 24.0851 31.2217 24.0727 31.2217 24.0606C31.2217 24.0482 31.2218 24.0482 31.2095 24.0361H31.1601V24.2075Z" fill="#E9B040"/>
<path d="M22.2742 19.3746C22.2495 19.1177 22.2 18.873 22.1505 18.616H17.7756C17.825 18.3591 17.8992 18.1144 17.9732 17.8696H21.9405C21.8544 17.6121 21.7554 17.3589 21.6439 17.1111H18.2823C18.406 16.8519 18.5421 16.5987 18.6902 16.3525H21.2239C21.0608 16.0912 20.8791 15.8417 20.6801 15.6061H19.234C19.4577 15.3357 19.7015 15.0821 19.9632 14.8475C18.6903 13.7096 17.0095 13 15.1556 13C11.2132 13 8 16.1935 8 20.133C8 24.0606 11.2132 27.254 15.1556 27.254C17.0095 27.254 18.6902 26.5564 19.9632 25.4065C20.221 25.176 20.4606 24.9264 20.6801 24.66H19.234C19.0362 24.4153 18.8633 24.1707 18.6902 23.9014H21.2239C21.3832 23.6594 21.5237 23.4058 21.6441 23.1428H18.2823C18.1711 22.8981 18.0599 22.6535 17.9732 22.3963H21.9405C22.0269 22.1516 22.0889 21.8949 22.1504 21.6377C22.1999 21.393 22.2493 21.1363 22.274 20.8791C22.2991 20.631 22.3115 20.3819 22.3113 20.1326C22.3113 19.8761 22.2989 19.6192 22.2742 19.3746Z" fill="#CC2131"/>
<path d="M30.9624 21.7848C30.9624 21.6503 31.0613 21.5526 31.1848 21.5526C31.3207 21.5526 31.4194 21.6505 31.4194 21.7848C31.4194 21.9072 31.3205 22.0174 31.1848 22.0174C31.0613 22.0174 30.9624 21.9071 30.9624 21.7848ZM31.1848 21.956C31.2837 21.956 31.37 21.8826 31.37 21.7848C31.37 21.687 31.2836 21.6136 31.1848 21.6136C31.0981 21.6136 31.0119 21.687 31.0119 21.7848C31.0119 21.8826 31.0983 21.956 31.1848 21.956ZM31.1601 21.8826H31.1106V21.6869H31.2465C31.2712 21.6993 31.2712 21.7238 31.2712 21.7482C31.2712 21.7603 31.259 21.7848 31.2343 21.7972L31.2837 21.8827H31.2217L31.197 21.8093H31.1601V21.8826V21.7726H31.1848C31.197 21.7726 31.2095 21.7726 31.2095 21.7602C31.2218 21.7602 31.2217 21.7481 31.2217 21.7357C31.2217 21.7357 31.2218 21.7236 31.2095 21.7236C31.2095 21.7112 31.197 21.7236 31.1848 21.7236H31.1601V21.8826Z" fill="white"/>
<path d="M17.5283 22.1886C17.2935 22.2497 17.1205 22.2865 16.9475 22.2865C16.5767 22.2865 16.3542 22.054 16.3542 21.638C16.3542 21.5524 16.3666 21.4667 16.3789 21.3688L16.4284 21.0876L16.4655 20.855L16.7991 18.8485H17.5407L17.4541 19.289H17.9238L17.8125 20.0231H17.3428L17.1452 21.2221C17.1328 21.2834 17.1328 21.32 17.1328 21.3445C17.1328 21.5036 17.207 21.5647 17.3923 21.5647C17.4788 21.5647 17.5529 21.5526 17.6271 21.5402L17.5283 22.1886ZM19.926 22.1641C19.6541 22.2376 19.407 22.2742 19.135 22.2742C18.2946 22.2742 17.8125 21.8337 17.8125 20.9652C17.8125 19.9496 18.3811 19.2154 19.1719 19.2154C19.8022 19.2154 20.21 19.6315 20.21 20.2798C20.21 20.5002 20.1853 20.7082 20.1237 21.0018H18.5788C18.5664 21.0507 18.5664 21.0752 18.5664 21.0997C18.5664 21.4423 18.8012 21.6135 19.2461 21.6135C19.5303 21.6135 19.7775 21.5524 20.0495 21.4302L19.926 22.1641ZM19.4687 20.4145V20.2677C19.4687 20.023 19.3327 19.8884 19.0979 19.8884C18.8506 19.8884 18.6777 20.0718 18.6035 20.4144H19.4687V20.4145ZM11.5961 22.2252H10.8298L11.2748 19.448L10.2738 22.2252H9.74241L9.68059 19.4602L9.21092 22.2252H8.45703L9.06256 18.616H10.1872L10.2119 20.8429L10.9658 18.616H12.2018L11.5961 22.2252ZM13.4624 20.9162C13.3882 20.9038 13.3635 20.9038 13.314 20.9038C12.8691 20.9038 12.6467 21.0751 12.6467 21.3443C12.6467 21.5279 12.758 21.6503 12.9309 21.6503C13.3017 21.6503 13.4499 21.3443 13.4624 20.9162ZM14.0803 22.2252H13.413L13.4253 21.9195C13.2522 22.1518 13.0175 22.2742 12.6096 22.2742C12.2388 22.2742 11.9175 21.944 11.9175 21.4667C11.9175 21.3322 11.9423 21.21 11.9794 21.0876C12.1028 20.6347 12.5602 20.3535 13.2646 20.3411C13.3511 20.3411 13.487 20.3411 13.6106 20.3535C13.6352 20.2556 13.6352 20.2187 13.6352 20.1576C13.6352 19.9618 13.4746 19.9006 13.1162 19.9006C12.8938 19.9006 12.6466 19.9373 12.4736 19.9985L12.3623 20.023L12.3129 20.0351L12.4242 19.3744C12.7826 19.2643 13.042 19.2154 13.3264 19.2154C13.9938 19.2154 14.3522 19.5213 14.3522 20.0841C14.3522 20.2309 14.3645 20.3411 14.3151 20.6592L14.1421 21.7114L14.1174 21.895L14.105 22.0419L14.0927 22.1398L14.0803 22.2252ZM23.6583 19.3134C23.8807 19.3134 24.0786 19.3746 24.3504 19.5091L24.4863 18.726C24.4121 18.6893 24.3874 18.6893 24.2886 18.6526L23.9798 18.5669C23.8809 18.5424 23.7574 18.5302 23.6213 18.5302C23.238 18.5302 23.0156 18.5424 22.781 18.677C22.6573 18.7627 22.4966 18.8729 22.3235 19.0686L22.2246 19.0441L21.4336 19.5946L21.4708 19.2887H20.655L20.1733 22.225H20.952L21.2361 20.647C21.2361 20.647 21.3475 20.4265 21.3968 20.3533C21.5452 20.1697 21.6687 20.1697 21.8293 20.1697H21.8912C21.8653 20.3562 21.8528 20.5443 21.854 20.7325C21.854 21.6868 22.3977 22.2864 23.2381 22.2864C23.4483 22.2864 23.6339 22.2619 23.918 22.1885L24.0541 21.3566C23.807 21.4911 23.5844 21.5523 23.399 21.5523C22.9418 21.5523 22.6697 21.2097 22.6697 20.6714C22.6694 19.8761 23.0774 19.3134 23.6583 19.3134ZM30.2205 18.616L30.0477 19.6437C29.8623 19.3623 29.6397 19.2277 29.3431 19.2277C28.9351 19.2277 28.5522 19.4601 28.3172 19.9006V19.8885L27.823 19.5947L27.8724 19.2889H27.0444L26.5747 22.2252H27.341L27.6006 20.6471C27.6006 20.6471 27.7983 20.4266 27.8477 20.3535C27.9714 20.2066 28.0948 20.182 28.1938 20.1699C28.1074 20.4145 28.0579 20.7082 28.0579 21.0386C28.0579 21.7727 28.4409 22.2621 29.0093 22.2621C29.2937 22.2621 29.5161 22.1641 29.7261 21.9316L29.6892 22.2252H30.4185L31.0117 18.616H30.2205ZM29.2691 21.5279C29.0095 21.5279 28.8736 21.3322 28.8736 20.9528C28.8736 20.3777 29.1207 19.9618 29.479 19.9618C29.7509 19.9618 29.887 20.1699 29.887 20.5369C29.887 21.1242 29.6399 21.5279 29.2691 21.5279ZM25.6976 20.9162C25.6234 20.9038 25.5987 20.9038 25.5492 20.9038C25.104 20.9038 24.8816 21.0751 24.8816 21.3443C24.8816 21.5279 24.993 21.6503 25.166 21.6503C25.5367 21.6503 25.6851 21.3443 25.6976 20.9162ZM26.3155 22.2252H25.6357L25.6604 21.9195C25.4874 22.1518 25.2524 22.2742 24.8448 22.2742C24.4615 22.2742 24.128 21.9561 24.128 21.4667C24.128 20.7695 24.6592 20.3412 25.4997 20.3412C25.5863 20.3412 25.722 20.3412 25.8335 20.3536C25.8582 20.2557 25.8707 20.2188 25.8707 20.1578C25.8707 19.9619 25.71 19.9007 25.3392 19.9007C25.129 19.9007 24.8695 19.9375 24.6966 19.9987L24.5977 20.0231L24.5482 20.0352L24.6594 19.3746C25.0179 19.2644 25.2775 19.2156 25.5616 19.2156C26.229 19.2156 26.575 19.5214 26.575 20.0842C26.575 20.2311 26.5997 20.3412 26.538 20.6593L26.3773 21.7115L26.3526 21.8951L26.3279 22.042L26.3157 22.1399V22.2252H26.3155ZM15.6992 19.9128C15.8476 19.9128 16.0576 19.9251 16.2802 19.9618L16.3914 19.2766C16.1689 19.2522 15.8723 19.2154 15.6992 19.2154C14.8342 19.2154 14.55 19.6804 14.55 20.2187C14.55 20.5737 14.7106 20.8304 15.1308 21.0261C15.4397 21.173 15.4892 21.1973 15.4892 21.3321C15.4892 21.5154 15.3286 21.6257 15.0319 21.6257C14.7971 21.6257 14.5746 21.5889 14.3274 21.5033L14.2409 22.1761L14.2531 22.1885L14.4015 22.213C14.4509 22.225 14.5127 22.2374 14.5993 22.2495C14.7846 22.2619 14.9453 22.274 15.0442 22.274C15.9094 22.274 16.2678 21.9438 16.2678 21.2952C16.2678 20.8916 16.07 20.647 15.6868 20.4757C15.3532 20.3287 15.3161 20.3045 15.3161 20.1697C15.3161 20.0352 15.4644 19.9128 15.6992 19.9128Z" fill="#1B3771"/>
<path d="M24.6964 18.4936L24.5603 19.2766C24.2884 19.142 24.0906 19.081 23.8682 19.081C23.2872 19.081 22.8795 19.6437 22.8795 20.439C22.8795 20.9897 23.1514 21.3199 23.6088 21.3199C23.794 21.3199 24.0165 21.2588 24.2637 21.1366L24.1278 21.9561C23.8435 22.0295 23.6581 22.0664 23.448 22.0664C22.6077 22.0664 22.0885 21.4667 22.0885 20.5004C22.0885 19.2156 22.8053 18.3101 23.8311 18.3101C23.9669 18.3101 24.0904 18.3224 24.1893 18.3468L24.4984 18.4203C24.5975 18.457 24.6222 18.4692 24.6964 18.4936ZM22.1998 19.032H22.1256C21.8663 19.032 21.7179 19.1544 21.483 19.5091L21.5572 19.0563H20.8526L20.3709 21.9928H21.1496C21.4337 20.1942 21.5079 19.8884 21.8787 19.8884H21.9281C22.0023 19.5335 22.1011 19.2765 22.2247 19.0441L22.1998 19.032ZM17.7261 21.9561C17.516 22.0295 17.3429 22.054 17.17 22.054C16.7745 22.054 16.552 21.8338 16.552 21.4057C16.552 21.3322 16.5643 21.2345 16.5767 21.1486L16.6261 20.855L16.6632 20.6228L16.9969 18.616H17.7632L17.6766 19.0565H18.0721L17.9732 19.7783H17.5777L17.3677 21.0019C17.3553 21.0509 17.3553 21.0877 17.3553 21.1243C17.3553 21.2712 17.4295 21.3324 17.6148 21.3324C17.7013 21.3324 17.7754 21.3324 17.8248 21.3079L17.7261 21.9561ZM14.7476 19.9863C14.7476 20.3535 14.9205 20.6102 15.3284 20.8061C15.6497 20.953 15.6992 21.0018 15.6992 21.1242C15.6992 21.3078 15.5632 21.3933 15.2542 21.3933C15.0195 21.3933 14.8093 21.3567 14.5621 21.2833L14.4509 21.9561L14.488 21.9684L14.624 21.9929C14.6733 22.005 14.7352 22.0174 14.834 22.0174C15.0069 22.0419 15.1553 22.0419 15.2542 22.0419C16.0698 22.0419 16.4531 21.7359 16.4531 21.0631C16.4531 20.6592 16.2925 20.4266 15.9093 20.2433C15.5757 20.0964 15.5386 20.0599 15.5386 19.9252C15.5386 19.7662 15.6746 19.6928 15.9217 19.6928C16.0701 19.6928 16.2801 19.705 16.4779 19.7295L16.5891 19.0566C16.3914 19.0199 16.0824 18.9954 15.9093 18.9954C15.0442 18.9953 14.7352 19.448 14.7476 19.9863ZM30.6163 21.9929H29.8869L29.9242 21.7114C29.714 21.9316 29.4915 22.0295 29.2071 22.0295C28.6387 22.0295 28.2679 21.5526 28.2679 20.8185C28.2679 19.8395 28.8488 19.0075 29.5284 19.0075C29.8375 19.0075 30.0599 19.1422 30.2702 19.4113L30.4432 18.3836H31.2094L30.6163 21.9929ZM29.4791 21.3078C29.8376 21.3078 30.0848 20.8918 30.0848 20.3166C30.0848 19.9373 29.9486 19.7415 29.6768 19.7415C29.3307 19.7415 29.0714 20.1453 29.0714 20.7204C29.0714 21.1121 29.2072 21.3078 29.4791 21.3078ZM20.0989 21.9316C19.8269 22.0174 19.5797 22.054 19.2955 22.054C18.4304 22.054 17.9854 21.6014 17.9854 20.7326C17.9854 19.7294 18.554 18.983 19.3326 18.983C19.9752 18.983 20.3829 19.399 20.3829 20.0475C20.3829 20.2678 20.3582 20.4759 20.284 20.7816H18.7518C18.7395 20.8185 18.7395 20.8429 18.7395 20.8674C18.7395 21.21 18.9744 21.3812 19.4192 21.3812C19.7034 21.3812 19.9505 21.3322 20.2225 21.1976L20.0989 21.9316ZM19.6663 20.182V20.0352C19.6663 19.7906 19.5303 19.6559 19.2955 19.6559C19.0484 19.6559 18.8753 19.8395 18.8011 20.182H19.6663ZM11.7939 21.9929H11.0276L11.4725 19.2154L10.4715 21.9929H9.94004L9.87822 19.2399L9.40869 21.9929H8.69189L9.29742 18.3836H10.4097L10.4468 20.6226L11.1882 18.3836H12.3994L11.7939 21.9929ZM13.7095 20.6837C13.6353 20.6837 13.5982 20.6716 13.5364 20.6716C13.1038 20.6716 12.8814 20.8306 12.8814 21.1242C12.8814 21.3078 12.9803 21.4178 13.1533 21.4178C13.4746 21.4178 13.6971 21.1242 13.7095 20.6837ZM14.2779 21.9929H13.6352L13.6475 21.6869C13.4497 21.9316 13.1902 22.0419 12.8318 22.0419C12.4116 22.0419 12.1274 21.7238 12.1274 21.2466C12.1274 20.5248 12.6216 20.1088 13.4868 20.1088C13.5733 20.1088 13.6846 20.1211 13.8081 20.1332C13.8328 20.0354 13.8328 19.9987 13.8328 19.9497C13.8328 19.754 13.6968 19.6806 13.3384 19.6806C13.116 19.6806 12.8688 19.705 12.6958 19.754L12.5845 19.7907L12.5104 19.803L12.6216 19.1423C13.0048 19.0321 13.2643 18.9954 13.5486 18.9954C14.216 18.9954 14.5744 19.289 14.5744 19.8518C14.5744 19.9987 14.562 20.1088 14.5125 20.4392L14.3395 21.4793L14.3147 21.6626L14.3024 21.8095L14.29 21.9198L14.2779 21.9929ZM25.9447 20.6837C25.858 20.6837 25.8211 20.6716 25.7717 20.6716C25.3268 20.6716 25.1041 20.8306 25.1041 21.1242C25.1041 21.3078 25.2155 21.4178 25.3885 21.4178C25.6976 21.4178 25.9322 21.1242 25.9447 20.6837ZM26.5131 21.9929H25.8705L25.8827 21.6869C25.6851 21.9316 25.4256 22.0419 25.0672 22.0419C24.6469 22.0419 24.3626 21.7238 24.3626 21.2466C24.3626 20.5248 24.8568 20.1088 25.722 20.1088C25.8087 20.1088 25.92 20.1211 26.0311 20.1332C26.0558 20.0354 26.0683 19.9987 26.0683 19.9497C26.0683 19.754 25.9322 19.6806 25.5741 19.6806C25.3514 19.6806 25.092 19.705 24.9189 19.754L24.82 19.7907L24.7459 19.803L24.857 19.1423C25.2403 19.0321 25.4996 18.9954 25.784 18.9954C26.4513 18.9954 26.7973 19.289 26.7973 19.8518C26.7973 19.9987 26.7973 20.1088 26.7357 20.4392L26.5749 21.4793L26.5502 21.6626L26.5255 21.8095L26.5133 21.9198V21.9929H26.5131ZM28.5893 19.032H28.5152C28.2558 19.032 28.1075 19.1544 27.8725 19.5091L27.9467 19.0563H27.2421L26.7725 21.9928H27.5387C27.8231 20.1942 27.8973 19.8884 28.268 19.8884H28.3175C28.3917 19.5335 28.4904 19.2765 28.6141 19.0441L28.5893 19.032Z" fill="white"/>
</svg>
