<svg width="40" height="40" viewBox="0 0 40 40" fill="none" xmlns="http://www.w3.org/2000/svg">
<path fill-rule="evenodd" clip-rule="evenodd" d="M8 18.5C8 13.8056 11.8056 10 16.5 10H23.5C28.1944 10 32 13.8056 32 18.5C32 23.1944 28.1944 27 23.5 27H22.1667L15.9577 30.3867C14.625 31.1137 13 30.149 13 28.6309V26.2483C10.0515 24.9143 8 21.9467 8 18.5ZM9 18.5C9 14.3579 12.3579 11 16.5 11H23.5C27.6421 11 31 14.3579 31 18.5C31 22.6421 27.6421 26 23.5 26H21.6154L15.5087 29.6085C14.8421 30.0024 14 29.5219 14 28.7476V25.5732C11.087 24.5436 9 21.7655 9 18.5Z" fill="black"/>
</svg>
