<svg width="40" height="40" viewBox="0 0 40 40" fill="none" xmlns="http://www.w3.org/2000/svg">
<path d="M25 8C26.6569 8 28 9.34315 28 11V29C28 30.6569 26.6569 32 25 32H15C13.3431 32 12 30.6569 12 29V11C12 9.34315 13.3431 8 15 8H25ZM14 26V29C14 29.5128 14.386 29.9355 14.8834 29.9933L15 30H25C25.5128 30 25.9355 29.614 25.9933 29.1166L26 29V26H14ZM20 27C20.5523 27 21 27.4477 21 28C21 28.5523 20.5523 29 20 29C19.4477 29 19 28.5523 19 28C19 27.4477 19.4477 27 20 27ZM14 24H26V11C26 10.4872 25.614 10.0645 25.1166 10.0067L25 10H15C14.4872 10 14.0645 10.386 14.0067 10.8834L14 11V24Z" fill="black"/>
</svg>
