<svg width="40" height="40" viewBox="0 0 40 40" fill="none" xmlns="http://www.w3.org/2000/svg">
<path d="M22.0087 8V32L8.00049 29.071V10.7045L22.0087 8ZM32.0005 15.953V24.5816C32.0005 25.5211 31.3979 25.915 30.7198 25.915H23.0944V19.5347H23.0954L24.5963 20.563C24.8079 20.718 25.0625 20.563 25.0625 20.563C24.817 20.713 31.5443 16.2553 31.9785 15.9676L32.0005 15.953ZM15.1617 15.8025C14.183 15.8025 13.3964 16.1975 12.8025 16.9863C12.2091 17.7747 11.9124 18.8078 11.9124 20.0847C11.9124 21.295 12.2052 22.276 12.7894 23.0291C13.3741 23.7823 14.1292 24.1588 15.0576 24.1588C16.0102 24.1588 16.7817 23.7692 17.3741 22.9925C17.9656 22.2157 18.2623 21.1912 18.2614 19.9211C18.2614 18.6852 17.9758 17.6902 17.4046 16.9351C16.8344 16.1796 16.0861 15.8025 15.1617 15.8025ZM15.1219 17.3702C15.619 17.3702 16.0101 17.6024 16.2966 18.0678C16.5831 18.5337 16.7259 19.1854 16.7259 20.0225C16.7259 20.8259 16.5778 21.4544 16.283 21.9073C15.9883 22.3592 15.589 22.5856 15.0856 22.5856C14.5977 22.5856 14.2027 22.3543 13.9016 21.888C13.6006 21.4231 13.45 20.7902 13.45 19.9897C13.45 19.2014 13.6006 18.5675 13.9016 18.0886C14.2027 17.6097 14.6103 17.3702 15.1219 17.3702ZM31.1752 13.0885C31.4724 13.0885 31.9995 13.4925 31.9995 14.0554L24.9206 18.8161C24.8771 18.8296 24.7832 18.8286 24.7401 18.8161L23.0954 17.7829V13.0885H31.1752Z" fill="black"/>
</svg>
