<svg width="22" height="24" viewBox="0 0 22 24" fill="none" xmlns="http://www.w3.org/2000/svg">
<path d="M19.1033 6.20062C19.1439 5.87039 19.1652 5.53416 19.1652 5.19295C19.1652 2.325 16.8402 0 13.9722 0H5.29368C4.74777 0 4.28169 0.394219 4.19113 0.932531L0.993317 19.9392C0.878567 20.6212 1.40432 21.2427 2.09586 21.2427H5.26982C5.81572 21.2427 6.29057 20.8488 6.38108 20.3104C6.38108 20.3104 6.38638 20.2789 6.39594 20.2221H6.39599L5.95368 22.8511C5.85261 23.4522 6.31597 24 6.92549 24H9.70222C10.1834 24 10.5942 23.6525 10.674 23.178L11.4628 18.4896C11.5988 17.6814 12.2985 17.0896 13.1181 17.0896H13.8475C17.8099 17.0896 21.0219 13.8775 21.0219 9.91519C21.0219 8.38195 20.2641 7.02666 19.1033 6.20062Z" fill="#002987"/>
<path d="M19.1029 6.20062C18.6063 10.2403 15.1634 13.3683 10.9895 13.3683H8.56771C8.0211 13.3683 7.54902 13.7324 7.40095 14.2472L5.95335 22.851C5.85224 23.4522 6.3156 24 6.92512 24H9.70185C10.183 24 10.5938 23.6525 10.6736 23.1781L11.4625 18.4896C11.5985 17.6814 12.2982 17.0896 13.1177 17.0896H13.8471C17.8095 17.0896 21.0216 13.8775 21.0216 9.91519C21.0216 8.38195 20.2637 7.02666 19.1029 6.20062Z" fill="#0085CC"/>
<path d="M8.56818 13.3683H10.99C15.1639 13.3683 18.6068 10.2403 19.1034 6.20069C18.3586 5.67072 17.4485 5.35797 16.4648 5.35797H10.1437C9.42402 5.35797 8.80954 5.87767 8.6901 6.58736L7.40137 14.2471C7.54945 13.7323 8.02157 13.3683 8.56818 13.3683Z" fill="#00186A"/>
</svg>
