<svg width="40" height="40" viewBox="0 0 40 40" fill="none" xmlns="http://www.w3.org/2000/svg">
<path d="M29.3294 19.7649C28.9792 21.1466 28.3807 22.2062 27.4997 23.0044C26.6563 23.7685 25.5719 24.2577 24.1848 24.4999C23.3862 24.6395 22.5651 24.6525 21.8676 24.6468C21.8589 24.6468 21.8504 24.6468 21.8419 24.6468C20.9028 24.6468 20.3721 25.0688 20.22 25.9361C20.0471 26.9219 19.8803 27.9246 19.7191 28.8943C19.6395 29.3727 19.5599 29.8512 19.4794 30.3294C19.4545 30.477 19.4311 30.6164 19.3946 30.7442C19.3533 30.889 19.2341 31.0442 19.0233 31.0456C17.7603 31.0542 16.4551 31.0544 15.0333 31.0459C15.0082 31.0458 14.9922 31.0426 14.9844 31.0403C14.9776 31.025 14.9671 30.9804 14.9792 30.9028C15.0299 30.5782 15.086 30.2473 15.1403 29.9273C15.1747 29.7241 15.2091 29.5209 15.2426 29.3176C15.2558 29.2372 15.2626 29.1599 15.2686 29.0916C15.2705 29.0698 15.2724 29.048 15.2746 29.0263C15.3094 28.8353 15.3446 28.6445 15.3799 28.4536C15.4595 28.0224 15.5418 27.5766 15.6179 27.136C15.7542 26.3468 15.888 25.5444 16.0174 24.7684L16.104 24.2495C16.1304 24.0911 16.1572 23.9328 16.1841 23.7744C16.2441 23.4208 16.3056 23.058 16.3625 22.6948C16.3815 22.5737 16.4 22.4525 16.4177 22.3317C16.4759 21.9347 16.6881 21.7565 17.1057 21.754C17.3511 21.7526 17.6006 21.7534 17.8465 21.7547C17.9285 21.7551 18.01 21.7556 18.0909 21.7561C18.1808 21.7567 18.2712 21.7572 18.3619 21.7577C18.9161 21.7605 19.4834 21.7604 20.0462 21.7382C21.7819 21.6697 23.2516 21.2969 24.5395 20.5982C26.1441 19.7277 27.2738 18.4029 27.9931 16.548C28.0182 16.4835 28.0418 16.4188 28.0646 16.3539C28.072 16.3327 28.0789 16.3114 28.0862 16.2902C28.1011 16.2464 28.1159 16.2026 28.1299 16.1588C28.138 16.1338 28.1455 16.1087 28.1533 16.0837C28.1658 16.0433 28.1781 16.003 28.19 15.9626C28.1976 15.9365 28.2051 15.9104 28.2125 15.8843C28.2238 15.8445 28.2349 15.8048 28.2457 15.765C28.2527 15.7393 28.2597 15.7135 28.2664 15.6877C28.2772 15.6467 28.2878 15.6058 28.2981 15.5648C28.3042 15.5408 28.3104 15.5168 28.3164 15.4927C28.3277 15.4469 28.3388 15.4012 28.3497 15.3555C28.3542 15.3369 28.3588 15.3183 28.3632 15.2997C28.3781 15.2365 28.3928 15.1734 28.4072 15.1105C28.9503 15.5147 29.303 16.0777 29.4791 16.8167C29.6793 17.657 29.6331 18.5662 29.3294 19.7649ZM13.3793 28.4896C12.3075 28.4899 11.0926 28.4901 10.0804 28.4932H10.08C10.0495 28.4932 10.03 28.4789 10.019 28.4668C10.0081 28.4547 9.996 28.4344 10.0006 28.4059C10.2989 26.5509 11.031 22.0066 11.3845 19.8787C11.5503 18.8801 11.717 17.8816 11.8837 16.883C12.2767 14.5284 12.6831 12.0935 13.0722 9.69675C13.151 9.21188 13.313 9.04164 13.5636 8.94785H22.2739C23.7481 8.94785 25.0757 9.42666 25.7646 9.8367C27.1682 10.6721 27.7849 11.8925 27.6497 13.5675C27.6364 13.7327 27.618 13.8963 27.5985 14.0694C27.5907 14.1393 27.5828 14.2092 27.5753 14.2791C27.5416 14.4207 27.5094 14.5626 27.4771 14.7044C27.3566 15.2354 27.2427 15.7369 27.0549 16.2209C26.4202 17.8576 25.435 19.0204 24.0431 19.7755C22.8976 20.397 21.5766 20.7292 20.0047 20.7912C19.3737 20.816 18.7248 20.8121 18.0973 20.8083C17.7707 20.8063 17.433 20.8042 17.0995 20.8062C16.1799 20.8116 15.5549 21.3331 15.4276 22.2011C15.3582 22.6747 15.2763 23.1572 15.1972 23.6239C15.1702 23.7831 15.1433 23.9421 15.1167 24.1013L15.03 24.6204C14.9009 25.3951 14.7673 26.1963 14.6315 26.9828C14.5562 27.4183 14.4744 27.8614 14.3953 28.2901C14.383 28.3565 14.3707 28.4229 14.3585 28.4893C14.0505 28.4895 13.7209 28.4895 13.3793 28.4896ZM30.4541 16.6078C30.185 15.4787 29.5616 14.6345 28.6011 14.0917C28.6177 13.9435 28.6341 13.7924 28.6464 13.6399C28.8103 11.6094 28.0194 10.0597 26.296 9.03387C25.4947 8.55696 23.9605 8 22.2739 8H13.3982L13.3228 8.02327C13.065 8.10284 12.2803 8.34497 12.0842 9.55249C11.6955 11.9473 11.2892 14.3812 10.8964 16.7349C10.7297 17.7336 10.563 18.7324 10.397 19.7312C10.0432 21.8612 9.31088 26.4073 9.0124 28.263C8.96477 28.559 9.05568 28.8588 9.26185 29.0856C9.46732 29.3117 9.76535 29.4411 10.08 29.4411H10.0836C11.0944 29.438 12.3084 29.4377 13.3795 29.4375C13.667 29.4374 13.9456 29.4373 14.2103 29.4372C14.1913 29.5505 14.1725 29.6637 14.1533 29.7769C14.0986 30.0997 14.0421 30.4335 13.9904 30.7639C13.9358 31.1129 14.0198 31.4313 14.2269 31.6603C14.4195 31.8734 14.7037 31.9918 15.027 31.9938C15.73 31.9979 16.4044 32 17.0595 32C17.7338 32 18.3876 31.9978 19.0305 31.9934C19.6557 31.9891 20.1898 31.5866 20.3595 30.9917C20.4098 30.8155 20.4386 30.6444 20.4665 30.4789C20.5471 30 20.6268 29.521 20.7065 29.042C20.8674 28.0742 21.0338 27.0734 21.206 26.0916C21.283 25.6525 21.4148 25.5917 21.859 25.5947C22.604 25.6006 23.4845 25.5861 24.3659 25.4321C25.9506 25.1554 27.2015 24.5854 28.1902 23.6897C29.2144 22.7619 29.9049 21.5505 30.3013 19.9864C30.5311 19.0794 30.7562 17.8757 30.4541 16.6078Z" fill="black"/>
</svg>
