<svg width="40" height="40" viewBox="0 0 40 40" fill="none" xmlns="http://www.w3.org/2000/svg">
<path d="M20 8C24.3333 8 28.5 11 28.5 15C29.1667 15.6667 29.5 16.6667 29.5 18C29.5 19.3333 29 20.3333 28 21L27.0008 23V25.9999C30.3336 27.1958 32 28.5345 32 30.016V32H8V30.016C8 28.5344 9.66667 27.1957 13 25.9999V23L12 21C11 20.3333 10.5 19.3333 10.5 18C10.5 16.6667 10.8333 15.6667 11.5 15C11.5 11 15.6667 8 20 8ZM20 12C17.5904 12 15.6263 13.4912 15.5058 14.8672L15.5 15V16.6569L14.52 17.636L14.5068 17.7736L14.502 17.86L15.1027 18.261L17 22.0557V28H23L23.0008 22.0564L24.8968 18.2614L25.497 17.86L25.4858 17.6848L25.479 17.636L24.5 16.6569V15C24.5 13.5889 22.4874 12 20 12Z" fill="black"/>
</svg>
