<svg width="40" height="40" viewBox="0 0 40 40" fill="none" xmlns="http://www.w3.org/2000/svg">
<path d="M20 8C23.866 8 27 11.134 27 15C27 17.3532 25.8388 19.4352 24.0582 20.7043C28.5978 22.3346 31.8697 26.6243 31.9962 31.695L32 32H8C8 26.7967 11.3117 22.3669 15.9424 20.7034C14.1612 19.4352 13 17.3532 13 15C13 11.134 16.134 8 20 8ZM20 22C15.226 22 11.2334 25.3453 10.2384 29.8196L10.2 30H29.799L29.7659 29.8377C28.7965 25.4366 24.9288 22.1318 20.2799 22.0038L20 22ZM20 10C17.2386 10 15 12.2386 15 15C15 17.7614 17.2386 20 20 20C22.7614 20 25 17.7614 25 15C25 12.2386 22.7614 10 20 10Z" fill="black"/>
</svg>
