<svg width="40" height="40" viewBox="0 0 40 40" fill="none" xmlns="http://www.w3.org/2000/svg">
<path d="M20 8C24.3333 8 26.5 10 26.5 14C27.1667 14.6667 27.5 15.6667 27.5 17C27.5 18.3333 27 19.3333 26 20L25.0008 22V23.2731L28.8079 25.2891C30.7718 26.3291 32 28.3693 32 30.5916V32H8V30.5918C8 28.3694 9.22835 26.3291 11.1924 25.2892L15 23.2731V22L14 20C13 19.3333 12.5 18.3333 12.5 17C12.5 15.6667 12.8333 14.6667 13.5 14C13.5 10 15.6667 8 20 8ZM20 10C16.8229 10 15.5665 11.0826 15.5026 13.7779L15.5 14V14.8284L14.9142 15.4142C14.6641 15.6643 14.5 16.1566 14.5 17C14.5 17.6273 14.6546 17.9888 15.008 18.2631L15.1094 18.3359L15.5513 18.6305L17 21.5279V24.4772L12.1282 27.0567C11.0153 27.646 10.2567 28.7172 10.0542 29.9351L10.045 29.999H29.954L29.9458 29.9349C29.7552 28.7887 29.0721 27.7725 28.0646 27.1656L27.8719 27.0566L23.0008 24.4771V21.5282L24.4484 18.6307L24.8906 18.3359C25.316 18.0523 25.5 17.6843 25.5 17C25.5 16.2269 25.3621 15.7488 25.1465 15.4819L25.0858 15.4142L24.5 14.8284V14C24.5 11.1419 23.2629 10 20 10Z" fill="black"/>
</svg>
