<svg width="40" height="40" viewBox="0 0 40 40" fill="none" xmlns="http://www.w3.org/2000/svg">
<path d="M17.5557 23.7714C17.6022 23.7714 17.6484 23.7779 17.6931 23.7907L23.1619 25.3532C23.4274 25.429 23.5811 25.7058 23.5053 25.9713C23.4784 26.0655 23.4243 26.1498 23.3499 26.2136L17.8811 30.9011C17.6715 31.0808 17.3558 31.0565 17.1761 30.8468C17.0984 30.7562 17.0557 30.6408 17.0557 30.5215V24.2714C17.0557 23.9953 17.2796 23.7714 17.5557 23.7714ZM30.8379 8.2765C30.8859 8.37247 30.9017 8.48134 30.8831 8.587L28.244 23.542C28.148 24.0859 27.6293 24.449 27.0854 24.353C27.0592 24.3484 27.0333 24.3428 27.0076 24.3361L21.6485 22.9429C21.31 22.8549 21.0421 22.5966 20.942 22.2615L20.5756 21.0362C20.5028 20.7926 20.2587 20.6424 20.0084 20.6872L15.7237 21.4544C15.3129 21.5279 14.8913 21.5149 14.4858 21.4163L8.38191 19.9312C8.1136 19.8659 7.94901 19.5955 8.01429 19.3272C8.04906 19.1843 8.14497 19.0639 8.27651 18.9982L30.1671 8.0529C30.4141 7.9294 30.7144 8.02951 30.8379 8.2765Z" fill="black"/>
</svg>
