<svg width="40" height="40" viewBox="0 0 40 40" fill="none" xmlns="http://www.w3.org/2000/svg">
<path fill-rule="evenodd" clip-rule="evenodd" d="M18.4802 8C17.6435 8 16.9466 8.64131 16.8771 9.47507L16.8442 9.86951C16.811 10.2684 16.5405 10.606 16.1708 10.7594C15.8008 10.9129 15.374 10.8639 15.0683 10.6052L14.766 10.3495C14.1275 9.80913 13.1813 9.84849 12.5898 10.44L10.4401 12.5897C9.84859 13.1812 9.80924 14.1273 10.3496 14.7659L10.6052 15.068C10.864 15.3738 10.9129 15.8007 10.7594 16.1707C10.606 16.5405 10.2684 16.811 9.86943 16.8442L9.47507 16.8771C8.64131 16.9466 8 17.6435 8 18.4802V21.5198C8 22.3565 8.64131 23.0534 9.47507 23.1229L9.86953 23.1558C10.2684 23.189 10.606 23.4595 10.7594 23.8292C10.9128 24.1992 10.8639 24.6259 10.6052 24.9317L10.3494 25.234C9.80896 25.8727 9.84832 26.819 10.4399 27.4106L12.5893 29.56C13.1809 30.1516 14.1272 30.1909 14.7658 29.6505L15.0681 29.3948C15.3739 29.136 15.8007 29.0871 16.1707 29.2406C16.5405 29.394 16.811 29.7316 16.8442 30.1306L16.8771 30.5249C16.9466 31.3587 17.6435 32 18.4802 32H21.5198C22.3565 32 23.0534 31.3587 23.1229 30.5249L23.1558 30.1306C23.189 29.7316 23.4595 29.394 23.8293 29.2406C24.1993 29.0871 24.6261 29.136 24.9319 29.3948L25.2342 29.6506C25.8729 30.191 26.8192 30.1517 27.4108 29.5601L29.5601 27.4108C30.1518 26.8191 30.1911 25.8728 29.6507 25.2341L29.3948 24.9317C29.1361 24.6259 29.0872 24.1992 29.2406 23.8292C29.394 23.4595 29.7316 23.189 30.1305 23.1558L30.5249 23.1229C31.3587 23.0534 32 22.3565 32 21.5198V18.4802C32 17.6435 31.3587 16.9466 30.5249 16.8771L30.1306 16.8442C29.7316 16.811 29.394 16.5405 29.2406 16.1707C29.0871 15.8007 29.136 15.3739 29.3948 15.068L29.6505 14.7658C30.1908 14.1272 30.1515 13.181 29.56 12.5895L27.4104 10.4399C26.8189 9.84839 25.8726 9.80903 25.234 10.3494L24.9317 10.6052C24.6259 10.8639 24.1992 10.9128 23.8292 10.7594C23.4595 10.606 23.189 10.2684 23.1558 9.86952L23.1229 9.47507C23.0534 8.64131 22.3565 8 21.5198 8H18.4802ZM16.4368 27.1646C15.9246 26.9094 15.2983 26.9475 14.8739 27.3315C14.3784 27.7797 13.6186 27.7607 13.1462 27.2883L12.7115 26.8537C12.2391 26.3813 12.2201 25.6214 12.6683 25.1259C13.0523 24.7015 13.0905 24.0752 12.8352 23.5629C12.6724 23.2362 12.5313 22.8967 12.4138 22.5464C12.2318 22.004 11.7621 21.5881 11.1907 21.5595C10.5237 21.5262 10 20.9757 10 20.3078V19.6922C10 19.0243 10.5237 18.4738 11.1907 18.4405C11.7621 18.4119 12.2318 17.996 12.4138 17.4536C12.5314 17.1032 12.6725 16.7637 12.8354 16.4368C13.0906 15.9246 13.0525 15.2983 12.6685 14.8739C12.2203 14.3784 12.2393 13.6186 12.7117 13.1462L13.1463 12.7115C13.6187 12.2391 14.3786 12.2201 14.8741 12.6683C15.2985 13.0523 15.9248 13.0905 16.4371 12.8352C16.7638 12.6724 17.1033 12.5313 17.4536 12.4138C17.996 12.2318 18.4119 11.7621 18.4405 11.1907C18.4738 10.5237 19.0243 10 19.6922 10H20.3078C20.9757 10 21.5262 10.5237 21.5595 11.1907C21.5881 11.7621 22.004 12.2318 22.5464 12.4138C22.8967 12.5313 23.2362 12.6724 23.5629 12.8353C24.0752 13.0905 24.7015 13.0523 25.1259 12.6684C25.6213 12.2201 26.3812 12.2391 26.8536 12.7115L27.2883 13.1462C27.7607 13.6186 27.7797 14.3785 27.3315 14.8739C26.9475 15.2983 26.9094 15.9246 27.1646 16.4368C27.3275 16.7636 27.4686 17.1032 27.5862 17.4536C27.7682 17.996 28.2379 18.4119 28.8093 18.4405C29.4763 18.4738 30 19.0243 30 19.6922V20.3078C30 20.9757 29.4763 21.5262 28.8093 21.5595C28.2379 21.5881 27.7682 22.004 27.5862 22.5464C27.4687 22.8967 27.3276 23.2362 27.1647 23.563C26.9095 24.0752 26.9477 24.7015 27.3316 25.1259C27.7799 25.6213 27.7609 26.3812 27.2885 26.8536L26.8538 27.2883C26.3814 27.7607 25.6215 27.7797 25.1261 27.3315C24.7017 26.9475 24.0754 26.9094 23.5632 27.1646C23.2364 27.3275 22.8968 27.4686 22.5464 27.5862C22.004 27.7682 21.5881 28.2379 21.5595 28.8093C21.5262 29.4763 20.9757 30 20.3078 30H19.6922C19.0243 30 18.4738 29.4763 18.4405 28.8093C18.4119 28.2379 17.996 27.7682 17.4536 27.5862C17.1032 27.4686 16.7637 27.3275 16.4368 27.1646ZM25 20C25 22.7614 22.7614 25 20 25C17.2386 25 15 22.7614 15 20C15 17.2386 17.2386 15 20 15C22.7614 15 25 17.2386 25 20ZM23 20C23 21.6569 21.6569 23 20 23C18.3431 23 17 21.6569 17 20C17 18.3431 18.3431 17 20 17C21.6569 17 23 18.3431 23 20Z" fill="black"/>
</svg>
