<svg width="40" height="40" viewBox="0 0 40 40" fill="none" xmlns="http://www.w3.org/2000/svg">
<path d="M31.9563 13.7292L30.242 8.58631C30.1254 8.2361 29.7977 7.9999 29.4286 8H10.5714C10.2023 7.9999 9.87463 8.2361 9.75801 8.58631L8.04369 13.7292C8.01728 13.8092 8.00251 13.8926 8 13.9769C8 13.9854 8 13.9914 8 14V14.8572C8.00311 16.2001 8.63819 17.4634 9.71427 18.2669C9.71427 18.2738 9.71427 18.2789 9.71427 18.2857V29.4286C9.71427 30.8487 10.8655 32 12.2857 32H27.7143C29.1344 32 30.2857 30.8487 30.2857 29.4286V18.2857C30.2857 18.2788 30.2857 18.2737 30.2857 18.2669C31.3618 17.4634 31.9969 16.2001 32 14.8572V14C32 13.9914 32 13.9854 32 13.9769C31.9974 13.8926 31.9827 13.8092 31.9563 13.7292ZM26 9.71427H28.8106L29.954 13.1429H26V9.71427ZM20.8571 9.71427H24.2857V13.1429H20.8571V9.71427ZM15.7143 9.71427H19.1429V13.1429H15.7143V9.71427ZM11.1894 9.71427H14V13.1429H10.046L11.1894 9.71427ZM21.7143 30.2857H18.2857V23.4286H21.7143V30.2857ZM28.5714 29.4286C28.5714 29.902 28.1877 30.2857 27.7143 30.2857H23.4286V22.5715C23.4286 22.098 23.0448 21.7143 22.5714 21.7143H17.4285C16.9551 21.7143 16.5714 22.098 16.5714 22.5715V30.2857H12.2857C11.8123 30.2857 11.4285 29.902 11.4285 29.4286V19.0571C12.6314 19.3041 13.8823 19.017 14.8571 18.2703C16.3872 19.3941 18.4699 19.3941 20 18.2703C21.5301 19.3941 23.6127 19.3941 25.1428 18.2703C26.1177 19.0171 27.3685 19.3041 28.5714 19.0571V29.4286ZM27.7143 17.4285C26.973 17.4281 26.2691 17.103 25.7882 16.5388C25.4768 16.1824 24.9353 16.1459 24.5788 16.4574C24.5499 16.4827 24.5227 16.5099 24.4974 16.5388C23.5443 17.6026 21.9095 17.6922 20.8457 16.7392C20.7754 16.6761 20.7085 16.6093 20.6454 16.5388C20.31 16.1824 19.7491 16.1653 19.3926 16.5008C19.3795 16.5131 19.3668 16.5258 19.3546 16.5388C18.4015 17.6026 16.7666 17.6922 15.7029 16.7392C15.6325 16.6761 15.5656 16.6093 15.5025 16.5388C15.1671 16.1824 14.6062 16.1653 14.2497 16.5008C14.2367 16.5131 14.224 16.5258 14.2117 16.5388C13.7308 17.103 13.027 17.4281 12.2857 17.4285C10.8655 17.4285 9.71427 16.2773 9.71427 14.8571H30.2857C30.2857 16.2773 29.1344 17.4285 27.7143 17.4285Z" fill="black"/>
</svg>
