<svg width="40" height="40" viewBox="0 0 40 40" fill="none" xmlns="http://www.w3.org/2000/svg">
<path d="M21.6086 31.1858L21.3552 32H11L11.2534 31.1858H11.8147C12.5629 31.1858 13.1965 31.0531 13.7155 30.7876C14.2345 30.5221 14.5875 30.2153 14.7746 29.8673C14.9616 29.5192 15.2362 28.7552 15.5983 27.5752L20.3233 12.3009C20.6974 11.1209 20.8845 10.3835 20.8845 10.0885C20.8845 9.23893 20.106 8.81416 18.5491 8.81416H17.8974L18.1509 8H27.8L27.5466 8.81416H27.0397C26.4603 8.81416 25.9353 8.91445 25.4647 9.11504C24.994 9.31564 24.6591 9.59292 24.4599 9.9469C24.2608 10.3009 23.9319 11.2153 23.4733 12.6903L18.8931 27.3982C18.5431 28.5192 18.3681 29.2271 18.3681 29.5221C18.3681 30.1003 18.6246 30.5221 19.1375 30.7876C19.6504 31.0531 20.2388 31.1858 20.9026 31.1858H21.6086Z" fill="black"/>
</svg>
