<svg width="40" height="40" viewBox="0 0 40 40" fill="none" xmlns="http://www.w3.org/2000/svg">
<path d="M11 32V8H19.9021C23.0908 8 25.5163 8.56593 27.1787 9.6978C28.8411 10.8297 29.6723 12.4725 29.6723 14.6264C29.6723 15.8681 29.3773 16.9286 28.7872 17.8077C28.1972 18.6868 27.3291 19.3352 26.183 19.7527C27.4766 20.0824 28.4695 20.6978 29.1617 21.5989C29.8539 22.5 30.2 23.5989 30.2 24.8956C30.2 27.2473 29.4312 29.0137 27.8936 30.1951C26.356 31.3764 24.078 31.978 21.0596 32H11ZM16.9745 21.7967V27.5494H20.8894C21.9674 27.5494 22.7957 27.3104 23.3745 26.8324C23.9532 26.3544 24.2426 25.6813 24.2426 24.8132C24.2426 22.8132 23.2156 21.8077 21.1617 21.7967H16.9745ZM16.9745 18.0055H20.0894C21.3943 17.9945 22.3248 17.7637 22.8809 17.3132C23.4369 16.8626 23.7149 16.1978 23.7149 15.3187C23.7149 14.3077 23.4142 13.5797 22.8128 13.1346C22.2113 12.6896 21.2411 12.467 19.9021 12.467H16.9745V18.0055Z" fill="black"/>
</svg>
