<svg width="40" height="40" viewBox="0 0 40 40" fill="none" xmlns="http://www.w3.org/2000/svg">
<path d="M9.71429 8H30.2857C31.2325 8 32 8.76751 32 9.71429C32 10.6611 31.2325 11.4286 30.2857 11.4286H9.71429C8.76751 11.4286 8 10.6611 8 9.71429C8 8.76751 8.76751 8 9.71429 8ZM14.2143 14.8571H25.7857C26.7325 14.8571 27.5 15.6247 27.5 16.5714C27.5 17.5182 26.7325 18.2857 25.7857 18.2857H14.2143C13.2675 18.2857 12.5 17.5182 12.5 16.5714C12.5 15.6247 13.2675 14.8571 14.2143 14.8571ZM9.71429 21.7143H30.2857C31.2325 21.7143 32 22.4818 32 23.4286C32 24.3753 31.2325 25.1429 30.2857 25.1429H9.71429C8.76751 25.1429 8 24.3753 8 23.4286C8 22.4818 8.76751 21.7143 9.71429 21.7143ZM14.2143 28.5714H25.7857C26.7325 28.5714 27.5 29.3389 27.5 30.2857C27.5 31.2325 26.7325 32 25.7857 32H14.2143C13.2675 32 12.5 31.2325 12.5 30.2857C12.5 29.3389 13.2675 28.5714 14.2143 28.5714Z" fill="black"/>
</svg>
