<svg width="40" height="40" viewBox="0 0 40 40" fill="none" xmlns="http://www.w3.org/2000/svg">
<path d="M30.2 30.5882V32H11V30.5882H30.2ZM16.2144 8V21.2033C16.2144 22.6137 16.5916 23.7095 17.3461 24.4907C18.1006 25.2718 19.1759 25.6624 20.5721 25.6624C21.9857 25.6624 23.0675 25.274 23.8177 24.4974C24.5678 23.7207 24.9429 22.6271 24.9429 21.2166V8H27.4534V21.2568C27.4448 23.0958 26.8832 24.6 25.7689 25.7695C24.6545 26.939 23.1434 27.5951 21.2355 27.7379L20.5721 27.7647C18.4995 27.7647 16.8475 27.1889 15.616 26.0373C14.3846 24.8857 13.7602 23.3011 13.7429 21.2836V8H16.2144Z" fill="black"/>
</svg>
