<svg width="40" height="40" viewBox="0 0 40 40" fill="none" xmlns="http://www.w3.org/2000/svg">
<path fill-rule="evenodd" clip-rule="evenodd" d="M8.75517 13H15.1712V27.3048H8.75517C8.33813 27.3048 8 26.9667 8 26.5496V22.7216C8 22.3045 8.33813 21.9664 8.75517 21.9664C9.75544 21.9664 10.5692 21.1527 10.5692 20.1524C10.5692 19.1521 9.75544 18.3383 8.75517 18.3383C8.33813 18.3383 8 18.0002 8 17.5831V13.7552C8 13.3381 8.33813 13 8.75517 13ZM31.9996 17.5831C31.9996 18.0002 31.6615 18.3383 31.2444 18.3383C30.2442 18.3383 29.4304 19.1521 29.4304 20.1524C29.4304 21.1527 30.2442 21.9665 31.2444 21.9665C31.6615 21.9665 31.9996 22.3045 31.9996 22.7216V26.5496C31.9996 26.9667 31.6615 27.3048 31.2444 27.3048H16.6812V13H31.2444C31.6615 13 31.9996 13.3381 31.9996 13.7552V17.5831Z" fill="black"/>
</svg>
