<svg width="40" height="40" viewBox="0 0 40 40" fill="none" xmlns="http://www.w3.org/2000/svg">
<path fill-rule="evenodd" clip-rule="evenodd" d="M32 22.6545H31.0625C30.0286 22.6545 29.1875 23.4956 29.1875 24.5295C29.1875 25.5633 30.0286 26.4045 31.0625 26.4045H31.9999V32.0295H8V26.4045H8.93752C9.9714 26.4045 10.8125 25.5634 10.8125 24.5295C10.8125 23.4956 9.9714 22.6545 8.93752 22.6545H8V17.0295H8.02394L8.02196 17.0253L27.1567 8L29.544 13.0747L28.7455 13.4906C28.1218 13.8154 27.7344 14.4529 27.7344 15.1545C27.7344 16.1884 28.5755 17.0295 29.6094 17.0295H32V22.6545ZM21.993 13.5183C21.5323 13.735 20.9853 13.5434 20.7576 13.0914L12.4084 17.0295H26.3639C26.0437 16.4775 25.8593 15.8373 25.8593 15.1545C25.8593 14.0607 26.3297 13.0448 27.1275 12.3427L26.259 10.4966L22.4512 12.2926C22.6556 12.7566 22.4544 13.3013 21.993 13.5183ZM30.1249 30.1545V28.1608C28.5093 27.7435 27.3125 26.2737 27.3124 24.5295C27.3124 22.7853 28.5093 21.3154 30.1249 20.8981V18.9045H25.9062C25.9062 19.4222 25.4865 19.8419 24.9687 19.8419C24.4509 19.8419 24.0312 19.4222 24.0312 18.9045H9.875V20.8981C11.4906 21.3154 12.6875 22.7853 12.6875 24.5295C12.6875 26.2736 11.4906 27.7435 9.875 28.1608V30.1545H24.0313C24.0313 29.6367 24.451 29.217 24.9687 29.217C25.4865 29.217 25.9062 29.6367 25.9062 30.1545H30.1249ZM22.8121 16.1857C23.3298 16.1857 23.7496 15.766 23.7496 15.2482C23.7496 14.7305 23.3298 14.3108 22.8121 14.3108C22.2943 14.3108 21.8746 14.7305 21.8746 15.2482C21.8746 15.766 22.2943 16.1857 22.8121 16.1857ZM24.9686 28.2794C25.4863 28.2794 25.906 27.8596 25.906 27.3419C25.906 26.8241 25.4863 26.4044 24.9686 26.4044C24.4508 26.4044 24.0311 26.8241 24.0311 27.3419C24.0311 27.8596 24.4508 28.2794 24.9686 28.2794ZM24.9686 22.6545C25.4863 22.6545 25.906 22.2348 25.906 21.7171C25.906 21.1993 25.4863 20.7796 24.9686 20.7796C24.4508 20.7796 24.0311 21.1993 24.0311 21.7171C24.0311 22.2348 24.4508 22.6545 24.9686 22.6545ZM25.906 24.5295C25.906 25.0472 25.4863 25.467 24.9686 25.467C24.4508 25.467 24.0311 25.0472 24.0311 24.5295C24.0311 24.0117 24.4508 23.592 24.9686 23.592C25.4863 23.592 25.906 24.0117 25.906 24.5295Z" fill="black"/>
</svg>
