<svg width="40" height="40" viewBox="0 0 40 40" fill="none" xmlns="http://www.w3.org/2000/svg">
<path d="M21.8377 8C23.129 8 24.2754 8.82629 24.6838 10.0513L25.333 12H31C31.5523 12 32 12.4477 32 13C32 13.5523 31.5523 14 31 14H29.8L28.2701 29.2985C28.1168 30.8321 26.8263 32 25.285 32H14.715C13.1737 32 11.8832 30.8321 11.7299 29.2985L10.2 14H9C8.44772 14 8 13.5523 8 13C8 12.4477 8.44772 12 9 12H14.666L15.3162 10.0513C15.7246 8.82629 16.871 8 18.1623 8H21.8377ZM27.789 14H12.21L13.7199 29.0995C13.7671 29.5714 14.1373 29.9394 14.598 29.9932L14.715 30H25.285C25.7593 30 26.1623 29.6683 26.2617 29.2152L26.2801 29.0995L27.789 14ZM20 16C20.5523 16 21 16.4477 21 17V27C21 27.5523 20.5523 28 20 28C19.4477 28 19 27.5523 19 27V17C19 16.4477 19.4477 16 20 16ZM24 16C24.5523 16 25 16.4477 25 17V27C25 27.5523 24.5523 28 24 28C23.4477 28 23 27.5523 23 27V17C23 16.4477 23.4477 16 24 16ZM16 16C16.5523 16 17 16.4477 17 17V27C17 27.5523 16.5523 28 16 28C15.4477 28 15 27.5523 15 27V17C15 16.4477 15.4477 16 16 16ZM21.8377 10H18.1623C17.771 10 17.4196 10.2276 17.2567 10.5758L17.2136 10.6838L16.774 12H23.225L22.7864 10.6838C22.6627 10.3126 22.3356 10.0512 21.9538 10.0067L21.8377 10Z" fill="black"/>
</svg>
