<svg width="40" height="40" viewBox="0 0 40 40" fill="none" xmlns="http://www.w3.org/2000/svg">
<path fill-rule="evenodd" clip-rule="evenodd" d="M25.5681 10.2724C25.2342 8.93689 24.0343 8 22.6577 8H17.3423C15.9657 8 14.7658 8.93689 14.4319 10.2724L14.249 11H10C8.89543 11 8 11.8954 8 13C8 14.1046 8.89543 15 10 15H10.381L11.8276 30.1896C11.9253 31.2161 12.7875 32 13.8186 32H26.1814C27.2125 32 28.0747 31.2161 28.1724 30.1896L29.619 15H30C31.1046 15 32 14.1046 32 13C32 11.8954 31.1046 11 30 11H25.75L25.5681 10.2724ZM20 18C18.8954 18 18 18.8954 18 20V24C18 25.1046 18.8954 26 20 26C21.1046 26 22 25.1046 22 24V20C22 18.8954 21.1046 18 20 18Z" fill="black"/>
</svg>
