<svg width="40" height="40" viewBox="0 0 40 40" fill="none" xmlns="http://www.w3.org/2000/svg">
<path d="M32 12.2702C31.1193 12.6578 30.1667 12.9159 29.1736 13.0316C30.191 12.4314 30.9685 11.4812 31.339 10.35C30.3874 10.9037 29.3325 11.3101 28.2129 11.5277C27.313 10.5854 26.0334 10 24.6182 10C21.8991 10 19.6963 12.1684 19.6963 14.846C19.6963 15.2237 19.7388 15.5926 19.8228 15.9495C15.7321 15.7458 12.1039 13.8167 9.6764 10.882C9.25426 11.5969 9.0113 12.4324 9.0113 13.3193C9.0113 14.9983 9.87785 16.4844 11.2009 17.3526C10.3941 17.3298 9.6359 17.1084 8.9698 16.7484V16.8078C8.9698 19.1571 10.6664 21.1179 12.9209 21.5608C12.5078 21.6716 12.0725 21.7309 11.6231 21.7309C11.3042 21.7309 10.9995 21.6993 10.6948 21.6429C11.3234 23.5681 13.1416 24.9712 15.2927 25.0137C13.6052 26.3139 11.4864 27.0891 9.17631 27.0891C8.77847 27.0891 8.38873 27.0674 8 27.0209C10.1846 28.4012 12.771 29.1992 15.5499 29.1992C24.605 29.1992 29.5583 21.81 29.5583 15.4047C29.5583 15.1931 29.5542 14.9845 29.5441 14.7768C30.5048 14.0985 31.34 13.2452 32 12.2702Z" fill="black"/>
</svg>
