<svg width="40" height="40" viewBox="0 0 40 40" fill="none" xmlns="http://www.w3.org/2000/svg">
<path d="M20.0918 10.34L20.533 10.3419C21.5359 10.3529 21.8336 10.4214 22.4387 10.7954C22.8329 11.0391 22.5569 11.5797 22.8802 11.7776C23.2669 12.0143 24.2664 11.8188 24.5256 12.1144C25.7331 13.4915 25.6945 15.3982 25.6945 16.8129C25.6945 19.2726 25.0158 20.7844 23.6585 21.3484L25.4418 22.7846L26.9576 23.7928C27.4961 24.1509 27.8196 24.7547 27.8196 25.4014V27.362C27.8196 27.9363 27.5641 28.4809 27.1224 28.8479C25.6961 30.033 23.3526 30.6256 20.0918 30.6256C16.8309 30.6256 14.4874 30.033 13.0611 28.8479C12.6194 28.4808 12.3639 27.9363 12.3639 27.362V25.4983C12.3639 24.7991 12.7418 24.1544 13.3519 23.8127L15.1876 22.7848L16.336 21.8284L16.8364 21.3193L16.7301 21.279C15.2927 20.6901 14.5464 19.2912 14.491 17.0823L14.4895 16.4111C14.5143 14.4346 14.8741 10.34 20.0918 10.34ZM17.8974 24.341L19.7615 28.6914C19.8701 28.6929 19.9803 28.6936 20.0918 28.6936L20.4212 28.6907L22.2855 24.3445C21.6502 24.6279 21.0064 24.7887 20.3547 24.8228L20.0918 24.8297C19.3474 24.8297 18.6155 24.6647 17.8974 24.341ZM24.3662 24.3902L22.5877 28.5426C24.1043 28.3377 25.2031 27.9308 25.8877 27.362V25.4014L24.3719 24.3932L24.3662 24.3902ZM15.9052 24.5969L14.2959 25.4983V27.362L14.4276 27.4656C15.1176 27.9801 16.172 28.3501 17.5939 28.5424L15.9052 24.5969ZM12.6041 18.8218C12.6772 19.6003 12.8325 20.3114 13.0705 20.9473L12.5595 21.3718C12.4685 21.4475 12.3708 21.5147 12.2676 21.5725L10.432 22.6004L10.432 26.7244C9.96364 26.5029 9.55204 26.2448 9.19722 25.9499C8.75552 25.5829 8.5 25.0383 8.5 24.464V22.6004C8.5 21.9011 8.87788 21.2564 9.48801 20.9147L11.3236 19.8868L12.6041 18.8218ZM27.3959 18.8218L28.6764 19.8868L30.512 20.9147C31.1221 21.2564 31.5 21.9011 31.5 22.6004V24.464C31.5 25.0383 31.2445 25.5829 30.8028 25.9499C30.448 26.2448 30.0364 26.5029 29.568 26.7244L29.568 22.6004L27.7324 21.5725C27.6292 21.5147 27.5315 21.4475 27.4405 21.3718L26.9295 20.9473C27.1675 20.3114 27.3228 19.6003 27.3959 18.8218ZM20.7645 12.2735L19.8654 12.2748C17.2763 12.3409 16.5113 13.566 16.4277 16.165L16.4198 16.624L16.4221 17.0407C16.4546 18.516 16.8109 19.2092 17.4469 19.4842L17.6925 19.5802C18.838 20.0797 19.1861 21.5107 18.4837 22.4775C19.0308 22.7608 19.5669 22.8978 20.0918 22.8978C20.7041 22.8978 21.3358 22.7114 21.9891 22.3261C21.4468 21.4031 21.7607 20.1459 22.7763 19.6293L22.9836 19.5328C23.4423 19.2859 23.7625 18.4961 23.7625 16.8129L23.7558 15.902C23.7452 15.4643 23.7205 15.1647 23.6695 14.8421C23.6069 14.4451 23.5094 14.1145 23.3718 13.8379C23.2056 13.8273 23.0832 13.8153 22.9378 13.7937C22.556 13.737 22.2159 13.6362 21.8716 13.4254C21.4127 13.1445 21.102 12.739 20.9298 12.2782L20.7645 12.2735ZM16.2278 9.37402L16.669 9.37592C16.7877 9.37722 16.8965 9.37932 16.997 9.38264C16.2222 9.63852 15.5892 9.97704 15.0959 10.398C14.6321 10.794 14.3176 11.215 14.1248 11.495C13.0609 11.7344 12.5966 12.2456 12.5638 13.267L12.5559 13.726L12.5581 14.1428C12.5694 14.6543 12.6196 15.0718 12.7069 15.4104C12.6295 15.8963 12.586 16.4053 12.5672 16.943L12.5577 17.3518L12.559 18.0516C12.5606 18.1152 12.5627 18.1784 12.5652 18.2412C11.3247 17.5861 10.6784 16.2339 10.6271 14.1844L10.6256 13.5131C10.6613 10.668 12.6474 9.37402 16.2278 9.37402ZM23.7722 9.37402C27.3526 9.37402 29.3387 10.668 29.3744 13.5131L29.3729 14.1844C29.3216 16.2339 28.6753 17.5861 27.4347 18.2412C27.4373 18.1784 27.4394 18.1152 27.441 18.0516L27.4423 17.3518L27.4328 16.943C27.414 16.4053 27.3705 15.8963 27.2931 15.4104C27.3804 15.0718 27.4306 14.6543 27.4419 14.1428L27.4441 13.726L27.4362 13.267C27.4034 12.2456 26.9391 11.7344 25.8752 11.495C25.6824 11.215 25.3679 10.794 24.9041 10.398C24.4108 9.97704 23.7778 9.63852 23.003 9.38264C23.1035 9.37932 23.2123 9.37722 23.331 9.37592L23.7722 9.37402Z" fill="black"/>
</svg>
