<svg width="32" height="32" viewBox="0 0 32 32" fill="none" xmlns="http://www.w3.org/2000/svg">
<path d="M25.3197 6.65841C25.3211 6.65983 25.3225 6.66125 25.324 6.66267C25.6758 7.01506 25.6773 7.58539 25.3273 7.93962L17.3584 16.0054L25.3273 24.0713C25.6523 24.4002 25.6742 24.9155 25.394 25.2695L25.324 25.3482C25.3225 25.3496 25.3211 25.3511 25.3197 25.3525C24.9685 25.6994 24.4026 25.696 24.0556 25.3449L15.9933 17.1864L7.93168 25.3449C7.57809 25.698 7.01213 25.6976 6.66332 25.3482C6.31146 24.9958 6.30996 24.4255 6.65997 24.0713L14.6288 16.0054L6.65997 7.93962C6.30996 7.58539 6.31146 7.01506 6.66332 6.66267C7.01213 6.31333 7.57809 6.31291 7.92743 6.66172L7.93168 6.666L15.9933 14.8245L24.0556 6.666C24.4026 6.31484 24.9685 6.31144 25.3197 6.65841Z" fill="#254854"/>
</svg>
