<svg width="20" height="20" viewBox="0 0 20 20" fill="none" xmlns="http://www.w3.org/2000/svg">
<g clip-path="url(#clip0)">
<path d="M1.0346 20C0.771147 20 0.507698 19.8998 0.307537 19.6982C-0.0942928 19.2963 -0.0942928 18.6449 0.307537 18.2431L18.2492 0.301372C18.651 -0.100457 19.3025 -0.100457 19.7043 0.301372C20.1062 0.703201 20.1062 1.35467 19.7043 1.75675L1.76291 19.6982C1.56124 19.8986 1.29779 20 1.0346 20Z" fill="#6E7C8D"/>
<path d="M18.9775 20C18.7141 20 18.4509 19.8998 18.2505 19.6982L0.307537 1.75675C-0.0942928 1.35467 -0.0942928 0.703201 0.307537 0.301372C0.709366 -0.100457 1.36083 -0.100457 1.76291 0.301372L19.7043 18.2431C20.1062 18.6449 20.1062 19.2963 19.7043 19.6982C19.5027 19.8986 19.2395 20 18.9775 20Z" fill="#6E7C8D"/>
</g>
<defs>
<clipPath id="clip0">
<rect width="20" height="20" rx="5" fill="white"/>
</clipPath>
</defs>
</svg>
