<svg width="25" height="24" viewBox="0 0 25 24" fill="none" xmlns="http://www.w3.org/2000/svg">
<path d="M23.0035 0C23.5558 0 24.0035 0.447715 24.0035 1C24.0035 1.27373 23.8913 1.5355 23.6931 1.72425L15.3112 9.70442C15.1129 9.89317 15.0007 10.1549 15.0007 10.4287V22.9945C15.0007 23.5468 14.553 23.9945 14.0007 23.9945C13.8033 23.9945 13.6103 23.9361 13.446 23.8266L9.446 21.1599C9.1678 20.9744 9.0007 20.6622 9.0007 20.3279V10.4277C9.0007 10.1545 8.88894 9.89326 8.69138 9.70457L0.334709 1.72316C-0.0646799 1.3417 -0.0792189 0.708705 0.302235 0.309317C0.490918 0.111762 0.752209 0 1.02539 0H23.0035ZM20.1277 1.999H3.89391C3.81106 1.999 3.74391 2.06616 3.74391 2.149C3.74391 2.18998 3.76067 2.22917 3.7903 2.25747L10.0727 8.25826C10.616 8.77714 10.943 9.47905 10.9938 10.2237L11.0007 10.4277V19.6582C11.0007 19.7418 11.0425 19.8199 11.112 19.8662L12.612 20.8667C12.7268 20.9433 12.8821 20.9123 12.9587 20.7975C12.9861 20.7564 13.0007 20.7081 13.0007 20.6587V10.4287C13.0007 9.6759 13.2836 8.9533 13.7888 8.40194L13.9321 8.25592L20.2311 2.25763C20.2911 2.2005 20.2934 2.10555 20.2363 2.04556C20.208 2.01583 20.1687 1.999 20.1277 1.999Z" fill="#7096A1"/>
</svg>
