<svg width="26" height="25" viewBox="0 0 26 25" fill="none" xmlns="http://www.w3.org/2000/svg">
<path d="M24.0572 10.3267L13.8545 10.3262C13.404 10.3262 13.0388 10.6911 13.0388 11.1414V14.3988C13.0388 14.8489 13.404 15.214 13.8545 15.214H19.6C18.9709 16.8458 17.7966 18.2123 16.2985 19.0806L18.7483 23.3191C22.6783 21.0476 25.0017 17.062 25.0017 12.6005C25.0017 11.9652 24.9548 11.5111 24.8611 10.9997C24.7899 10.6112 24.4524 10.3267 24.0572 10.3267Z" fill="#167EE6"/>
<path d="M12.4906 20.1091C9.67882 20.1091 7.2242 18.5738 5.90587 16.3018L1.66504 18.7447C3.82317 22.4829 7.86604 25.0002 12.4906 25.0002C14.7592 25.0002 16.8998 24.3897 18.7439 23.3259V23.32L16.294 19.0815C15.1734 19.7311 13.8766 20.1091 12.4906 20.1091Z" fill="#12B347"/>
<path d="M18.7558 23.3239V23.3181L16.3063 19.0796C15.1859 19.7291 13.8894 20.1072 12.5034 20.1072V24.9983C14.7717 24.9983 16.9122 24.3878 18.7558 23.3239Z" fill="#0F993E"/>
<path d="M4.8932 12.4998C4.8932 11.1147 5.27138 9.81883 5.92109 8.69892L1.68088 6.25598C0.610686 8.09314 0 10.2267 0 12.4998C0 14.773 0.610686 16.9065 1.68088 18.7437L5.92109 16.3008C5.27138 15.1809 4.8932 13.885 4.8932 12.4998Z" fill="#FFD500"/>
<path d="M12.4906 4.89105C14.3241 4.89105 16.0083 5.54219 17.3238 6.62529C17.6483 6.89246 18.12 6.87317 18.4173 6.57607L20.7266 4.26809C21.0639 3.93099 21.0399 3.37922 20.6796 3.06683C18.4755 1.15585 15.6078 0 12.4906 0C7.86604 0 3.82317 2.5173 1.66504 6.25548L5.90587 8.69842C7.22419 6.42642 9.67882 4.89105 12.4906 4.89105Z" fill="#FF4B26"/>
<path d="M17.3367 6.62529C17.6612 6.89246 18.1329 6.87317 18.4302 6.57607L20.7395 4.26809C21.0767 3.93099 21.0527 3.37922 20.6924 3.06683C18.4884 1.1558 15.6207 0 12.5034 0V4.89105C14.3369 4.89105 16.0212 5.54219 17.3367 6.62529Z" fill="#D93F21"/>
</svg>
