<svg width="32" height="32" viewBox="0 0 32 32" fill="none" xmlns="http://www.w3.org/2000/svg">
<path d="M16.1408 7.66592C17.3127 6.72131 18.5265 6.29343 20.18 6.42235L20.4367 6.44593L20.6097 6.46807C23.1287 6.82754 25.2256 9.08354 25.5777 12.3783L25.5999 12.6154L25.5975 13.6815C25.3067 17.4288 22.6132 21.0483 17.4056 24.8445L17.0698 25.0871L16.8084 25.289C16.3776 25.6744 15.7603 25.7001 15.2783 25.3938L15.1772 25.3231L14.8988 25.1047C9.59873 21.2705 6.81571 17.6511 6.4218 13.8617L6.3999 13.6196L6.40251 12.5508C6.68096 9.11246 8.91173 6.72711 11.5794 6.44478C13.3648 6.27489 14.6511 6.69989 15.8689 7.67654L15.9983 7.78273L16.1408 7.66592ZM20.2584 8.03649C18.7489 7.87233 17.8008 8.26689 16.7163 9.28625L16.5603 9.43613L15.9999 9.98633L15.4395 9.43613C14.3117 8.32901 13.33 7.88543 11.7394 8.03674C9.91348 8.23001 8.30894 9.89548 8.02179 12.3929L7.9999 12.6154L7.9975 13.5577C8.24432 16.738 10.6607 19.9989 15.5387 23.5915L15.8603 23.8263L15.9727 23.9139L16.1117 23.8061C21.1112 20.2269 23.6406 16.9578 23.9808 13.8238L23.9999 13.6196L24.0025 12.6799C23.7913 10.0714 22.233 8.33695 20.4212 8.0576L20.2584 8.03649Z" fill="#254854"/>
</svg>
