<?xml version="1.0" encoding="utf-8"?>
<!-- Generator: Adobe Illustrator 24.2.1, SVG Export Plug-In . SVG Version: 6.00 Build 0)  -->
<svg version="1.1" id="Layer_1" xmlns="http://www.w3.org/2000/svg" xmlns:xlink="http://www.w3.org/1999/xlink" x="0px" y="0px"
	 viewBox="0 0 11 13" style="enable-background:new 0 0 11 13;" xml:space="preserve">
<style type="text/css">
	.st0{fill:#FFFFFF;}
</style>
<desc>Created with Sketch.</desc>
<path class="st0" d="M9.8,0.6H1.4C1,0.6,0.7,1,0.7,1.4v10.2c0,0.3,0.2,0.6,0.5,0.7c0.3,0.1,0.6,0,0.8-0.2l3.7-3.7l3.7,3.7
	c0.1,0.1,0.3,0.2,0.5,0.2c0.1,0,0.2,0,0.3-0.1c0.3-0.1,0.5-0.4,0.5-0.7V1.4C10.6,1,10.3,0.6,9.8,0.6z M9.1,2.1v7.7l-3-3
	c-0.3-0.3-0.8-0.3-1.1,0L2.1,9.8V2.1H9.1z"/>
</svg>
