<?xml version="1.0" encoding="UTF-8"?>
<svg width="32px" height="32px" viewBox="0 0 32 32" version="1.1" xmlns="http://www.w3.org/2000/svg" xmlns:xlink="http://www.w3.org/1999/xlink">
    <!-- Generator: Sketch 50.2 (55047) - http://www.bohemiancoding.com/sketch -->
    <title>Group 8</title>
    <desc>Created with Sketch.</desc>
    <defs></defs>
    <g id="Page-1" stroke="none" stroke-width="1" fill="none" fill-rule="evenodd">
        <g id="Event_Stands_" transform="translate(-527.000000, -721.000000)">
            <g id="Group-8" transform="translate(528.000000, 722.000000)">
                <g id="Group-9">
                    <rect id="Rectangle-2" stroke="#FFFFFF" fill="#FFF6CF" x="0" y="0" width="30" height="30" rx="3"></rect>
                    <g id="003-fire-1" transform="translate(7.105263, 4.736842)" fill-rule="nonzero">
                        <path d="M12.7924111,6.48786232 C12.3630387,6.01819404 11.6955196,5.38426887 11.4115383,6.81565037 C11.3149597,7.30233299 11.0893279,7.67749509 10.8959695,7.97956005 C10.6875609,6.92273587 10.0605243,5.82885914 9.46970472,5.09131586 C9.2486202,4.81537718 8.4641605,3.71843626 8.31345763,1.88330696 C8.29096287,1.60942451 7.96625755,1.48080903 7.7631608,1.66554763 C5.8222528,3.43084558 4.75691032,5.85873503 4.71735334,8.59203586 C4.71735334,8.59203586 3.90915139,7.90948678 3.47008091,6.63970116 C3.35185261,6.29776137 2.89431147,6.23252631 2.6958022,6.53487349 C2.6576939,6.59293189 2.62236222,6.65107093 2.59049128,6.7075166 C1.0929998,9.36046299 0.37264414,12.5820995 1.03859385,15.5793645 C2.15206467,20.5988761 9.51755137,22.002196 13.4168722,18.8473267 C17.2319283,15.7607163 16.019223,10.0157972 12.7924111,6.48786232 Z" id="Shape" fill="#ED694A"></path>
                        <g id="Group" transform="translate(0.789474, 1.578947)" fill="#D8553A">
                            <path d="M1.28975021,14.2769346 C0.633990543,11.2647379 1.32811678,8.03011924 2.78496402,5.35087377 C2.74812089,5.26199322 2.71268092,5.17006579 2.6795662,5.07449013 C2.56178043,4.73448294 2.10595189,4.66961657 1.90818565,4.97025493 C1.87021998,5.0279852 1.83506065,5.08579564 1.803309,5.14192229 C0.311422697,7.77987459 -0.406236637,10.9833028 0.257220395,13.9636277 C0.763202097,16.2402046 2.56518812,17.7682124 4.74414474,18.4597327 C3.04430921,17.6363148 1.71314556,16.2247697 1.28975021,14.2769346 Z" id="Shape"></path>
                            <path d="M4.95983141,6.96571752 C5.04037315,4.49907175 5.93254626,2.28728104 7.5293493,0.588167146 C7.51836451,0.494596012 7.51022615,0.41092722 7.5049743,0.347423931 C7.48208265,0.0727641859 7.17041941,-0.0649866365 6.96896484,0.117104235 C5.10135074,1.80563425 3.9630222,4.19538651 3.92217002,7.01567023 L4.27171875,7.28712274 C4.44386719,7.42082442 4.67711349,7.41501131 4.84152447,7.29253495 C4.93962582,7.20938734 4.95369757,7.08390419 4.95983141,6.96571752 Z" id="Shape"></path>
                        </g>
                        <path d="M12.0021061,9.99748876 C11.6857687,9.64524638 11.1938802,9.16977648 10.9846479,10.2433297 C10.9135121,10.6083042 10.7471942,10.8897215 10.6048022,11.11628 C10.4512501,10.3236528 9.98918881,9.50322769 9.55386363,8.9500958 C9.39095791,8.74314726 8.81295976,7.92047052 8.70188038,6.5440478 C8.68530077,6.33861401 8.44608067,6.24220178 8.29642258,6.38074063 C6.86628061,7.70467907 6.08125811,9.52566247 6.05215347,11.5755788 C6.05215347,11.5755788 5.45661224,11.0636729 5.13312918,10.1113412 C5.04601597,9.85489692 4.70884369,9.80597437 4.56259787,10.0327376 C4.53453698,10.0762561 4.50848331,10.1198975 4.48499887,10.1622288 C3.3815515,12.1519234 2.85076309,14.5681243 3.34144731,16.8161054 C4.16191725,20.5807266 9.58911035,21.633237 12.4623208,19.2670639 C15.2733878,16.952147 14.379815,12.6434824 12.0021061,9.99748876 Z" id="Shape" fill="#F4A32C"></path>
                        <path d="M4.48216584,17.4265296 C4.00546331,15.2474148 4.49921296,12.9091983 5.54604679,10.9621392 C5.46627333,10.8181803 5.39068458,10.6590378 5.32522718,10.4849555 C5.22963999,10.2306523 4.85966914,10.1820977 4.6991972,10.4069676 C4.66840667,10.4501228 4.63981862,10.4933998 4.61404972,10.5354182 C3.4033081,12.5085003 2.82093107,14.9045278 3.35925871,17.1336993 C3.77799224,18.8699759 5.29025196,20.0240834 7.10526316,20.5263158 C5.81571717,19.930303 4.80037866,18.8831295 4.48216584,17.4265296 Z" id="Shape" fill="#E89528"></path>
                        <path d="M10.4234113,13.5071003 C10.2200281,13.2722879 9.90370509,12.9552668 9.76918392,13.6709933 C9.72346655,13.9143532 9.61651306,14.1019129 9.5249258,14.2529444 C9.42617018,13.7244954 9.12914072,13.1775807 8.84919331,12.8088316 C8.74448947,12.6708631 8.37284041,12.1224164 8.30138557,11.2048173 C8.29070929,11.0678568 8.13693267,11.0035495 8.0406936,11.0959585 C7.12116055,11.9786018 6.61643924,13.192579 6.59771761,14.5591601 C6.59771761,14.5591601 6.2147822,14.2178676 6.00682344,13.5830192 C5.95081108,13.4120706 5.7340444,13.3794533 5.64001684,13.5306057 C5.62194342,13.5595944 5.60524266,13.5887041 5.59010522,13.6169267 C4.88066617,14.9433914 4.53936826,16.5541791 4.85485244,18.0528422 C5.38237524,20.5626019 8.87188041,21.2642574 10.7192206,19.6868128 C11.3518286,19.1466312 11.7440676,18.3854663 11.8236059,17.5435039 C11.943676,16.2682433 11.4795246,14.7257141 10.4234113,13.5071003 Z" id="Shape" fill="#F4D44E"></path>
                        <path d="M9.47493835,16.4329389 C9.36193707,16.2958419 9.18623755,16.1107925 9.11148637,16.52859 C9.08608769,16.6706724 9.02669738,16.780181 8.97578596,16.8683541 C8.92092026,16.559854 8.75590493,16.2405383 8.60039508,16.0252811 C8.54222147,15.9447129 8.33572416,15.6245099 8.29602923,15.0888386 C8.2900978,15.0088618 8.20462442,14.9713872 8.15120355,15.0252543 C7.64037842,15.5405617 7.35992839,16.2492838 7.34954839,17.0471083 C7.34954839,17.0471083 7.13681548,16.8478635 7.02126672,16.4772156 C6.99012673,16.3773819 6.86971116,16.3583277 6.817507,16.4466275 C6.8074692,16.4635692 6.79819184,16.4805532 6.78982701,16.4970302 C6.39569129,17.271449 6.20607574,18.2118207 6.38135701,19.0867491 C6.78051163,21.0821977 10.0522259,21.0216976 10.2529058,18.7893605 C10.3195203,18.044896 10.0616553,17.1443226 9.47493835,16.4329389 Z" id="Shape" fill="#EAE9E8"></path>
                        <path d="M7.14950215,19.5018959 C6.97241451,18.7158878 7.16398416,17.8710723 7.56218167,17.1753968 C7.57063271,17.1605889 7.58004409,17.1453567 7.59014692,17.1301244 C7.64292749,17.0508235 7.76458401,17.0679227 7.79600651,17.1575764 C7.91274606,17.4905638 8.12767131,17.6695742 8.12767131,17.6695742 C8.13631441,17.0806515 8.32945903,16.5460388 8.68421053,16.1172454 C8.60488602,15.9958968 8.36218759,15.7033023 8.31643675,15.0892189 C8.31044419,15.0088997 8.22408996,14.9712647 8.17011856,15.0253624 C7.65402908,15.5428761 7.37068885,16.2546324 7.36020188,17.0558727 C7.36020188,17.0558727 7.14527663,16.8557747 7.02853708,16.4835824 C6.99711458,16.3833213 6.87541965,16.3641856 6.82267749,16.4528634 C6.81253625,16.4698777 6.80316328,16.4869343 6.79471224,16.5034819 C6.39651473,17.2811738 6.20494508,18.2256139 6.38203272,19.1042882 C6.54590602,19.9187241 7.21914638,20.4081918 7.96345229,20.5263158 C7.56195119,20.3085247 7.25337308,19.9636571 7.14950215,19.5018959 Z" id="Shape" fill="#F7E7A1"></path>
                        <g id="Group" fill="#D8553A">
                            <path d="M5.31591488,2.72795539 C6.18287109,2.02280428 6.18094675,0.703547492 5.31591488,0 C4.44895868,0.70511102 4.45084293,2.02440789 5.31591488,2.72795539 Z" id="Shape"></path>
                            <path d="M15.7071618,8.38744552 C16.574118,7.68229441 16.5721937,6.36303762 15.7071618,5.65949013 C15.3109077,5.98173725 14.8421299,7.68389803 15.7071618,8.38744552 Z" id="Shape"></path>
                            <path d="M0.352194696,8.92437706 C0.977004523,8.41615029 0.975641447,7.46540502 0.352194696,6.95830078 C0.0666303454,7.19054482 -0.271252056,8.41731291 0.352194696,8.92437706 Z" id="Shape"></path>
                            <path d="M11.1735722,4.69403166 C11.798382,4.18580489 11.7970189,3.23505962 11.1735722,2.72795539 C10.5487623,3.23614206 10.5501655,4.18696752 11.1735722,4.69403166 Z" id="Shape"></path>
                        </g>
                        <path d="M6.23249882,11.4012441 C6.35960111,9.61713066 6.93260907,8.03075943 7.89473684,6.82137781 C7.88500618,6.7337176 7.8768026,6.64373497 7.8704102,6.55121882 C7.85574318,6.33933107 7.64411911,6.23988993 7.51172533,6.38278115 C6.50918336,7.46485278 5.86575242,8.86910526 5.6287363,10.4574189 L5.62838117,10.4572922 C5.61080206,10.5751014 5.58899686,10.746706 5.57521768,10.8815322 C5.57525319,10.8816588 5.5752887,10.8817433 5.57535973,10.88187 C5.5465584,11.1632609 5.52986712,11.449719 5.52631579,11.7408641 C5.55309286,11.7470712 6.15923477,12.1175159 6.23249882,11.4012441 Z" id="Shape" fill="#E89528"></path>
                        <g id="Group" transform="translate(4.736842, 11.052632)" fill="#E8C842">
                            <path d="M1.13977179,7.31574733 C0.844906456,5.92360609 1.0960331,4.43905633 1.67942948,3.15275391 C1.56641447,2.99427632 1.4427354,2.78139597 1.35120888,2.51711965 C1.2922759,2.3471361 1.06440173,2.31470292 0.965498561,2.46500206 C0.946535773,2.4938271 0.92889597,2.52277241 0.913020148,2.55083573 C0.167097039,3.86981188 -0.191752673,5.47150596 0.139955798,6.96170847 C0.399741982,8.13042558 1.34254934,8.90481291 2.4711359,9.23680201 C1.81421361,8.80069799 1.31729235,8.15520148 1.13977179,7.31574733 Z" id="Shape"></path>
                            <path d="M3.03689248,2.87945724 C3.13463302,2.18088096 3.42035773,1.41118421 3.87013261,0.767692229 C3.82114206,0.586002262 3.78261513,0.380699013 3.76381271,0.15238384 C3.75258738,0.0161965461 3.59086246,-0.0477477385 3.48971423,0.044139597 C2.88731497,0.591013569 2.45493935,1.26605674 2.2093051,2.02573088 L2.20866365,2.02557052 C2.17001645,2.14491982 2.11537315,2.34264597 2.08225843,2.49871813 C2.08253906,2.49863795 2.0828197,2.49863795 2.08310033,2.49851768 C2.01526727,2.8169963 1.97754215,3.14750206 1.97261102,3.48774979 C2.51351151,3.55526213 2.96096114,3.4213199 3.03689248,2.87945724 Z" id="Shape"></path>
                        </g>
                    </g>
                </g>
            </g>
        </g>
    </g>
</svg>