<svg width="88" height="88" viewBox="0 0 88 88" fill="none" xmlns="http://www.w3.org/2000/svg">
<path opacity="0.7" fill-rule="evenodd" clip-rule="evenodd" d="M55.9029 87.6681C52.6256 87.6681 49.3469 86.4174 46.8443 83.9161C41.8403 78.9134 41.8403 70.8014 46.8429 65.7974C53.6696 58.9694 53.6709 47.8614 46.8429 41.0347C40.0163 34.2054 28.9096 34.2054 22.0829 41.0347C17.0789 46.0361 8.96827 46.0361 3.96294 41.0347C-1.03973 36.0307 -1.03973 27.9187 3.96294 22.9147C20.7816 6.09873 48.1443 6.09873 64.9629 22.9147C81.7789 39.7321 81.7789 67.0961 64.9629 83.9147C62.4603 86.4174 59.1816 87.6681 55.9029 87.6681Z" fill="#70B9C3"/>
<path fill-rule="evenodd" clip-rule="evenodd" d="M63.5895 79.9813C60.3121 79.9813 57.0335 78.7293 54.5321 76.2293C49.5268 71.2266 49.5268 63.1133 54.5295 58.1106C61.3561 51.2826 61.3575 40.1733 54.5295 33.348C47.7041 26.5173 36.5961 26.5173 29.7708 33.348C24.7655 38.3493 16.6548 38.3493 11.6495 33.348C6.64679 28.3426 6.64679 20.232 11.6495 15.228C28.4695 -1.58803 55.8308 -1.58803 72.6495 15.228C89.4655 32.0453 89.4655 59.408 72.6495 76.228C70.1481 78.7293 66.8681 79.9813 63.5895 79.9813Z" stroke="#13242A" stroke-width="2.562"/>
</svg>
