<svg width="304" height="196" viewBox="0 0 304 196" fill="none" xmlns="http://www.w3.org/2000/svg">
<path d="M167.481 44.6613C172.646 44.6613 176.833 48.8483 176.833 54.0132C176.833 59.1781 172.646 63.365 167.481 63.365V63.865V64.365H257.556C262.72 64.365 266.907 68.552 266.907 73.7169C266.907 78.8818 262.72 83.0687 257.556 83.0687V83.5687V84.0687H288.519C293.683 84.0687 297.87 88.2557 297.87 93.4206C297.87 98.5855 293.683 102.772 288.519 102.772H261.778C256.061 102.772 251.426 107.407 251.426 113.124C251.426 118.841 256.061 123.476 261.778 123.476H270.222C275.387 123.476 279.574 127.663 279.574 132.828C279.574 137.993 275.387 142.18 270.222 142.18H64.7407C59.5759 142.18 55.3889 137.993 55.3889 132.828C55.3889 127.663 59.5759 123.476 64.7407 123.476V122.976V122.476H9.85185C4.68697 122.476 0.5 118.289 0.5 113.124C0.5 107.959 4.68697 103.772 9.85185 103.772H66.1481C71.8653 103.772 76.5 99.1377 76.5 93.4206C76.5 87.7034 71.8653 83.0687 66.1481 83.0687H30.963C25.7981 83.0687 21.6111 78.8818 21.6111 73.7169C21.6111 68.552 25.7981 64.365 30.963 64.365H87.2593V63.865V63.365C82.0944 63.365 77.9074 59.1781 77.9074 54.0132C77.9074 48.8483 82.0944 44.6613 87.2593 44.6613H167.481ZM294.148 123.476C299.313 123.476 303.5 127.663 303.5 132.828C303.5 137.993 299.313 142.18 294.148 142.18C288.983 142.18 284.796 137.993 284.796 132.828C284.796 127.663 288.983 123.476 294.148 123.476Z" fill="#EBF0F2" stroke="#ECEEF2"/>
<path fill-rule="evenodd" clip-rule="evenodd" d="M196.859 154.108C201.135 151.356 204.936 147.923 207.41 145.152L196.859 154.108ZM211.401 140.546C213.446 138.04 215.285 135.42 216.917 132.708C220.506 126.743 223.093 120.334 224.674 113.727C226.273 107.044 226.843 100.159 226.381 93.3233C225.977 87.3587 224.787 81.4324 222.807 75.7126C220.844 70.0379 218.103 64.5665 214.584 59.4628C212.487 56.4216 210.113 53.5109 207.462 50.7655C203.569 46.7349 199.3 43.289 194.764 40.43C189.889 37.3582 184.707 34.9639 179.353 33.2498C172.648 31.1032 165.674 30.0233 158.698 30.0155C153.271 30.0094 147.843 30.6522 142.541 31.9465C136.572 33.4035 130.762 35.6861 125.291 38.7978C120.482 41.5331 115.936 44.9091 111.774 48.928C106.544 53.9786 102.307 59.6719 99.0685 65.765C95.8974 71.7304 93.6824 78.079 92.427 84.5827C91.1336 91.2832 90.8589 98.1484 91.6067 104.929C92.5759 113.717 95.2629 122.363 99.6763 130.324C102.5 135.418 106.031 140.231 110.271 144.622C117.002 151.592 124.86 156.813 133.276 160.274C143.511 164.484 154.571 166.092 165.434 165.077C174.551 164.226 183.528 161.528 191.761 156.971" fill="white"/>
<path d="M211.401 140.546C213.446 138.04 215.285 135.42 216.917 132.708C220.506 126.743 223.093 120.334 224.674 113.727C226.273 107.044 226.843 100.159 226.381 93.3233C225.977 87.3587 224.787 81.4324 222.807 75.7126C220.844 70.0379 218.103 64.5665 214.584 59.4628C212.487 56.4216 210.113 53.5109 207.462 50.7655C203.569 46.7349 199.3 43.289 194.764 40.43C189.889 37.3582 184.707 34.9639 179.353 33.2498C172.648 31.1032 165.674 30.0233 158.698 30.0155C153.271 30.0094 147.843 30.6522 142.541 31.9465C136.572 33.4035 130.762 35.6861 125.291 38.7978C120.482 41.5331 115.936 44.9091 111.774 48.928C106.544 53.9786 102.307 59.6719 99.0685 65.765C95.8974 71.7304 93.6824 78.079 92.427 84.5827C91.1336 91.2832 90.8589 98.1484 91.6067 104.929C92.5759 113.717 95.2629 122.363 99.6763 130.324C102.5 135.418 106.031 140.231 110.271 144.622C117.002 151.592 124.86 156.813 133.276 160.274C143.511 164.484 154.571 166.092 165.434 165.077C174.551 164.226 183.528 161.528 191.761 156.971M196.859 154.108C201.135 151.356 204.936 147.923 207.41 145.152L196.859 154.108Z" stroke="#254854" stroke-width="2.5" stroke-linecap="round"/>
<path fill-rule="evenodd" clip-rule="evenodd" d="M224.482 17.4206V25.865V17.4206ZM224.482 37.1243V45.5687V37.1243ZM210.407 31.4947H218.852H210.407ZM230.111 31.4947H238.556H230.111Z" fill="#7096A1"/>
<path d="M230.111 31.4947H238.556M224.482 17.4206V25.865V17.4206ZM224.482 37.1243V45.5687V37.1243ZM210.407 31.4947H218.852H210.407Z" stroke="#7096A1" stroke-width="2.5" stroke-linecap="round" stroke-linejoin="round"/>
<path fill-rule="evenodd" clip-rule="evenodd" d="M107.667 162.384V168.013V162.384ZM107.667 179.272V184.902V179.272ZM96.4075 173.643H102.037H96.4075ZM113.296 173.643H118.926H113.296Z" fill="#7096A1"/>
<path d="M113.296 173.643H118.926M107.667 162.384V168.013V162.384ZM107.667 179.272V184.902V179.272ZM96.4075 173.643H102.037H96.4075Z" stroke="#7096A1" stroke-width="2.5" stroke-linecap="round" stroke-linejoin="round"/>
<path d="M132.268 96.7541C130.219 94.9078 127.039 95.0496 125.167 97.0707C123.295 99.0918 123.439 102.227 125.488 104.073L149.144 125.383C152.014 127.967 156.465 127.769 159.086 124.939C159.196 124.819 159.196 124.819 159.301 124.696L193.061 84.6574C194.835 82.5525 194.544 79.4273 192.409 77.6772C190.275 75.927 187.105 76.2146 185.331 78.3196L153.592 115.962L132.268 96.7541Z" fill="#ECF4FA" stroke="#254854" stroke-width="2.5"/>
<path fill-rule="evenodd" clip-rule="evenodd" d="M112.117 68.5271C110.839 70.6832 109.732 72.9207 108.809 75.2278L112.117 68.5271Z" fill="#ECEEF2"/>
<path d="M112.117 68.5271C110.839 70.6832 109.732 72.9207 108.809 75.2278" stroke="#AFC5CB" stroke-width="2.5" stroke-linecap="round"/>
</svg>
