<svg width="171" height="102" viewBox="0 0 171 102" fill="none" xmlns="http://www.w3.org/2000/svg">
<path opacity="0.5" fill-rule="evenodd" clip-rule="evenodd" d="M-7 2.2453H119.865H119.943H119.943C146.853 2.28322 168.658 24.0968 168.658 50.9948C168.658 64.4509 163.2 76.6399 154.365 85.4525C148.852 90.962 142.034 95.1525 134.415 97.527C129.844 98.9517 124.984 99.7226 119.943 99.7325M119.865 99.7325H-7V2.2453M119.943 99.7325H119.865H119.943Z" fill="#70B9C3"/>
<path fill-rule="evenodd" clip-rule="evenodd" d="M119.941 3.55301C93.7327 3.58962 72.4721 24.8736 72.4721 50.9948C72.4721 77.1107 93.7327 98.3882 119.866 98.4248C132.598 98.3999 144.495 93.4647 153.44 84.5279C162.409 75.5807 167.349 63.6716 167.349 50.9948C167.349 24.8736 146.082 3.58962 119.941 3.55301ZM119.946 101.04C92.2877 101.001 69.8545 78.5505 69.8545 50.9948C69.8545 23.4325 92.2877 0.976853 119.862 0.937622C147.527 0.976853 169.966 23.4325 169.966 50.9948C169.966 64.3712 164.755 76.9368 155.291 86.3783C145.853 95.8068 133.301 101.014 119.946 101.04Z" fill="#386D7D"/>
</svg>
