<svg width="21" height="16" viewBox="0 0 21 16" fill="none" xmlns="http://www.w3.org/2000/svg">
<path d="M12.0078 9.20988C11.1757 10.0402 9.82709 10.0402 8.99498 9.20988C8.16313 8.37957 8.16313 7.03325 8.99498 6.20294C9.82709 5.37262 11.1757 5.37262 12.0078 6.20294C12.8397 7.03325 12.8397 8.37957 12.0078 9.20988Z" fill="white"/>
<path d="M14.9194 12.4316C14.6598 12.4316 14.4003 12.3325 14.2027 12.1342C13.8075 11.7385 13.8083 11.0973 14.204 10.7024C15.0059 9.90201 15.4474 8.838 15.4474 7.70643C15.4474 6.57486 15.0059 5.51086 14.204 4.71049C13.8083 4.3153 13.8075 3.67439 14.2027 3.27843C14.5976 2.88272 15.2388 2.88196 15.6345 3.27715C16.8198 4.46017 17.4725 6.033 17.4725 7.70643C17.4725 9.3796 16.8198 10.9527 15.6345 12.1357C15.4369 12.3331 15.1781 12.4316 14.9194 12.4316Z" fill="white"/>
<path d="M17.2079 15.4127C16.9484 15.4127 16.6889 15.3137 16.4913 15.1155C16.0961 14.7196 16.0968 14.0787 16.4925 13.6835C18.0923 12.0868 18.9735 9.96422 18.9735 7.70645C18.9735 5.44868 18.0923 3.32605 16.4925 1.72941C16.0968 1.33422 16.0961 0.69331 16.4913 0.297349C16.8865 -0.0983557 17.5274 -0.0991236 17.9231 0.296069C19.9062 2.27536 20.9986 4.90708 20.9984 7.70645C20.9984 10.5058 19.9062 13.1378 17.9231 15.1171C17.7255 15.3142 17.4667 15.4127 17.2079 15.4127Z" fill="white"/>
<path d="M6.08098 12.4316C5.82222 12.4316 5.56345 12.3331 5.36559 12.1357C4.18027 10.9527 3.52759 9.37961 3.52759 7.70644C3.52759 6.03301 4.18027 4.46017 5.36559 3.27715C5.7613 2.88196 6.40246 2.88247 6.7974 3.27843C7.19259 3.67414 7.19182 4.3153 6.79612 4.71049C5.99422 5.51086 5.5527 6.57486 5.5527 7.70644C5.5527 8.83801 5.99422 9.90201 6.79612 10.7024C7.19182 11.0973 7.19259 11.7385 6.7974 12.1342C6.5998 12.3323 6.34027 12.4316 6.08098 12.4316Z" fill="white"/>
<path d="M3.79068 15.4127C3.53165 15.4127 3.27288 15.3142 3.07529 15.1168C1.09216 13.1375 0 10.5058 0 7.70646C0 4.90683 1.09216 2.27511 3.07529 0.295819C3.47099 -0.0991177 4.11216 -0.0986058 4.50709 0.297355C4.90229 0.69306 4.90152 1.33397 4.50581 1.72916C2.9061 3.3258 2.02485 5.44843 2.02485 7.7062C2.02485 9.96397 2.9061 12.0869 4.50581 13.6835C4.90152 14.0787 4.90229 14.7196 4.50709 15.1156C4.3095 15.3137 4.04996 15.4127 3.79068 15.4127Z" fill="white"/>
</svg>
