<svg width="17" height="17" viewBox="0 0 17 17" fill="none" xmlns="http://www.w3.org/2000/svg">
<path d="M8.4999 3.3999C8.73462 3.3999 8.9249 3.59018 8.9249 3.8249V8.0749H13.1749C13.4096 8.0749 13.5999 8.26518 13.5999 8.4999C13.5999 8.73462 13.4096 8.9249 13.1749 8.9249H8.92448L8.9249 13.1749C8.9249 13.4096 8.73462 13.5999 8.4999 13.5999C8.26518 13.5999 8.0749 13.4096 8.0749 13.1749L8.07448 8.9249H3.8249C3.59018 8.9249 3.3999 8.73462 3.3999 8.4999C3.3999 8.26518 3.59018 8.0749 3.8249 8.0749H8.0749V3.8249C8.0749 3.59018 8.26518 3.3999 8.4999 3.3999Z" fill="#E5853C"/>
<rect x="0.5" y="0.5" width="16" height="16" rx="8" stroke="#E5853C"/>
</svg>
