<svg width="16" height="16" viewBox="0 0 16 16" fill="none" xmlns="http://www.w3.org/2000/svg">
<path d="M7.09981 0.800049C10.5792 0.800049 13.3998 3.62066 13.3998 7.10005C13.3998 8.62369 12.8589 10.021 11.9587 11.1105L14.9638 14.1155C15.1981 14.3498 15.1981 14.7297 14.9638 14.964C14.7295 15.1983 14.3496 15.1983 14.1152 14.964L11.1102 11.9589C10.0208 12.8592 8.62345 13.4001 7.09981 13.4001C3.62041 13.4001 0.799805 10.5794 0.799805 7.10005C0.799805 3.62066 3.62041 0.800049 7.09981 0.800049ZM7.09981 2.00005C4.28315 2.00005 1.9998 4.2834 1.9998 7.10005C1.9998 9.9167 4.28315 12.2001 7.09981 12.2001C9.91646 12.2001 12.1998 9.9167 12.1998 7.10005C12.1998 4.2834 9.91646 2.00005 7.09981 2.00005Z" fill="#7096A1"/>
</svg>
