<svg width="20" height="16" viewBox="0 0 20 16" fill="none" xmlns="http://www.w3.org/2000/svg">
<path d="M17.9999 0.800781H1.99991C1.11746 0.800781 0.399902 1.51834 0.399902 2.40079V13.6008C0.399902 14.4832 1.11746 15.2008 1.99991 15.2008H17.9999C18.8823 15.2008 19.5999 14.4832 19.5999 13.6008V2.40079C19.5999 1.51834 18.8823 0.800781 17.9999 0.800781ZM1.99991 1.60077H17.9999C18.0589 1.60077 18.1108 1.62226 18.1661 1.63441C16.7809 2.90217 12.1878 7.10412 10.5804 8.55233C10.4546 8.66562 10.2519 8.80077 9.99994 8.80077C9.74798 8.80077 9.54525 8.66562 9.41907 8.55196C7.81185 7.10397 3.21844 2.90179 1.83345 1.63448C1.88888 1.62233 1.94093 1.60077 1.99991 1.60077ZM1.19989 13.6008V2.40079C1.19989 2.32242 1.22351 2.25132 1.24466 2.17969C2.30486 3.15004 5.50977 6.08194 7.58787 7.97168C5.51652 9.75094 2.31079 12.7902 1.24215 13.8093C1.22329 13.7412 1.19989 13.6747 1.19989 13.6008ZM17.9999 14.4008H1.99991C1.93601 14.4008 1.8792 14.3785 1.81954 14.3643C2.9238 13.3116 6.14993 10.2548 8.18486 8.51393C8.45014 8.75457 8.69247 8.97398 8.88349 9.14611C9.21319 9.44378 9.5991 9.60079 9.9999 9.60079C10.4007 9.60079 10.7866 9.44374 11.1159 9.14648C11.307 8.97428 11.5495 8.75468 11.8149 8.51393C13.85 10.2546 17.0757 13.3112 18.1803 14.3643C18.1206 14.3785 18.0639 14.4008 17.9999 14.4008ZM18.7999 13.6008C18.7999 13.6747 18.7765 13.7412 18.7577 13.8093C17.6886 12.7897 14.4833 9.75076 12.412 7.97172C14.4902 6.08198 17.6946 3.15034 18.7551 2.17962C18.7763 2.25124 18.7999 2.32238 18.7999 2.40076V13.6008Z" fill="#386D7D"/>
</svg>
