<svg width="18" height="18" viewBox="0 0 18 18" fill="none" xmlns="http://www.w3.org/2000/svg">
<path d="M10.918 8.22066C11.1398 7.99811 11.2102 7.73502 11.2303 7.45843C11.2504 7.18184 11.1051 6.91734 10.9458 6.70546C10.5121 6.30729 9.86489 6.30304 9.48594 6.70905L6.49674 9.79874C6.275 10.0213 6.20451 10.2844 6.18443 10.561C6.16435 10.8376 6.30947 11.1026 6.46883 11.3145C6.90247 11.7126 7.54973 11.7169 7.92882 11.3104L10.918 8.22066ZM10.871 12.8324C10.6614 12.6065 10.4093 12.539 10.143 12.5246C9.87686 12.5096 9.61881 12.6661 9.41132 12.8355L7.16565 15.1668C6.34323 16.0179 4.9842 16.0486 4.18143 15.2131L2.69894 13.688C1.89616 12.8526 1.88164 11.4952 2.71816 10.5915L4.96368 8.26064C5.40715 7.81552 5.37468 7.13009 4.99145 6.74543C4.55781 6.34727 3.91055 6.34302 3.5316 6.74903L1.28607 9.07984C-0.35863 10.7816 -0.394226 13.5359 1.21132 15.2068L2.69381 16.7319C4.29935 18.4028 6.95304 18.3802 8.59774 16.6784L10.8434 14.3471C11.2222 13.9416 11.2543 13.2171 10.871 12.8324ZM16.1529 2.79963C16.9052 3.62156 17.3714 4.70516 17.3274 5.87765C17.2975 6.99752 16.8865 8.12807 16.064 8.9792L13.8185 11.31C13.375 11.7551 12.7279 11.7504 12.3587 11.3136C12.1489 11.0882 12.054 10.8372 12.0741 10.5606C12.0942 10.284 12.1788 9.96834 12.3864 9.7984L14.6319 7.46758C15.4544 6.61646 15.5044 5.21999 14.6512 4.37105L13.1687 2.84593C12.7854 2.46127 12.2591 2.20745 11.7127 2.23021C11.1662 2.25298 10.6279 2.44711 10.2349 2.90573L7.98934 5.23655C7.54587 5.68166 6.89861 5.67742 6.52949 5.24014C6.10994 4.78936 6.12789 4.11744 6.55725 3.72494L8.80278 1.39412C9.6111 0.59561 10.6655 0.0886171 11.7947 0.109207C12.8512 -0.00245294 13.918 0.452578 14.6704 1.27451L16.1529 2.79963Z" fill="white"/>
</svg>
