<svg width="13" height="20" viewBox="0 0 13 20" fill="none" xmlns="http://www.w3.org/2000/svg">
<path d="M6.43932 18.218C6.87921 18.218 7.23152 17.8717 7.23152 17.45C7.23152 17.0282 6.87921 16.682 6.43932 16.682C5.99942 16.682 5.64712 17.0282 5.64712 17.45C5.64712 17.8717 5.99942 18.218 6.43932 18.218ZM11.3521 17.7418V2.25895C11.3521 1.65815 10.8538 1.16839 10.2358 1.16839H2.48438C1.86641 1.16839 1.3681 1.65816 1.3681 2.25895V17.7418C1.3681 18.3426 1.86641 18.8324 2.48438 18.8324H10.2358C10.8538 18.8324 11.3521 18.3426 11.3521 17.7418ZM12.1201 17.7418C12.1201 18.7698 11.275 19.6004 10.2358 19.6004H2.48438C1.4452 19.6004 0.600098 18.7698 0.600098 17.7418V2.25895C0.600098 1.23101 1.4452 0.400391 2.48438 0.400391H10.2358C11.275 0.400391 12.1201 1.23099 12.1201 2.25895V17.7418ZM1.3681 3.06288V15.3019H11.3521V3.06288H1.3681ZM0.984098 2.32794H11.7361C11.9482 2.32794 12.1201 2.49246 12.1201 2.69541V15.6694C12.1201 15.8724 11.9482 16.0369 11.7361 16.0369H0.984098C0.77202 16.0369 0.600098 15.8724 0.600098 15.6694V2.69541C0.600098 2.49246 0.77202 2.32794 0.984098 2.32794Z" fill="#386D7D"/>
</svg>
