<svg width="20" height="16" viewBox="0 0 20 16" fill="none" xmlns="http://www.w3.org/2000/svg">
<path d="M19.5999 1.8162C18.8953 2.12628 18.1333 2.33274 17.3388 2.42529C18.1527 1.94513 18.7747 1.18496 19.0711 0.280023C18.3098 0.722998 17.4659 1.04811 16.5702 1.22214C15.8503 0.468287 14.8266 0 13.6945 0C11.5192 0 9.75695 1.73472 9.75695 3.87682C9.75695 4.17899 9.79096 4.47404 9.85818 4.7596C6.58556 4.59665 3.68305 3.05336 1.74102 0.705595C1.40331 1.27751 1.20895 1.94592 1.20895 2.65547C1.20895 3.99864 1.90218 5.18755 2.96066 5.88207C2.31521 5.86388 1.70863 5.68669 1.17574 5.39875V5.44621C1.17574 7.32569 2.53306 8.8943 4.3366 9.24868C4.00618 9.33727 3.65794 9.38473 3.29837 9.38473C3.04326 9.38473 2.7995 9.35942 2.55573 9.31433C3.05865 10.8545 4.51315 11.9769 6.23409 12.0109C4.88406 13.0511 3.18904 13.6713 1.34095 13.6713C1.02268 13.6713 0.710886 13.6539 0.399902 13.6167C2.14757 14.721 4.21674 15.3594 6.43979 15.3594C13.6839 15.3594 17.6465 9.44802 17.6465 4.32375C17.6465 4.15447 17.6433 3.98756 17.6352 3.82145C18.4037 3.2788 19.0719 2.59615 19.5999 1.8162Z" fill="white"/>
</svg>
