<svg width="24" height="24" viewBox="0 0 24 24" fill="none" xmlns="http://www.w3.org/2000/svg">
<path d="M11.0998 4.80078C14.5792 4.80078 17.3998 7.62139 17.3998 11.1008C17.3998 12.6244 16.8589 14.0217 15.9587 15.1112L18.9638 18.1162C19.1981 18.3505 19.1981 18.7304 18.9638 18.9647C18.7295 19.1991 18.3496 19.1991 18.1152 18.9647L15.1102 15.9597C14.0208 16.8599 12.6234 17.4008 11.0998 17.4008C7.62041 17.4008 4.7998 14.5802 4.7998 11.1008C4.7998 7.62139 7.62041 4.80078 11.0998 4.80078ZM11.0998 6.00078C8.28315 6.00078 5.9998 8.28413 5.9998 11.1008C5.9998 13.9174 8.28315 16.2008 11.0998 16.2008C13.9165 16.2008 16.1998 13.9174 16.1998 11.1008C16.1998 8.28413 13.9165 6.00078 11.0998 6.00078Z" fill="#AFC5CB"/>
</svg>
