<svg width="17" height="17" viewBox="0 0 17 17" fill="none" xmlns="http://www.w3.org/2000/svg">
<path d="M8.50002 3.3999C8.73475 3.3999 8.92502 3.59018 8.92502 3.8249V8.0749H13.175C13.4097 8.0749 13.6 8.26518 13.6 8.4999C13.6 8.73462 13.4097 8.9249 13.175 8.9249H8.9246L8.92502 13.1749C8.92502 13.4096 8.73475 13.5999 8.50002 13.5999C8.2653 13.5999 8.07503 13.4096 8.07503 13.1749L8.0746 8.9249H3.82502C3.5903 8.9249 3.40002 8.73462 3.40002 8.4999C3.40002 8.26518 3.5903 8.0749 3.82502 8.0749H8.07503V3.8249C8.07503 3.59018 8.2653 3.3999 8.50002 3.3999Z" fill="#6E7C8D"/>
<rect x="0.5" y="0.5" width="16" height="16" rx="8" stroke="#6E7C8D"/>
</svg>
