<?xml version="1.0" encoding="UTF-8"?>
<svg width="30px" height="30px" viewBox="0 0 30 30" version="1.1" xmlns="http://www.w3.org/2000/svg" xmlns:xlink="http://www.w3.org/1999/xlink">
    <!-- Generator: Sketch 50.2 (55047) - http://www.bohemiancoding.com/sketch -->
    <title>Group 15</title>
    <desc>Created with Sketch.</desc>
    <defs></defs>
    <g id="Page-1" stroke="none" stroke-width="1" fill="none" fill-rule="evenodd">
        <g id="Event_Article-Page" transform="translate(-825.000000, -4342.000000)">
            <g id="Group-15" transform="translate(825.000000, 4342.000000)">
                <g id="Linkedin" transform="translate(9.000000, 8.000000)" fill="#FFFFFF" fill-rule="nonzero">
                    <path d="M2.6,11.4 L0.6,11.4 L0.6,4.4 L2.6,4.4 L2.6,11.4 Z M1.60074944,3.4 C0.769846,3.4 0.1,2.72792912 0.1,1.89986376 C0.1,1.07193464 0.76998232,0.4 1.60074944,0.4 C2.42824632,0.4 3.1,1.07207088 3.1,1.89986376 C3.1,2.72792912 2.42824632,3.4 1.60074944,3.4 Z M11.6,11.4 L9.35523688,11.4 L9.35523688,7.6037732 C9.35523688,6.69845528 9.34081016,5.5340916 8.18880664,5.5340916 C7.02060272,5.5340916 6.84227992,6.5204332 6.84227992,7.53885208 L6.84227992,11.4 L4.6,11.4 L4.6,3.59361328 L6.75193592,3.59361328 L6.75193592,4.6608508 L6.78279952,4.6608508 C7.08209336,4.04716688 7.81465976,3.4 8.90682816,3.4 C11.1799716,3.4 11.6,5.01638368 11.6,7.11890928 L11.6,11.4 Z" id="Shape"></path>
                </g>
                <rect id="Rectangle-19" stroke="#578993" x="0.5" y="0.5" width="29" height="29" rx="14.5"></rect>
            </g>
        </g>
    </g>
</svg>