<?xml version="1.0" encoding="UTF-8"?>
<svg width="30px" height="30px" viewBox="0 0 30 30" version="1.1" xmlns="http://www.w3.org/2000/svg" xmlns:xlink="http://www.w3.org/1999/xlink">
    <!-- Generator: Sketch 50.2 (55047) - http://www.bohemiancoding.com/sketch -->
    <title>Group 14</title>
    <desc>Created with Sketch.</desc>
    <defs></defs>
    <g id="Page-1" stroke="none" stroke-width="1" fill="none" fill-rule="evenodd">
        <g id="Event_Article-Page" transform="translate(-785.000000, -4342.000000)">
            <g id="Group-14" transform="translate(785.000000, 4342.000000)">
                <g id="Twitter" transform="translate(8.000000, 9.000000)" fill="#FFFFFF" fill-rule="nonzero">
                    <path d="M12.5502835,2.13955424 C13.1435133,1.7959196 13.5984978,1.25185704 13.8131041,0.60319664 C13.2582139,0.92145096 12.6431894,1.15264288 11.989189,1.2770836 C11.4653205,0.737328 10.7188914,0.4 9.89291952,0.4 C8.30636,0.4 7.020472,1.64332976 7.020472,3.17691856 C7.020472,3.39472816 7.04592568,3.60638496 7.094924,3.80988928 C4.70752816,3.69406256 2.59137304,2.58840192 1.17487584,0.90837624 C0.92765704,1.31830744 0.78591184,1.79561192 0.78591184,2.3044496 C0.78591184,3.2678264 1.2930764,4.11799136 2.06368648,4.61590784 C1.59295248,4.60144872 1.14974032,4.4763928 0.76268536,4.26827384 C0.7623672,4.27996424 0.7623672,4.29165456 0.7623672,4.30334488 C0.7623672,5.64927288 1.75235616,6.77093072 3.0662432,7.02642632 C2.8250696,7.08980032 2.57148736,7.12379464 2.30963264,7.12379464 C2.12445712,7.12379464 1.94453144,7.10625912 1.7692192,7.07380296 C2.13479768,8.17715632 3.19557968,8.98055992 4.45219592,9.00255624 C3.46936584,9.74704664 2.23088528,10.1909722 0.8851812,10.1909722 C0.65323456,10.1909722 0.42462872,10.1783589 0.2,10.1522094 C1.47093392,10.940231 2.98097336,11.4 4.60284992,11.4 C9.8856016,11.4 12.7745941,7.16824872 12.7745941,3.49855688 C12.7745941,3.37826936 12.7712533,3.25828952 12.7658443,3.1393864 C13.3282115,2.74837512 13.814854,2.2592264 14.2,1.7023968 C13.6851994,1.92343664 13.1315818,2.07264232 12.5502835,2.13955424 Z" id="Shape"></path>
                </g>
                <rect id="Rectangle-19" stroke="#578993" x="0.5" y="0.5" width="29" height="29" rx="14.5"></rect>
            </g>
        </g>
    </g>
</svg>