<?xml version="1.0" encoding="UTF-8"?>
<svg width="30px" height="30px" viewBox="0 0 30 30" version="1.1" xmlns="http://www.w3.org/2000/svg" xmlns:xlink="http://www.w3.org/1999/xlink">
    <!-- Generator: Sketch 50.2 (55047) - http://www.bohemiancoding.com/sketch -->
    <title>Group 17</title>
    <desc>Created with Sketch.</desc>
    <defs></defs>
    <g id="Page-1" stroke="none" stroke-width="1" fill="none" fill-rule="evenodd">
        <g id="Event_Article-Page" transform="translate(-905.000000, -4342.000000)">
            <g id="Group-17" transform="translate(905.000000, 4342.000000)">
                <g id="youtube" transform="translate(8.000000, 10.000000)" fill="#FFFFFF" fill-rule="nonzero">
                    <path d="M12.4645026,0.82192407 C11.9963259,0.265383781 11.1319354,0.038366219 9.48114205,0.038366219 L3.48877376,0.038366219 C1.8001999,0.038366219 0.921165806,0.280027376 0.454746384,0.87254907 C0,1.45025981 0,2.30147107 0,3.47956921 L0,5.72501808 C0,8.0073688 0.539553719,9.16617924 3.48877376,9.16617924 L9.48118388,9.16617924 C10.9127417,9.16617924 11.7060062,8.96585486 12.2192014,8.47470868 C12.7454923,7.97105269 12.9700413,7.14871023 12.9700413,5.72501808 L12.9700413,3.47956921 C12.9700413,2.23716477 12.9348549,1.38093285 12.4645026,0.82192407 Z M8.32680837,4.91229855 L5.6056937,6.33444267 C5.54486002,6.36624019 5.47833626,6.38201343 5.41189618,6.38201343 C5.33666994,6.38201343 5.26161105,6.36176343 5.19512913,6.32151446 C5.06994731,6.24566064 4.99350775,6.10997727 4.99350775,5.963625 L4.99350775,3.12845764 C4.99350775,2.9823564 5.06973812,2.84679855 5.1946689,2.77090289 C5.31964153,2.69500723 5.47507283,2.68981921 5.6047314,2.75717975 L8.32584607,4.17016116 C8.46429081,4.24204029 8.55123192,4.38496178 8.55144112,4.54089514 C8.55160847,4.69695403 8.4650439,4.84008471 8.32680837,4.91229855 Z" id="XMLID_823_"></path>
                </g>
                <rect id="Rectangle-19" stroke="#578993" x="0.5" y="0.5" width="29" height="29" rx="14.5"></rect>
            </g>
        </g>
    </g>
</svg>