<svg width="16" height="16" viewBox="0 0 16 16" fill="none" xmlns="http://www.w3.org/2000/svg">
<path d="M2.772 1.08118L2.84833 1.15128L8.0004 6.3036L13.1535 1.15128L13.2299 1.08118C13.7013 0.683946 14.4066 0.707312 14.8506 1.15128C15.3192 1.61991 15.3192 2.3797 14.8506 2.84833L9.6978 8.0004L14.8506 13.1535C15.3192 13.6222 15.3192 14.382 14.8506 14.8506C14.4066 15.2946 13.7013 15.3179 13.2299 14.9207L13.1535 14.8506L8.0004 9.6978L2.84833 14.8506L2.772 14.9207C2.30053 15.3179 1.59524 15.2946 1.15128 14.8506C0.682647 14.382 0.682647 13.6222 1.15128 13.1535L6.3036 8.0004L1.15128 2.84833C0.682647 2.3797 0.682647 1.61991 1.15128 1.15128C1.59524 0.707312 2.30053 0.683946 2.772 1.08118Z" fill="#386D7D"/>
</svg>
