<svg width="88" height="88" viewBox="0 0 88 88" fill="none" xmlns="http://www.w3.org/2000/svg">
<path opacity="0.7" fill-rule="evenodd" clip-rule="evenodd" d="M55.9029 87.6661C52.6256 87.6661 49.3469 86.4155 46.8443 83.9141C41.8403 78.9114 41.8403 70.7995 46.8429 65.7955C53.6696 58.9675 53.6709 47.8594 46.8429 41.0328C40.0163 34.2034 28.9096 34.2034 22.0829 41.0328C17.0789 46.0341 8.96827 46.0341 3.96294 41.0328C-1.03973 36.0288 -1.03973 27.9168 3.96294 22.9128C20.7816 6.09678 48.1443 6.09678 64.9629 22.9128C81.7789 39.7301 81.7789 67.0941 64.9629 83.9128C62.4603 86.4155 59.1816 87.6661 55.9029 87.6661Z" fill="#70B9C3"/>
<path fill-rule="evenodd" clip-rule="evenodd" d="M63.5895 79.9825C60.3121 79.9825 57.0335 78.7305 54.5321 76.2305C49.5268 71.2278 49.5268 63.1145 54.5295 58.1118C61.3561 51.2838 61.3575 40.1745 54.5295 33.3492C47.7041 26.5185 36.5961 26.5185 29.7708 33.3492C24.7655 38.3505 16.6548 38.3505 11.6495 33.3492C6.64679 28.3439 6.64679 20.2332 11.6495 15.2292C28.4695 -1.58681 55.8308 -1.58681 72.6495 15.2292C89.4655 32.0465 89.4655 59.4092 72.6495 76.2292C70.1481 78.7305 66.8681 79.9825 63.5895 79.9825Z" stroke="#13242A" stroke-width="2.562"/>
</svg>
