<svg width="120" height="122" viewBox="0 0 120 122" fill="none" xmlns="http://www.w3.org/2000/svg">
<g clip-path="url(#clip0)">
<path fill-rule="evenodd" clip-rule="evenodd" d="M115.187 10.8712C115.187 9.60101 116.225 8.56641 117.501 8.56641C118.776 8.56641 119.813 9.60101 119.813 10.8712C119.813 12.1439 118.776 13.1773 117.501 13.1773C116.225 13.1773 115.187 12.1439 115.187 10.8712Z" fill="#254854"/>
<path fill-rule="evenodd" clip-rule="evenodd" d="M115.187 32.5639C115.187 31.2924 116.225 30.2578 117.501 30.2578C118.776 30.2578 119.813 31.2924 119.813 32.5639C119.813 33.8365 118.776 34.8699 117.501 34.8699C116.225 34.8699 115.187 33.8365 115.187 32.5639Z" fill="#254854"/>
<path fill-rule="evenodd" clip-rule="evenodd" d="M115.187 54.2553C115.187 52.9826 116.225 51.9492 117.501 51.9492C118.776 51.9492 119.813 52.9826 119.813 54.2553C119.813 55.5255 118.776 56.5613 117.501 56.5613C116.225 56.5613 115.187 55.5255 115.187 54.2553Z" fill="#254854"/>
<path fill-rule="evenodd" clip-rule="evenodd" d="M115.187 75.9467C115.187 74.674 116.225 73.6406 117.501 73.6406C118.776 73.6406 119.813 74.674 119.813 75.9467C119.813 77.2169 118.776 78.2515 117.501 78.2515C116.225 78.2515 115.187 77.2169 115.187 75.9467Z" fill="#254854"/>
<path fill-rule="evenodd" clip-rule="evenodd" d="M115.187 97.6357C115.187 96.3654 116.225 95.332 117.501 95.332C118.776 95.332 119.813 96.3654 119.813 97.6357C119.813 98.9083 118.776 99.9429 117.501 99.9429C116.225 99.9429 115.187 98.9083 115.187 97.6357Z" fill="#254854"/>
<path fill-rule="evenodd" clip-rule="evenodd" d="M115.187 119.329C115.187 118.059 116.225 117.023 117.501 117.023C118.776 117.023 119.813 118.059 119.813 119.329C119.813 120.602 118.776 121.636 117.501 121.636C116.225 121.636 115.187 120.602 115.187 119.329Z" fill="#254854"/>
<path fill-rule="evenodd" clip-rule="evenodd" d="M95.3423 10.8712C95.3423 9.60101 96.3803 8.56641 97.6559 8.56641C98.9315 8.56641 99.9683 9.60101 99.9683 10.8712C99.9683 12.1439 98.9315 13.1773 97.6559 13.1773C96.3803 13.1773 95.3423 12.1439 95.3423 10.8712Z" fill="#254854"/>
<path fill-rule="evenodd" clip-rule="evenodd" d="M95.3423 32.5639C95.3423 31.2924 96.3803 30.2578 97.6559 30.2578C98.9315 30.2578 99.9683 31.2924 99.9683 32.5639C99.9683 33.8365 98.9315 34.8699 97.6559 34.8699C96.3803 34.8699 95.3423 33.8365 95.3423 32.5639Z" fill="#254854"/>
<path fill-rule="evenodd" clip-rule="evenodd" d="M95.3423 54.2553C95.3423 52.9826 96.3803 51.9492 97.6559 51.9492C98.9315 51.9492 99.9683 52.9826 99.9683 54.2553C99.9683 55.5255 98.9315 56.5613 97.6559 56.5613C96.3803 56.5613 95.3423 55.5255 95.3423 54.2553Z" fill="#254854"/>
<path fill-rule="evenodd" clip-rule="evenodd" d="M95.3423 75.9467C95.3423 74.674 96.3803 73.6406 97.6559 73.6406C98.9315 73.6406 99.9683 74.674 99.9683 75.9467C99.9683 77.2169 98.9315 78.2515 97.6559 78.2515C96.3803 78.2515 95.3423 77.2169 95.3423 75.9467Z" fill="#254854"/>
<path fill-rule="evenodd" clip-rule="evenodd" d="M95.3423 97.6357C95.3423 96.3654 96.3803 95.332 97.6559 95.332C98.9315 95.332 99.9683 96.3654 99.9683 97.6357C99.9683 98.9083 98.9315 99.9429 97.6559 99.9429C96.3803 99.9429 95.3423 98.9083 95.3423 97.6357Z" fill="#254854"/>
<path fill-rule="evenodd" clip-rule="evenodd" d="M95.3423 119.329C95.3423 118.059 96.3803 117.023 97.6559 117.023C98.9315 117.023 99.9683 118.059 99.9683 119.329C99.9683 120.602 98.9315 121.636 97.6559 121.636C96.3803 121.636 95.3423 120.602 95.3423 119.329Z" fill="#254854"/>
<path fill-rule="evenodd" clip-rule="evenodd" d="M75.4968 10.8712C75.4968 9.60101 76.5348 8.56641 77.8104 8.56641C79.086 8.56641 80.124 9.60101 80.124 10.8712C80.124 12.1439 79.086 13.1773 77.8104 13.1773C76.5348 13.1773 75.4968 12.1439 75.4968 10.8712Z" fill="#254854"/>
<path fill-rule="evenodd" clip-rule="evenodd" d="M75.4968 32.5639C75.4968 31.2924 76.5348 30.2578 77.8104 30.2578C79.086 30.2578 80.124 31.2924 80.124 32.5639C80.124 33.8365 79.086 34.8699 77.8104 34.8699C76.5348 34.8699 75.4968 33.8365 75.4968 32.5639Z" fill="#254854"/>
<path fill-rule="evenodd" clip-rule="evenodd" d="M75.4968 54.2553C75.4968 52.9826 76.5348 51.9492 77.8104 51.9492C79.086 51.9492 80.124 52.9826 80.124 54.2553C80.124 55.5255 79.086 56.5613 77.8104 56.5613C76.5348 56.5613 75.4968 55.5255 75.4968 54.2553Z" fill="#254854"/>
<path fill-rule="evenodd" clip-rule="evenodd" d="M75.4968 75.9467C75.4968 74.674 76.5348 73.6406 77.8104 73.6406C79.086 73.6406 80.124 74.674 80.124 75.9467C80.124 77.2169 79.086 78.2515 77.8104 78.2515C76.5348 78.2515 75.4968 77.2169 75.4968 75.9467Z" fill="#254854"/>
<path fill-rule="evenodd" clip-rule="evenodd" d="M75.4968 97.6357C75.4968 96.3654 76.5348 95.332 77.8104 95.332C79.086 95.332 80.124 96.3654 80.124 97.6357C80.124 98.9083 79.086 99.9429 77.8104 99.9429C76.5348 99.9429 75.4968 98.9083 75.4968 97.6357Z" fill="#254854"/>
<path fill-rule="evenodd" clip-rule="evenodd" d="M75.4968 119.329C75.4968 118.059 76.5348 117.023 77.8104 117.023C79.086 117.023 80.124 118.059 80.124 119.329C80.124 120.602 79.086 121.636 77.8104 121.636C76.5348 121.636 75.4968 120.602 75.4968 119.329Z" fill="#254854"/>
<path fill-rule="evenodd" clip-rule="evenodd" d="M55.6526 10.8712C55.6526 9.60101 56.6906 8.56641 57.9662 8.56641C59.2418 8.56641 60.2798 9.60101 60.2798 10.8712C60.2798 12.1439 59.2418 13.1773 57.9662 13.1773C56.6906 13.1773 55.6526 12.1439 55.6526 10.8712Z" fill="#254854"/>
<path fill-rule="evenodd" clip-rule="evenodd" d="M55.6526 32.5639C55.6526 31.2924 56.6906 30.2578 57.9662 30.2578C59.2418 30.2578 60.2798 31.2924 60.2798 32.5639C60.2798 33.8365 59.2418 34.8699 57.9662 34.8699C56.6906 34.8699 55.6526 33.8365 55.6526 32.5639Z" fill="#254854"/>
<path fill-rule="evenodd" clip-rule="evenodd" d="M55.6526 54.2553C55.6526 52.9826 56.6906 51.9492 57.9662 51.9492C59.2418 51.9492 60.2798 52.9826 60.2798 54.2553C60.2798 55.5255 59.2418 56.5613 57.9662 56.5613C56.6906 56.5613 55.6526 55.5255 55.6526 54.2553Z" fill="#254854"/>
<path fill-rule="evenodd" clip-rule="evenodd" d="M55.6526 75.9467C55.6526 74.674 56.6906 73.6406 57.9662 73.6406C59.2418 73.6406 60.2798 74.674 60.2798 75.9467C60.2798 77.2169 59.2418 78.2515 57.9662 78.2515C56.6906 78.2515 55.6526 77.2169 55.6526 75.9467Z" fill="#254854"/>
<path fill-rule="evenodd" clip-rule="evenodd" d="M55.6526 97.6357C55.6526 96.3654 56.6906 95.332 57.9662 95.332C59.2418 95.332 60.2798 96.3654 60.2798 97.6357C60.2798 98.9083 59.2418 99.9429 57.9662 99.9429C56.6906 99.9429 55.6526 98.9083 55.6526 97.6357Z" fill="#254854"/>
<path fill-rule="evenodd" clip-rule="evenodd" d="M55.6526 119.329C55.6526 118.059 56.6906 117.023 57.9662 117.023C59.2418 117.023 60.2798 118.059 60.2798 119.329C60.2798 120.602 59.2418 121.636 57.9662 121.636C56.6906 121.636 55.6526 120.602 55.6526 119.329Z" fill="#254854"/>
<path fill-rule="evenodd" clip-rule="evenodd" d="M35.8079 10.8712C35.8079 9.60101 36.8459 8.56641 38.1215 8.56641C39.3971 8.56641 40.4351 9.60101 40.4351 10.8712C40.4351 12.1439 39.3971 13.1773 38.1215 13.1773C36.8459 13.1773 35.8079 12.1439 35.8079 10.8712Z" fill="#254854"/>
<path fill-rule="evenodd" clip-rule="evenodd" d="M35.8079 32.5639C35.8079 31.2924 36.8459 30.2578 38.1215 30.2578C39.3971 30.2578 40.4351 31.2924 40.4351 32.5639C40.4351 33.8365 39.3971 34.8699 38.1215 34.8699C36.8459 34.8699 35.8079 33.8365 35.8079 32.5639Z" fill="#254854"/>
<path fill-rule="evenodd" clip-rule="evenodd" d="M35.8079 54.2553C35.8079 52.9826 36.8459 51.9492 38.1215 51.9492C39.3971 51.9492 40.4351 52.9826 40.4351 54.2553C40.4351 55.5255 39.3971 56.5613 38.1215 56.5613C36.8459 56.5613 35.8079 55.5255 35.8079 54.2553Z" fill="#254854"/>
<path fill-rule="evenodd" clip-rule="evenodd" d="M35.8079 75.9467C35.8079 74.674 36.8459 73.6406 38.1215 73.6406C39.3971 73.6406 40.4351 74.674 40.4351 75.9467C40.4351 77.2169 39.3971 78.2515 38.1215 78.2515C36.8459 78.2515 35.8079 77.2169 35.8079 75.9467Z" fill="#254854"/>
<path fill-rule="evenodd" clip-rule="evenodd" d="M35.8079 97.6357C35.8079 96.3654 36.8459 95.332 38.1215 95.332C39.3971 95.332 40.4351 96.3654 40.4351 97.6357C40.4351 98.9083 39.3971 99.9429 38.1215 99.9429C36.8459 99.9429 35.8079 98.9083 35.8079 97.6357Z" fill="#254854"/>
<path fill-rule="evenodd" clip-rule="evenodd" d="M35.8079 119.329C35.8079 118.059 36.8459 117.023 38.1215 117.023C39.3971 117.023 40.4351 118.059 40.4351 119.329C40.4351 120.602 39.3971 121.636 38.1215 121.636C36.8459 121.636 35.8079 120.602 35.8079 119.329Z" fill="#254854"/>
<path fill-rule="evenodd" clip-rule="evenodd" d="M15.9638 10.8712C15.9638 9.60101 17.0018 8.56641 18.2774 8.56641C19.553 8.56641 20.5898 9.60101 20.5898 10.8712C20.5898 12.1439 19.553 13.1773 18.2774 13.1773C17.0018 13.1773 15.9638 12.1439 15.9638 10.8712Z" fill="#254854"/>
<path fill-rule="evenodd" clip-rule="evenodd" d="M15.9638 32.5639C15.9638 31.2924 17.0018 30.2578 18.2774 30.2578C19.553 30.2578 20.5898 31.2924 20.5898 32.5639C20.5898 33.8365 19.553 34.8699 18.2774 34.8699C17.0018 34.8699 15.9638 33.8365 15.9638 32.5639Z" fill="#254854"/>
<path fill-rule="evenodd" clip-rule="evenodd" d="M15.9638 54.2553C15.9638 52.9826 17.0018 51.9492 18.2774 51.9492C19.553 51.9492 20.5898 52.9826 20.5898 54.2553C20.5898 55.5255 19.553 56.5613 18.2774 56.5613C17.0018 56.5613 15.9638 55.5255 15.9638 54.2553Z" fill="#254854"/>
<path fill-rule="evenodd" clip-rule="evenodd" d="M15.9638 75.9467C15.9638 74.674 17.0018 73.6406 18.2774 73.6406C19.553 73.6406 20.5898 74.674 20.5898 75.9467C20.5898 77.2169 19.553 78.2515 18.2774 78.2515C17.0018 78.2515 15.9638 77.2169 15.9638 75.9467Z" fill="#254854"/>
<path fill-rule="evenodd" clip-rule="evenodd" d="M15.9638 97.6357C15.9638 96.3654 17.0018 95.332 18.2774 95.332C19.553 95.332 20.5898 96.3654 20.5898 97.6357C20.5898 98.9083 19.553 99.9429 18.2774 99.9429C17.0018 99.9429 15.9638 98.9083 15.9638 97.6357Z" fill="#254854"/>
<path fill-rule="evenodd" clip-rule="evenodd" d="M15.9638 119.329C15.9638 118.059 17.0018 117.023 18.2774 117.023C19.553 117.023 20.5898 118.059 20.5898 119.329C20.5898 120.602 19.553 121.636 18.2774 121.636C17.0018 121.636 15.9638 120.602 15.9638 119.329Z" fill="#254854"/>
<path opacity="0.7" fill-rule="evenodd" clip-rule="evenodd" d="M19.7651 102.235C12.6315 102.235 9.06506 93.6053 14.1175 88.5694L88.8202 14.1108C93.8637 9.08379 102.468 12.656 102.468 19.7769L102.468 94.2355C102.468 98.6537 98.8861 102.235 94.4678 102.235L19.7651 102.235Z" fill="#70B9C3"/>
<path d="M11.7651 93.2355C5.52321 93.2355 2.40256 85.6841 6.82344 81.2776L81.5261 6.81907C85.9392 2.42043 93.4678 5.54609 93.4678 11.7769L93.4678 86.2355C93.4678 90.1015 90.3338 93.2355 86.4678 93.2355L11.7651 93.2355Z" stroke="#254854" stroke-width="2"/>
</g>
<defs>
<clipPath id="clip0">
<rect x="120" width="122" height="120" transform="rotate(90 120 0)" fill="white"/>
</clipPath>
</defs>
</svg>
