<svg width="40" height="40" viewBox="0 0 40 40" fill="none" xmlns="http://www.w3.org/2000/svg">
<path d="M20 8C24.971 8 29 12.029 29 17C29 20.0062 26.53 24.746 21.5899 31.2196C21.4817 31.3614 21.3551 31.4881 21.2133 31.5963C20.3791 32.2328 19.2047 32.1125 18.5148 31.346L18.4101 31.2196L18.0914 30.7999C13.3638 24.5408 11 19.9408 11 17C11 12.029 15.029 8 20 8ZM20 10C16.1336 10 13 13.1336 13 17C13 19.313 15.1136 23.4774 19.3894 29.198L19.6843 29.5905L19.8011 29.7439C19.8848 29.8537 20.0417 29.875 20.1515 29.7913C20.1694 29.7777 20.1853 29.7618 20.1989 29.7439L20.3021 29.6084L20.8863 28.827C24.8813 23.4255 26.9048 19.4543 26.9967 17.161L27 17C27 13.1336 23.8664 10 20 10ZM20 13C22.208 13 24 14.7907 24 17C24 19.208 22.208 21 20 21C17.7907 21 16 19.208 16 17C16 14.7907 17.7907 13 20 13ZM20 15C18.8952 15 18 15.8952 18 17C18 18.104 18.8958 19 20 19C21.1034 19 22 18.1034 22 17C22 15.8958 21.104 15 20 15Z" fill="#254854"/>
</svg>
