<svg width="12" height="18" viewBox="0 0 12 18" fill="none" xmlns="http://www.w3.org/2000/svg">
<path d="M10.7484 16.2281C11.0753 16.5254 11.0994 17.0313 10.8022 17.3582C10.5278 17.66 10.0756 17.7037 9.75052 17.4749L9.67208 17.412L0.862048 9.40196C0.53788 9.10722 0.514724 8.61277 0.792583 8.2895L0.862048 8.21811L9.67208 0.208084C9.99899 -0.08914 10.5049 -0.0650754 10.8022 0.261834C11.0765 0.563596 11.0771 1.01792 10.8185 1.31981L10.7484 1.39193L2.91469 8.51407C2.75123 8.66268 2.73919 8.91566 2.8878 9.07911C2.89633 9.0885 2.9053 9.09747 2.91469 9.106L10.7484 16.2281Z" fill="#6E7C8D"/>
</svg>
