<svg width="24" height="24" viewBox="0 0 24 24" fill="none" xmlns="http://www.w3.org/2000/svg">
<path d="M11.9998 4.7998C14.5998 4.7998 15.8998 5.9998 15.8998 8.3998C16.2998 8.7998 16.4998 9.39981 16.4998 10.1998C16.4998 10.9998 16.1998 11.5998 15.5998 11.9998L15.0003 13.1998V13.9637L17.2845 15.1733C18.4629 15.7973 19.1998 17.0214 19.1998 18.3548V19.1998H4.7998V18.3549C4.7998 17.0215 5.53682 15.7973 6.71522 15.1733L8.9998 13.9637V13.1998L8.3998 11.9998C7.7998 11.5998 7.4998 10.9998 7.4998 10.1998C7.4998 9.39981 7.6998 8.7998 8.0998 8.3998C8.0998 5.9998 9.3998 4.7998 11.9998 4.7998ZM11.9998 5.9998C10.0936 5.9998 9.33971 6.64936 9.30136 8.26655L9.2998 8.3998V8.89686L8.94833 9.24833C8.79826 9.39841 8.6998 9.69376 8.6998 10.1998C8.6998 10.5762 8.79257 10.7931 9.00463 10.9577L9.06545 11.0013L9.3306 11.1781L10.1998 12.9165V14.6861L7.27675 16.2338C6.60899 16.5874 6.15383 17.2301 6.03231 17.9609L6.0268 17.9992H17.9722L17.9673 17.9608C17.8529 17.273 17.4431 16.6633 16.8386 16.2991L16.723 16.2338L13.8003 14.6861V12.9167L14.6688 11.1782L14.9342 11.0013C15.1894 10.8312 15.2998 10.6104 15.2998 10.1998C15.2998 9.73593 15.2171 9.4491 15.0877 9.28892L15.0513 9.24833L14.6998 8.89686V8.3998C14.6998 6.68495 13.9576 5.9998 11.9998 5.9998Z" fill="#386D7D"/>
</svg>
