<svg width="10" height="20" viewBox="0 0 10 20" fill="none" xmlns="http://www.w3.org/2000/svg">
<path d="M8.49086 4.76363V14.8C8.49086 16.7287 6.92868 18.2909 4.99995 18.2909C3.07122 18.2909 1.50904 16.7287 1.50904 14.8V3.8909C1.50904 2.68654 2.4865 1.70908 3.69086 1.70908C4.89522 1.70908 5.87268 2.68654 5.87268 3.8909V13.0545C5.87268 13.5345 5.47995 13.9273 4.99995 13.9273C4.51995 13.9273 4.12722 13.5345 4.12722 13.0545V4.76363H2.81813V13.0545C2.81813 14.2589 3.79559 15.2364 4.99995 15.2364C6.20431 15.2364 7.18177 14.2589 7.18177 13.0545V3.8909C7.18177 1.96218 5.61959 0.399994 3.69086 0.399994C1.76213 0.399994 0.199951 1.96218 0.199951 3.8909V14.8C0.199951 17.4531 2.34686 19.6 4.99995 19.6C7.65304 19.6 9.79995 17.4531 9.79995 14.8V4.76363H8.49086Z" fill="#6E7C8D"/>
</svg>
