<svg width="32" height="32" viewBox="0 0 32 32" fill="none" xmlns="http://www.w3.org/2000/svg">
<path d="M19.4911 10.764V20.8004C19.4911 22.7291 17.9289 24.2913 16.0002 24.2913C14.0715 24.2913 12.5093 22.7291 12.5093 20.8004V9.8913C12.5093 8.68694 13.4867 7.70948 14.6911 7.70948C15.8955 7.70948 16.8729 8.68694 16.8729 9.8913V19.0549C16.8729 19.5349 16.4802 19.9277 16.0002 19.9277C15.5202 19.9277 15.1275 19.5349 15.1275 19.0549V10.764H13.8184V19.0549C13.8184 20.2593 14.7958 21.2368 16.0002 21.2368C17.2046 21.2368 18.182 20.2593 18.182 19.0549V9.8913C18.182 7.96257 16.6198 6.40039 14.6911 6.40039C12.7624 6.40039 11.2002 7.96257 11.2002 9.8913V20.8004C11.2002 23.4535 13.3471 25.6004 16.0002 25.6004C18.6533 25.6004 20.8002 23.4535 20.8002 20.8004V10.764H19.4911Z" fill="#7096A1"/>
</svg>
