<svg width="32" height="32" viewBox="0 0 32 32" fill="none" xmlns="http://www.w3.org/2000/svg">
<path fill-rule="evenodd" clip-rule="evenodd" d="M9.96806 11.5114H11.1544C11.5145 11.5114 11.8064 11.2199 11.8064 10.8598V7.05224C11.8064 6.69212 11.5145 6.40039 11.1544 6.40039H9.96806C9.60794 6.40039 9.31602 6.69212 9.31602 7.05224V10.8598C9.31602 11.2199 9.60794 11.5114 9.96806 11.5114ZM23.5036 10.8608V8.53822C24.421 8.56587 25.1747 9.32494 25.1747 10.2579V23.8692C25.1747 24.8181 24.4029 25.6004 23.4538 25.6004H8.12136C7.17083 25.6004 6.40039 24.8197 6.40039 23.8692V10.2579C6.40039 9.32494 7.15419 8.56587 8.07153 8.53822V10.8608C8.07153 11.9105 8.92311 12.7565 9.97268 12.7565H11.1723C12.2218 12.7565 13.0847 11.9105 13.0847 10.8608V8.52988H18.4905V10.8608C18.4905 11.9105 19.3534 12.7565 20.4031 12.7565H21.6024C22.652 12.7565 23.5036 11.9105 23.5036 10.8608ZM22.2026 23.7656C22.6135 23.7656 22.9466 23.4324 22.9466 23.0216L22.9465 15.9909C22.9465 15.5799 22.6135 15.2467 22.2025 15.2467H9.33979C8.92881 15.2467 8.59579 15.5799 8.59579 15.9909V23.0216C8.59579 23.4324 8.92885 23.7656 9.33979 23.7656H22.2026ZM13.1828 16.993C13.1828 16.7525 12.9877 16.5576 12.747 16.5576H11.2262C10.9858 16.5576 10.7906 16.7525 10.7906 16.993V18.5136C10.7906 18.7544 10.9858 18.9493 11.2262 18.9493H12.747C12.9877 18.9493 13.1828 18.7544 13.1828 18.5136V16.993ZM16.9837 16.993C16.9837 16.7525 16.7886 16.5576 16.5483 16.5576H15.0274C14.7869 16.5576 14.5918 16.7525 14.5918 16.993V18.5136C14.5918 18.7544 14.7869 18.9493 15.0274 18.9493H16.5483C16.7886 18.9493 16.9837 18.7544 16.9837 18.5136V16.993ZM20.3484 16.5576C20.5888 16.5576 20.7839 16.7525 20.7839 16.993V18.5136C20.7839 18.7544 20.5888 18.9493 20.3484 18.9493H18.8276C18.5869 18.9493 18.3918 18.7544 18.3918 18.5136V16.993C18.3918 16.7525 18.5869 16.5576 18.8276 16.5576H20.3484ZM13.1828 20.794C13.1828 20.5531 12.9877 20.3584 12.747 20.3584H11.2262C10.9858 20.3584 10.7906 20.5531 10.7906 20.794V22.3143C10.7906 22.555 10.9858 22.7499 11.2262 22.7499H12.747C12.9877 22.7499 13.1828 22.5549 13.1828 22.3143V20.794ZM16.5483 20.3584C16.7886 20.3584 16.9837 20.5531 16.9837 20.794V22.3143C16.9837 22.5549 16.7886 22.7499 16.5483 22.7499H15.0274C14.7869 22.7499 14.5918 22.555 14.5918 22.3143V20.794C14.5918 20.5531 14.7869 20.3584 15.0274 20.3584H16.5483ZM20.7839 20.794C20.7839 20.5531 20.5888 20.3584 20.3486 20.3584H18.8276C18.5869 20.3584 18.3918 20.5531 18.3918 20.794V22.3143C18.3918 22.555 18.5869 22.7499 18.8276 22.7499H20.3486C20.5888 22.7499 20.7839 22.5549 20.7839 22.3143V20.794ZM21.5739 11.5114H20.3876C20.0275 11.5114 19.7355 11.2199 19.7355 10.8598V7.05224C19.7355 6.69212 20.0275 6.40039 20.3876 6.40039H21.5739C21.9338 6.40039 22.2257 6.69212 22.2257 7.05224V10.8598C22.2257 11.2199 21.9337 11.5114 21.5739 11.5114Z" fill="#7096A1"/>
</svg>
