<svg width="20" height="20" viewBox="0 0 20 20" fill="none" xmlns="http://www.w3.org/2000/svg">
<path fill-rule="evenodd" clip-rule="evenodd" d="M3.96757 5.51099H5.15391C5.51399 5.51099 5.80595 5.21946 5.80595 4.85938V1.05184C5.80595 0.691719 5.51399 0.399994 5.15391 0.399994H3.96757C3.60745 0.399994 3.31553 0.691719 3.31553 1.05184V4.85938C3.31553 5.21946 3.60745 5.51099 3.96757 5.51099ZM17.5032 4.86038V2.53782C18.4205 2.56547 19.1743 3.32454 19.1743 4.25754V17.8688C19.1743 18.8177 18.4024 19.6 17.4533 19.6H2.12087C1.17034 19.6 0.399902 18.8193 0.399902 17.8688V4.25754C0.399902 3.32454 1.1537 2.56547 2.07104 2.53782V4.86038C2.07104 5.91015 2.92262 6.7561 3.97219 6.7561H5.17178C6.22132 6.7561 7.08418 5.91015 7.08418 4.86038V2.52949H12.49V4.86038C12.49 5.91015 13.3529 6.7561 14.4026 6.7561H15.6019C16.6515 6.7561 17.5032 5.91015 17.5032 4.86038ZM16.2021 17.7653C16.613 17.7653 16.9461 17.432 16.9461 17.0212L16.9461 9.99049C16.9461 9.57955 16.613 9.24629 16.202 9.24629H3.3393C2.92832 9.24629 2.5953 9.57955 2.5953 9.99049V17.0212C2.5953 17.432 2.92836 17.7653 3.3393 17.7653H16.2021ZM7.18227 10.9926C7.18227 10.7521 6.98718 10.5572 6.74647 10.5572H5.2257C4.98526 10.5572 4.79014 10.7521 4.79014 10.9926V12.5132C4.79014 12.754 4.98526 12.9489 5.2257 12.9489H6.74647C6.98718 12.9489 7.18227 12.754 7.18227 12.5132V10.9926ZM10.9832 10.9926C10.9832 10.7521 10.7881 10.5572 10.5478 10.5572H9.02687C8.78644 10.5572 8.59131 10.7521 8.59131 10.9926V12.5132C8.59131 12.754 8.78644 12.9489 9.02687 12.9489H10.5478C10.7881 12.9489 10.9832 12.754 10.9832 12.5132V10.9926ZM14.3479 10.5572C14.5883 10.5572 14.7834 10.7521 14.7834 10.9926V12.5132C14.7834 12.754 14.5883 12.9489 14.3479 12.9489H12.8271C12.5864 12.9489 12.3913 12.754 12.3913 12.5132V10.9926C12.3913 10.7521 12.5864 10.5572 12.8271 10.5572H14.3479ZM7.18227 14.7936C7.18227 14.5527 6.98718 14.358 6.74647 14.358H5.2257C4.98526 14.358 4.79014 14.5527 4.79014 14.7936V16.3139C4.79014 16.5546 4.98526 16.7495 5.2257 16.7495H6.74647C6.98718 16.7495 7.18227 16.5545 7.18227 16.3139V14.7936ZM10.5478 14.358C10.7881 14.358 10.9832 14.5527 10.9832 14.7936V16.3139C10.9832 16.5545 10.7881 16.7495 10.5478 16.7495H9.02687C8.78644 16.7495 8.59131 16.5546 8.59131 16.3139V14.7936C8.59131 14.5527 8.78644 14.358 9.02687 14.358H10.5478ZM14.7834 14.7936C14.7834 14.5527 14.5883 14.358 14.3481 14.358H12.8271C12.5864 14.358 12.3913 14.5527 12.3913 14.7936V16.3139C12.3913 16.5546 12.5864 16.7495 12.8271 16.7495H14.3481C14.5883 16.7495 14.7834 16.5545 14.7834 16.3139V14.7936ZM15.5734 5.51099H14.3871C14.027 5.51099 13.7351 5.21946 13.7351 4.85938V1.05184C13.7351 0.691719 14.027 0.399994 14.3871 0.399994H15.5734C15.9333 0.399994 16.2252 0.691719 16.2252 1.05184V4.85938C16.2252 5.21946 15.9332 5.51099 15.5734 5.51099Z" fill="#6E7C8D"/>
</svg>
