<svg width="32" height="32" viewBox="0 0 32 32" fill="none" xmlns="http://www.w3.org/2000/svg">
<path d="M17.8142 8.50771C17.8142 9.67155 16.8708 10.615 15.7069 10.615C14.5431 10.615 13.5996 9.67155 13.5996 8.50771C13.5996 7.34387 14.5431 6.40039 15.7069 6.40039C16.8708 6.40039 17.8142 7.34387 17.8142 8.50771ZM17.8142 15.7662C17.8142 16.9301 16.8708 17.8736 15.7069 17.8736C14.5431 17.8736 13.5996 16.9301 13.5996 15.7662C13.5996 14.6024 14.5431 13.6589 15.7069 13.6589C16.8708 13.6589 17.8142 14.6024 17.8142 15.7662ZM17.8142 23.0248C17.8142 24.1886 16.8708 25.1321 15.7069 25.1321C14.5431 25.1321 13.5996 24.1886 13.5996 23.0248C13.5996 21.8609 14.5431 20.9175 15.7069 20.9175C16.8708 20.9175 17.8142 21.8609 17.8142 23.0248Z" fill="#7096A1"/>
</svg>
