<svg width="5" height="20" viewBox="0 0 5 20" fill="none" xmlns="http://www.w3.org/2000/svg">
<path d="M4.81449 2.50731C4.81449 3.67115 3.87101 4.61463 2.70717 4.61463C1.54333 4.61463 0.599854 3.67115 0.599854 2.50731C0.599854 1.34347 1.54333 0.399994 2.70717 0.399994C3.87101 0.399994 4.81449 1.34347 4.81449 2.50731ZM4.81449 9.76585C4.81449 10.9297 3.87101 11.8732 2.70717 11.8732C1.54333 11.8732 0.599854 10.9297 0.599854 9.76585C0.599854 8.60201 1.54333 7.65853 2.70717 7.65853C3.87101 7.65853 4.81449 8.60201 4.81449 9.76585ZM4.81449 17.0244C4.81449 18.1882 3.87101 19.1317 2.70717 19.1317C1.54333 19.1317 0.599854 18.1882 0.599854 17.0244C0.599854 15.8605 1.54333 14.9171 2.70717 14.9171C3.87101 14.9171 4.81449 15.8605 4.81449 17.0244Z" fill="#6E7C8D"/>
</svg>
