<svg width="32" height="32" viewBox="0 0 32 32" fill="none" xmlns="http://www.w3.org/2000/svg">
<path d="M14.8004 6.40039C19.4396 6.40039 23.2004 10.1612 23.2004 14.8004C23.2004 16.8319 22.4792 18.695 21.2789 20.1476L25.2857 24.1543C25.5981 24.4667 25.5981 24.9733 25.2857 25.2857C24.9733 25.5981 24.4667 25.5981 24.1543 25.2857L20.1476 21.2789C18.695 22.4792 16.8319 23.2004 14.8004 23.2004C10.1612 23.2004 6.40039 19.4396 6.40039 14.8004C6.40039 10.1612 10.1612 6.40039 14.8004 6.40039ZM14.8004 8.00039C11.0449 8.00039 8.00039 11.0449 8.00039 14.8004C8.00039 18.5559 11.0449 21.6004 14.8004 21.6004C18.5559 21.6004 21.6004 18.5559 21.6004 14.8004C21.6004 11.0449 18.5559 8.00039 14.8004 8.00039Z" fill="#7096A1"/>
</svg>
