<svg width="20" height="20" viewBox="0 0 20 20" fill="none" xmlns="http://www.w3.org/2000/svg">
<path d="M8.7999 0.399994C13.4391 0.399994 17.1999 4.1608 17.1999 8.79999C17.1999 10.8315 16.4787 12.6946 15.2784 14.1472L19.2852 18.1539C19.5976 18.4663 19.5976 18.9729 19.2852 19.2853C18.9728 19.5977 18.4662 19.5977 18.1538 19.2853L14.1471 15.2785C12.6945 16.4788 10.8314 17.2 8.7999 17.2C4.16071 17.2 0.399902 13.4392 0.399902 8.79999C0.399902 4.1608 4.16071 0.399994 8.7999 0.399994ZM8.7999 1.99999C5.04437 1.99999 1.9999 5.04446 1.9999 8.79999C1.9999 12.5555 5.04437 15.6 8.7999 15.6C12.5554 15.6 15.5999 12.5555 15.5999 8.79999C15.5999 5.04446 12.5554 1.99999 8.7999 1.99999Z" fill="#6E7C8D"/>
</svg>
