<svg width="32" height="32" viewBox="0 0 32 32" fill="none" xmlns="http://www.w3.org/2000/svg">
<path d="M14.045 19.0175C14.0822 19.0175 14.1191 19.0227 14.1549 19.0329L18.5299 20.2829C18.7423 20.3436 18.8653 20.565 18.8046 20.7774C18.7831 20.8528 18.7398 20.9202 18.6803 20.9712L14.3053 24.7213C14.1376 24.865 13.8851 24.8456 13.7413 24.6779C13.6791 24.6054 13.645 24.513 13.645 24.4176V19.4175C13.645 19.1966 13.8241 19.0175 14.045 19.0175ZM24.6707 6.62159C24.7091 6.69837 24.7218 6.78546 24.7069 6.86999L22.5956 18.834C22.5188 19.2691 22.1038 19.5596 21.6687 19.4828C21.6478 19.4791 21.627 19.4746 21.6064 19.4693L17.3192 18.3547C17.0484 18.2843 16.8341 18.0776 16.754 17.8096L16.4609 16.8293C16.4026 16.6344 16.2074 16.5143 16.0071 16.5502L12.5793 17.1639C12.2507 17.2227 11.9134 17.2123 11.589 17.1334L6.70592 15.9454C6.49127 15.8931 6.3596 15.6768 6.41182 15.4621C6.43963 15.3478 6.51637 15.2516 6.6216 15.1989L24.1341 6.44271C24.3316 6.34391 24.5719 6.424 24.6707 6.62159Z" fill="#FFFFFF"/>
</svg>
